<?xml version="1.0" encoding="UTF-8"?><svg id="b" xmlns="http://www.w3.org/2000/svg" viewBox="0 0 250 161"><g id="c"><path d="M59.1,95.52c-.19,0-.38,0-.54-.03-2.19-.08-3.91-1.16-3.91-2.65,0-.76.43-1.65,1.51-2.54l2.48.67c-.57.41-.97.78-.97,1.08,0,.27.35.51,1.27.51h.27c.08-1.38.19-2.7.32-3.94-.27.03-.51.03-.73.03h-.22c-1.32,0-2.59-.24-3.72-.7,0,0-.05-2.75-.05-2.94,0-.22.03-.35.19-.35.05,0,.13.03.24.08.97.49,2.59.92,3.56.95.3,0,.65,0,1-.03.19-2.02.35-3.81.35-5.4,0-.41,0-.78-.03-1.13,0-.08-.03-.13-.03-.19,0-.08.05-.13.19-.13.08,0,2.78.41,3.7.65.32.08.46.19.46.3,0,.16-.35.35-.7.38-.16,1.43-.4,3.1-.67,4.94.84-.22,1.67-.49,2.51-.78l-.05,2.97c0,.11,0,.16-.14.19-.84.27-1.75.51-2.73.73-.13,1.24-.27,2.54-.35,3.81,1.08-.35,2.38-.89,3.91-1.7v1.27c0,.7,0,1.51.05,1.97v.08c0,.38-2.78,1.27-4.13,1.57v.84c0,2.32,1.24,3.24,2.78,3.24,2.54,0,4.86-2.4,4.86-4.75s-1.92-4.62-4.56-6.83c0,0,2.7-.35,3.81-.76.05-.03.11-.03.13-.03.19,0,4.08,3.51,4.08,7.53,0,4.7-4.13,8.02-8.29,8.02-3.29,0-5.88-2.16-5.88-6.26v-.24l.03-.4Z"/><path d="M84.16,91.02c-.08-.11-.13-.19-.13-.24,0-.11.11-.16.3-.19.94-.19,2-.54,3.05-.92,2.92-1.05,5.61-2.24,8.77-2.24,3.94,0,6.48,2.29,6.48,5.78,0,5.13-5.72,8.15-11.66,8.31-.16,0-.27-.03-.38-.19-.49-.84-2.35-2.56-2.67-2.89.38.03.76.03,1.11.03,6.24,0,10.42-2.08,10.42-5.32,0-1.11-.51-2.94-3.43-2.94-2.7,0-4.78,1.16-7.18,2.38-.89.43-1.73.81-2.65,1.08l-2.02-2.65Z"/><path d="M130.59,90.48c-6.02.32-12.55,2.16-12.55,5.26,0,.7.32,2.62,5.53,2.62,2.7,0,5.88-.59,8.48-1.57-.05.27-.62,2.78-.65,4,0,.11-.05.16-.16.19-2.32.54-4.67.84-6.83.84-6.21,0-9.85-2.35-9.85-5.91,0-2.54,2.19-4.8,5.83-6.48-.51-1.24-.65-2.43-.65-3.86,0-.89.05-1.86.05-2.92,0-.86-.05-2.24-.13-3.7,0-.08-.03-.13-.03-.19s.03-.08.11-.08c.24,0,3.46.41,3.97.51.3.05.46.16.46.3,0,.16-.24.32-.65.43-.08.94-.38,4.91-.38,5.86s.13,1.73.46,2.43c.67-.22,1.4-.43,2.19-.62,1.3-.32,3.37-.75,4.43-1.05.08-.03.14-.03.19-.03.13,0,.19.05.19.19v3.78Z"/><path d="M146.41,79h16.41v15.95h-3.13v-.78h-1.19c-.03,1.65-.05,4.16-.05,4.29.03.67.11,1.16,2,1.16,2.92,0,3.27-.84,3.32-4.67,0,0,2.24,2.08,3.1,2.43.08.03.13.08.13.16,0,.05-.03.08-.03.13-.49,3.94-2.24,4.86-6.48,4.86-2.48,0-5.16-.19-5.16-3.37v-.13c.03-1.35.05-3.46.05-4.86h-1.81c-.22,3.97-2.05,7.96-9.18,8.83-.05,0-.08.03-.13.03-.08,0-.16-.05-.19-.13-.38-.81-2.46-2.65-2.46-2.65,7.32-.49,8.61-2.92,8.77-6.07h-.92v.78h-3.08v-15.95ZM159.69,83.32v-1.57h-10.2v1.57h10.2ZM159.69,87.4v-1.62h-10.2v1.62h10.2ZM159.69,91.61v-1.75h-10.2v1.75h10.2Z"/><path d="M174.83,94.04c-.05-.05-.08-.11-.08-.14,0-.24,2.54-2.11,4.8-3.99,3.16-2.62,5.43-5.13,6.37-6.16.03-.03.05-.03.05-.05h-.03s-.08,0-.13.03c-1.84.62-4.02,1.19-5.91,1.19h-.35l-1.19-3.24v-.08c0-.08.03-.11.08-.11h.05c.54.11,1.19.16,1.92.16,2.48,0,5.72-.59,8.04-1.4.3-.11.38-.27.54-.27.32,0,2.92,1.89,2.92,2.32,0,.19-.27.27-.62.41-2.05,1.86-5.02,4.51-6.94,6.21-.05.05-.08.08-.08.11s.03.03.05.03.08,0,.11-.03c.81-.3,2.29-.67,3.67-.67,3.75,0,7.18,2.13,7.18,5.83,0,4.37-4.56,7.83-9.88,7.83-4.48,0-6.61-2.16-6.61-4.21,0-1.67,1.38-3.32,4.08-3.32s4.91,1.81,5.02,4.02c2.65-.84,3.78-2.73,3.78-4.18,0-1.73-1.38-3.21-4.29-3.21-.43,0-.89.05-1.38.11-3.46.46-5.8,1.84-7.88,4.54-.05.08-.11.13-.16.13s-.08-.03-.16-.05l-2.97-1.78ZM184.85,98.68c0-1.92-2.08-1.92-2.19-1.92-.32,0-1.21.05-1.21.81,0,.16.05,1.38,3.37,1.49.03-.13.03-.27.03-.38Z"/><path d="M130.03,161c-.28-.05-.45-.15-.56-.23-.08,0-.14.01-.19.01h-.15c-.11-.02-.21-.05-.3-.07-.13.08-.3.15-.51.16h0c-.22,0-.4-.06-.54-.14-.09.05-.2.08-.32.1h-.06s-.06,0-.06,0c-.17,0-.32-.04-.44-.09-.1.06-.22.12-.37.15h-.07s-.16.02-.16.02c-.09,0-.18-.01-.27-.03h-.01c-.29,0-.51-.09-.65-.18-.08.03-.18.06-.3.08-.07.05-.26.14-.5.15h0c-.21,0-.38-.05-.51-.1-.14.07-.3.13-.5.13-.14,0-.25-.02-.37-.04-.05,0-.09-.01-.13-.02-.13,0-.26-.03-.39-.06-.41-.03-.65-.2-.78-.31-.18-.05-.32-.13-.41-.2h-.23s-.1,0-.1,0c-.08,0-.17-.01-.25-.03-.17.14-.39.27-.68.27-.09.02-.17.03-.26.05-.16.11-.37.24-.67.24-.29-.01-.47-.1-.59-.16,0,0-.01,0-.02,0-.09-.01-.18-.03-.27-.06-.06-.01-.09-.01-.12-.01-.02,0-.03,0-.05,0-.11.01-.2.02-.3.02-.01,0-.02,0-.03,0-.09,0-.13,0-.17,0-.05,0-.1,0-.15.01-.14.08-.35.18-.61.18-.18,0-.33-.04-.43-.07-.14.06-.3.11-.49.11-.22,0-.41-.07-.53-.14-.08.04-.21.07-.35.07h0c-.24,0-.4-.05-.5-.08-.24,0-.42-.09-.55-.15-.08.02-.16.03-.24.04-.15.08-.35.17-.6.17-.27-.01-.46-.09-.57-.14-.11.02-.22.04-.33.04-.23-.01-.34-.03-.44-.05-.06-.01-.12-.02-.17-.03-.02,0-.04,0-.07,0-.12,0-.24,0-.37-.02-.12.06-.28.12-.47.12h-.13c-.09-.02-.17-.05-.24-.08-.13.08-.28.15-.48.16h0c-.3,0-.5-.08-.62-.13-.22-.02-.38-.09-.5-.16-.11.03-.24.06-.39.06h-.01c-.24,0-.42-.04-.6-.08l-.1-.02s-.09.01-.1.01c-.04,0-.08,0-.12,0-.16.08-.34.16-.57.16h-.14c-.24-.05-.42-.16-.56-.27-.13.11-.3.24-.55.3h-.04s-.1.02-.1.02c-.02,0-.03,0-.05,0-.2,0-.3-.03-.37-.04-.04,0-.16.01-.29.01-.06,0-.13,0-.19,0,0,0-.52.04-.52.04-.17,0-.47-.03-.65-.05h-.1c-.12,0-.2-.01-.28-.03-.12-.03-.21-.07-.28-.11-.02,0-.25-.09-.44-.15-.13.06-.28.11-.46.11h-.11c-.14,0-.22.01-.3.01h-.11c-.16.03-.27.05-.39.05h-.14c-.06,0-.33.01-.33.01-.07,0-.13.01-.19.02-.11.02-.28.03-.29.03-.34,0-.54-.09-.65-.14h0c-.13,0-.21,0-.29-.02-.03,0-.07,0-.1,0-.29,0-.49-.09-.62-.15-.09.03-.22.06-.37.06-.22-.01-.38-.06-.49-.1-.14.06-.3.11-.49.11h-.13c-.12.03-.23.04-.35.04-.28-.02-.43-.07-.55-.11-.28-.04-.47-.14-.59-.2,0,0-.01,0-.02,0-.21-.04-.38-.15-.5-.27-.09.03-.19.04-.3.04-.21,0-.36-.05-.47-.09-.13.05-.28.1-.45.1h0c-.3,0-.52-.13-.67-.24h-.05c-.15.11-.34.23-.61.25h-.03c-.23,0-.34-.03-.43-.04h-.12c-.09,0-.18-.02-.27-.03l-.09-.8s-.03.8-.04.8c-.31,0-.53-.12-.65-.21-.12-.03-.23-.07-.31-.12-.1.04-.22.06-.35.07-.09.05-.27.11-.49.11-.27-.01-.46-.1-.59-.18-.08.03-.19.05-.31.06-.11.05-.25.09-.43.09h-.08l-.24-.05c-.12.09-.27.18-.45.22-.18.13-.4.28-.71.28h-.08l-.08-.02c-.25-.05-.42-.17-.53-.25,0,0-.09,0-.09,0-.1,0-.17,0-.25-.02-.12-.02-.22-.05-.3-.08-.14.07-.3.13-.5.13-.23,0-.41-.08-.55-.17-.09.04-.2.07-.32.08h-.01c-.23,0-.4-.05-.54-.11-.11.06-.23.11-.38.12h-.05s-.09,0-.09,0c-.16,0-.26-.02-.35-.04-.3,0-.51-.11-.67-.22-.09.03-.19.05-.3.06-.08.05-.27.12-.5.12-.21,0-.39-.07-.52-.14-.12.06-.27.1-.44.1-.2-.01-.32-.04-.43-.06-.04,0-.09-.02-.13-.03-.16-.02-.3-.06-.39-.09-.4-.05-.62-.24-.75-.36-.18-.06-.31-.16-.4-.23-.12,0-.22,0-.32-.02-.08,0-.17-.03-.25-.05-.17.12-.37.22-.64.22l-.13-.8.02.8c-.08.01-.15.02-.22.02-.15.09-.36.19-.61.19-.36-.04-.55-.15-.65-.21,0,0,0,0-.01,0-.09-.02-.19-.05-.28-.08,0,0-.3-.02-.3-.02-.09,0-.15,0-.22-.01,0,0-.25,0-.28,0-.14.07-.32.14-.54.14-.24-.02-.4-.07-.5-.11-.12.04-.26.08-.42.08-.28-.02-.47-.11-.6-.18-.08.03-.19.05-.32.05-.27-.01-.44-.08-.55-.12-.01,0-.02,0-.02,0-.22-.02-.4-.11-.51-.19-.08,0-.16.02-.24.02-.14.06-.31.13-.53.13-.35-.03-.53-.13-.63-.18-.08,0-.14.01-.21.01-.08,0-.16,0-.25-.02-.11-.02-.21-.05-.32-.07-.06-.02-.12-.03-.17-.04-.13,0-.28-.03-.44-.05-.11.04-.24.08-.4.08h-.09l-.09-.02c-.1-.02-.19-.06-.26-.09-.13.07-.28.12-.45.12-.31-.01-.52-.12-.64-.19-.21-.03-.37-.12-.49-.21-.09.02-.18.03-.28.03h-.12c-.2-.02-.38-.07-.58-.13l-.11-.03s-.02,0-.03,0c-.05,0-.11,0-.19-.01-.14.06-.31.11-.5.11h-.09l-.09-.02c-.27-.06-.46-.2-.6-.33-.14.1-.33.21-.59.24-.01,0-.03,0-.04,0-.3,0-.45-.06-.53-.09h0c-.09,0-.19,0-.3-.02-.07,0-.13-.01-.2-.01l-.52-.02c-.18-.02-.51-.08-.69-.13-.09,0-.22-.02-.37-.08-.12-.05-.2-.11-.25-.14-.04-.02-.26-.13-.44-.23-.1.03-.21.05-.34.05h-.16s-.11-.04-.11-.04c-.18,0-.31-.01-.43-.04l-.17.02c-.08,0-.17,0-.25-.02-.11-.02-.22-.03-.33-.04-.16-.01-.22-.01-.28-.02-.11,0-.22,0-.33-.01-.28-.02-.49-.16-.62-.25,0,0,0,0,0,0-.11-.02-.21-.05-.29-.07-.04-.01-.07-.02-.11-.03-.27-.04-.46-.17-.58-.26-.05.01-.1.01-.15.01-.11,0-.21-.01-.31-.03-.17-.04-.3-.11-.4-.17-.08.03-.19.05-.32.05h-.12l-.18-.04c-.16,0-.33,0-.51-.06-.17-.05-.31-.13-.4-.18-.29-.1-.45-.24-.55-.33,0,0-.02-.01-.02-.02-.21-.08-.35-.23-.44-.37-.03,0-.14,0-.14,0h-.1c-.27-.07-.42-.15-.52-.22-.09.02-.17.02-.25.02h-.09l-.16-.03c-.28-.06-.47-.24-.58-.39-.02,0-.04,0-.06,0-.13.05-.29.11-.48.11h-.11c-.23-.04-.39-.12-.49-.16-.14-.04-.26-.08-.38-.12-.39-.08-.6-.27-.7-.39-.13-.06-.22-.14-.3-.22-.03,0-.19,0-.19,0l-.17-.03-.15.02c-.15,0-.29-.02-.42-.06-.21-.07-.36-.19-.46-.3-.01,0-.03,0-.04,0-.1,0-.2-.01-.29-.03-.05,0-.1.01-.16.01-.17,0-.33-.04-.48-.12-.04-.02-.08-.04-.12-.06-.11.04-.24.08-.39.08h-.14c-.14.05-.29.09-.45.09h-.22l-.27-.13c-.19-.11-.31-.26-.39-.37-.14-.04-.24-.07-.33-.12-.11-.05-.19-.11-.26-.17-.06.01-.14.02-.22.02h-.12l-.19-.05c-.23-.08-.38-.22-.49-.35-.03,0-.2,0-.2,0l-.16-.03c-.21-.05-.37-.17-.48-.29-.06,0-.12.02-.19.02h-.14c-.29-.07-.45-.16-.53-.21-.28-.06-.46-.27-.58-.44-.11,0-.22-.02-.32-.05-.03,0-.07,0-.11,0-.11,0-.26-.02-.42-.08-.19-.08-.33-.2-.43-.31-.03,0-.05,0-.08,0-.17,0-.32-.03-.46-.1-.11-.05-.21-.11-.3-.18-.04-.03-.08-.05-.12-.07-.12-.06-.23-.14-.34-.22-.37-.19-.51-.47-.59-.62-.15-.13-.24-.27-.29-.38,0,0,0,0-.01,0-.11-.05-.2-.09-.29-.14-.08-.04-.15-.09-.22-.15-.08.02-.18.04-.28.04h-.22l-.28-.13c-.06,0-.14-.03-.22-.06-.08.01-.15.02-.22.02-.21,0-.4-.05-.56-.16-.2-.12-.32-.29-.39-.4,0,0,0,0,0,0-.08-.06-.16-.13-.23-.19l-.14-.09c-.11-.05-.23-.1-.33-.16-.04-.02-.08-.04-.12-.06-.05-.02-.1-.05-.15-.07h-.02c-.16,0-.39-.02-.62-.15-.16-.09-.27-.21-.35-.29-.15-.02-.32-.06-.48-.16-.2-.12-.32-.28-.39-.41-.1-.02-.23-.05-.36-.13-.19-.1-.31-.24-.39-.33-.01-.01-.02-.02-.02-.02-.2-.12-.31-.28-.38-.4-.09-.03-.18-.07-.27-.12-.18-.02-.42-.05-.64-.21-.19-.13-.3-.3-.36-.4-.12-.06-.27-.12-.41-.23-.09-.07-.17-.15-.25-.22-.04-.04-.09-.08-.13-.12-.12-.08-.25-.17-.38-.27-.18-.03-.41-.09-.61-.29-.05-.06-.1-.11-.13-.17-.18,0-.34-.06-.48-.15-.22-.14-.35-.33-.42-.45-.18-.13-.28-.31-.34-.46-.12-.04-.25-.1-.37-.19-.18-.11-.31-.27-.46-.44l-.08-.09c-.06-.04-.13-.09-.19-.14-.22-.04-.48-.12-.69-.35-.15-.17-.23-.36-.27-.53-.05,0-.08,0-.12,0-.19,0-.37-.04-.53-.12-.24-.13-.37-.29-.43-.38-.04-.03-.14-.11-.25-.19-.05-.04-.1-.08-.15-.12l-1.15-.82.08-.09s-.08-.08-.12-.13c-.08-.11-.12-.21-.14-.26-.03-.04-.16-.26-.26-.45-.17-.06-.36-.15-.51-.33-.13-.09-.24-.17-.34-.29-.1-.04-.22-.12-.34-.24-.07-.07-.15-.13-.22-.19l-.1-.09s-.09-.07-.13-.1c-.1-.07-.2-.14-.29-.21-.22-.18-.31-.41-.37-.55,0,0,0,0,0,0-.07-.07-.14-.15-.2-.23-.03-.03-.05-.06-.07-.09-.21-.19-.29-.41-.34-.55-.1-.05-.24-.14-.37-.27-.12-.14-.2-.28-.25-.38-.16-.07-.35-.17-.5-.36-.15-.11-.27-.2-.39-.34-.11-.14-.18-.29-.22-.39-.17-.24-.23-.45-.26-.58,0,0,0-.02,0-.02-.12-.19-.16-.39-.15-.57-.1-.06-.2-.14-.29-.25-.11-.14-.17-.28-.22-.39-.13-.06-.26-.15-.39-.28-.2-.21-.24-.47-.26-.66-.02-.02-.04-.03-.06-.05-.17-.04-.39-.12-.58-.3-.15-.15-.23-.31-.29-.41-.08-.1-.15-.21-.22-.32-.26-.29-.3-.57-.32-.73-.06-.12-.09-.24-.11-.34-.09-.06-.19-.13-.28-.23-.13-.07-.3-.18-.44-.38-.13-.2-.18-.4-.19-.55-.08-.06-.16-.13-.24-.23-.14-.08-.33-.22-.44-.48l-.05-.11c-.15-.04-.32-.11-.46-.25-.27-.09-.62-.24-.76-.64-.08-.19-.07-.39-.06-.52-.09-.12-.15-.21-.19-.3-.05-.11-.08-.21-.1-.31-.14-.08-.29-.18-.41-.36-.13-.19-.16-.39-.16-.56-.1-.06-.19-.14-.27-.25-.14-.19-.19-.38-.2-.55-.11-.06-.22-.15-.32-.27-.13-.16-.19-.33-.23-.42-.18-.23-.19-.5-.17-.71-.08-.06-.16-.15-.24-.27-.09-.05-.25-.18-.36-.39-.1-.18-.13-.37-.13-.52-.13-.1-.27-.23-.36-.42-.05-.1-.08-.21-.12-.31-.02-.06-.03-.11-.05-.15-.06-.13-.09-.26-.12-.39-.17-.39-.1-.7-.06-.87-.03-.19,0-.36.02-.48,0,0,0-.01,0-.02-.05-.1-.09-.19-.13-.29-.03-.08-.06-.17-.08-.26-.21-.11-.43-.28-.54-.57-.04-.05-.1-.12-.15-.22-.18-.12-.39-.29-.49-.6-.07-.22-.05-.43-.04-.55,0,0,0-.01,0-.02-.02-.1-.04-.2-.05-.3-.02-.11-.04-.14-.06-.17-.06-.11-.11-.22-.15-.33-.02-.04-.04-.09-.06-.13-.02-.05-.05-.1-.07-.15-.14-.13-.32-.3-.4-.57-.05-.16-.06-.31-.06-.42-.1-.12-.2-.25-.26-.44-.07-.22-.06-.42-.03-.56-.06-.08-.14-.19-.19-.33-.08-.2-.08-.39-.08-.51-.08-.24-.05-.47-.02-.62-.04-.09-.08-.16-.11-.24-.13-.14-.28-.32-.34-.58-.05-.22-.03-.42-.01-.54-.06-.14-.12-.28-.16-.45-.03-.14-.04-.28-.05-.42v-.09c-.05-.17-.08-.33-.1-.48-.11-.13-.24-.33-.25-.6,0-.08,0-.16.01-.22-.11-.11-.22-.25-.27-.44-.07-.25-.04-.47-.02-.61-.05-.24,0-.45.06-.6-.06-.11-.11-.25-.14-.4-.04-.19-.04-.38-.04-.6l.8-.09h-.8c-.02-.07-.04-.15-.05-.25-.14-.19-.28-.41-.28-.72,0-.24.08-.44.17-.61-.13-.11-.29-.27-.39-.52-.09-.24-.07-.45-.06-.57-.01-.05-.04-.17-.06-.31-.01-.06-.02-.14-.04-.2l-.13-.57v-.05c-.01-.08-.01-.43,0-.61-.01-.09-.03-.22,0-.38.02-.11.05-.21.08-.26,0-.04.07-.29.12-.49-.09-.16-.17-.35-.16-.6-.04-.19-.06-.31-.06-.43-.04-.13-.07-.27-.08-.44,0-.12-.01-.23-.02-.33v-.11c-.02-.07-.03-.14-.05-.2-.02-.09-.04-.18-.05-.27-.04-.29.05-.53.1-.67,0-.12,0-.22,0-.31,0-.04,0-.08,0-.11-.02-.3.07-.53.13-.66-.04-.11-.08-.27-.07-.46,0-.18.05-.32.09-.43-.07-.16-.14-.36-.12-.59-.04-.18-.06-.33-.05-.52.01-.18.06-.33.1-.43.03-.3.15-.51.22-.63,0-.01.01-.02.01-.02.05-.22.17-.39.29-.51-.03-.1-.04-.22-.04-.34.01-.18.07-.33.11-.44-.05-.13-.09-.29-.09-.47,0-.3.15-.52.27-.67,0-.03,0-.06,0-.09-.09-.16-.2-.36-.19-.63,0-.19.05-.35.08-.45.01-.13.03-.26.06-.38.01-.39.17-.63.27-.75.04-.13.1-.24.16-.32-.03-.12-.05-.26-.03-.41-.04-.12-.08-.32-.04-.55.04-.21.14-.38.23-.5-.02-.1-.03-.21-.02-.33-.04-.15-.09-.39.01-.66l.04-.11c-.09-.14-.16-.32-.17-.52-.12-.24-.25-.57-.1-.94.09-.21.22-.35.32-.44.02-.15.04-.25.07-.35.04-.11.09-.21.14-.29-.05-.15-.09-.33-.05-.54.04-.23.15-.4.27-.52-.03-.11-.04-.23-.03-.37.02-.23.12-.4.23-.53-.04-.12-.06-.26-.05-.41.02-.22.09-.38.13-.47.02-.28.2-.48.35-.62-.01-.09-.02-.2,0-.32-.03-.12-.06-.32,0-.56.05-.2.16-.36.26-.47-.03-.16-.04-.35.03-.55.04-.11.08-.21.13-.32.02-.04.04-.09.06-.13.04-.13.1-.24.17-.35l.05-.09c.11-.31.34-.48.48-.58.11-.17.24-.28.34-.36,0,0,0-.01,0-.02.03-.11.07-.21.11-.31.04-.09.08-.16.12-.24-.08-.22-.13-.49,0-.78,0-.07.01-.14.03-.23-.06-.21-.11-.47.02-.76.09-.22.24-.37.33-.45,0,0,0,0,0,0,.06-.12.13-.22.18-.29.05-.08.06-.12.07-.15.03-.12.07-.23.12-.34.02-.04.03-.08.04-.13.02-.05.03-.11.05-.16-.02-.18-.04-.41.07-.65.07-.16.16-.28.23-.36,0-.15,0-.32.08-.5.09-.22.23-.36.35-.46,0-.11.03-.24.09-.38.08-.2.2-.34.28-.43.09-.21.25-.36.37-.45.02-.09.04-.17.07-.25-.01-.18-.01-.42.11-.66.11-.21.25-.34.34-.42.04-.13.08-.29.18-.46.06-.1.13-.19.19-.27.04-.06.08-.1.11-.15.06-.12.13-.26.22-.4,0-.17.03-.41.2-.63.05-.06.09-.11.15-.15-.02-.16,0-.33.07-.5.1-.24.27-.39.38-.48.11-.21.27-.33.41-.41.02-.13.07-.26.15-.4.08-.17.21-.31.35-.48l.08-.09c.02-.06.06-.13.11-.2,0-.23.04-.49.23-.73.14-.17.32-.28.48-.35-.04-.18-.07-.41.02-.67.08-.24.23-.39.31-.47.02-.04.08-.15.15-.27.03-.06.07-.11.1-.17l.62-1.25.1.06s.07-.09.12-.14c.09-.09.19-.15.23-.18.03-.02.22-.19.37-.32.03-.18.08-.39.24-.57.07-.15.13-.26.22-.37.03-.1.08-.24.18-.38.06-.09.11-.17.16-.26l.06-.1c.03-.06.06-.12.08-.17.04-.1.08-.17.12-.25.14-.26.35-.4.47-.48.05-.08.11-.16.18-.24.03-.03.05-.06.07-.09.14-.24.35-.37.49-.45.04-.12.1-.26.21-.41.1-.13.22-.22.31-.29.03-.17.09-.36.24-.54.07-.16.14-.3.25-.45.12-.14.24-.24.33-.3.2-.22.4-.32.51-.38,0,0,.01,0,.02,0,.16-.16.35-.23.52-.27.03-.1.09-.21.16-.31.12-.15.25-.24.34-.31.03-.14.08-.29.19-.43.17-.24.41-.34.59-.4,0-.02.02-.04.03-.05,0-.18.02-.41.17-.64.1-.16.23-.28.31-.34.08-.1.16-.2.24-.29.22-.33.48-.45.63-.5.1-.09.21-.15.32-.19.03-.1.08-.21.16-.32.03-.13.1-.32.26-.5.14-.16.32-.25.45-.3.04-.09.08-.19.15-.28.04-.15.13-.38.35-.56l.08-.07c0-.16.02-.33.11-.5.01-.28.07-.64.4-.89.18-.13.36-.18.49-.21.08-.11.15-.19.23-.26.09-.08.18-.13.26-.18.03-.16.09-.33.23-.49.14-.17.32-.26.48-.31.03-.1.07-.21.14-.31.13-.19.29-.29.44-.36.02-.13.07-.26.16-.39.13-.19.27-.3.35-.35.15-.23.4-.32.61-.36.03-.08.08-.18.16-.27.02-.09.08-.28.24-.46.14-.16.3-.25.44-.3.05-.16.12-.32.27-.47.09-.08.18-.15.27-.22.04-.03.07-.05.11-.08.12-.11.24-.19.32-.24.3-.28.61-.32.78-.34.17-.09.33-.13.45-.15,0,0,0,0,0,0,.07-.08.15-.15.23-.22.07-.06.14-.11.21-.16.03-.23.11-.5.35-.7.03-.05.07-.11.12-.18.04-.2.12-.47.35-.67.19-.16.39-.22.51-.26,0,0,0,0,0,0,.08-.06.17-.11.25-.16l.14-.11c.09-.1.17-.18.26-.26.03-.03.06-.06.09-.1.04-.04.07-.08.11-.11.06-.17.15-.39.35-.56.13-.11.26-.18.36-.22.06-.13.15-.28.29-.41.17-.15.35-.22.5-.26.04-.08.11-.19.22-.3.16-.15.32-.23.43-.28.01,0,.02,0,.02-.01.18-.16.38-.22.51-.25.05-.07.11-.13.16-.19.07-.17.17-.38.38-.55.18-.14.37-.2.48-.24.08-.09.18-.21.33-.32.09-.06.19-.12.28-.18.06-.03.1-.06.15-.09.1-.09.22-.19.35-.28.07-.16.19-.36.43-.5.07-.04.14-.07.2-.09.05-.15.13-.3.27-.43.2-.17.41-.24.54-.28.12-.1.29-.18.53-.2.07-.1.16-.21.28-.3.14-.13.32-.22.52-.32l.09-.05s.1-.09.17-.14c.09-.2.23-.44.49-.58.17-.09.36-.14.59-.14.03-.17.09-.38.26-.58.17-.2.36-.28.47-.33.02-.03.12-.11.23-.19.05-.04.11-.08.15-.13l.39-.35c.13-.1.41-.28.56-.36.06-.06.17-.14.31-.2.12-.05.22-.07.28-.08.03-.01.27-.09.46-.15.09-.16.22-.33.43-.44.13-.12.23-.2.34-.26.06-.08.16-.19.3-.29.09-.06.17-.12.25-.19l.08-.07c.06-.04.1-.09.15-.13.07-.07.13-.13.2-.19.22-.19.46-.24.61-.27.09-.07.18-.12.25-.16.03-.02.07-.03.1-.06.21-.17.44-.22.59-.24.08-.1.19-.22.35-.31.15-.09.29-.13.4-.16.09-.15.21-.31.41-.42.11-.11.23-.23.39-.32.15-.09.31-.13.41-.16.27-.13.49-.16.62-.17,0,0,.11-.06.11-.06l.3-.02c.06,0,.12,0,.18.01.06-.08.14-.16.25-.22.16-.1.32-.15.44-.18.08-.12.18-.24.33-.34.17-.11.36-.17.58-.17.03,0,.07,0,.1,0,.01-.01.03-.03.04-.04.07-.17.17-.38.37-.54.15-.12.31-.18.41-.22.1-.06.21-.13.32-.18.35-.25.65-.25.75-.25h.01c.11-.04.22-.07.34-.07.07-.09.16-.18.28-.26.06-.1.19-.26.41-.38.15-.08.33-.13.53-.13.06-.07.14-.15.24-.21.09-.13.25-.31.52-.4l.1-.03c.05-.15.13-.3.27-.43.1-.25.26-.57.64-.7.12-.04.24-.06.37-.06.06,0,.11,0,.17,0,.12-.08.22-.13.32-.18.11-.04.21-.07.3-.08.08-.13.2-.27.38-.38.15-.09.32-.13.5-.13.02,0,.03,0,.05,0,.06-.09.14-.17.24-.24.15-.11.33-.17.54-.19.06-.11.14-.21.26-.3.18-.14.35-.2.44-.23.07-.05.27-.16.55-.16.04,0,.09,0,.14,0,.06-.07.14-.14.24-.21.05-.09.17-.24.38-.36.16-.09.32-.13.51-.14.09-.13.22-.26.41-.35.1-.05.21-.08.32-.12.05-.02.1-.03.14-.05.12-.06.25-.09.38-.12.2-.08.35-.11.5-.11.13,0,.24.02.32.04.07-.02.15-.02.23-.02s.16,0,.24.02c.11-.06.22-.11.33-.16.07-.03.15-.05.23-.08.1-.2.26-.43.56-.55.04-.04.1-.09.17-.13.1-.18.26-.41.56-.53.18-.07.35-.08.46-.08h.1c.09-.03.19-.05.29-.07.09-.02.12-.04.15-.06.11-.07.21-.12.32-.17.04-.02.08-.04.12-.06.05-.03.1-.06.15-.08.11-.15.26-.32.51-.43.16-.06.31-.08.42-.09.1-.11.23-.22.41-.29.13-.06.28-.09.44-.09.04,0,.08,0,.11,0,.07-.07.17-.15.3-.21.19-.09.38-.11.49-.13.01,0,.03,0,.03,0,.13-.05.27-.08.43-.08.04,0,.08,0,.11,0,.07-.05.14-.09.21-.13.12-.14.27-.32.53-.41.19-.07.37-.08.48-.08h.07c.14-.08.26-.15.42-.2.11-.03.21-.05.32-.08.06-.01.12-.02.17-.04.12-.05.27-.1.42-.15.12-.13.3-.28.56-.34h.06s.12-.01.14-.01c.09-.13.21-.25.39-.33.22-.1.41-.11.54-.11l.05-.04.35-.02c.08,0,.16.01.23.03.1-.08.22-.15.36-.2.18-.08.37-.11.59-.14l.1-.02c.05-.03.12-.06.21-.08.15-.16.35-.35.65-.4h.05s.05-.01.06-.01c.19,0,.35.03.47.06.08-.15.2-.34.42-.48.22-.14.43-.17.54-.18.05-.03.17-.07.3-.12.06-.02.12-.04.18-.07l1.28-.56.04.11c.05-.01.11-.02.18-.03.02,0,.05,0,.07,0,.13,0,.18,0,.23.01,0,0,.4,0,.47,0,.13-.12.3-.25.53-.29.16-.08.28-.13.4-.16.08-.06.21-.14.38-.19.12-.03.21-.07.31-.11l.1-.04c.07-.03.12-.06.18-.08.08-.04.16-.08.25-.11.14-.06.28-.09.45-.09.07,0,.15,0,.22.01.11-.03.21-.05.28-.07.04,0,.08-.01.11-.03.12-.04.25-.07.39-.07.08,0,.16,0,.25.02.1-.07.23-.15.41-.19.11-.03.22-.04.34-.04h.08c.13-.11.29-.23.52-.29.17-.09.31-.15.49-.19.1-.02.2-.03.31-.03h.23s.08-.01.08-.01h.1c.14,0,.27.02.35.04,0,0,0,0,0,0h.1c.19,0,.36.05.49.12.09-.06.19-.11.31-.14.11-.03.22-.04.34-.04h.11c.11-.09.24-.18.41-.23l.08-.03h.12s.07-.01.07-.01c.18,0,.32.04.43.08.02-.01.05-.02.07-.03.11-.14.27-.3.52-.39.18-.06.34-.07.45-.08.13-.03.25-.06.38-.08.18-.05.3-.07.41-.07.16,0,.3.04.39.07h.06c.1,0,.2.01.28.03.09-.06.19-.12.32-.16.1-.09.27-.2.51-.25l.08-.02s.08,0,.08,0c.17,0,.3.02.39.05.09-.05.19-.1.31-.14.12-.09.33-.22.62-.22h.11c.09-.12.22-.25.39-.32.18-.21.43-.46.83-.47.23,0,.41.07.53.12.12-.04.23-.07.33-.08.02,0,.04,0,.05,0,.11,0,.19,0,.25.01.12-.11.27-.21.47-.26l.07-.02s.08,0,.08,0c.17,0,.32.03.43.07.09-.06.19-.12.31-.16l.06-.02.12-.02h.11c.09,0,.18,0,.26.02.09-.08.2-.15.34-.21.21-.08.39-.08.49-.08l.11-.04s.06.01.06.01c.23,0,.4.04.52.09.08-.05.18-.1.29-.13.06-.07.23-.18.46-.23l.08-.02s.08,0,.09,0c.16,0,.28.02.38.04.03-.02.07-.05.1-.07v-.14l.9-.02h.17c.08,0,.15,0,.22,0l.1.8v-.8h.01c.36,0,.58.12.7.19.19.02.34.09.44.14,0,0,0,0,.01,0,.11-.02.21-.04.31-.05.06,0,.12,0,.18,0h.08c.16-.17.39-.34.71-.36.05-.02.13-.05.21-.07.15-.14.38-.3.69-.32h0c.27,0,.44.06.55.1,0,0,0,0,.01,0,.13,0,.21.01.29.02.02,0,.04,0,.06,0,.05,0,.07,0,.1-.01.12-.03.24-.05.35-.06.05,0,.09-.01.14-.02.05-.01.1-.02.15-.03.14-.1.34-.23.6-.25.02,0,.03,0,.05,0,.19,0,.3.02.38.03.13-.07.3-.15.5-.16h.01c.23,0,.4.05.52.09.11-.04.22-.08.36-.1h.05s.08,0,.08,0c.18,0,.31.03.38.04.28,0,.46.06.58.11.07-.03.15-.05.23-.07.15-.1.36-.22.63-.23h0c.25,0,.42.05.52.09.12-.03.28-.07.45-.07.14,0,.25.02.35.03.07,0,.13.02.18.02.04,0,.17-.01.3-.01.05,0,.1,0,.15,0,.13-.07.3-.15.52-.15.12.01.23.04.31.06.13-.09.28-.17.48-.19.01,0,.02,0,.03,0,.3,0,.47.05.58.09h.03c.21,0,.38.07.5.14.1-.04.24-.08.39-.09h.13c.12,0,.3.02.5.05l.11.02h.17s.04-.01.06-.01c.16-.09.36-.18.6-.18h.11c.24.04.43.14.57.25.12-.12.3-.25.55-.32l.1-.03h.17c.13,0,.23.01.3.03.04,0,.17-.02.3-.02.07,0,.13,0,.2-.01.15-.02.37-.04.57-.05l.87-.05v.11c.06,0,.11.01.16.03.12.03.22.08.27.11.04.01.26.09.45.16.13-.06.29-.11.47-.11h.11c.16,0,.24-.02.32-.02h.11c.11-.02.24-.05.39-.05h.12s.39-.01.39-.01c.06,0,.12-.01.18-.02.09-.01.18-.02.27-.03h0c.33,0,.54.1.65.15h0c.11,0,.2.01.28.02.05,0,.08.01.12.01.28,0,.48.09.61.16.09-.03.21-.05.35-.05.24.02.4.06.51.11.13-.06.29-.11.48-.11h.11c.15-.02.26-.04.36-.04h.14c.19.03.34.08.43.12.3.05.49.16.6.23.01,0,.02.01.02.01.22.05.38.17.49.29.08-.02.17-.03.26-.03.24.02.4.07.51.11.12-.05.27-.09.44-.09.31,0,.53.14.68.26.02,0,.04,0,.06,0,.15-.1.35-.21.62-.22h0c.22,0,.37.04.46.06.18.01.28.02.39.04.4.01.63.16.76.26.13.03.23.09.32.15.1-.03.2-.05.32-.05.12-.04.28-.08.46-.08.31.03.51.12.64.21.08-.02.18-.04.29-.04h.03c.09-.03.22-.07.38-.07h.11l.17.04.1.03c.12-.09.28-.17.47-.19.18-.12.4-.23.67-.23h.1l.1.03c.26.07.44.21.54.3.14,0,.24.02.35.04.11.03.21.07.29.11.12-.05.27-.1.44-.1.27.02.47.11.61.22.1-.04.21-.06.34-.06.23,0,.41.07.55.15.11-.05.24-.09.39-.1h0c.25,0,.4.04.48.07.3,0,.52.15.67.29.07-.02.16-.03.25-.03.12-.03.27-.08.45-.08.28.02.48.11.61.19.11-.04.23-.06.36-.06h.12c.17.04.28.07.39.11.05.01.09.03.13.04.16.03.3.09.39.12.39.09.6.3.71.42.17.08.3.19.39.28,0,0,.02,0,.02,0,.11.02.21.03.32.06.08.02.16.05.24.08.15-.08.33-.15.54-.15h.15s.26.02.3.02c.14-.06.31-.13.52-.13h.08l.08.02c.29.06.47.2.57.27,0,0,0,0,.01,0,.09.03.18.07.27.11.09.04.13.04.16.04.13,0,.24.02.35.05.05.01.09.01.14.02.07,0,.13.02.2.03.05-.03.2-.08.39-.08h.04l.15.02h.05c.16.05.3.12.39.18.08-.02.16-.03.26-.03h.08l.15.02c.22.05.39.16.5.25.05,0,.1-.01.15-.01h.07l.15.02c.21.04.37.13.47.18.02,0,.03.01.03.02.22.05.38.16.49.25.09,0,.18,0,.27.02.08-.03.22-.07.39-.07h.1l.17.04c.22.06.39.18.49.25.13.02.29.03.46.09.1.04.2.08.3.13.06.03.11.05.16.07.13.03.28.07.43.12.07-.02.16-.03.25-.03h.18l.23.09c.06.03.12.06.17.1.1-.03.2-.05.32-.05h.14c.28.06.48.19.59.28.22.06.37.18.48.3.02,0,.04,0,.06,0,.13,0,.26.02.38.05.19.04.36.13.56.24l.09.05c.06.01.14.03.23.06.1-.02.2-.04.31-.04h.19l.26.1c.2.1.34.24.44.38.14-.07.33-.14.56-.14.32.01.51.12.6.17.04,0,.16.03.28.07.07.02.14.04.2.05.15.03.36.08.55.12.14.04.44.17.61.25.08.02.21.06.35.14.11.07.18.14.22.18.03.02.22.16.38.28.06,0,.12-.01.17-.01.16,0,.3.03.44.09.18.03.3.06.41.11,0,0,0,0,.01,0,.1,0,.24.02.4.07.1.04.2.06.3.09l.11.03c.05.01.11.02.17.03.12.02.22.04.33.07.27.07.46.24.57.34,0,0,0,0,0,0,.09.03.18.07.27.11.04.02.07.03.1.05.26.08.43.23.54.34.12,0,.28.02.44.09.16.06.28.15.36.22.05,0,.1,0,.15,0,.16,0,.31.03.44.09.17.02.33.05.5.12.16.07.29.17.37.23.28.14.43.32.52.42,0,0,0,0,.01.01.19.11.31.28.38.43.12,0,.23.03.33.08.17.07.29.16.38.24h.07c.15,0,.28.02.4.06.28.1.44.29.54.45.03,0,.05.01.08.02.07-.03.2-.06.35-.06h.12l.18.04c.18.05.32.14.41.2.16.06.29.13.38.18.36.12.53.34.62.48.11.07.19.16.26.24.12,0,.24.03.35.07.02,0,.03,0,.05,0,.13,0,.32.02.51.11.2.09.33.23.42.35.1,0,.2.03.31.07h0c.26,0,.46.06.63.18l.09.06c.1-.03.2-.05.31-.05h.29c.09-.01.19-.03.29-.03.27,0,.46.1.57.18.19.14.29.3.35.42.13.05.23.09.32.15.1.06.18.13.24.19.04,0,.07,0,.1,0,.15,0,.29.03.42.09.2.09.34.23.43.37h.14l.2.05c.21.07.36.2.46.32.03,0,.23,0,.23,0l.21.05c.2.06.34.17.42.23.26.08.42.3.51.48.09,0,.19.03.3.07.02,0,.04,0,.07,0,.11,0,.27.02.44.1.19.09.32.22.41.34.19,0,.37.04.53.13.1.06.2.12.29.19.04.03.08.06.12.08.14.08.25.18.32.24.35.22.47.49.54.64.14.13.22.29.27.4h0c.1.06.19.1.28.16.07.05.14.1.21.15.07-.01.14-.02.22-.02.2,0,.39.05.55.16.06.01.13.03.21.07.07,0,.13-.01.18-.01.21,0,.41.05.57.16.21.14.32.31.39.41,0,0,0,0,0,0,.08.06.15.13.22.19.07.06.11.08.14.09.11.05.22.1.32.16.04.02.08.04.13.06.05.02.09.05.14.07.18,0,.41.02.63.16.14.09.24.19.31.27.15.02.31.06.47.15.19.11.31.27.39.39.09.01.21.05.34.12.19.1.31.23.39.32.01.01.02.02.02.02.19.12.31.27.38.39.08.03.15.06.23.09.18,0,.42.03.64.18.19.13.31.28.38.38.12.05.26.1.41.21.09.06.17.13.25.21.05.04.09.08.13.11.12.06.24.15.37.24.17.01.41.06.61.25.05.05.1.1.13.15,0,0,.23,0,.23,0l.26.11c.22.12.36.29.44.41.19.12.3.28.37.43.12.03.25.08.38.16.17.09.32.23.47.38l.07.07s.12.06.2.12c.22.02.49.07.71.27.16.15.26.33.32.49.06-.01.15-.03.25-.03.13,0,.26.02.38.06.25.09.4.24.48.32.03.01.14.07.24.14.07.04.13.08.18.11l1.24.66-.07.1s.08.07.13.12c.09.1.14.18.17.23.02.03.17.22.29.38.17.03.38.08.56.24.13.06.25.13.37.22.1.03.24.09.38.19.09.06.17.11.26.16l.1.06c.06.03.11.06.17.08.1.05.18.08.26.13.26.14.39.35.47.48.1.07.18.13.24.19.03.03.06.05.09.07.23.14.35.34.42.47.12.03.26.09.4.21.13.1.22.22.29.31.17.03.37.09.54.23.16.07.31.14.45.26.15.12.24.25.3.34.22.2.31.4.37.51,0,0,0,.01,0,.01.16.16.23.34.26.51.1.03.2.08.3.15.15.11.25.24.31.34.14.03.29.08.44.19.24.17.35.4.4.58.02,0,.04.02.05.03.18,0,.41.02.63.16.17.1.28.23.35.31.1.08.2.16.29.25.32.22.43.47.49.63.09.1.14.2.18.29.1.03.21.08.32.15.14.03.33.1.52.26.17.15.26.32.31.46.09.04.19.08.28.15.16.04.38.13.56.35l.06.08s.02,0,.03,0c.2,0,.35.05.47.11.28.01.64.06.89.38.13.17.19.36.22.49.11.08.19.15.26.23.08.09.14.18.18.26.16.03.33.09.49.22.17.14.27.32.32.48.1.03.21.07.32.15.19.13.29.3.36.45.12.02.25.07.38.15.19.12.3.26.36.34.23.15.33.39.37.6.09.04.19.09.29.17.08,0,.27.07.45.23.16.14.25.3.3.44.16.05.32.12.47.28.08.08.15.17.22.26.04.05.06.09.1.12.11.11.19.24.24.32.28.3.32.61.34.78.09.17.13.33.15.45,0,0,0,0,.01,0,.08.08.16.15.23.23.05.06.11.13.15.2.23.03.5.1.7.34.05.03.12.07.19.13.2.04.47.12.67.37.16.19.21.39.25.51,0,0,0,.01,0,.02.06.08.11.17.15.26.05.08.08.1.11.13.09.08.18.16.26.25.03.04.07.07.1.1.04.04.08.07.11.11.17.06.39.14.56.34.12.13.19.28.24.38.13.07.28.15.41.3.15.17.21.36.25.5.09.04.2.12.3.23.14.15.22.32.27.43,0,.02.01.03.01.03.15.17.21.36.24.5.08.06.14.12.21.18.17.07.38.17.55.39.14.18.19.37.23.48.1.1.22.2.32.35.06.09.11.18.17.28.03.06.06.11.09.16.09.1.19.23.28.37.16.08.36.2.49.45.04.07.06.14.08.2.15.05.29.14.42.28.17.2.23.41.27.55.14.18.18.37.19.53.1.07.21.16.3.28.15.17.25.39.36.64.04.05.09.11.14.18.2.1.43.24.56.52.1.2.12.41.11.58.17.04.38.1.58.27.2.17.27.36.32.47.04.06.27.38.32.44l.33.41c.08.11.25.42.33.58.05.07.13.18.19.33.03.1.05.19.06.27.01.04.08.28.13.48.15.1.32.24.43.46.12.15.19.25.25.36.09.08.19.18.27.32.05.09.11.17.17.26l.07.1c.04.06.09.11.13.16.06.07.12.13.17.21.18.23.22.48.24.63.07.11.12.21.16.29.02.04.03.07.05.11.14.22.17.45.18.6.09.08.2.19.28.36.08.15.11.3.13.41.14.1.29.23.4.44.11.12.22.25.3.42.08.17.11.32.13.43.12.3.12.52.12.65,0,.01,0,.02,0,.02.07.21.05.41,0,.58.08.07.15.16.2.27.08.16.11.3.13.43.11.09.23.2.32.36.15.25.14.51.11.7.02.02.04.05.05.07.16.08.35.21.49.43.1.16.14.32.17.43.06.12.1.23.15.35.19.34.18.62.16.78.03.13.04.24.03.35.08.08.16.17.23.29.1.08.27.24.36.49.08.2.08.39.06.54.07.07.13.16.19.26.12.1.28.28.34.57l.02.11c.14.07.29.17.4.33.24.13.53.33.62.72.05.24.01.43-.02.56.06.13.1.23.13.33.03.12.04.22.04.31.12.1.25.23.33.43.09.21.09.4.06.57.08.07.15.16.21.27.11.2.13.4.12.56.1.08.21.19.28.33.1.19.13.37.14.47.13.24.09.51.04.71.06.07.12.16.17.27.07.05.21.2.3.43.08.2.08.38.06.53.12.11.23.26.29.47.03.1.05.21.07.32.01.07.02.11.03.15.04.17.05.3.06.43.08.41-.02.68-.08.84,0,.19-.04.36-.09.47,0,0,0,0,0,0,.04.12.07.22.09.32.02.1.03.2.04.29.18.15.38.35.43.67.03.06.07.13.1.21.16.15.35.35.4.66.04.23,0,.43-.04.55,0,0,0,.01,0,.01.02.13,0,.25,0,.34,0,.11.01.14.02.17.04.12.07.23.08.35,0,.05.02.09.03.13.02.06.03.12.04.17.12.14.25.33.29.59.03.18.01.33,0,.45.08.13.16.29.19.48.03.24-.02.44-.07.58.05.09.1.21.13.36.04.21.01.39,0,.5.04.25-.03.47-.08.61.03.1.05.18.07.27.1.16.22.36.23.63.01.23-.05.42-.08.53.03.15.07.3.07.48,0,.12-.01.26-.03.4v.14c0,.14,0,.3,0,.47.08.15.17.37.14.64-.01.08-.03.15-.05.22.1.14.18.31.19.52.02.25-.06.46-.11.58,0,.23-.08.42-.17.55.04.12.07.26.07.42.01.2-.03.42-.09.72,0,.08,0,.16,0,.26.1.21.19.46.13.76-.05.23-.16.41-.28.54.11.13.25.33.29.61.04.25-.02.45-.05.56,0,.05-.01.45-.01.52v.53c0,.18-.06.53-.1.7,0,.09-.01.22-.06.36-.04.11-.08.19-.13.26-.02.04-.12.27-.21.46.06.17.1.39.04.63,0,.2-.01.33-.04.45.02.1.03.25,0,.42-.02.11-.02.21-.03.31v.12c-.02.07-.01.14-.01.21,0,.09,0,.18,0,.27-.02.32-.16.53-.24.66-.02.1-.04.19-.07.29-.01.05-.03.09-.03.13-.03.27-.16.47-.25.59.02.12.03.29-.02.47-.05.18-.12.32-.18.41.04.17.07.37,0,.6,0,.18,0,.34-.05.51-.05.19-.13.32-.18.41-.11.3-.25.47-.34.57,0,0-.01.01-.01.02-.09.21-.23.35-.38.44,0,.11,0,.22-.03.35-.05.18-.13.33-.2.43.02.14.03.31,0,.49-.07.29-.25.47-.39.59,0,.02,0,.05,0,.07.07.18.13.4.08.67-.04.19-.11.33-.17.43-.04.12-.08.24-.13.36-.09.39-.29.59-.41.69-.06.12-.14.22-.22.29,0,.11,0,.24-.04.37.02.14.02.34-.06.57-.08.2-.21.35-.32.45,0,.11-.01.22-.05.34.01.16,0,.4-.14.64l-.06.1c.05.15.09.32.06.51.08.27.16.63-.07.97-.12.18-.27.29-.39.37-.04.14-.08.24-.13.33-.06.11-.12.19-.19.26.02.16.02.35-.06.55-.08.21-.22.35-.36.45,0,.11,0,.22-.04.35-.06.22-.19.38-.32.49.01.13.01.27-.03.41-.06.22-.16.36-.22.44-.08.27-.29.44-.47.54,0,.1-.03.21-.07.33.02.09,0,.29-.09.51-.09.19-.22.33-.34.42,0,.17-.02.36-.13.55-.06.11-.13.2-.2.29-.03.04-.06.08-.09.12-.07.13-.16.23-.24.32-.22.35-.48.47-.64.54-.13.15-.29.23-.4.28,0,0,0,0,0,.02-.05.1-.1.19-.16.28-.05.07-.1.15-.16.22.03.24.03.51-.15.78-.01.06-.04.13-.07.22.02.22.01.49-.17.75-.13.2-.32.32-.43.39,0,0,0,0,0,0-.06.08-.13.15-.21.22-.07.08-.09.11-.1.15-.05.11-.11.21-.17.31-.02.03-.13.23-.16.28-.01.19-.05.41-.19.62-.1.15-.22.25-.3.31-.03.15-.08.32-.19.49-.13.19-.3.3-.43.37-.02.1-.07.22-.15.35-.12.19-.28.31-.37.38-.13.19-.32.3-.46.37-.05.1-.09.18-.14.26-.03.19-.09.41-.26.62-.14.17-.31.27-.42.33-.1.15-.17.28-.3.41-.08.08-.16.15-.24.22-.06.05-.1.09-.14.13-.07.09-.18.22-.33.37-.04.17-.13.39-.34.56-.07.06-.14.1-.21.13-.02.16-.08.32-.2.47-.16.19-.35.3-.48.36-.15.17-.34.25-.5.29-.06.12-.13.25-.25.37-.13.15-.29.26-.47.39l-.08.07s-.09.1-.16.16c-.06.21-.16.47-.41.65-.19.14-.39.19-.57.22,0,.18-.04.4-.18.62-.14.22-.32.33-.42.39-.02.04-.11.13-.21.23-.05.05-.09.1-.13.15l-.08.09c-.09.11-.2.24-.31.35l-.59.6-.06-.06s-.09.07-.15.1c-.1.06-.2.09-.25.1-.04.02-.26.12-.45.21-.07.17-.17.35-.37.5-.13.15-.22.24-.32.31-.06.1-.15.22-.28.32-.08.07-.15.14-.23.22l-.07.07c-.06.05-.1.11-.14.16-.06.07-.12.14-.18.21-.2.21-.45.29-.58.34-.1.09-.2.16-.27.21-.03.02-.06.04-.09.06-.2.18-.43.25-.57.28-.06.1-.16.23-.31.34-.14.1-.28.16-.38.2-.08.15-.18.33-.37.46-.11.14-.23.27-.4.38-.15.1-.31.15-.41.19-.26.15-.48.19-.61.21,0,0-.02,0-.02,0-.11.06-.26.11-.46.11-.04,0-.08,0-.12,0-.06.09-.14.17-.24.25-.14.11-.29.16-.41.2-.08.13-.18.28-.34.39-.16.12-.38.19-.63.19-.01,0-.02,0-.04,0-.02.02-.03.03-.05.05-.06.17-.15.38-.35.55-.15.12-.3.19-.4.24-.1.07-.21.14-.32.2-.31.25-.59.28-.75.29-.11.05-.24.08-.37.09-.07.09-.15.18-.25.26-.08.12-.2.28-.41.4-.2.12-.4.14-.53.15-.06.08-.14.16-.23.23-.09.13-.24.32-.5.42l-.12.05c-.05.15-.13.31-.28.44-.1.25-.27.57-.65.7-.1.04-.23.06-.37.06-.05,0-.11,0-.17,0-.12.08-.21.13-.31.18-.11.05-.22.07-.31.09-.08.14-.19.28-.37.39-.16.1-.33.14-.52.14-.02,0-.04,0-.05,0-.06.09-.14.18-.25.25-.15.11-.34.17-.54.18-.07.11-.15.21-.27.3-.17.13-.34.18-.43.21-.08.05-.27.16-.55.16-.05,0-.1,0-.15,0-.06.07-.14.14-.24.21-.06.09-.19.26-.43.38-.14.07-.31.11-.5.11h0c-.1.13-.23.26-.43.34-.11.05-.22.08-.33.11-.05.02-.1.03-.14.04-.15.06-.28.09-.38.11-.2.07-.34.09-.48.09s-.26-.03-.35-.05h-.2c-.11.01-.2,0-.28-.02,0,0,0,0-.01,0-.1.05-.19.09-.29.13-.11.04-.2.06-.29.08-.11.2-.28.42-.58.52-.05.04-.11.08-.18.13-.11.18-.28.4-.59.5-.13.04-.25.06-.39.06-.06,0-.18,0-.18,0-.11.03-.21.04-.28.05-.11.02-.14.04-.17.06-.11.06-.22.11-.33.15,0,0-.23.11-.3.14-.12.14-.28.3-.53.38-.17.05-.32.07-.43.07-.11.1-.24.2-.42.27l-.13.05h-.23c-.06.01-.13,0-.2,0-.07.06-.18.14-.32.19-.2.08-.38.09-.5.09-.01,0-.02,0-.02,0,0,0,0,0,0,0-.12.04-.23.06-.36.06-.06,0-.13,0-.2-.02-.08.05-.16.1-.25.13-.13.13-.31.29-.57.36-.09.03-.2.04-.32.04-.07,0-.15,0-.22-.01-.12.06-.26.13-.44.17-.11.02-.22.04-.33.05-.06,0-.12.01-.17.02-.13.04-.28.08-.44.12-.13.12-.32.26-.59.29-.01,0-.15,0-.21,0-.1.12-.24.24-.42.3-.11.04-.26.07-.41.07-.06,0-.12,0-.17-.01h0s-.28.02-.28.02c-.13,0-.24-.03-.34-.06-.11.07-.23.13-.38.17-.18.06-.38.07-.6.08h-.1c-.06.03-.14.05-.23.07-.17.15-.38.31-.69.33h0c-.23,0-.42-.05-.57-.11-.1.15-.26.35-.54.46-.18.08-.36.09-.47.09h-.12s-.15.05-.28.08c-.08.02-.15.03-.21.05l-.53.15c-.18.04-.63.07-.75.07,0,0-.11.03-.23.03-.22-.02-.32-.05-.37-.06-.04,0-.29-.05-.49-.08-.16.1-.35.2-.61.2-.18.05-.3.07-.42.08-.1.05-.24.09-.4.11-.11.01-.21.03-.31.05l-.11.02c-.07.01-.13.03-.2.05-.11.03-.19.05-.27.07l-.09.02h-.15c-.18,0-.33-.04-.43-.06.01,0,.03,0,.04,0-.14.02-.25.02-.35.02,0,0-.09,0-.11,0h-.13c-.22.01-.38-.03-.49-.07-.13.05-.28.1-.45.11h-.02c-.19,0-.32-.02-.41-.04-.15.09-.33.17-.56.18-.18.06-.33.1-.52.11h0c-.2,0-.35-.03-.44-.05-.31-.01-.5-.09-.61-.14-.01,0-.02,0-.02,0-.22-.02-.39-.11-.53-.21-.1.04-.2.07-.32.08,0,0-.02,0-.03,0-.2,0-.33-.02-.42-.04-.12.07-.26.13-.44.16h-.05s-.05,0-.05,0c-.25,0-.45-.09-.58-.17-.02,0-.03,0-.05.01-.14.12-.32.26-.58.31h-.07s-.16.02-.16.02c-.08,0-.15,0-.23-.02-.11.01-.22.02-.34.02h-.16s-.1.01-.1.01c-.28,0-.47-.09-.58-.15-.12-.02-.22-.05-.31-.08-.1.05-.21.09-.34.11-.11.06-.31.15-.55.16h0c-.22,0-.4-.06-.53-.11-.09.04-.19.07-.3.09-.12.07-.29.14-.53.14l-.21-.02c-.11.11-.25.21-.43.27-.18.16-.43.36-.77.36-.31-.03-.5-.12-.61-.2-.11.02-.19.02-.28.02-.15,0-.27-.03-.37-.05-.13.09-.29.17-.5.19h-.01c-.22,0-.4-.05-.53-.12-.09.05-.19.1-.32.12l-.08.02h-.09c-.15,0-.28-.03-.39-.07-.1.07-.22.13-.36.17-.09.02-.19.03-.29.03-.07,0-.13,0-.2-.01l-.08.02h-.03c-.23-.01-.43-.09-.57-.17-.08.04-.18.07-.29.09-.07.06-.25.15-.49.17,0,0-.01,0-.02,0-.21,0-.37-.04-.49-.08-.14.08-.31.15-.52.16h0c-.15,0-.25,0-.34-.02-.05,0-.09,0-.13,0-.17,0-.28-.02-.39-.04-.41-.01-.66-.18-.79-.27-.18-.04-.32-.12-.42-.18,0,0,0,0,0,0-.11,0-.21.02-.31.02-.09,0-.18,0-.26-.02-.17.15-.4.29-.71.29-.06.02-.13.04-.21.06-.16.13-.39.27-.7.27-.26,0-.45-.09-.56-.14,0,0,0,0,0,0-.09,0-.19-.03-.28-.04-.04,0-.08,0-.1,0-.03,0-.05,0-.07,0-.12.02-.24.04-.36.04-.04,0-.09,0-.13.01-.05,0-.1.01-.15.02-.15.1-.36.2-.62.21h0c-.17,0-.31-.03-.41-.06-.13.06-.29.12-.48.13h0c-.23,0-.41-.06-.53-.12-.11.04-.22.07-.36.08h-.03c-.24,0-.37-.03-.48-.06-.25,0-.44-.07-.55-.13-.07.02-.15.04-.23.05-.16.09-.37.2-.64.2-.23,0-.42-.07-.53-.11-.13.03-.26.05-.38.05-.18,0-.28-.02-.39-.04l-.17-.02s-.1,0-.19,0c-.08,0-.16,0-.24,0-.13.07-.3.14-.51.14h-.1c-.08-.02-.16-.04-.23-.06-.13.09-.28.16-.47.18h-.02c-.29,0-.47-.06-.58-.1h-.02c-.21,0-.39-.07-.51-.15-.12.04-.27.08-.43.08-.01,0-.03,0-.04,0-.18,0-.35-.02-.54-.06l-.1-.02s-.11.02-.17.02c-.01,0-.03,0-.04,0-.16.09-.36.18-.6.18h-.11c-.23-.04-.42-.13-.56-.24-.13.12-.29.25-.54.32l-.1.03h-.17c-.12,0-.21,0-.3-.03-.04,0-.16.02-.29.03-.07,0-.13,0-.19.01l-.51.06s-.04,0-.06,0c-.19,0-.46-.02-.6-.03h-.14s-.23-.02-.23-.02c-.12-.03-.21-.07-.28-.1l-.43-.13c-.14.07-.3.13-.5.13h-.11c-.14.02-.24.03-.33.03-.17.03-.31.07-.48.07-.1,0-.2,0-.29.02h-.12c-.06.02-.13.03-.19.04-.09.02-.18.03-.27.05h-.05s-.05,0-.05,0c-.27,0-.46-.08-.56-.12-.02,0-.04,0-.06,0-.08,0-.15,0-.23-.01,0,0-.11,0-.12,0-.3,0-.49-.07-.61-.13-.1.04-.25.07-.42.07-.18,0-.33-.04-.44-.08-.15.07-.32.14-.53.14-.19.04-.33.07-.49.07-.24,0-.4-.06-.49-.09-.29-.03-.48-.12-.6-.18,0,0-.01,0-.02,0-.22-.03-.39-.13-.51-.25-.1.03-.21.06-.33.06-.18,0-.33-.04-.44-.07-.12.06-.27.11-.45.12h0c-.3,0-.52-.11-.67-.21-.02,0-.03,0-.05.01-.14.11-.33.24-.59.27l-.11-.79v.8s0,0,0,0c-.18,0-.27-.01-.36-.03-.03,0-.15,0-.18,0-.06,0-.13,0-.19,0h-.05s-.12,0-.12,0c-.29,0-.5-.11-.61-.18-.12-.02-.22-.06-.31-.1-.1.04-.21.07-.35.08-.11.06-.3.13-.53.13-.22,0-.4-.07-.53-.14-.09.03-.19.06-.3.07-.11.05-.27.11-.47.11h-.07l-.2-.03c-.11.1-.26.2-.44.24-.18.15-.42.31-.74.31h-.09ZM117.23,156.84v-.8s.19,0,.19,0c.11,0,.2,0,.28.02.33.05.53.25.66.42.13-.08.31-.16.53-.16.05,0,.09.01.13.02.16-.3.41-.63.88-.63.14,0,.23.02.32.03.08,0,.14.02.2.02.23.01.42.1.55.17.11-.03.22-.05.35-.06.17,0,.3.03.39.05h.13s.37.01.37.01c0,0,.1,0,.1,0,.15,0,.27.03.38.07.11-.08.25-.15.42-.17h.05s.06,0,.06,0c.13,0,.25.02.34.05.1-.07.23-.13.38-.16h.05s.06-.01.06-.01c.31,0,.49.06.59.1.02,0,.04,0,.05,0,.08,0,.16,0,.24.01h.11c.12,0,.22.02.3.04.17-.17.39-.31.7-.31.29,0,.5.12.62.18.06,0,.12.01.18.02.06,0,.11.01.17.02.12,0,.23.03.33.07.15-.11.33-.19.56-.19.35.02.57.17.7.28.03,0,.21.03.27.03.09,0,.18.02.26.04.15-.1.35-.2.6-.2.36.03.59.2.73.34.04,0,.18,0,.18,0l.19.03h0s.83-.03.83-.03c.02,0,.05,0,.07,0,.08-.01.16-.02.24-.02.16-.06.31-.12.51-.13h.01c.21,0,.33.02.43.05h.13c.1,0,.2.02.3.03h.12c.11-.05.25-.09.41-.11.01,0,.03,0,.04,0,.21,0,.34.02.43.04.14-.08.31-.15.53-.17h0c.33,0,.56.13.72.27.09-.03.2-.06.32-.07h0c.28,0,.46.07.57.11.01,0,.02,0,.02,0,.06,0,.11.01.17.02.14-.15.33-.28.6-.31h.1c.24,0,.42.06.52.1,0,0,.01,0,.02,0,.16,0,.27.02.37.04h.08c.15,0,.29-.02.44-.02.03,0,.06,0,.08,0,.13,0,.19,0,.26,0,0,0,0,0,.01,0,.16-.1.37-.21.64-.21l.52.02c.12,0,.24.02.35.04.05,0,.1.02.14.02.18-.04.3-.06.42-.06.19,0,.34.05.47.11.14-.08.31-.14.51-.15.32,0,.56.15.69.24.22.05.38.16.5.28.03,0,.06-.01.09-.02.15-.08.31-.15.52-.18l.1-.03c.12-.03.24-.07.36-.08.01,0,.02,0,.03,0,.18,0,.31.02.41.05.11-.07.23-.13.38-.16.11-.14.29-.33.59-.38h.07s.07-.01.07-.01c.19,0,.34.06.46.13.1-.05.24-.12.42-.13.18-.02.28-.04.34-.04.25,0,.76.05.92.07.12.02.27.06.41.1.06.02.13.04.18.05h.09c.09-.02.17-.02.26-.02h.12c.26.02.46.13.58.2.02,0,.02.01.02.01.18.04.31.1.41.15.07-.02.14-.03.22-.04.15-.09.36-.19.62-.19.12,0,.23.03.33.06.19-.21.42-.4.78-.4h.11c.2.04.36.12.49.22.09-.03.19-.05.3-.05.25,0,.43.08.54.13,0,0,0,0,0,0,.22.02.39.1.48.15h0c.35.05.58.29.71.47h.12c.09,0,.2,0,.31.04.04-.01.08-.03.13-.04.1-.07.26-.16.49-.19.09-.01.18-.01.27-.01h.04c.14-.12.33-.24.59-.27h.05s.05,0,.05,0c.27,0,.47.09.58.14.05,0,.1.01.14.02.14-.13.34-.26.6-.28h.01c.35,0,.56.11.68.18.12.02.22.05.31.09.09-.04.18-.08.29-.1.15-.09.36-.2.63-.2h.43s.13,0,.13,0c.34.03.55.22.69.39.14-.09.32-.18.56-.18.03,0,.06,0,.09,0,.15-.32.4-.67.89-.67.11,0,.2,0,.28.02.07,0,.14.01.2.01.23,0,.42.08.56.15.1-.03.22-.06.35-.07h.02c.18,0,.27.01.37.03.04,0,.26,0,.33,0,.09,0,.18,0,.25-.01h.01c.15,0,.27.02.38.06.11-.09.25-.17.42-.2h.07s.07-.01.07-.01c.12,0,.22.01.3.03.1-.07.23-.14.38-.18l.09-.02h.15c.19,0,.36.05.46.08.06,0,.11,0,.15,0,0,0,.26,0,.26,0,.11,0,.2,0,.28.02.16-.18.39-.34.71-.35h0c.28,0,.47.09.59.15,0,0,.29.02.35.02.13,0,.24.02.34.06.15-.13.34-.22.6-.22.31,0,.54.14.67.24.03,0,.06,0,.09,0,.06,0,.12.01.17.01.09,0,.18.01.27.03.16-.12.37-.23.64-.23.33,0,.55.16.7.3.06,0,.12-.01.19-.01l.47.04c.15-.05.31-.1.5-.1.04,0,.08-.01.11-.02.08-.01.15-.03.23-.04.15-.07.3-.14.5-.16h.15c.1,0,.2,0,.3.02h.06s.38,0,.38,0l.11-.02c.1-.04.24-.1.4-.12h.07s.13-.02.13-.02c.09,0,.18.01.27.03.13-.09.3-.17.51-.2h.05s.05,0,.05,0c.27,0,.49.11.65.23.09-.04.2-.07.32-.09.01,0,.03,0,.04,0,.3,0,.45.05.54.08.06,0,.12,0,.18.01.13-.16.31-.3.57-.35h.08s.08-.01.08-.01c.23,0,.38.04.47.07.05,0,.09,0,.13,0,.08,0,.16,0,.24.02.19-.01.36-.04.53-.06.11-.01.23-.02.35-.02.16-.12.37-.24.65-.25,0,0,.53-.02.53-.02.12,0,.2,0,.28.01.06,0,.11,0,.15,0,.16-.05.3-.09.48-.1h0c.16,0,.3.03.41.07.13-.09.29-.17.49-.18h.01c.36,0,.58.12.7.19.21.03.37.13.5.22.02,0,.05-.02.07-.02.14-.09.3-.19.51-.23.19-.08.31-.12.43-.15l.08-.02h.12c.09,0,.17,0,.23.02.09-.07.2-.14.33-.19.09-.16.24-.36.53-.45l.11-.04h.12c.14,0,.26.03.36.07.09-.06.22-.14.4-.18l.25-.06c.23-.04.75-.08.91-.08h0c.14,0,.27.02.41.04.05,0,.1.02.15.02,0,0,.01,0,.07-.02.1-.03.21-.06.32-.08h.06s.06-.01.06-.01c.25,0,.4.05.49.07.19,0,.33.04.43.06.07-.03.13-.06.2-.08.14-.13.33-.28.6-.33h.07s.17-.01.21,0c.15-.27.37-.55.79-.58h0c.2,0,.36.04.49.1.08-.05.16-.09.26-.11l.1-.03h.18c.09,0,.18,0,.27.02h0c.06-.01.12-.02.19-.02.11,0,.21.02.29.03h.13c.31,0,.54.15.7.27.01,0,.17-.06.17-.06h.21s.03-.01.05-.01c.03-.02.06-.04.1-.07.08-.1.21-.23.42-.31.09-.04.19-.07.28-.09.1-.15.25-.31.49-.41.11-.05.25-.08.41-.08.08,0,.15,0,.24.02.05-.01.09-.02.14-.03.1-.17.24-.34.48-.44l.14-.06.25-.02c.12,0,.23.02.32.04.05,0,.11-.01.16-.01s.11,0,.16.01c.07-.06.14-.12.24-.17.13-.14.31-.32.6-.39.03,0,.07-.02.11-.04.1-.04.2-.07.3-.1l.08-.03h.15c.24,0,.43.08.56.16.11-.15.28-.3.54-.37.03-.35.16-.77.63-.92.08-.02.15-.04.22-.06.1-.03.16-.04.22-.06l.13-.05h.22c.08-.01.15,0,.21,0,.07-.06.15-.11.25-.16.16-.07.3-.1.39-.12.08-.03.17-.07.25-.1.12-.05.2-.08.25-.11l.1-.06.2-.04h.1c.05-.1.13-.19.23-.27v-.2h.5c.06-.11.15-.21.27-.3.25-.18.52-.2.67-.21.07-.03.14-.06.21-.09.05-.02.09-.04.13-.06.09-.05.18-.08.26-.1.08-.23.22-.46.51-.59.2-.09.4-.1.52-.1h.08s.1-.04.15-.06c.07-.02.12-.04.17-.06l.16-.07h.16c.09-.18.22-.34.45-.44l.15-.07.26-.02c.1,0,.19.01.26.03.02,0,.19-.07.23-.09.08-.04.16-.07.24-.09.09-.18.24-.39.5-.5l.09-.04.16-.03h.13c.13-.01.25.02.35.05.06-.04.14-.09.23-.12l.33-.12c.11-.11.22-.23.39-.31.03-.02.05-.04.08-.06.06-.05.12-.1.18-.14.09-.12.2-.26.36-.37.16-.11.32-.16.41-.2.14-.09.27-.15.37-.19l.7.45-.62-.51c.07-.08.16-.2.3-.3.14-.1.27-.16.38-.19.07-.14.17-.3.34-.42.11-.09.31-.19.59-.19.05,0,.1,0,.15,0,.06-.08.13-.15.22-.22.21-.15.42-.2.55-.22,0,0,0,0,0,0,.04-.03.09-.05.13-.07.03-.2.11-.4.3-.58.2-.18.42-.24.55-.27.13-.1.25-.15.34-.19.14-.11.26-.21.39-.31.09-.07.19-.13.28-.19.07-.18.18-.4.42-.55l.37-.26c.09-.06.18-.11.28-.17.05-.03.1-.05.13-.08.09-.11.19-.23.33-.33.13-.09.26-.14.38-.17.06-.14.15-.29.31-.41.24-.19.51-.21.67-.22.12-.06.26-.1.45-.1.03,0,.07,0,.1,0,.01-.02.03-.04.04-.06.06-.14.14-.31.28-.47.11-.17.19-.27.27-.36.11-.12.24-.19.36-.24.03-.11.08-.23.17-.34-.02-.18,0-.44.19-.67l.24-.3h.28c.04-.12.1-.25.23-.38.11-.13.17-.2.22-.24l.59-.56.05.06s.05-.04.07-.05c.08-.06.22-.13.36-.19.05-.03.11-.05.15-.08,0,0,.03-.03.05-.06.09-.1.17-.19.27-.27.21-.16.43-.22.56-.25.01,0,.02,0,.02,0,.13-.08.26-.12.36-.15.04-.06.08-.11.12-.17.05-.18.13-.41.34-.6.07-.07.15-.12.23-.16-.02-.29.02-.63.33-.88.11-.08.27-.17.49-.2.04-.09.11-.18.19-.26.16-.16.34-.23.44-.27,0,0,0,0,0,0,.16-.14.33-.2.44-.24.13-.11.33-.21.6-.21.06,0,.12,0,.2.02.06-.08.15-.19.29-.27.01-.03.03-.07.04-.1.01-.12.05-.29.16-.48.05-.08.11-.16.18-.24,0-.18.02-.4.16-.62.16-.25.38-.36.51-.42.03-.03.06-.06.09-.09-.02-.19,0-.4.14-.61.17-.26.41-.37.55-.44.08-.08.17-.14.25-.18.02-.08.04-.17.08-.26.02-.19.05-.44.24-.67.02-.03.04-.06.06-.1.07-.12.15-.23.23-.32.17-.19.4-.29.68-.31,0-.18.05-.4.21-.6-.19-.3-.34-.7-.05-1.11.05-.07.1-.14.15-.2.04-.06.08-.1.12-.16.12-.19.28-.3.41-.37.02-.1.06-.21.12-.32.08-.14.17-.24.23-.31l.15-.24c.05-.08.1-.16.12-.22.06-.14.15-.25.25-.33-.02-.13-.01-.28.05-.44.06-.16.15-.27.23-.36-.01-.12,0-.25.03-.39.09-.3.28-.48.4-.58.04-.08.09-.17.14-.25.02-.03.04-.06.05-.09.04-.09.09-.16.14-.23-.08-.23-.11-.5.04-.78.12-.23.3-.37.41-.45.03-.05.06-.09.09-.14.03-.05.06-.08.08-.13.05-.11.12-.19.19-.26-.04-.19-.04-.4.07-.62.14-.27.37-.41.52-.48,0-.01.01-.02.02-.03.04-.06.07-.11.09-.16.04-.08.09-.15.14-.22-.04-.2-.05-.45.08-.7.14-.26.37-.39.55-.46.02-.08.05-.15.1-.23l.18-.31c.02-.16.04-.32.12-.5.01-.03.02-.06.03-.09.02-.08.04-.14.06-.2,0-.16,0-.33.05-.51.05-.18.14-.32.19-.41.05-.16.12-.29.17-.38l.82-.1h-.8c0-.13,0-.26.03-.38.04-.19.12-.33.18-.44-.03-.16-.05-.34,0-.54.08-.3.28-.48.47-.6,0-.09,0-.19.03-.29.06-.25.2-.43.28-.52,0,0,0,0,0,0,.02-.05.04-.1.06-.14-.11-.18-.18-.39-.13-.65.05-.25.17-.42.25-.53.04-.15.1-.28.14-.36.04-.15.06-.32.1-.48.02-.11.06-.21.09-.31-.06-.19-.12-.42-.05-.68l.13-.46c.03-.11.08-.22.12-.32.02-.04.04-.09.05-.13,0-.14,0-.29.05-.47.03-.14.1-.25.17-.34-.05-.15-.08-.32-.04-.51.06-.31.25-.5.37-.61.08-.19.23-.33.36-.42,0-.02,0-.04,0-.05-.05-.15-.1-.33-.09-.54-.03-.21-.04-.33-.03-.46,0-.16.06-.3.11-.41-.05-.1-.09-.22-.1-.36-.13-.13-.29-.33-.3-.64,0-.16.03-.36.19-.56-.04-.1-.08-.25-.07-.43,0-.17,0-.24,0-.29l.04-.81h.1c.01-.05.02-.09.02-.09.03-.11.08-.25.14-.4.03-.06.05-.11.06-.16,0,0,0-.04,0-.08,0-.12,0-.25.02-.37.03-.24.16-.43.23-.54,0,0,.01-.02.01-.02.04-.16.11-.28.17-.37-.01-.07-.02-.13-.02-.2-.08-.17-.18-.39-.15-.67,0-.09.03-.17.05-.24-.22-.21-.44-.49-.36-.9.03-.19.12-.34.22-.45-.03-.09-.04-.2-.04-.32.02-.22.09-.38.13-.48.02-.21.09-.37.14-.47.03-.35.28-.58.46-.71,0,0,0-.02,0-.03-.01-.09-.01-.23.03-.37-.01-.03-.02-.06-.04-.1-.08-.1-.18-.25-.22-.48-.02-.09-.03-.19-.03-.29-.13-.13-.26-.31-.3-.56-.05-.29.04-.53.09-.67,0-.04,0-.07,0-.11-.15-.13-.28-.31-.33-.56-.06-.3.04-.54.11-.69,0-.11.03-.22.06-.31-.04-.07-.08-.14-.11-.23-.12-.15-.27-.36-.29-.65,0-.03-.01-.06-.02-.1-.03-.14-.05-.27-.06-.39,0-.32.14-.55.28-.71-.12-.13-.23-.31-.25-.56-.34-.09-.74-.28-.81-.77-.01-.08-.02-.17-.03-.25,0-.07-.01-.13-.02-.19-.04-.21,0-.39.04-.54-.05-.09-.1-.18-.13-.29-.04-.15-.05-.29-.06-.38-.02-.11-.05-.21-.07-.32-.02-.08-.04-.17-.06-.23-.05-.14-.06-.27-.05-.39-.1-.08-.18-.18-.25-.31-.08-.16-.1-.31-.1-.44-.09-.08-.19-.18-.26-.31-.15-.27-.14-.54-.13-.69-.03-.09-.05-.18-.08-.27,0-.04-.02-.08-.03-.11-.04-.1-.05-.19-.06-.28-.21-.11-.42-.28-.51-.59-.07-.25-.03-.47-.01-.6-.01-.05-.06-.26-.08-.31-.04-.12-.05-.23-.04-.33-.16-.11-.31-.26-.38-.49-.09-.3-.02-.55.04-.71,0-.03-.04-.19-.05-.24-.02-.09-.04-.17-.05-.26-.17-.12-.35-.3-.42-.58-.08-.27,0-.51.08-.69-.04-.07-.07-.15-.09-.24l-.09-.36c-.1-.13-.19-.26-.26-.44-.01-.03-.03-.06-.05-.09-.04-.07-.08-.13-.11-.2-.11-.11-.23-.24-.31-.41-.08-.17-.11-.33-.13-.43-.06-.13-.1-.26-.13-.36l.53-.64-.58.55c-.07-.07-.18-.19-.27-.34-.09-.16-.13-.31-.15-.43-.13-.09-.27-.22-.36-.4-.15-.28-.12-.55-.06-.77-.07-.07-.13-.15-.18-.25-.11-.23-.13-.43-.13-.56h0c-.02-.05-.04-.1-.05-.15-.2-.06-.4-.17-.54-.39-.15-.23-.17-.46-.19-.59-.07-.14-.11-.28-.13-.37-.08-.14-.16-.28-.25-.44-.05-.1-.1-.2-.14-.3-.17-.1-.36-.23-.49-.48l-.21-.43c-.05-.11-.09-.21-.13-.32-.02-.05-.03-.09-.05-.13-.09-.1-.2-.22-.27-.38-.07-.14-.09-.28-.1-.4-.13-.08-.27-.2-.36-.37-.14-.27-.13-.53-.12-.68-.07-.21-.05-.4,0-.56-.02-.02-.03-.04-.05-.05-.14-.09-.29-.19-.42-.36-.15-.14-.24-.23-.31-.33-.1-.14-.16-.28-.19-.4-.1-.05-.21-.12-.3-.22-.18-.01-.44-.07-.64-.3-.11-.12-.21-.3-.21-.55-.1-.05-.22-.14-.33-.29-.11-.13-.18-.21-.21-.27-.11-.17-.35-.65-.42-.81-.04-.1-.08-.23-.12-.38-.02-.06-.03-.12-.05-.16,0,0-.03-.03-.05-.06-.08-.1-.16-.2-.22-.31-.13-.23-.15-.47-.16-.59,0-.01,0-.02,0-.02-.06-.16-.08-.3-.09-.4-.05-.05-.1-.1-.14-.15-.17-.08-.38-.2-.52-.44-.05-.08-.09-.16-.11-.25-.3-.04-.64-.14-.83-.5-.09-.18-.11-.35-.1-.5-.08-.06-.16-.14-.22-.24-.12-.19-.16-.38-.19-.49,0,0,0,0,0,0-.11-.18-.14-.36-.16-.48-.17-.3-.11-.62-.04-.83,0,0-.01-.01-.02-.02-.07-.07-.15-.18-.2-.34-.03-.02-.07-.04-.1-.07-.12-.04-.29-.11-.45-.27-.07-.07-.13-.15-.19-.23-.18-.04-.39-.11-.57-.3-.2-.21-.26-.45-.29-.59-.03-.04-.05-.08-.07-.11-.18-.03-.4-.1-.59-.29-.21-.22-.26-.49-.29-.64-.06-.1-.1-.2-.12-.3-.08-.04-.17-.09-.25-.16-.17-.07-.39-.16-.56-.37-.03-.04-.06-.07-.09-.1-.09-.1-.18-.2-.25-.3-.18-.27-.18-.55-.14-.76-.18-.05-.38-.15-.54-.37-.13.04-.25.06-.39.06h-.36l-.32-.29c-.07-.08-.12-.15-.18-.22-.04-.06-.08-.11-.12-.16-.15-.17-.22-.36-.25-.51-.09-.05-.19-.12-.28-.21-.11-.11-.18-.23-.23-.3-.07-.09-.13-.15-.2-.23-.09-.09-.14-.16-.19-.19-.1-.09-.17-.2-.22-.3h-.12l-.3-.19c-.14-.1-.23-.22-.29-.33-.12-.02-.25-.07-.38-.15-.26-.17-.37-.42-.44-.55-.07-.06-.13-.13-.2-.21-.02-.03-.05-.06-.08-.08-.07-.06-.13-.13-.18-.2-.01,0-.03,0-.04,0-.35,0-.58-.15-.7-.28-.19-.18-.26-.4-.3-.53-.04-.04-.19-.22-.22-.26-.08-.09-.14-.18-.19-.27-.26-.03-.44-.15-.55-.25-.23-.22-.29-.48-.31-.65-.02-.02-.03-.04-.05-.06-.05-.05-.08-.09-.11-.13-.06-.06-.12-.13-.17-.21-.21-.03-.45-.1-.65-.31-.2-.22-.25-.48-.25-.68-.06-.04-.13-.1-.19-.17l-.25-.28c-.15-.07-.29-.14-.43-.28-.03-.02-.06-.04-.09-.06-.07-.04-.13-.09-.19-.13-.15-.05-.31-.11-.47-.23-.15-.11-.24-.24-.31-.32-.12-.09-.22-.2-.3-.29l-.09-.05c-.1-.04-.24-.09-.38-.18-.15-.1-.26-.23-.33-.32-.16-.03-.34-.08-.51-.2-.25-.18-.35-.44-.39-.65-.09-.03-.19-.08-.28-.14-.21-.15-.32-.34-.38-.45,0,0,0,0,0,0-.04-.04-.08-.08-.11-.12-.05,0-.11.01-.16.01h-.23l-.27-.14c-.22-.14-.34-.33-.41-.45-.13-.09-.21-.19-.27-.26-.13-.1-.28-.19-.42-.29-.09-.07-.18-.14-.27-.22-.19-.02-.43-.06-.65-.24l-.37-.31c-.08-.07-.16-.15-.24-.23-.03-.04-.07-.07-.1-.1-.14-.06-.28-.13-.42-.24-.12-.1-.21-.22-.26-.32-.19-.02-.35-.08-.49-.19-.25-.19-.35-.44-.4-.59-.15-.16-.21-.35-.24-.52-.02,0-.05-.02-.07-.03-.16-.02-.34-.06-.53-.16-.2-.07-.31-.11-.42-.17-.15-.09-.25-.19-.33-.29-.12,0-.25-.02-.4-.08-.09.03-.2.06-.32.06h-.14l-.13-.05c-.13-.05-.38-.17-.52-.47-.11-.01-.26-.04-.42-.13-.16-.08-.25-.13-.3-.16-.18-.12-.59-.47-.71-.58-.08-.08-.18-.19-.28-.31-.04-.06-.08-.11-.12-.14,0,0-.05-.02-.08-.04-.11-.06-.21-.12-.31-.19-.21-.17-.31-.37-.38-.49,0-.01-.01-.02-.01-.02-.12-.12-.19-.25-.24-.34-.07-.03-.13-.06-.2-.09-.19-.01-.42-.05-.64-.2-.09-.06-.16-.13-.22-.21-.12.03-.24.05-.36.05h-.31l-.3-.23c-.15-.13-.23-.28-.28-.43-.11-.03-.21-.08-.29-.14-.19-.13-.29-.29-.36-.39,0,0,0,0,0,0-.17-.13-.26-.29-.32-.39h0c-.28-.23-.33-.56-.34-.78-.01,0-.02-.01-.03-.02-.09-.05-.21-.12-.31-.25-.04,0-.08-.02-.13-.03-.02,0-.03,0-.04,0-.16,0-.32-.04-.47-.11-.09-.04-.18-.1-.27-.15-.07,0-.13.01-.18.01-.16,0-.32-.03-.46-.1-.27-.13-.41-.35-.49-.47-.04-.03-.08-.06-.12-.1-.06.01-.13.02-.2.02h-.2l-.25-.11c-.27-.14-.4-.38-.48-.51-.09-.08-.16-.17-.21-.25-.09-.01-.19-.03-.3-.08-.19,0-.44-.04-.68-.21-.03-.02-.07-.04-.11-.06-.12-.07-.23-.14-.33-.22-.25-.2-.33-.47-.35-.68-.01,0-.02,0-.03,0-.22,0-.43-.07-.6-.2,0,0,0,0,0,0-.19.12-.39.22-.64.22h-.19l-.17-.09c-.15-.08-.24-.14-.33-.21-.06-.05-.11-.09-.17-.12-.19-.12-.31-.29-.38-.42-.1-.03-.22-.06-.33-.13-.14-.08-.24-.17-.31-.23-.08-.06-.17-.11-.26-.16-.07-.04-.14-.09-.19-.11-.15-.06-.25-.15-.34-.25-.04,0-.08,0-.13,0h-.12l-.11-.03c-.2-.06-.35-.17-.45-.27-.03,0-.23,0-.23,0l-.19-.05c-.29-.09-.47-.29-.57-.4-.08-.04-.16-.09-.24-.14-.04-.02-.07-.05-.1-.06-.09-.05-.17-.1-.24-.16-.1.03-.2.05-.32.05h-.21l-.25-.12c-.23-.14-.36-.32-.44-.43-.04-.03-.23-.15-.28-.17-.1-.06-.19-.13-.25-.2-.06,0-.11.02-.18.02h-.09l-.2-.05-.16-.07c-.27-.15-.39-.38-.46-.54-.03-.02-.17-.12-.21-.14-.07-.04-.14-.09-.21-.15-.06,0-.12.01-.18.01-.19,0-.37-.05-.52-.14-.26-.16-.37-.4-.43-.59-.07-.03-.16-.07-.24-.12l-.29-.2c-.16-.03-.32-.06-.49-.15-.03-.01-.06-.02-.1-.03-.08-.02-.15-.05-.22-.08-.16,0-.33-.02-.51-.09-.18-.07-.31-.16-.39-.23-.16-.07-.28-.15-.37-.2l-.02-.83-.08.79c-.11-.01-.25-.03-.42-.08-.18-.06-.31-.15-.4-.23-.05,0-.09,0-.13,0-.14,0-.28-.02-.41-.07-.28-.12-.44-.33-.54-.52-.11,0-.21-.03-.31-.06-.24-.09-.4-.24-.49-.33,0,0,0,0,0,0-.05-.03-.1-.05-.14-.08-.12.05-.26.09-.41.09h-.09l-.09-.02c-.31-.07-.5-.25-.6-.34-.15-.06-.26-.13-.34-.19-.17-.07-.32-.12-.48-.17-.1-.04-.2-.09-.3-.14-.08.02-.17.03-.28.03h-.16l-.24-.08-.46-.2c-.11-.05-.21-.1-.31-.16-.04-.02-.08-.05-.12-.07-.15-.02-.3-.05-.46-.12-.14-.06-.26-.15-.34-.24-.05,0-.11.01-.17.01h-.15l-.21-.07c-.29-.11-.45-.33-.54-.46-.18-.12-.29-.29-.37-.44-.04,0-.08-.01-.13-.02-.05.03-.14.04-.22.04h-.09l-.18-.03c-.21-.01-.34-.02-.46-.05-.17-.04-.31-.12-.41-.19-.08.02-.17.03-.27.03h-.13c-.12.07-.3.17-.54.17h-.12c-.17-.04-.38-.12-.54-.32,0,0,0,0-.01,0-.02.01-.1.02-.17.02h-.08l-.25-.05c-.11-.02-.2-.04-.26-.06-.17-.06-.47-.2-.67-.29l-.13-.06c-.12-.06-.25-.14-.38-.23-.05-.04-.1-.07-.14-.1,0,0-.05,0-.08-.02-.13-.03-.25-.06-.36-.11-.25-.1-.4-.27-.49-.37,0,0-.01-.02-.02-.02-.15-.08-.25-.18-.33-.26-.08,0-.15-.02-.23-.03-.07.02-.19.04-.31.04h-.14l-.22-.06c-.1-.04-.18-.08-.25-.13-.17.1-.36.19-.59.19h-.15l-.14-.05c-.21-.08-.36-.22-.46-.35-.01,0-.13,0-.13,0l-.09-.02c-.3-.07-.47-.22-.56-.29,0,0,0,0,0,0-.2-.08-.33-.2-.42-.28-.33-.14-.48-.44-.55-.65-.01,0-.03,0-.04,0-.11-.02-.24-.06-.37-.15-.03,0-.12,0-.12,0-.09.03-.21.06-.35.06h-.11c-.15-.03-.25-.05-.34-.08-.14.06-.3.12-.5.12-.41-.04-.63-.21-.74-.3-.05-.02-.1-.04-.14-.06-.13.07-.29.13-.48.13h-.12c-.34-.06-.55-.25-.66-.36-.11-.05-.2-.11-.28-.17-.07.01-.14.02-.21.02h-.09c-.12.03-.25.06-.39.06h-.13l-.19-.05s-.08-.02-.13-.03c-.12-.02-.23-.05-.33-.08-.32-.11-.48-.34-.58-.53-.1.04-.22.07-.36.07h-.11s-.17-.05-.19-.06c-.19.24-.43.47-.82.47h-.09l-.09-.02c-.11-.03-.2-.05-.28-.08-.07-.02-.13-.04-.19-.06-.22-.05-.39-.17-.5-.27-.05,0-.21,0-.21,0l-.14-.02c-.16-.03-.29-.08-.37-.12-.09-.02-.2-.04-.3-.06-.09-.02-.17-.03-.24-.04-.16-.01-.29-.06-.39-.13-.12.06-.25.1-.41.1-.19,0-.34-.05-.45-.11-.11.05-.24.09-.4.09h0c-.33,0-.55-.13-.68-.2-.09-.01-.19-.03-.28-.06-.04,0-.08-.02-.11-.03-.11-.01-.2-.04-.28-.07-.16.11-.35.2-.59.2h-.12c-.29-.05-.48-.19-.59-.27-.06-.01-.29-.07-.34-.08-.12-.02-.22-.06-.31-.11-.13.07-.28.12-.46.12h-.13c-.33-.07-.53-.25-.65-.38-.03,0-.2-.06-.25-.07-.09-.02-.17-.04-.25-.08-.13.07-.3.13-.5.13h-.08l-.08-.02c-.33-.06-.53-.26-.65-.43-.09,0-.17-.01-.25-.03l-.38-.1c-.12.02-.22.03-.31.03h-.07l-.14-.02s-.2,0-.2,0c-.08,0-.14,0-.21,0-.04.04-.2.08-.38.08-.24,0-.4-.06-.5-.09-.17-.02-.32-.05-.42-.08h-.1c-.1.02-.25.06-.41.06-.19,0-.35-.05-.47-.09-.14.06-.3.11-.5.11-.33,0-.56-.17-.72-.32-.09.02-.18.04-.28.04-.29,0-.5-.11-.6-.17,0,0,0,0,0,0-.06,0-.12-.02-.17-.04-.16.14-.36.25-.62.26h0c-.29,0-.49-.1-.61-.15-.17-.01-.3-.05-.38-.07h-.16c-.12,0-.23-.01-.35-.02-.11,0-.22-.02-.34-.04-.16.09-.34.17-.58.17l-.57-.05c-.12-.01-.23-.04-.34-.06-.04-.01-.09-.02-.14-.03-.14.02-.24.03-.34.03h-.15c-.16-.02-.29-.08-.4-.14-.13.06-.28.11-.46.11-.37-.02-.59-.18-.72-.28-.21-.06-.37-.19-.49-.31-.03,0-.05,0-.08.01-.14.06-.3.13-.51.15-.21.05-.33.08-.45.09h-.01c-.18,0-.32-.03-.43-.06-.11.06-.23.12-.38.15-.11.14-.3.32-.6.36h-.05s-.05,0-.05,0c-.2,0-.36-.06-.48-.14-.1.05-.25.11-.43.11-.16.02-.26.03-.33.03h-.8v-.08h-.07c-.13-.03-.28-.07-.43-.12-.06-.02-.12-.04-.17-.05-.16.02-.24.02-.32.02h-.14c-.27-.03-.46-.14-.58-.21-.01,0-.02-.01-.02-.01-.17-.04-.3-.1-.4-.15-.06.02-.13.03-.21.04-.15.08-.35.18-.61.18-.12,0-.23-.03-.32-.06-.18.21-.42.41-.78.41-.25-.03-.43-.11-.57-.21-.1.03-.2.06-.32.06-.24,0-.42-.08-.53-.12,0,0,0,0,0,0-.23-.02-.39-.1-.48-.14,0,0,0,0,0,0-.35-.04-.58-.28-.71-.45-.01,0-.08,0-.08,0h-.05c-.1,0-.2-.01-.29-.04-.03.01-.07.02-.1.04-.1.08-.25.17-.48.21-.1.02-.2.02-.3.03-.14.12-.32.26-.57.3h-.07s-.08.01-.08.01c-.25,0-.44-.08-.54-.12-.05,0-.09,0-.13-.01-.14.14-.32.27-.58.3h-.05s-.05,0-.05,0c-.29,0-.49-.1-.6-.16-.11-.01-.21-.04-.3-.07-.08.04-.16.08-.26.11-.16.11-.38.24-.67.25-.04,0-.08,0-.12.01-.11.02-.23.03-.34.03-.36-.01-.6-.19-.75-.34-.14.11-.34.22-.61.22h-.02c-.13.33-.36.7-.86.72-.02,0-.45,0-.46,0-.24,0-.41-.05-.53-.09-.1.04-.21.08-.34.1h-.06s-.16.02-.16.02c-.06,0-.11,0-.17,0-.12,0-.22.02-.33.03-.09.01-.18.02-.24.03l-.08.02h-.09c-.09,0-.17-.01-.24-.03-.1.1-.23.18-.39.23l-.11.03h-.17c-.06,0-.12,0-.17,0-.09.08-.21.16-.35.21l-.13.04h-.22c-.1.01-.22,0-.33-.03,0,0,0,0,0,0-.09.02-.19.03-.28.04-.04,0-.08,0-.11.01l-.08.02s-.19,0-.21,0c-.14.19-.34.38-.66.42h-.05s-.07,0-.07,0c-.23,0-.39-.05-.48-.08-.07,0-.13,0-.18.01-.05,0-.11,0-.16.01h-.05s-.05,0-.05,0c-.08,0-.16,0-.23-.02-.13.14-.31.26-.56.29,0,0-.02,0-.02,0-.32,0-.53-.09-.66-.16-.03,0-.2.01-.25.02-.07,0-.13.01-.2.01-.02,0-.04,0-.06,0-.15.15-.35.3-.64.33h-.01c-.31,0-.53-.1-.68-.21-.08.02-.17.04-.27.05l-.38.02c-.14.07-.29.14-.48.17-.03,0-.07.02-.1.03-.08.03-.15.05-.22.07-.12.08-.26.17-.45.23-.18.05-.34.05-.44.06-.17.04-.31.05-.42.06l-.11.03c-.1.06-.22.14-.39.19-.13.04-.26.06-.43.06h-.03c-.12.1-.27.22-.47.28l-.11.03h-.11c-.22,0-.4-.06-.54-.13-.08.05-.18.1-.29.13l-.1.03h-.2c-.08.01-.17,0-.25,0h-.02s-.16.02-.16.02c-.1.18-.25.36-.5.45-.12.05-.26.07-.4.07-.07,0-.14,0-.22-.02-.15.04-.29.05-.38.05-.16.05-.32.1-.49.15-.11.03-.23.06-.34.08-.13.14-.32.3-.59.36l-.48.1c-.1.02-.21.04-.32.05-.05,0-.1,0-.14.02-.13.07-.27.14-.44.18l-.07.02s-.08,0-.09,0c-.1,0-.18,0-.25-.02-.11.11-.25.22-.45.28l-.11.03h-.17c-.19,0-.35-.04-.46-.08-.23,0-.41-.07-.54-.13-.02.01-.05.03-.08.04-.12.11-.26.23-.45.31-.17.11-.27.18-.39.22-.13.06-.27.09-.43.09-.08.1-.18.19-.31.26-.06.17-.18.4-.45.53l-.12.06-.19.03h-.07c-.08,0-.16,0-.22-.03-.08.08-.2.18-.37.25-.15.07-.25.11-.31.13-.2.06-.73.17-.9.19-.11.02-.25.02-.39.02-.07,0-.14,0-.19,0,0,0-.04.02-.08.04-.12.05-.24.1-.36.13l-.1.02h-.19c-.11,0-.22,0-.33-.03h-.07s-.1,0-.1,0c-.09,0-.18-.01-.27-.03-.06.04-.13.07-.19.1-.13.14-.3.31-.56.39l-.11.03h-.18c-.12.29-.32.58-.72.66h-.07s-.07.01-.07.01c-.13,0-.25-.02-.35-.06-.08.06-.18.12-.29.16-.11.04-.23.06-.37.06,0,0-.16,0-.16,0-.09.02-.19.04-.29.04-.06,0-.13,0-.19-.01h0s-.14.01-.15.01c-.32,0-.55-.12-.7-.22-.01,0-.2.09-.2.09l-.22.02s-.06.05-.1.08c-.07.1-.19.24-.4.34-.08.04-.18.08-.27.11-.09.16-.22.34-.44.46-.16.08-.33.13-.53.13-.05,0-.1,0-.15,0-.05.02-.1.03-.14.04-.09.18-.22.36-.46.47-.14.07-.29.1-.46.1-.06,0-.13,0-.2-.01h0s-.27.02-.27.02c-.03,0-.06,0-.09,0-.06.07-.14.13-.23.19-.12.15-.29.34-.56.43-.04.01-.08.03-.12.05-.11.05-.22.1-.33.13l-.11.03h-.12c-.23,0-.41-.07-.54-.14-.1.16-.27.32-.53.4,0,0,0,0,0,0-.02.36-.12.77-.59.95-.08.03-.16.06-.25.08-.06.02-.13.04-.19.07-.12.05-.26.08-.41.08-.05,0-.1,0-.15,0-.08.07-.18.14-.29.19-.11.05-.23.09-.34.12-.11.04-.2.09-.3.13-.08.04-.16.08-.22.11l-.19.11h-.2c-.06.13-.16.25-.3.35-.14.1-.29.14-.41.16-.06.11-.15.21-.27.31-.25.19-.52.21-.67.23-.08.04-.17.08-.26.12-.04.01-.07.03-.11.05-.09.05-.18.08-.26.1-.08.23-.21.46-.49.6-.24.12-.46.12-.59.12h-.01c-.06.02-.28.11-.32.13l-.16.08h-.16c-.08.19-.22.35-.45.46l-.16.07-.27.02c-.11,0-.21-.02-.28-.03-.03.01-.19.07-.24.09-.08.03-.16.06-.25.08-.09.18-.23.37-.49.49l-.08.04-.17.03h-.13c-.13.01-.25-.01-.35-.05-.06.04-.14.09-.23.13l-.35.13c-.11.11-.24.23-.41.31-.03.01-.05.04-.08.06-.06.05-.13.09-.19.14-.11.13-.21.26-.38.36-.15.1-.31.15-.41.18-.15.09-.28.14-.38.18-.15.14-.24.25-.38.35-.15.11-.3.17-.42.2-.08.14-.19.29-.36.41-.17.11-.35.16-.55.16-.07,0-.14,0-.21-.02-.06.08-.14.15-.23.21-.21.14-.43.18-.56.2,0,0,0,0,0,0-.05.03-.1.05-.15.07-.04.2-.14.41-.35.57-.21.16-.43.2-.55.22-.13.09-.26.14-.34.17-.14.09-.28.2-.42.3-.1.07-.2.12-.3.18-.08.18-.21.39-.45.53l-.43.25c-.1.06-.2.1-.31.15-.05.02-.09.04-.14.06-.1.1-.22.21-.37.3-.11.07-.24.11-.38.13-.07.14-.17.28-.33.39-.24.16-.48.18-.65.18l-.06.04-.35.02c-.08,0-.15,0-.21-.02-.02.02-.04.04-.05.06-.08.14-.17.3-.34.44-.13.16-.22.25-.31.33-.13.11-.27.17-.39.21-.05.11-.11.22-.21.33,0,.18-.05.43-.26.64l-.17.16-.31.07s-.06,0-.06,0c-.05.1-.13.24-.28.36-.13.13-.2.19-.25.22l-.65.49-.05-.07c-.05.03-.09.05-.09.05-.1.05-.24.1-.39.15-.07.02-.13.04-.18.06,0,0-.03.03-.06.05-.1.09-.2.17-.31.23-.22.13-.44.16-.58.17-.01,0-.03,0-.03,0-.14.07-.28.09-.39.11-.05.06-.1.11-.15.16-.08.17-.19.39-.41.54-.09.06-.18.1-.26.13-.03.3-.12.65-.48.84l-.18.1s-.31.02-.33.02c-.06.08-.13.16-.23.23-.19.13-.38.17-.49.2,0,0,0,0,0,0-.16.1-.32.14-.43.16l-.13.11-.38.02c-.14,0-.26-.03-.37-.06,0,0-.02.01-.02.02-.11.11-.23.17-.34.21-.02.03-.04.07-.07.1-.04.12-.11.29-.27.45-.07.07-.15.13-.23.2-.04.18-.11.39-.29.57-.21.21-.47.28-.61.31-.04.03-.07.05-.11.07-.03.19-.1.4-.28.58-.22.22-.48.28-.64.3-.1.06-.2.1-.3.12-.04.09-.09.17-.16.25-.07.18-.16.41-.4.58-.03.02-.05.05-.08.07-.1.1-.21.19-.31.26l-.2.13-.33.02c-.08,0-.16,0-.23-.02-.05.18-.15.38-.37.53,0,0,0,0,0,0,.1.34.14.77-.25,1.09-.06.05-.13.1-.2.15-.06.05-.12.09-.17.13-.17.15-.36.21-.51.25-.05.09-.12.19-.21.28-.11.11-.23.18-.31.23-.09.07-.16.14-.24.21-.07.06-.13.12-.18.17-.09.1-.2.17-.32.22-.02.14-.07.27-.17.41-.11.14-.23.23-.34.29-.02.12-.07.25-.15.38-.17.26-.42.37-.55.44-.07.07-.13.13-.21.2-.03.02-.06.05-.08.07-.07.08-.15.14-.22.19,0,.24-.06.51-.29.73-.18.18-.39.25-.52.29-.04.04-.21.18-.25.22-.09.09-.18.15-.27.19-.02.19-.09.39-.26.57-.22.22-.48.27-.65.3-.02.02-.16.13-.2.17-.06.06-.13.11-.2.16-.03.2-.1.45-.32.64-.12.11-.34.24-.68.24-.04.06-.09.12-.16.18l-.29.25c-.07.14-.14.29-.28.43-.02.02-.04.06-.06.09-.04.06-.08.13-.13.19-.05.15-.11.31-.23.47-.11.15-.24.24-.32.31-.11.13-.22.23-.3.3l-.8-.21.74.29c-.04.09-.09.24-.19.38-.1.14-.22.24-.31.31-.03.16-.08.33-.2.5-.18.26-.44.36-.66.4-.03.09-.08.19-.14.28-.15.21-.34.32-.46.38,0,0,0,0,0,0-.04.04-.08.08-.12.11.03.2.01.43-.13.65-.14.23-.34.35-.46.41-.09.12-.19.2-.26.26-.1.14-.19.28-.28.41-.07.1-.14.19-.22.27-.02.2-.06.44-.23.65l-.31.38c-.07.09-.15.17-.23.24-.05.04-.08.07-.11.11-.06.15-.13.28-.24.41-.1.12-.22.2-.32.26-.02.14-.06.3-.16.45-.19.27-.44.38-.59.43-.16.15-.35.21-.51.25,0,.02-.02.05-.03.07-.02.16-.05.34-.15.53-.07.2-.11.32-.17.42-.08.15-.19.26-.29.33,0,.11-.02.24-.07.37.06.17.11.42,0,.69-.07.15-.19.32-.41.43,0,.11-.03.26-.12.42-.07.16-.12.25-.15.3l-.42.7-.08-.05s-.06.07-.06.07c-.07.08-.18.18-.3.28-.06.04-.11.08-.14.12,0,.01-.02.05-.04.08-.05.1-.1.19-.16.28-.16.23-.36.34-.47.41-.01,0-.02,0-.02.01-.11.12-.23.2-.32.26-.02.07-.05.13-.08.2,0,.19-.02.43-.17.66-.06.09-.12.16-.19.22.09.29.14.64-.13.96-.12.14-.25.23-.39.28-.02.1-.05.2-.11.3-.11.2-.27.31-.36.38,0,0,0,0,0,0-.12.18-.26.28-.36.34-.2.29-.53.37-.75.4,0,.01-.01.02-.02.03-.04.1-.11.22-.22.33,0,.03,0,.06-.01.09.02.13.03.31-.05.52-.03.1-.08.19-.12.28.04.18.07.4-.02.64-.1.28-.3.45-.42.54-.02.04-.05.08-.08.12.06.19.08.41-.02.65-.11.28-.32.43-.45.52-.06.09-.13.16-.2.22,0,.09,0,.19-.03.29.02.19.03.44-.1.7-.01.03-.03.06-.04.1-.05.13-.1.26-.17.37-.17.28-.42.39-.63.45.03.17.03.38-.08.61,0,0,0,0,0,.01.24.26.47.63.27,1.09-.04.08-.07.16-.11.23-.03.06-.06.12-.08.18-.09.21-.23.35-.34.45,0,.1-.02.22-.06.33-.05.15-.13.28-.18.36l-.08.2c-.03.11-.07.22-.09.29-.03.15-.1.26-.17.36.04.13.06.27.04.44-.03.17-.09.3-.16.41.03.12.05.25.04.4-.03.31-.2.53-.29.65-.02.07-.05.14-.07.21-.01.04-.03.07-.04.11-.02.11-.06.2-.1.28.12.21.21.47.11.77-.08.25-.23.42-.32.52-.02.05-.1.27-.12.32-.03.11-.09.2-.14.28.07.16.1.35.05.57-.08.31-.28.49-.41.6-.01.03-.07.18-.08.23-.02.08-.06.16-.09.24.08.19.14.44.05.71-.09.29-.29.45-.47.55,0,.08-.03.17-.06.26l-.1.31c.02.16.03.33-.02.51,0,.02,0,.06,0,.09,0,.08,0,.16-.02.23.03.15.07.32.05.51-.02.19-.08.34-.12.43-.03.16-.07.3-.1.4.02.18.05.32.05.49,0,.18-.05.34-.09.45.06.15.11.32.1.53-.02.31-.18.53-.35.68.02.09.03.2.02.31-.01.25-.12.44-.18.55,0,.05-.02.09-.03.13.14.15.26.35.27.61.01.27-.09.48-.15.6,0,.16-.05.29-.07.38,0,.16,0,.33-.01.5,0,.09-.01.18-.02.26,0,.01,0,.03,0,.04.1.17.2.39.19.66l-.04.48c0,.12-.03.22-.05.33-.01.05-.02.1-.03.14.03.13.06.28.04.47-.01.15-.06.27-.11.38.08.13.13.29.13.49,0,.3-.14.53-.23.66-.04.21-.16.37-.27.49,0,.02.01.04.01.06.07.14.16.3.18.51.06.2.1.32.11.44.02.15,0,.29-.02.4.07.1.13.21.17.35.15.1.35.27.42.56.04.16.04.37-.08.59.06.09.13.23.15.4.03.16.05.26.06.33.02.17.02.7.01.86,0,.11-.03.26-.06.42-.01.06-.03.12-.03.16,0,0,.01.04.02.07.02.13.04.25.05.37,0,.26-.08.47-.13.59,0,.02-.02.03-.02.03-.02.15-.06.28-.09.37.02.06.04.12.06.19.12.15.25.34.28.62.01.1,0,.19,0,.28.25.17.51.41.51.82,0,.18-.05.34-.12.47.04.08.08.18.1.29.04.23,0,.42-.04.53.02.21-.03.38-.06.49.03.35-.17.62-.33.78,0,.01,0,.02,0,.03.03.09.05.21.04.36.02.03.04.06.06.09.1.09.22.22.3.43.03.09.06.18.08.28.15.11.31.26.4.5.1.28.06.53.03.68,0,.04.01.08.01.12.16.1.32.25.41.48.11.29.05.56.02.7.01.11,0,.22,0,.31.06.07.12.14.16.24.14.13.31.31.38.6.01.04.03.08.04.11.04.11.08.22.11.32.07.32-.04.58-.15.76.14.11.29.28.35.53.35.04.76.17.91.64.02.05.04.13.07.21.02.07.04.13.06.19.08.21.08.4.06.55.07.08.13.17.18.29.07.15.09.29.11.38.03.09.07.18.11.28.04.1.07.18.1.23.06.12.09.24.1.35.12.06.23.16.32.29.09.14.14.28.16.4.1.06.21.14.3.26.19.25.22.52.23.67.04.08.08.16.11.24.02.04.03.08.04.11.05.08.08.15.1.23.23.07.47.2.61.48.12.24.12.46.12.6.02.05.04.1.06.15.03.07.04.12.07.16.05.1.08.2.09.3.17.07.32.19.43.39.15.28.13.55.11.71.01.03.07.18.1.22.04.07.07.15.1.23.19.09.4.22.52.49.12.26.1.51.04.7.05.06.09.13.13.21l.15.33c.12.11.24.22.34.38l.07.08c.05.06.1.11.14.17.13.08.27.18.39.34.11.14.17.29.21.39.09.11.16.25.21.33.14.12.27.21.39.34.12.13.19.28.24.39.14.06.3.16.43.32.2.24.23.5.22.72.08.05.15.11.22.19.17.19.23.4.27.52,0,0,0,0,0,0,.03.04.06.09.08.13.3.02.49.16.61.27.19.19.27.42.31.54.09.11.15.22.19.29.11.11.23.23.34.35.08.08.15.17.22.26.19.05.41.15.59.36l.3.37c.07.09.13.18.18.27.03.05.05.08.07.12.11.06.23.15.35.29.1.12.16.24.2.36.15.05.31.12.44.27.21.22.26.49.29.65.11.18.14.38.14.55.01,0,.03.02.04.02.15.05.33.1.49.23.18.1.29.16.39.23.14.1.22.23.28.34.12.02.24.06.36.14.05,0,.12-.02.18-.02h.17l.16.07c.11.05.38.2.5.54.1.02.25.07.4.18.15.1.23.16.28.2.15.13.51.53.61.66.07.09.15.21.23.34.04.07.07.12.1.16.16.1.26.18.35.27.18.17.26.39.31.51,0,.01,0,.02,0,.02.1.13.16.26.2.36.06.03.12.07.18.1.18.03.42.09.62.28.07.06.13.13.17.2.09-.02.18-.03.27-.03h.34l.32.27c.14.14.21.3.24.45.09.03.19.09.28.16.17.14.26.31.32.42,0,0,0,0,0,0,.16.14.24.31.29.41h0c.24.24.28.55.27.77,0,0,.01,0,.02.01.08.05.2.13.3.26.04.01.08.02.13.04.21,0,.36.05.49.12.09.05.17.1.25.16.05,0,.09,0,.13,0,.19,0,.36.04.51.12.25.14.38.35.45.46.04.03.07.06.1.09.06-.01.12-.02.18-.02h.21l.26.12c.26.14.39.37.46.51.09.08.15.16.2.24.08.01.17.03.27.07.19,0,.43.03.67.19.03.02.06.03.1.05.12.06.24.13.34.2.26.2.34.46.37.67.02,0,.03,0,.05,0,.21,0,.41.06.57.18.19-.13.4-.24.65-.24h.18l.16.07c.15.07.24.13.33.19.05.03.11.07.17.11.2.11.32.26.4.39.1.02.21.05.33.11.14.07.25.15.32.21.1.06.19.11.28.16.08.04.16.09.22.11.13.06.23.13.31.22.06-.01.12-.02.18-.02h.1l.1.03c.19.05.34.14.44.23.05,0,.11-.01.17-.01h.15c.38.08.59.3.69.4.09.04.17.08.25.13.03.02.06.04.09.05.09.04.17.08.23.13.12-.05.25-.08.4-.08h.14l.13.05c.33.12.5.32.58.42.05.03.25.14.3.16.11.05.19.11.26.18.07-.02.15-.03.23-.03h.14l.13.05c.35.13.52.38.61.53.02,0,.17.09.21.11.08.03.15.08.23.13.09-.02.19-.04.29-.04h.18l.24.09c.28.13.41.35.49.54.08.02.16.05.25.1l.32.18c.15,0,.31.02.49.09.02,0,.06.01.09.02.09.02.16.03.23.05.09,0,.14,0,.19,0,.12,0,.22.01.32.04.18.05.32.13.41.18.17.05.29.12.39.16,0,0,.17.02.17.02.1,0,.22,0,.36.03.17.04.31.11.4.17.09-.02.19-.04.31-.04h.09l.15.03c.3.07.49.26.61.45.02,0,.16,0,.16,0l.16.03c.24.06.41.19.52.27,0,0,0,0,0,0,.05.02.1.04.14.06.14-.09.31-.15.51-.15.37.04.57.17.69.25.15.04.28.09.36.13.16.04.33.06.5.1.11.02.22.06.33.09,0,0,.02,0,.02,0,.06-.04.21-.08.39-.08h.05l.11.02.12.03.46.14c.09.03.18.06.26.09.07.03.12.05.17.06.03,0,.06,0,.1,0,.11,0,.23,0,.37.04.15.04.27.11.37.18.09-.03.2-.05.32-.05h.14c.36.08.57.28.67.4.16.07.28.19.37.3h.66c.17-.03.26-.04.34-.04.23.01.4.07.52.13.11-.05.24-.08.39-.09.13-.12.34-.27.64-.27.22,0,.41.07.56.21.09-.03.2-.06.34-.06h.15c.1,0,.2,0,.26.01l.82.09v.09s.06.02.07.02c.11.03.25.1.39.16.06.03.11.06.16.07,0,0,.05,0,.08,0,.14,0,.27.02.39.05.25.06.43.19.53.27.02.01.02.02.03.02.15.06.27.14.36.2.08,0,.22-.01.22-.01.13-.06.3-.12.51-.12h.12c.13.03.24.06.33.11.19-.16.41-.31.71-.31h.1l.1.02c.21.05.36.16.48.28.06-.01.12-.02.19-.02h.11c.26.04.43.15.53.21,0,0,0,0,0,0,.21.04.36.14.46.21.35.08.54.35.65.55.01,0,.03,0,.04,0,.1,0,.24.02.39.09.04,0,.08-.02.12-.02.11-.06.28-.13.51-.13.11,0,.21.01.31.02.15-.1.35-.2.61-.2.3,0,.52.13.65.21.05,0,.1.02.15.04.15-.11.34-.2.58-.2.34.01.57.16.69.26.11.03.21.08.3.13.09-.03.19-.06.3-.06.13-.06.31-.13.53-.13h.11c.07.02.13.02.18.02.13,0,.27.02.39.05.32.07.51.28.63.46.12-.06.28-.12.46-.12h.07s.11.02.13.03c.17-.28.43-.56.86-.56h.11c.09.02.18.04.26.05.08.01.14.03.21.03.23.02.41.12.54.21.07-.02.17-.04.28-.04.22.01.36.05.45.07.11.02.2.02.29.03.13.01.22.02.28.02.16,0,.29.04.41.09.12-.08.26-.13.43-.14h0c.18,0,.32.03.43.07.11-.06.24-.11.4-.13h.05s.06,0,.06,0c.27,0,.48.09.59.14h0c.11,0,.19.01.27.02.05,0,.09.01.13.02.11,0,.21.02.3.05.17-.15.38-.27.66-.27.34.03.55.15.66.21,0,0,.11.02.16.03.08.01.13.02.19.03.12.01.23.05.32.09.14-.09.31-.16.52-.16.39.04.61.21.74.32.03,0,.21.04.26.05.08.01.17.03.26.05.15-.09.34-.17.57-.17h.11c.32.05.52.23.66.38.02,0,.12,0,.12,0l.15.02.38.08s.08-.02.12-.02v-.02l.8-.02c.08-.05.25-.1.46-.1.19,0,.34.04.44.07.19.01.3.03.41.05l.34.76-.22-.76c.1-.03.25-.07.42-.08h.01c.21,0,.36.03.46.06.14-.07.32-.14.53-.14.32,0,.55.15.72.3.1-.03.2-.05.32-.05.25,0,.45.09.57.14,0,0,.01,0,.01,0,.06,0,.12.02.17.03.15-.15.35-.27.61-.28,0,0,0,0,0,0,.3,0,.5.08.6.13h0c.18,0,.3.03.38.05.03,0,.37,0,.5,0,.14,0,.25.01.37.02h0c.16-.09.35-.18.6-.18l.56.04c.12.01.23.03.34.06.05.01.1.02.15.03.15-.03.26-.04.36-.04.22.01.39.07.52.13.13-.07.29-.13.48-.13.35,0,.57.17.7.26.22.05.38.18.5.3.03,0,.06-.01.09-.02.15-.07.32-.14.53-.16.2-.05.33-.08.45-.09h.01c.18,0,.33.03.43.06.11-.06.24-.12.39-.15.12-.14.31-.32.61-.35h.02c.24,0,.42.06.56.14h.01c.1-.05.25-.11.44-.12.17-.02.27-.03.33-.03h.8v.09c.07.01.12.02.12.02.12.02.27.07.42.12.06.02.12.04.17.06h.27c.07-.01.13,0,.2,0,.27.03.46.15.58.22.01,0,.02.01.02.01.17.04.31.11.4.17.08-.01.15-.02.22-.03.15-.08.34-.17.59-.17.14,0,.26.04.36.08.19-.19.43-.38.76-.38h.13c.21.05.37.14.49.24.08-.02.17-.04.27-.04.29.02.46.1.57.15,0,0,0,0,.01,0,.21.02.38.11.48.17,0,0,0,0,0,0,.35.06.57.31.69.5h.09c.1,0,.22.01.34.06.04-.01.08-.03.13-.03.11-.07.27-.15.49-.17h.16c.05,0,.1,0,.15,0,.15-.11.34-.23.6-.25h.01c.34,0,.55.11.66.16.05,0,.1.01.14.02.15-.13.34-.24.6-.25h0c.33,0,.56.13.68.2.12.02.22.06.31.11.09-.04.18-.07.29-.08.16-.08.35-.17.6-.17l.13.8Z" style="fill:#090000;"/></g></svg>