<?xml version="1.0" encoding="UTF-8"?><svg id="b" xmlns="http://www.w3.org/2000/svg" viewBox="0 0 32.5 32.5"><g id="c"><path d="M9.52.11c-1.73.08-2.91.36-3.94.76-1.07.42-1.97.97-2.87,1.88-.9.91-1.46,1.81-1.87,2.88-.4,1.03-.67,2.22-.75,3.95C.01,11.32,0,11.87,0,16.28c0,4.41.03,4.97.11,6.7.08,1.73.36,2.91.76,3.94.42,1.07.97,1.97,1.88,2.87.9.9,1.81,1.45,2.88,1.87,1.03.4,2.22.67,3.95.75,1.73.08,2.29.09,6.7.08,4.41,0,4.97-.03,6.7-.11,1.73-.08,2.91-.36,3.94-.76,1.07-.42,1.97-.97,2.87-1.88.9-.9,1.45-1.81,1.87-2.88.4-1.03.67-2.22.75-3.94.08-1.73.09-2.29.09-6.7,0-4.41-.03-4.97-.11-6.7-.08-1.73-.36-2.91-.76-3.94-.42-1.07-.97-1.97-1.88-2.87-.9-.9-1.81-1.46-2.88-1.87-1.03-.4-2.22-.67-3.95-.75C21.19.01,20.63,0,16.22,0c-4.41,0-4.97.03-6.7.11M9.71,29.49c-1.58-.07-2.44-.33-3.02-.55-.76-.29-1.3-.65-1.87-1.21-.57-.57-.92-1.11-1.22-1.87-.22-.57-.49-1.43-.56-3.02-.08-1.71-.1-2.23-.11-6.57,0-4.34,0-4.85.08-6.57.07-1.58.33-2.44.55-3.02.29-.76.64-1.3,1.21-1.87.57-.57,1.11-.92,1.87-1.22.57-.22,1.43-.49,3.02-.56,1.71-.08,2.23-.1,6.56-.11,4.34,0,4.85,0,6.57.08,1.58.07,2.44.33,3.02.55.76.29,1.3.64,1.87,1.21.57.57.92,1.11,1.22,1.87.22.57.49,1.43.56,3.01.08,1.71.1,2.23.11,6.57,0,4.34,0,4.85-.08,6.57-.07,1.58-.33,2.45-.55,3.02-.29.76-.64,1.3-1.21,1.87-.57.57-1.11.92-1.87,1.22-.57.22-1.43.49-3.01.56-1.71.08-2.23.1-6.57.11-4.34,0-4.85,0-6.57-.08M22.96,7.56c0,1.08.88,1.95,1.95,1.95,1.08,0,1.95-.88,1.95-1.95,0-1.08-.88-1.95-1.95-1.95-1.08,0-1.95.88-1.95,1.95M7.91,16.27c0,4.61,3.75,8.34,8.36,8.33,4.61,0,8.34-3.75,8.33-8.36,0-4.61-3.75-8.34-8.36-8.33-4.61,0-8.34,3.75-8.33,8.36M10.83,16.26c0-2.99,2.42-5.42,5.41-5.43,2.99,0,5.42,2.41,5.43,5.41,0,2.99-2.42,5.42-5.41,5.43-2.99,0-5.42-2.41-5.43-5.41"/></g></svg>