<?xml version="1.0" encoding="UTF-8"?><svg id="b" xmlns="http://www.w3.org/2000/svg" viewBox="0 0 35 35"><g id="c"><g id="d"><path id="e" d="M35,17.5C35,7.84,27.16,0,17.5,0S0,7.84,0,17.5c0,8.21,5.65,15.09,13.27,16.98v-11.64h-3.61v-5.35h3.61v-2.3c0-5.96,2.7-8.72,8.54-8.72,1.11,0,3.02.22,3.8.43v4.85c-.41-.04-1.13-.07-2.02-.07-2.87,0-3.98,1.09-3.98,3.91v1.89h5.72l-.98,5.35h-4.73v12.02c8.67-1.05,15.38-8.42,15.38-17.37Z"/><path id="f" d="M24.35,22.85l.98-5.35h-5.72v-1.89c0-2.83,1.11-3.91,3.98-3.91.89,0,1.61.02,2.02.07v-4.85c-.78-.22-2.7-.43-3.8-.43-5.85,0-8.54,2.76-8.54,8.72v2.3h-3.61v5.35h3.61v11.64c1.35.34,2.77.52,4.23.52.72,0,1.43-.04,2.12-.13v-12.02h4.73Z" style="fill:none;"/></g></g></svg>