<?xml version="1.0" encoding="UTF-8"?><svg id="b" xmlns="http://www.w3.org/2000/svg" viewBox="0 0 242.92 16"><g id="c"><polygon points="5.17 3.98 .62 3.98 .62 6.25 5.17 6.25 5.17 9.27 0 12.17 1.06 14.14 5.17 11.84 5.17 15.92 7.45 15.92 7.45 0 5.17 0 5.17 3.98"/><path d="M14.83,3.09c-.9.7-3.41,2.2-3.41,2.2V0h-2.27v13.94c0,1.26.7,1.98,1.91,1.98h3.85l1.06-1.13v-2.85h-2.27v1.71h-2.27v-5.77c1.91-.98,3.49-1.99,4.78-2.99l.39-.3-1.36-1.79-.4.31Z"/><path d="M33.55,1.4c-4.78,0-7.64,3.75-7.64,7.38,0,2.64,1.66,5.14,3.41,5.14,1.06,0,2.04-1.04,3.09-3.26,1.02-2.13,1.68-4.49,1.95-7.01.61.06,1.17.19,1.58.37.39.2,2.34,1.35,2.34,3.86,0,1.42-.72,2.95-1.8,3.8-.81.65-2.53,1.36-2.6,1.39l-.34.14,1.26,1.92.41-.16c4.46-1.79,5.4-4.85,5.4-7.09,0-3.75-2.97-6.48-7.06-6.48ZM30.65,8.98v.03c-.45,1.07-.81,1.79-1.08,2.15-.16.2-.22.2-.28.2-.24,0-1.15-.98-1.15-2.61,0-1.02.34-2,1.05-2.97.98-1.33,1.99-1.77,2.79-1.99-.19,1.77-.63,3.46-1.32,5.18Z"/><polygon points="148.96 2.43 151.13 4.33 152.37 3.04 150.19 1.14 148.96 2.43"/><path d="M145.06,4.85c-.59-.61-1.2-1.25-2.11-1.25-.52,0-1.09.23-1.46.59-.11.11-.36.43-.94,1.18l-3.81,4.55,1.77,1.42,4.04-4.71.48-.58c.05.05.14.16.2.23.1.11.21.25.36.42,2.12,2.3,6.41,6.77,6.44,6.81l.24.25,1.81-1.66-6.88-7.09-.14-.15Z"/><polygon points="150.46 4.97 148.29 3.07 147.06 4.39 149.23 6.28 150.46 4.97"/><rect x="163.34" y="6.82" width="11.94" height="2.27"/><rect x="230.98" y="6.82" width="11.94" height="2.27"/><rect x="210.52" y="1.14" width="2.27" height="6.25"/><path d="M219.61,1.14h-2.27v5.38c0,2.87-.79,4.06-1.38,4.7-1.38,1.5-2.98,2.09-2.99,2.09l-.48.17,1.62,1.88.37-.19c1.45-.78,3.64-1.97,4.5-4.6.65-1.96.64-3.51.63-8.11v-1.32Z"/><path d="M198.64,5.32c0,.07,0,.14-.01.22,0,.07,0,.14-.01.22,0,.06,0,.13-.01.2,0,.09-.01.19-.02.3,0,.13-.02.26-.03.41,0,.03,0,.07,0,.1l-.02.2c0,.06-.01.13-.02.19-.1.98-.27,2.15-.56,3.39-.23,1.01-.64,2.53-1.7,3.38-.16.12-.33.24-.53.34-.01,0-.02,0-.03.01-.59.3-1.35.49-2.14.51h-.4s-.49-2.28-.49-2.28c0,0,.93.01,1.4-.09.46-.11,1.29-.48,1.66-2.26.13-.63.24-1.19.32-1.69,0,0,0,0,0,0,.1-.63.16-1.16.19-1.62h-2.77c-.29,1.19-.68,2.61-1.61,4.17-.54.89-1.01,1.48-1.64,2.05,0,0,0,0,0,0-.81.73-1.61,1.23-2.21,1.57l-.36.21-1.68-1.77s1.14-.46,1.9-1.03c.72-.54,1.41-1.15,2.01-2.13.73-1.19,1.07-2.57,1.12-3.06h-3.78v-2.27h4.48c.18-1.56.14-3.41.14-3.41h1.7s.05,2.05-.16,3.41h4.48l.79.77Z"/><path d="M125.86,7.97c-.85,4.42-2.82,5.3-3.63,5.48-.62.14-1.1,0-1.46-.43-.08-.09-.3-.32-.85-2.17l-2.47-8.2-2.22.7,2.19,7.03c.8,2.67.99,3.18,1.46,3.88.66.97,1.74,1.54,2.89,1.54.01,0,.03,0,.04,0,.34,0,.69-.06,1.07-.16,2.36-.72,4.05-3.01,5.01-6.83l.12-.48-2.07-.76-.08.4Z"/><path d="M55.46,2.58l.31-.47-1.96-1.41-.33.52c-1.35,2.13-2.39,4.31-3.08,6.49-.5,1.57-1.05,3.98-1.1,6.01l-.02.56,2.4.12v-.37s-.1-3.04,1.03-6.09c.8-2.16,1.26-3.13,2.74-5.37Z"/><path d="M61.54,8.38l2.44.74.67-2.17-2.41-.75c.38-1.26.96-2.8.96-2.8l-2.05-.72c-.24.58-.47,1.2-1,2.82l-.02.07-3.19-.98-.78,2.2,3.2.97c-.18.6-.39,1.15-.78,2.71l-.14.54c-.32-.15-.67-.27-1.01-.38-2.1-.66-3.42.23-3.79,1.41-.56,1.79,1.1,3.01,2.69,3.51,1.67.52,2.8.15,3.47-1.12.6.27,1.82,1.5,1.83,1.51l.06.06,1.43-1.76-.05-.05s-1.22-1.33-2.57-2.2c.53-1.98.72-2.61.97-3.4l.06-.21ZM57.81,13.55c-.12.08-.31.12-.59.05-.69-.16-1.21-.57-1.14-.89.03-.14.14-.27.43-.29.12,0,.35,0,.54.05.25.06.55.14,1.04.43.02.01.04.05.03.07-.07.3-.16.48-.3.58Z"/></g></svg>