<?xml version="1.0" encoding="UTF-8"?><svg id="b" xmlns="http://www.w3.org/2000/svg" viewBox="0 0 344.66 238.44"><g id="c"><path d="M338.85,218.2c-2.07,10.72-6.85,12.87-8.81,13.29-1.51.34-2.67,0-3.55-1.03-.2-.21-.72-.79-2.07-5.26l-6-19.89-5.39,1.69,5.31,17.04c1.94,6.48,2.41,7.71,3.55,9.41,1.6,2.35,4.22,3.74,7.02,3.74.04,0,.07,0,.11,0,.83-.01,1.67-.14,2.59-.4,5.73-1.74,9.82-7.31,12.16-16.57l.28-1.16-5.03-1.83-.19.97Z" style="stroke:#000; stroke-miterlimit:10;"/><path d="M312.62,186.17c-12.43-40.47-36.05-83.88-57.45-105.58-19.99-20.28-32.77-36.31-37.97-47.67-1.49-3.25-2.66-6.25-3.8-9.15-3.99-10.21-7.14-18.28-19.07-21.53-8.56-2.38-14.32-2.31-18.68.22-6.49,3.76-8.61,12.14-11.83,24.82-.63,2.48-1.3,5.12-2.06,7.94-6.4,23.86-36.17,34.52-54.24,32.77-3.33-.32-6.4-.74-9.11-1.1-12.86-1.73-22.16-2.99-24.3,12.77-4.17,30.73-9.97,43.27-19.58,64.04-4.9,10.6-11,23.79-18.25,42.56l-1.7,4.57,5.1,1.97,1.69-4.57c7.19-18.61,13.25-31.71,18.12-42.24,9.49-20.51,15.76-34.06,20.03-65.6,1.36-10,4.34-9.95,18.16-8.09,2.76.37,5.88.79,9.31,1.12,10.79,1.04,23.81-1.73,34.76-7.44,9.23-4.81,21.12-13.81,25.29-29.35.76-2.84,1.44-5.52,2.07-8.02,2.88-11.34,4.78-18.83,9.27-21.44,2.95-1.71,7.54-1.61,14.49.32,9.29,2.53,11.6,8.45,15.43,18.25,1.11,2.83,2.36,6.05,3.92,9.44,5.47,11.93,18.61,28.5,39.05,49.23,20.84,21.14,43.92,63.64,56.12,103.35l1.54,4.82,5.22-1.61-1.54-4.82Z" style="stroke:#000; stroke-miterlimit:10;"/><path d="M15.49,205.11l.75-1.13-4.75-3.42-.8,1.26c-3.28,5.16-5.79,10.46-7.46,15.75-1.2,3.82-2.54,9.66-2.66,14.59l-.04,1.37,5.82.29-.03-.89c0-.07-.21-7.39,2.53-14.78,1.94-5.25,3.05-7.6,6.65-13.04Z" style="stroke:#000; stroke-miterlimit:10;"/><path d="M30.26,219.2l5.92,1.79,1.63-5.27-5.86-1.83c.92-3.06,2.33-6.78,2.33-6.78l-4.98-1.75c-.59,1.4-1.13,2.91-2.42,6.83l-.06.17-7.74-2.37-1.88,5.33,7.76,2.35c-.43,1.46-.95,2.8-1.88,6.58l-.34,1.31c-.79-.35-1.62-.66-2.45-.92-5.1-1.61-8.3.56-9.2,3.41-1.36,4.34,2.66,7.3,6.52,8.51,4.04,1.26,6.79.37,8.42-2.71,1.46.65,4.41,3.64,4.45,3.67l.15.16,3.47-4.27-.11-.12s-2.96-3.22-6.23-5.33c1.28-4.8,1.75-6.33,2.36-8.26l.15-.5ZM21.19,231.73c-.29.19-.75.29-1.43.13-1.67-.39-2.94-1.37-2.76-2.15.08-.34.35-.66,1.04-.7.3-.01.85,0,1.3.11.61.14,1.34.34,2.52,1.04.06.03.09.11.08.17-.17.72-.39,1.18-.74,1.4Z" style="stroke:#000; stroke-miterlimit:10;"/></g></svg>