<svg width="427" height="124" viewBox="0 0 427 124" fill="none" xmlns="http://www.w3.org/2000/svg">
<g clip-path="url(#clip0_513_6205)">
<path d="M44.9349 13.7733C43.2765 13.6134 41.5583 13.5135 39.4304 13.5135H5.50447C3.16682 13.5135 1.65833 13.5634 0 13.7733V8.47589C1.50848 8.68579 3.06692 8.78574 5.45452 8.78574H39.4803C41.9179 8.78574 43.4264 8.68579 44.9349 8.47589V13.7733ZM10.959 46.2076H5.34463C5.50447 44.6484 5.60437 42.9892 5.60437 41.5799V34.5133C5.60437 32.6442 5.55442 31.6047 5.39458 30.2554C6.59338 30.3553 7.47249 30.4153 9.29067 30.4153H35.5243C37.5523 30.4153 38.3814 30.3653 39.4703 30.2054C39.3105 31.4048 39.2606 32.4443 39.2606 34.5733V41.6398C39.2606 43.6689 39.3105 44.8083 39.5203 46.2176H33.856V44.1386H10.959V46.2176V46.2076ZM39.2705 6.49685C37.6122 6.28695 36.0538 6.23698 33.7661 6.23698H11.2187C8.98098 6.23698 7.42254 6.28695 5.76421 6.49685V1.45929C7.37259 1.66919 9.04092 1.76914 11.2187 1.76914H33.7661C36.0538 1.76914 37.7121 1.66919 39.2705 1.45929V6.49685ZM38.861 20.74C37.4624 20.58 36.1037 20.5301 33.826 20.5301H11.2687C8.93103 20.5301 7.58238 20.58 6.1738 20.74V15.9023C7.47249 16.0622 8.87109 16.1122 11.2687 16.1122H33.816C36.2036 16.1122 37.5523 16.0622 38.851 15.9023V20.74H38.861ZM38.861 27.7566C37.5623 27.5966 36.1037 27.5467 33.826 27.5467H11.2687C8.93103 27.5467 7.47249 27.5966 6.1738 27.7566V22.9189C7.63233 23.0788 8.77119 23.1288 11.2687 23.1288H33.816C36.3135 23.1288 37.4524 23.0788 38.851 22.9189V27.7566H38.861ZM10.959 39.351H33.9259V35.033H10.959V39.351Z" fill="black"/>
<path d="M82.0275 30.8251H96.3631C98.8006 30.8251 100.729 30.7251 102.287 30.5152V35.5028C100.679 35.2929 98.7507 35.193 96.3631 35.193H86.3332C90.489 38.1515 95.6838 39.9207 103.316 41.0102C102.017 42.6194 101.398 43.7089 100.459 45.8478C96.0934 44.8083 93.6059 44.0287 90.9485 42.8892C87.1523 41.28 84.7148 39.7208 81.9076 37.172V37.4819C81.9076 37.5885 81.9243 37.795 81.9576 38.1016C81.9909 38.4081 82.0075 38.8079 82.0075 39.301C82.0075 39.4009 82.0075 39.8207 82.0575 40.4404V42.3095C82.0575 44.4385 82.1074 45.2681 82.3671 46.5175H76.493C76.7528 45.0582 76.8027 44.0187 76.8027 42.2596V40.4904C76.8527 39.7108 76.9026 39.0911 76.9026 38.5713C76.9026 38.1515 76.9526 37.8417 77.0025 37.222C71.6479 41.7998 67.8118 43.7188 59.3902 45.8978C58.5611 43.9787 57.8817 42.8793 56.4832 41.32C63.3962 40.1806 68.7408 38.1515 72.7468 35.183H63.2963C60.9087 35.183 59.0905 35.2829 57.4222 35.4928V30.5052C58.9307 30.7151 60.7489 30.8151 63.2963 30.8151H76.8527V28.2163H68.591C67.0825 28.2163 65.3143 28.2663 63.9656 28.3163C64.0655 26.857 64.1255 25.9774 64.1255 24.2583V16.8219H62.7768C60.0196 16.8219 58.621 16.8718 57.0626 17.0817V12.304C58.4612 12.5139 59.66 12.5639 62.0476 12.5639H64.1255C64.1255 11.3145 64.0755 10.5349 63.9157 9.75528H69.1105C69.1604 9.07561 69.2104 8.45591 69.2104 7.57633H62.9267C60.4292 7.57633 58.8208 7.62631 57.1125 7.83621V2.90859C58.8807 3.11849 60.3892 3.21844 62.9267 3.21844H69.2104V2.69869C69.2104 1.75915 69.1604 0.979526 69.0006 0H74.6149C74.4052 1.13945 74.4052 1.71917 74.4052 2.69869V3.21844H84.535V2.69869C84.535 1.75915 84.485 1.08947 84.3252 0H89.9395C89.7797 0.939545 89.7298 1.71917 89.7298 2.69869V3.21844H96.3231C98.8706 3.21844 100.429 3.11849 102.087 2.90859V7.8462C100.369 7.63631 98.7607 7.58633 96.3231 7.58633H89.7298C89.7298 8.57585 89.7298 9.04562 89.8297 9.87522H95.0744C94.9145 10.7548 94.8646 11.6444 94.8646 12.5739H96.423C99.0704 12.5739 100.579 12.5239 102.087 12.314V17.0917C100.479 16.8818 99.1803 16.8319 96.423 16.8319H94.8646V19.3806C94.8646 20.8899 94.9145 21.9294 95.0244 22.659C93.7257 22.6091 92.0674 22.5591 90.3991 22.5591H80.7388C79.0205 22.5591 77.7218 22.6091 76.1134 22.659C76.2133 21.8794 76.2733 20.8399 76.2733 19.7504V16.8419H69.3602V24.2183H94.3951C97.412 24.2183 98.5009 24.1683 99.8496 24.0084V28.4262C98.2412 28.2663 97.0924 28.2163 94.495 28.2163H81.9775V30.8151L82.0275 30.8251ZM69.5101 10.1851C69.4601 10.7548 69.4102 11.5344 69.4102 12.5739H76.3232C76.3232 11.5344 76.2733 11.0147 76.1634 9.87522H81.4581C81.3582 10.6548 81.2982 11.2246 81.2982 12.5739H89.9196C89.9196 11.4844 89.8696 10.9647 89.8197 10.1851H84.465C84.5316 9.35214 84.5649 8.48589 84.5649 7.58633H74.4351C74.4351 8.83573 74.4351 9.14557 74.535 10.1851H69.5001H69.5101ZM81.2982 18.7109H89.9196V16.8419H81.2982V18.7109Z" fill="black"/>
<path d="M120.729 19.5905C120.309 19.6904 120.109 19.8004 119.79 19.9503C119.53 20.1102 119.37 20.1602 119.11 20.1602C118.022 20.1602 117.192 18.1312 116.563 14.2831C116.983 14.333 117.342 14.333 117.552 14.333C119.73 14.333 125.294 13.6534 128.621 12.9837C129.71 8.4059 130.279 4.97756 130.279 2.48877C130.279 2.27887 130.279 2.01899 130.229 1.60919C132.467 1.86907 134.595 2.33884 136.043 2.90856C136.873 3.21841 137.292 3.68819 137.292 4.20793C137.292 4.46781 137.242 4.62773 136.982 5.03753C136.463 5.97041 135.667 8.3426 134.595 12.1541C135.844 11.9942 137.242 11.8942 138.131 11.8942C140.259 11.8942 141.927 12.314 143.116 13.1436C145.194 14.6529 146.233 17.7214 146.233 22.4491C146.233 30.1954 144.835 36.7922 142.437 40.0706C140.779 42.3595 138.591 43.4489 135.524 43.4489C133.656 43.4489 131.888 43.1891 131.368 42.8792C131.088 42.706 130.899 41.9797 130.799 40.7003C130.639 39.301 130.329 38.1015 129.71 36.6422C132.407 37.5218 133.086 37.6817 134.745 37.6817C137.242 37.6817 138.281 36.4823 139.42 32.3243C140.199 29.5657 140.619 25.9874 140.619 22.1892C140.619 18.1312 139.63 16.6819 136.883 16.6819C135.944 16.6819 134.445 16.7819 133.246 16.9917C133.086 17.5615 133.036 17.6114 132.827 18.3411C131.368 23.6385 128.721 30.6551 126.073 36.2724C123.316 41.9397 122.647 43.0791 121.968 43.0791C121.548 43.0791 120.149 42.3495 118.641 41.36C117.442 40.6303 117.132 40.3205 117.132 39.9007C117.132 39.7274 117.842 38.5147 119.26 36.2624C122.117 31.8446 125.854 23.1688 127.152 18.0712C123.306 18.9008 121.178 19.4206 120.709 19.5805L120.729 19.5905ZM147.222 13.7733C147.222 13.4135 147.692 12.9437 149.2 11.7443C150.239 10.9647 150.759 10.6548 151.118 10.6548C151.428 10.6548 151.688 10.8147 152.367 11.4844C155.434 14.443 158.291 18.4011 159.949 21.8294C160.469 22.9689 160.779 23.6985 160.779 24.0084C160.779 24.5281 160.619 24.688 158.96 26.0374C157.921 26.867 156.723 27.5466 156.313 27.5466C155.953 27.5466 155.794 27.3867 155.434 26.5071C154.395 23.9584 153.406 21.9893 152.157 20.0603C150.809 17.9813 150.549 17.6714 147.482 14.393C147.272 14.0832 147.222 13.9232 147.222 13.7733Z" fill="black"/>
<path d="M195.263 19.7005C202.376 19.7005 207.001 23.9084 207.001 30.3053C207.001 36.7022 203.105 40.7503 195.313 43.2491C192.506 44.1286 187.88 44.9682 185.802 44.9682C184.714 44.9682 184.454 44.7084 183.724 43.1991C183.155 41.9997 182.526 41.28 180.967 40.1806C194.004 39.1411 200.448 35.8127 200.448 30.1454C200.448 26.9769 198.21 25.1078 194.474 25.1078C189.748 25.1078 184.863 27.5467 180.867 31.8646C180.138 32.5942 179.469 33.4738 178.999 34.2534C178.53 35.033 178.22 35.2929 177.75 35.2929C176.971 35.2929 175.153 34.5133 173.904 33.5737C173.285 33.104 173.075 32.7442 173.075 31.9146C173.075 31.6347 173.128 31.0816 173.235 30.2554C173.235 30.0954 173.235 29.7356 173.285 29.1659C173.545 25.8375 173.705 24.4382 174.324 19.7604C174.391 19.3806 174.547 18.3744 174.793 16.7419C174.843 16.582 174.953 15.6024 175.213 13.6734C175.263 13.2036 175.313 12.7938 175.313 11.9542C177.81 12.314 180.148 12.8938 181.127 13.4635C181.547 13.6734 181.746 13.9333 181.697 14.2431C181.697 14.453 181.597 14.6029 181.437 14.9228C180.867 15.8023 180.708 16.2721 180.238 18.2512C179.768 20.2302 179.039 24.798 178.939 26.5172C184.234 21.6295 188.859 19.7105 195.253 19.7105L195.263 19.7005ZM194.324 4.88763C196.352 6.08705 196.971 6.65677 196.971 7.2265C196.971 7.69627 196.142 9.25552 195.253 10.5549C194.424 11.7543 194.114 12.0142 193.694 12.0142C193.435 12.0142 193.275 11.9142 192.656 11.4445C189.179 8.79574 186.422 7.28647 182.526 5.93712C181.746 5.62727 181.587 5.51732 181.587 5.10752C181.587 4.58777 182.006 3.7082 182.935 2.34886C183.764 1.09946 184.134 0.789612 184.704 0.789612C185.952 0.789612 191.037 2.96856 194.314 4.89762L194.324 4.88763Z" fill="black"/>
<path d="M236.042 32.1244C236.202 32.3343 236.252 32.4843 236.252 32.6942C236.252 32.9007 235.959 33.8003 235.373 35.3928C234.284 38.5613 233.604 41.1601 233.395 43.1891C233.345 43.8687 233.135 44.1286 232.456 44.2785C231.726 44.4884 230.328 44.5884 228.979 44.5884C228.46 44.5884 228.2 44.4884 228.04 44.1686C227.57 43.1791 226.741 39.5908 226.322 36.6822C225.962 34.2434 225.802 31.6946 225.802 29.0459C225.802 23.0688 226.482 17.4016 228.35 7.21648C228.659 5.55729 228.769 4.77766 228.919 3.15845C231.307 3.4683 232.975 3.93807 234.474 4.66772C235.253 5.08751 235.562 5.44734 235.562 5.91711C235.562 6.22696 235.463 6.48684 235.203 6.90663C233.075 10.5449 231.097 21.7694 231.097 30.0854C231.097 31.3348 231.147 33.3039 231.307 35.8027C232.555 32.5842 233.125 31.1249 234.264 28.6261C234.623 30.0254 234.993 30.7051 236.032 32.1044L236.042 32.1244ZM244.763 18.451C242.266 18.451 241.746 18.3511 241.596 17.7714C241.437 17.3016 241.287 15.6424 241.287 14.443C241.287 14.0232 241.287 13.6134 241.337 12.6738C242.735 12.7738 243.574 12.8338 245.283 12.8338C248.09 12.8338 249.858 12.7838 252.555 12.5739C252.505 5.97708 252.455 5.13749 251.936 2.69867C254.483 2.74865 256.401 2.95854 258.07 3.37834C258.849 3.58824 259.159 3.84811 259.159 4.36786C259.159 4.57776 259.109 4.72769 258.949 5.14748C258.429 6.3469 258.17 8.36593 258.07 12.0042C259.988 11.7443 261.656 11.3845 264.773 10.6548C265.033 10.5549 265.133 10.5549 265.293 10.5549C265.602 10.5549 265.762 10.7148 265.862 11.0746C265.962 11.5444 266.122 13.5134 266.122 14.6129C266.122 15.9123 266.072 16.1222 265.552 16.3321C264.723 16.7519 262.435 17.1117 258.02 17.6814C258.02 21.2697 258.33 27.1968 258.699 30.5752C261.976 31.9745 264.204 33.1739 266.491 34.7831C267.95 35.8226 268.26 36.1825 268.26 36.5523C268.26 37.122 267.321 38.8912 266.232 40.4004C265.612 41.28 265.293 41.5399 264.933 41.5399C264.573 41.5399 264.573 41.5399 263.375 40.4004C262.236 39.261 261.037 38.3714 258.749 36.8621V37.2819C258.749 41.8597 254.953 44.8683 249.189 44.8683C243.425 44.8683 239.479 41.7498 239.479 37.072C239.479 32.3943 243.425 28.916 248.669 28.916C250.587 28.916 251.576 28.966 252.985 29.1759C252.845 26.4705 252.725 22.7989 252.625 18.1612C250.388 18.3211 246.861 18.471 244.783 18.471L244.763 18.451ZM249.029 33.7337C246.432 33.7337 244.713 34.9331 244.713 36.7522C244.713 38.4114 246.322 39.4509 248.819 39.4509C251.576 39.4509 253.025 38.2015 253.025 35.8126C253.025 35.083 252.975 34.5133 252.975 34.5133C251.626 33.9935 250.428 33.7337 249.029 33.7337Z" fill="black"/>
<path d="M293.594 2.59874C294.893 2.95857 295.252 3.21844 295.252 3.79816C295.252 4.15799 295.203 4.31791 294.943 5.04756C294.373 6.55683 293.954 9.20554 293.744 12.8438C293.324 21.2097 293.125 27.7066 293.125 32.8541C293.125 34.5133 293.284 35.7627 293.544 36.5923C294.114 38.3115 295.932 39.191 298.839 39.191C303.514 39.191 307.93 37.272 311.986 33.4738C313.854 31.7047 315.003 30.3053 316.921 27.4467C317.23 29.1059 317.65 30.2054 318.789 32.5443C318.949 32.9641 319.049 33.2739 319.049 33.7437C319.049 34.6832 318.06 35.9226 315.462 38.2615C310.317 42.8892 304.603 45.2781 298.629 45.2781C294.683 45.2781 291.776 44.2886 289.898 42.4195C287.92 40.3405 287.141 37.6418 287.141 32.4943C287.141 28.4362 287.191 25.3177 287.61 13.2136C287.66 11.3945 287.71 10.305 287.71 9.83524C287.71 5.41738 287.66 4.11801 287.35 1.87909C289.998 1.97904 292.026 2.18894 293.584 2.60874L293.594 2.59874ZM310.847 15.9023C310.637 15.9023 310.427 15.7424 310.277 15.4825C309.139 13.5035 307.99 12.0542 306.281 10.285C306.022 10.0751 305.972 9.97517 305.972 9.81525C305.972 9.5054 306.391 9.0856 307.27 8.4659C308.05 7.89618 308.359 7.73625 308.619 7.73625C309.039 7.73625 309.708 8.256 311.007 9.7153C312.725 11.5844 313.814 12.9937 313.814 13.4035C313.814 13.9732 311.526 15.9023 310.857 15.9023H310.847ZM316.092 6.02708C317.65 7.68628 318.949 9.35547 318.949 9.82524C318.949 10.345 316.771 12.1641 316.141 12.1641C315.932 12.1641 315.722 12.0042 315.522 11.6444C314.693 10.1851 313.544 8.78575 311.526 6.70675C311.316 6.49685 311.266 6.3969 311.266 6.28696C311.266 5.81718 313.344 4.36788 313.964 4.36788C314.323 4.36788 314.953 4.88763 316.092 6.02708Z" fill="black"/>
<path d="M357.34 11.6444C358.119 7.38643 358.379 5.56731 358.379 3.84814C358.379 3.63824 358.379 3.32839 358.329 2.96857C362.695 3.58827 365.182 4.57779 365.182 5.72723C365.182 6.14703 365.132 6.197 364.563 7.2365C364.143 7.96615 363.783 9.21554 363.054 11.9642C366.591 12.5839 369.548 14.1432 371.885 16.482C374.742 19.3406 376.141 22.8789 376.141 27.1869C376.141 34.4134 372.195 40.0206 365.182 42.8893C363.783 43.459 361.026 44.1886 360.347 44.1886C359.927 44.1886 359.668 43.9787 359.308 43.459C358.479 42.1096 357.23 40.7603 355.722 39.6608C360.966 38.7812 363.464 37.8417 366.061 35.7127C368.818 33.4738 370.217 30.5652 370.217 27.0369C370.217 21.7895 366.84 17.5215 361.855 16.542C360.137 21.9494 358.269 26.2573 355.981 30.2154C356.76 30.995 357.23 31.4648 358.059 32.2444C358.629 32.7642 358.838 33.074 358.838 33.4438C358.838 34.3234 355.931 37.182 355.102 37.182C354.683 37.182 354.013 36.7122 352.505 35.203C349.338 39.0011 346.221 40.8702 343.104 40.8702C338.789 40.8702 335.931 37.232 335.931 31.6747C335.931 26.6871 338.009 22.0593 342.005 18.1612C341.276 16.2921 341.176 15.8223 340.027 12.2341C339.608 10.8847 339.148 9.42544 338.519 7.91617C340.387 7.49638 342.834 7.13655 344.073 7.13655C344.593 7.13655 344.902 7.29647 345.062 7.6563C345.169 7.82955 345.239 8.33264 345.272 9.16557C345.322 10.255 345.792 12.2341 346.571 14.6229C349.947 12.7039 353.744 11.6044 357.32 11.6644L357.34 11.6444ZM344.243 23.2887C342.325 25.8375 341.286 28.5362 341.286 30.985C341.286 33.4338 342.275 34.8831 343.784 34.8831C345.392 34.8831 346.9 33.7937 349.028 31.1949C347.11 28.6461 345.811 26.4672 344.253 23.2987L344.243 23.2887ZM356.141 16.3221C353.284 16.7419 351.046 17.5715 348.399 19.3406C349.748 22.0393 350.786 23.8085 352.395 25.9375C354.163 22.5091 355.202 19.8604 356.131 16.3221H356.141Z" fill="black"/>
<path d="M414.483 18.551C421.805 18.551 427 23.5386 427 30.6052C427 35.4429 424.453 39.8007 420.197 42.3495C417.24 44.1187 413.604 44.9982 409.498 44.9982C402.904 44.9982 399.058 42.3495 399.058 37.8217C399.058 33.7137 402.485 30.8051 407.37 30.8051C411.785 30.8051 414.952 33.044 417.08 37.6118C419.727 35.6927 420.816 33.6637 420.816 30.8551C420.816 26.3872 417.649 23.4786 412.664 23.4786C407.679 23.4786 402.115 26.0274 397.6 30.5452C396.77 31.3748 395.991 32.2644 395.052 33.4538C394.693 33.9736 394.433 34.1835 394.113 34.1835C393.174 34.1835 389.488 30.5452 389.488 29.6057C389.488 29.1359 389.698 28.876 390.836 28.0464C392.035 27.1069 393.743 25.6076 395.931 23.5286C400.966 18.7509 404.663 14.7429 410.117 8.09609C403.624 8.92569 399.258 9.65533 397.65 10.2251C397.39 10.275 397.23 10.325 397.08 10.325C396.661 10.325 396.401 10.0651 396.091 9.28551C395.472 7.72627 395.152 6.0071 395.002 3.7282C396.401 3.9381 397.39 3.98807 398.539 3.98807C401.036 3.98807 405.242 3.62825 410.696 2.99855C412.615 2.78865 413.244 2.63873 414.692 2.05901C415.162 1.84911 415.422 1.79913 415.731 1.79913C416.461 1.79913 417.19 2.41883 418.539 4.49783C419.528 5.84718 419.837 6.52685 419.837 6.93665C419.837 7.61632 419.677 7.81622 418.539 8.54587C417.6 9.11559 417.03 9.58537 415.831 10.7248C413.234 13.2236 413.184 13.2236 409.957 16.492C407.67 18.8309 407.41 19.0908 405.332 21.1698C408.708 19.3007 411.356 18.521 414.473 18.521L414.483 18.551ZM409.488 36.5423C408.708 36.0226 407.829 35.7627 406.84 35.7627C405.232 35.7627 404.193 36.5423 404.193 37.7917C404.193 39.301 405.801 40.2305 408.299 40.2305C409.438 40.2305 410.427 40.1306 411.725 39.7608C411.106 38.0416 410.587 37.262 409.488 36.5423Z" fill="black"/>
<path d="M20.3095 89.5367C11.0089 89.5867 4.46543 89.8965 2.80709 90.3663C2.75714 90.4163 2.7072 90.4163 2.64726 90.4163C1.65825 90.4163 1.34856 88.6971 1.18872 83.3497C3.73616 83.7095 7.06282 83.8695 14.7451 83.8695C21.7081 83.8695 29.8599 83.7095 31.1586 83.5596C32.0977 83.4596 32.4074 83.3997 33.3364 83.0399C33.5962 82.9399 33.6961 82.9399 33.9058 82.9399C34.785 82.9399 35.8839 83.7695 37.5422 85.7485C38.5312 86.9979 38.741 87.3078 38.741 87.8775C38.741 88.2373 38.5812 88.5572 38.2215 89.017C37.702 89.6367 37.6521 89.7966 36.5032 93.4348C33.5962 102.58 27.832 110.796 20.0398 116.824C16.9229 119.212 13.9659 121.031 13.1867 121.031C12.6172 121.031 12.5073 120.981 11.3185 119.782C9.91995 118.383 8.82105 117.543 7.42246 116.824C15.0548 112.975 19.2106 109.807 23.2166 104.709C26.803 100.192 29.0307 95.3039 30.2295 89.4767C27.5256 89.5101 24.2189 89.5267 20.3095 89.5267V89.5367ZM42.757 84.2893C41.6181 85.2788 40.9388 85.7485 40.6291 85.7485C40.3194 85.7485 40.3194 85.7485 39.3803 84.1893C38.5512 82.79 37.3024 81.1708 36.1036 79.9813C35.8939 79.7714 35.8439 79.6715 35.8439 79.5116C35.8439 79.0918 37.8219 77.6425 38.3913 77.6425C38.8109 77.6425 39.4303 78.1622 40.9887 79.9314C42.3873 81.5406 43.3763 82.9499 43.3763 83.3097C43.3763 83.6695 43.2165 83.8794 42.757 84.2992V84.2893ZM45.0946 81.6405C43.8459 79.5116 42.6571 78.0023 41.2485 76.6529C41.0387 76.443 40.9887 76.3431 40.9887 76.2331C40.9887 75.9733 41.2485 75.7134 42.1276 75.0937C42.8069 74.5739 43.1166 74.474 43.4762 74.474C44.0457 74.524 45.3943 75.8233 47.1625 78.1122C47.8918 79.0518 48.3613 79.8314 48.3613 80.0913C48.3613 80.3512 48.2015 80.611 47.5821 81.0808C46.7529 81.7005 45.9737 82.1703 45.664 82.1703C45.4542 82.1703 45.3044 82.0703 45.0946 81.6505V81.6405Z" fill="black"/>
<path d="M59.9498 98.7422C59.8499 98.7422 59.5902 98.7922 59.5303 98.7922C58.3914 98.7922 57.9219 97.0231 57.5522 91.6757C60.0997 92.0955 63.6861 92.2454 73.3464 92.2454C83.7359 92.2454 86.5431 92.2454 87.5321 92.1454C88.3113 92.0955 88.4712 92.0455 89.5101 91.7256C89.8698 91.5657 90.1895 91.5157 90.4991 91.5157C91.2784 91.5157 91.8977 91.8756 92.7369 92.7651C94.1355 94.3744 95.0745 95.8337 95.0745 96.4534C95.0745 97.0231 94.8148 97.4429 94.1954 98.1126C93.7759 98.4724 93.5161 98.9422 92.5371 101.181C89.0606 108.817 85.1645 113.495 79.0307 117.393C76.2235 119.212 71.708 121.291 70.6691 121.291C69.9398 121.291 69.5302 120.981 68.6411 119.942C67.2925 118.333 66.6631 117.763 65.2145 117.033C71.1386 115.264 76.5432 112.306 80.3793 108.617C83.2864 105.809 85.4742 102.171 86.9727 97.6528C67.2825 97.9126 63.6461 98.0726 59.9598 98.7422H59.9498ZM76.9328 80.2912C80.5358 80.2912 84.3287 80.1512 88.3113 79.8714H88.9307C89.61 79.8714 89.8698 80.3911 89.9197 81.9504C89.9197 82.5701 89.9197 83.1498 89.9697 83.6695V83.8794C89.9697 85.7485 89.7599 86.2683 89.0906 86.2683C88.8808 86.2683 88.4712 86.2183 88.0017 86.2183C87.0126 86.1184 83.1166 86.0084 81.5082 86.0084C73.716 86.0084 68.1616 86.1084 65.0947 86.3682H64.6751C63.3264 86.3682 63.1167 85.5886 62.807 79.7714C66.1836 80.1912 69.4603 80.2912 76.9328 80.2912Z" fill="black"/>
<path d="M150.439 92.8651C150.699 93.3848 150.799 93.7446 150.799 94.0645C150.799 94.5842 150.589 94.9441 149.92 95.8836C147.062 99.6218 143.995 102.64 139.37 106.229C134.175 110.287 129.76 112.985 123.526 115.944C119.53 117.813 119.32 117.923 118.691 118.493C118.271 118.912 118.071 119.012 117.752 119.012C117.282 119.012 116.873 118.593 116.093 117.453C115.055 115.894 114.066 113.765 113.496 111.946C118.741 110.746 125.025 107.948 131.108 104.1C139.11 99.0621 144.145 94.0645 148.041 87.2578C148.611 89.1769 149.08 90.2163 150.429 92.8751L150.439 92.8651ZM115.844 84.1393C116.723 83.1498 117.092 82.8899 117.562 82.8899C118.551 82.9399 122.447 85.4387 125.664 88.0374C127.642 89.6466 128.261 90.3263 128.261 90.846C128.261 91.2059 127.322 92.6152 126.083 94.0145C124.945 95.3139 124.365 95.7837 123.956 95.7837C123.716 95.7837 122.883 95.1073 121.458 93.7546C120.109 92.4553 117.402 90.2763 116.054 89.4367C114.841 88.6371 114.115 88.1707 113.876 88.0374C113.666 87.8775 113.566 87.7276 113.566 87.5676C113.566 87.0979 114.555 85.6486 115.854 84.1393H115.844Z" fill="black"/>
<path d="M168.571 99.5218H167.432C167.222 99.5218 167.072 99.5218 166.962 99.5718H166.493C165.973 99.5718 165.614 99.3119 165.504 98.7422C165.244 97.4428 165.084 95.7836 165.084 93.3848C168.201 93.6946 175.374 93.9045 185.184 93.9045C194.015 93.9045 204.195 93.7446 205.803 93.5947H206.273C207.002 93.5947 207.002 93.6447 207.002 97.073C207.002 99.3619 206.902 99.6218 206.173 99.6218H205.813C203.426 99.5218 202.437 99.5218 190.229 99.3619C190.019 103.31 189.809 104.979 189.14 107.368C187.532 113.245 184.465 117.343 179.27 120.572C177.811 121.511 176.673 122.031 176.203 122.031C175.943 122.031 175.734 121.931 175.324 121.511C173.456 119.592 172.826 119.122 170.958 118.183C180.149 113.865 183.526 108.927 183.845 99.3119C175.434 99.3619 172.577 99.3619 168.571 99.5218ZM173.925 81.6905C175.124 81.7404 176.163 81.7904 176.733 81.7904C179.38 81.9503 180.159 81.9503 183.586 81.9503C191.428 81.9503 195.174 81.8504 197.971 81.5305H198.231C198.96 81.5305 199.11 81.8904 199.11 83.5096V84.599C199.11 84.9089 199.11 85.4286 199.06 86.0583C199.06 87.4577 198.96 87.6176 197.971 87.6176C197.402 87.6176 193.606 87.5176 189.969 87.4577C189.19 87.4077 187.891 87.4077 186.023 87.4077C179.37 87.4077 174.695 87.5076 173.036 87.7175C172.876 87.7675 172.727 87.7675 172.617 87.7675C172.097 87.7675 171.837 87.5576 171.738 87.0878C171.528 85.9984 171.318 83.4996 171.318 81.4706C172.357 81.6305 172.717 81.6305 173.915 81.6805L173.925 81.6905ZM203.536 85.7485C202.497 83.7695 201.358 82.2702 199.689 80.501C199.483 80.2945 199.38 80.1379 199.38 80.0313C199.38 79.7214 199.689 79.4116 200.579 78.7319C201.408 78.1622 201.717 77.9523 202.037 77.9523C202.457 77.9523 202.976 78.3721 204.275 79.7714C205.933 81.5905 207.132 83.2497 207.132 83.6695C207.132 83.9793 206.972 84.1892 206.353 84.709C205.214 85.6985 204.485 86.1683 204.065 86.1683C203.855 86.1683 203.755 86.0683 203.546 85.7485H203.536ZM210.858 81.8504C210.239 82.3202 209.719 82.58 209.46 82.58C209.3 82.58 209.15 82.4801 208.94 82.1103C207.851 80.2412 206.603 78.572 205.044 77.0127C204.884 76.8528 204.784 76.7029 204.784 76.5929C204.784 76.2331 206.962 74.6739 207.432 74.7238C207.851 74.7738 208.001 74.8238 208.571 75.3435C210.129 76.8028 212.417 79.7114 212.417 80.3311C212.417 80.641 211.997 81.0108 210.858 81.8404V81.8504Z" fill="black"/>
<path d="M234.633 104.929C230.527 107.528 225.123 110.387 224.194 110.387C223.847 110.387 223.345 110.023 222.685 109.297C221.806 108.308 220.767 107.378 219.469 106.439C226.332 104.2 233.135 100.202 239.259 94.7941C241.756 92.6152 242.895 91.2559 244.294 89.1269C247.051 90.946 249.129 92.9251 249.129 93.7047C249.129 94.0145 248.969 94.1745 248.509 94.3844C247.78 94.6942 247.311 95.114 245.752 96.4633C244.663 97.4529 242.585 99.162 240.248 100.931V109.247C240.248 113.765 240.348 118.393 240.507 120.582V121.151C240.507 121.981 239.988 122.091 236.711 122.091C234.633 122.091 234.423 122.041 234.423 121.471V121.111C234.423 120.951 234.423 120.592 234.473 120.072C234.573 118.773 234.633 114.195 234.633 109.257V104.939V104.929Z" fill="black"/>
<path d="M305.282 92.8651C305.542 93.3848 305.642 93.7446 305.642 94.0645C305.642 94.5842 305.432 94.9441 304.763 95.8836C301.906 99.6218 298.839 102.64 294.213 106.229C289.019 110.287 284.603 112.985 278.369 115.944C274.373 117.813 274.164 117.923 273.534 118.493C273.115 118.912 272.915 119.012 272.595 119.012C272.126 119.012 271.716 118.593 270.937 117.453C269.898 115.894 268.909 113.765 268.339 111.946C273.584 110.746 279.868 107.948 285.952 104.1C293.954 99.0621 298.989 94.0645 302.885 87.2578C303.454 89.1769 303.924 90.2163 305.272 92.8751L305.282 92.8651ZM270.687 84.1393C271.566 83.1498 271.936 82.8899 272.405 82.8899C273.394 82.9399 277.29 85.4387 280.507 88.0374C282.485 89.6466 283.105 90.3263 283.105 90.846C283.105 91.2059 282.165 92.6152 280.927 94.0145C279.788 95.3139 279.208 95.7837 278.799 95.7837C278.559 95.7837 277.727 95.1073 276.301 93.7546C274.953 92.4553 272.245 90.2763 270.897 89.4367C269.685 88.6371 268.959 88.1707 268.719 88.0374C268.509 87.8775 268.409 87.7276 268.409 87.5676C268.409 87.0979 269.398 85.6486 270.697 84.1393H270.687Z" fill="black"/>
<path d="M333.843 91.5157C330.256 96.2934 324.132 102.011 322.624 102.011C322.154 102.011 321.945 101.911 320.906 101.021C320.126 100.341 318.778 99.4119 317.06 98.4224C320.746 96.4433 324.542 93.3248 327.399 89.9465C330.466 86.3082 332.284 83.2897 334.102 78.7219C336.65 79.5515 337.999 80.1812 339.717 81.1108C340.446 81.5306 340.706 81.8404 340.706 82.3102C340.706 82.67 340.546 82.9898 340.086 83.2997C339.567 83.7195 339.047 84.3392 337.699 86.2083L345.441 86.2583C348.248 86.2583 348.768 86.2083 350.326 85.6386C350.536 85.5886 350.686 85.5386 350.896 85.5386C351.725 85.5386 352.614 86.3182 354.112 88.2373C355.101 89.4867 355.361 90.0065 355.361 90.5762C355.361 91.1459 355.201 91.4058 354.482 92.1354C354.062 92.5552 353.393 93.5347 352.874 94.4743C347.259 104.609 341.865 111.006 333.603 117.133C330.017 119.832 325.291 122.591 324.302 122.591C323.883 122.591 323.523 122.381 323.054 121.861C322.174 120.921 320.766 119.942 318.738 118.842C326.32 115.204 331.625 111.566 336.82 106.319C340.506 102.63 343.103 99.0921 345.391 94.7242C345.861 93.8446 346.17 93.1649 346.999 91.4458L333.853 91.4957L333.843 91.5157ZM358.568 85.8984C357.429 86.888 356.75 87.3577 356.44 87.3577C356.13 87.3577 356.13 87.3577 355.191 85.7985C354.362 84.3992 353.113 82.7799 351.915 81.5905C351.705 81.3806 351.655 81.2807 351.655 81.1208C351.655 80.701 353.633 79.2517 354.202 79.2517C354.622 79.2517 355.241 79.7714 356.8 81.5405C358.198 83.1498 359.187 84.5591 359.187 84.9189C359.187 85.2787 359.027 85.4886 358.568 85.9084V85.8984ZM360.906 83.2497C359.657 81.1208 358.468 79.6115 357.059 78.2621C356.85 78.0522 356.8 77.9523 356.8 77.8423C356.8 77.5825 357.059 77.3226 357.938 76.7029C358.618 76.1831 358.927 76.0832 359.287 76.0832C359.857 76.1332 361.205 77.4325 362.973 79.7214C363.703 80.661 364.172 81.4406 364.172 81.7005C364.172 81.9603 364.012 82.2202 363.393 82.69C362.564 83.3097 361.785 83.7795 361.475 83.7795C361.265 83.7795 361.115 83.6795 360.906 83.2597V83.2497Z" fill="black"/>
<path d="M384.249 115.164C384.249 120.052 380.303 124 375.468 124C370.633 124 366.687 120.052 366.687 115.164C366.687 110.277 370.633 106.379 375.468 106.379C380.303 106.379 384.249 110.327 384.249 115.164ZM370.742 115.164C370.742 117.813 372.87 119.942 375.468 119.942C378.065 119.942 380.193 117.813 380.193 115.164C380.193 112.516 378.065 110.437 375.468 110.437C372.87 110.437 370.742 112.566 370.742 115.164Z" fill="black"/>
</g>
<defs>
<clipPath id="clip0_513_6205">
<rect width="428" height="124" fill="white"/>
</clipPath>
</defs>
</svg>
