<svg width="176" height="126" viewBox="0 0 176 126" fill="none" xmlns="http://www.w3.org/2000/svg">
<g clip-path="url(#clip0_132_6362)">
<path d="M48.0015 61.1226L54.1789 60.1622L57.5692 58.16L75.3354 79.0445C75.3354 79.0445 80.975 72.5008 81.8388 72.0776C82.7027 71.6543 94.7805 57.1508 94.7805 57.1508L101.675 54.53L115.986 50.2164L126.352 42.2402L135.708 47.0259L147.558 55.1486L158.006 70.3684L164.085 83.293L170.132 102.631L173.8 125.99L105.424 130.01C105.424 130.01 100.436 113.391 100.648 112.854C100.86 112.316 95.9703 92.083 95.9703 92.083L87.9837 99.8964L82.882 105.122L70.7064 102.81L66.7457 101.02L52.2393 77.5632C52.2393 77.5632 49.1424 73.8681 48.0178 61.0737L48.0015 61.1226Z" fill="#93763E"/>
<path d="M24.0717 22.0502L4.73535 22.8377L11.0493 31.1064L29.991 53.1564L36.6995 44.1002L48.538 47.6439L50.5111 35.0439L59.5874 22.0502H24.0717Z" fill="white"/>
<path d="M92.7353 26.7752V17.7189L105.363 11.4189L118.78 16.9314L121.543 30.3189L123.516 43.7064L117.991 49.2189L103.39 54.3377L101.417 45.2814L97.8654 43.7064L93.9192 37.0127L92.7353 26.7752Z" fill="white"/>
<path d="M106.728 28.2424L105.473 27.8517L104.968 26.989L104.479 26.0774L104.968 24.8077L106.011 24.0264L107.021 23.6846L107.95 24.2055L108.602 24.9705L109.059 25.9146H108.961L108.912 25.9472H108.814L108.602 27.3145L107.429 27.9982L106.744 28.2424H106.728Z" fill="black"/>
<path d="M98.7411 25.8653L97.7632 25.5235L97.0786 24.97L96.7363 24.091L97.0297 22.8376L98.1381 22.2191L99.0019 22.0889L99.9473 22.2354L100.599 22.9841L100.746 23.9445H100.632L100.518 23.9608H100.844L100.501 25.2468L99.4094 25.9304L98.7737 25.8491L98.7411 25.8653Z" fill="black"/>
<path d="M92.6449 18.4915L93.525 17.645L94.34 16.7823L95.4483 16.294L96.4426 15.6591L97.3717 14.9592L98.48 14.6173L99.5558 14.2755L100.68 14.1127L101.838 14.129L102.93 14.6662L104.054 14.8289L105.179 15.0406L106.304 15.2847L107.494 15.3336L108.553 15.8219L109.694 16.001L110.867 16.3916L111.373 17.5474L112.041 18.5729L112.546 19.696L113.263 20.689L113.915 21.7308L114.567 22.7725L115.366 23.7004L116.605 23.7492L117.844 24.1562L119.05 24.6445L120.044 25.4909L120.191 26.663L120.174 27.8187L120.484 29.007L120.06 30.1464L119.963 31.3021L121.12 32.0835L122.44 32.5067L123.304 31.9533L123.972 31.058L124.755 30.2604L125.309 29.2837L126.107 28.4861L126.401 27.3629L126.27 26.1909L126.482 25.084L126.988 24.0422L127.151 22.919L127.395 21.8284L127.558 20.7053L127.542 19.5495L127.884 18.4589L128.194 17.3683L128.145 16.1963L128.34 15.0894L128.552 14.0476L127.721 13.1849L126.759 12.4361L125.83 11.6222L125.292 10.4665L124.314 9.66887L123.793 8.51314L123.353 7.47135L122.587 6.55979L121.592 5.8924L120.696 5.12734L119.718 4.44367L118.707 3.80883L117.599 3.35305L116.442 3.01122L115.415 2.40894L114.274 2.11594L113.149 1.66016L112.008 1.88805L110.867 2.22988L109.743 2.60427L108.814 3.38561L107.608 3.58094L106.597 4.24834L105.375 4.31345L104.25 4.67156L103.191 5.24129L102.001 5.43662L100.827 5.61568L99.7351 6.1854L98.5126 6.00635L97.3391 6.23424L96.1492 6.46213L94.9757 6.07146L93.7695 6.1854L92.5797 5.64823L92.107 6.90163L91.7321 8.07363L91.1779 9.18053L90.7052 10.3363L90.2978 11.492L90.1348 12.6477L90.4934 13.836L90.9823 15.008L91.6017 16.1149L92.0907 17.3032L92.6449 18.4915Z" fill="black"/>
<path d="M92.8732 17.3034L92.0582 17.694L92.1071 17.3685L93.0688 16.7499L93.7045 15.8221L94.4868 15.0245L95.3344 14.292L96.3124 13.7548L97.3555 13.3641L98.3987 13.006L99.5396 12.9246L100.681 12.8595L101.854 12.6153L102.995 12.8595L104.103 13.1851L105.261 13.2827L106.304 13.8199L107.461 14.1455L108.651 14.3734L109.824 14.6664L110.933 15.0896L111.878 15.757L112.742 16.6197L113.394 17.6615L113.916 18.7847L114.649 19.7776L115.366 20.7868L115.969 21.8612L116.572 22.9355L115.334 22.203L116.589 22.3983L117.827 22.4797L119.034 22.8216L120.044 23.5703L121.153 24.2215L121.56 25.4423L122.065 26.6143V27.884L122 29.1374L121.87 30.3908L121.544 31.6116L120.973 30.7977L120.68 30.0327L121.902 30.5861L123.271 31.1395L122.212 31.4H121.25L122.016 30.5861L122.717 29.642L123.5 28.7793L124.347 27.9491L124.657 26.8748L124.722 25.7679L125.081 24.7098L125.26 23.6355L125.456 22.5286L125.749 21.4379L125.798 20.3148L126.108 19.2404L126.156 18.1173V16.9778L126.58 15.9035L126.792 14.7966L126.874 13.7222L127.574 15.3175L126.613 14.6012L125.765 13.7548L124.999 12.827L124.054 12.0619L123.304 11.1178L122.88 9.97833L122.375 8.90399L121.462 8.18777L120.827 7.19482L119.93 6.47859L118.936 5.90886L117.893 5.43681L116.833 4.9973L115.823 4.46013L114.812 3.92297L113.769 3.41835L112.628 3.28813L111.601 3.90669L110.379 4.03691L109.401 4.75314L108.292 5.16008L107.135 5.46936L105.994 5.76236L104.902 6.21814L103.843 6.77159L102.636 6.86926L101.512 7.24365L100.322 7.34132L99.181 7.66687L98.0075 7.78082L96.8176 7.6506L95.6278 7.97615L94.4705 7.63432L93.2644 7.66687L92.1071 7.40643L93.1177 6.88554L94.0304 6.57626L93.5741 7.61804L93.0688 8.79005L92.4005 9.91322L91.8789 11.1015L91.39 12.2572H91.7159L92.1071 13.4292L92.4005 14.6501L92.7591 15.6919L93.1177 16.7499L93.6556 17.7429H93.5415L92.8406 17.3359V17.2383L92.8732 17.3034ZM92.5146 19.273L91.4552 18.5893L90.8195 17.7917L90.4772 16.7825L89.7763 16.0011L89.1406 14.9756L88.5702 13.9176L88.3257 12.7293L88.6028 11.5736L88.8962 10.4504L89.3525 9.37605L89.7926 8.30171L90.0208 7.11343L90.6076 6.1042L91.2107 5.09497L91.9604 4.19969L93.0851 4.42758L94.2749 4.65547L95.4811 4.73686H96.6872L97.8771 4.68802L99.0669 4.59036L100.192 4.13458L101.349 3.89041L102.539 3.74391L103.647 3.30441L104.755 2.8649L105.896 2.50679L107.037 2.1324L108.097 1.57895L109.254 1.2534L110.297 0.651115L111.373 0.146501L112.612 0.195334L113.834 0L114.959 0.53717L116.165 0.748782L117.241 1.31851L118.349 1.79056L119.474 2.36029L120.501 3.10907L121.658 3.62996L122.473 4.63919L123.483 5.35542L124.494 6.12048L125.244 7.14598L125.602 8.30171L126.336 9.2621L127.151 10.1248L127.933 11.0201L128.683 11.9642L129.612 12.7293L130.248 13.3804L130.182 14.292L130.019 15.4314L129.824 16.5546L129.53 17.6615L129.465 18.8172L129.139 19.9241L129.074 21.0798V22.2518L128.618 23.3425L128.389 24.4656L128.161 25.5888L127.998 26.7283L127.786 28.0305L127.346 29.1537L126.662 30.1303L126.075 31.2047L125.276 32.1325L124.266 32.8325L123.451 33.7115L122.587 34.3951L121.609 33.9231L120.403 33.2231L119.148 32.6208L118.382 31.9697L118.153 30.9117L118.414 29.7722L118.659 28.6165L118.838 27.4282L118.496 26.2725L117.387 25.8981L116.328 25.2795L115.122 25.4097L113.818 24.6121L113.28 23.5052L112.726 22.4146L112.009 21.4217L111.194 20.4938L110.737 19.3381L110.004 18.3452L109.482 17.3685L110.085 17.9545L109.026 17.5801L107.999 17.0755H106.809L105.782 16.522L104.625 16.4406L103.517 16.1965L102.425 15.8709L101.3 15.643L100.159 15.8058L99.0343 15.9035L97.9586 16.1314L96.9643 16.6197L95.9864 17.1406L95.2855 18.0522L94.3727 18.6544L93.4111 19.0939L92.4331 19.4032V19.2567L92.5146 19.273Z" fill="black"/>
<path d="M93.9977 26.2396L94.2259 27.3628L94.4541 28.4209L94.503 29.5278L94.8127 30.6021L94.992 31.7253L94.8616 32.8973L94.992 34.0367L95.432 35.1273L95.4157 36.2993L95.7743 37.39L96.1655 38.4806L96.8501 39.4084L97.4206 40.3851L98.0562 41.3129L98.8223 42.1594L99.7351 42.8919L100.843 43.2988L102.017 43.1849L103.158 43.2174L104.283 42.9896L105.375 42.6314L106.385 42.078L107.445 41.6059L108.439 41.0525L109.156 40.206L110.183 39.7665L111.096 39.2294L112.008 38.5945L113.215 38.9038L113.524 40.1084L112.807 41.1339L112.123 42.1105L111.112 42.7779L110.15 43.5104L109.417 44.4871L108.39 45.0568L107.233 45.3336L106.206 45.887L105.098 46.1637L104.022 46.7009L102.832 46.4567L101.691 46.473L100.55 46.4567L99.4417 46.1312L98.317 45.8382L97.3065 45.2685L96.3285 44.6336L95.6602 43.6569L94.7801 42.8919L94.1444 41.9315L93.5087 40.9548L92.9871 39.913L92.6938 38.7736L92.6612 37.5853L92.3189 36.4947L92.0092 35.3552L92.0907 34.2321L92.0418 33.1252L91.6995 32.0508L91.6343 30.9114L91.6995 29.7719L91.5039 28.665L91.6017 27.5093L91.8462 26.4024L92.8568 25.8164L93.9162 26.2722L93.9977 26.2396Z" fill="black"/>
<path d="M99.3442 32.784L98.7085 33.2235L98.4151 32.7026L97.4046 32.2142L96.6548 31.3678L96.8504 30.1795L97.6327 29.2842L98.301 28.9424L99.2627 29.2842L100.045 29.9353L100.648 30.5702L100.322 30.9608L100.029 31.7585L99.605 30.7167L99.4257 29.6098L100.257 30.5051L100.306 31.0748L99.882 31.9538L99.4257 32.8653L99.3442 32.784Z" fill="black"/>
<path d="M106.304 35.7951L105.701 36.9996L104.69 37.5856L103.696 38.1879L102.522 38.3507L101.381 38.2205L100.322 37.8786L99.2949 37.4717L98.8223 36.5601L99.3438 35.03L99.8491 34.9812L100.664 34.4277L101.186 34.9649L102.587 34.9812L103.859 34.444L104.657 34.5417L105.603 34.9812L106.222 35.7951H106.304Z" fill="black"/>
<path d="M102.653 44.6494L103.272 45.447L103.924 46.5865L104.12 47.905L104.348 49.2398L104.446 50.5908L103.924 51.4861L102.962 51.6326L101.903 51.6977L101.398 50.8024L101.267 49.6793L100.958 48.5724L100.615 47.4166L100.354 46.2284L100.648 45.2029L101.691 44.975L102.653 44.861V44.6494Z" fill="black"/>
<path d="M100.616 53.798L101.74 53.3423L102.93 53.1795L104.088 52.8214L105.294 52.6911L106.386 52.0889L107.592 51.9586L108.717 51.5517L109.841 51.1285L110.966 50.7215L112.172 50.5099L113.28 50.0379L114.405 49.5821L115.383 48.8658L116.328 48.1008L117.29 47.3683L118.447 46.8637L119.278 45.9684L120.093 45.0568L120.99 44.2429L121.886 43.4128L122.913 42.7291L123.598 41.7036L124.608 40.9711L125.374 40.499L126.303 40.5316L127.493 40.8734L128.488 41.6059L129.596 42.1268L130.623 42.7779L131.796 43.1686L132.937 43.5918L133.866 44.4383L135.056 44.7964L136.034 45.5289L137.143 46.0335L138.202 46.6358L139.245 47.2869L140.321 47.7427L141.283 48.3938L142.26 49.0123L143.287 49.5658L144.151 50.3471L145.015 51.1447L146.009 51.747L146.841 52.5609L147.916 53.0818L148.65 53.9934L149.481 54.8073L150.215 55.7026L150.997 56.549L151.714 57.4768L152.317 58.4861L153.067 59.3813L153.735 60.3417L154.436 61.2859L155.088 62.2463L155.724 63.2229L156.213 64.2973L156.783 65.3228L157.712 66.1204L158.266 67.1622L158.707 68.2528L159.163 69.3271L159.913 70.255L160.451 71.2967L161.102 72.2734L161.575 73.3478L162.129 74.3733L162.358 75.5615L163.01 76.5382L163.531 77.58L163.955 78.6706L164.395 79.7612L164.868 80.8356L165.324 81.8936L165.699 83.0005L166.302 84.026L166.465 85.2143L166.84 86.3212L167.345 87.3793L167.769 88.4699L168.274 89.5279L168.502 90.6837L169.073 91.7255L169.154 92.93L169.399 94.0695L169.839 95.1601L170.035 96.3158L170.361 97.439L170.882 98.497L171.192 99.6365L171.583 100.743L171.762 101.899L172.072 103.022V104.227L172.61 105.301L172.675 106.489L172.757 107.661L173.05 108.785L173.376 109.908L173.49 111.08L173.849 112.219L173.783 113.408L174.06 114.547L174.207 115.703V116.891L174.435 118.047L174.533 119.202L175.038 120.326L175.12 121.498L175.104 122.686L175.234 123.842L175.511 125.014L175.609 126.186L175.43 127.407L175.511 128.579L175.674 129.734L175.919 130.906L175.788 132.095L175.756 133.283L176 134.455L175.902 135.627L175.723 136.799L175.43 137.938L175.104 139.029L174.338 139.745L173.425 138.882L173.229 137.71L173.327 136.506L173.082 135.334L172.708 134.162L172.903 132.957L172.626 131.785L172.316 130.613L172.463 129.409L172.316 128.22L172.268 127.032L171.942 125.86L171.99 124.656L171.795 123.484L171.616 122.312L171.811 121.091L171.55 119.919L171.534 118.73L171.338 117.542L170.915 116.403L170.735 115.231L170.589 114.042L170.67 112.822L170.116 111.715L170.083 110.51L169.692 109.403L169.562 108.247L169.594 107.059L169.154 105.969L168.812 104.845L168.861 103.657L168.225 102.615L168.29 101.395L167.916 100.304L167.541 99.197L167.068 98.1227L167.101 96.9018L166.807 95.7786L166.106 94.7857L166.057 93.5811L165.569 92.5231L165.357 91.3673L164.917 90.293L164.362 89.2512L164.036 88.1443L163.629 87.0537L163.156 85.9957L162.781 84.8888L162.602 83.7168L162.113 82.6587L161.428 81.6983L161.217 80.5263L160.825 79.4194L160.141 78.459L159.733 77.3684L159.163 76.3592L158.495 75.3825L157.989 74.3407L157.663 73.2175L156.995 72.2571L156.49 71.1991L155.87 70.2224L155.365 69.1806L154.746 68.1877L154.175 67.1784L153.474 66.2506L152.985 65.1763L152.382 64.1996L151.519 63.3694L150.915 62.3928L150.215 61.4649L149.677 60.4231L149.074 59.4139L148.259 58.5837L147.672 57.5419L146.808 56.7443L145.879 56.0281L145.08 55.1654L144.233 54.3678L143.173 53.8306L142.228 53.1306L141.413 52.2842L140.468 51.6005L139.408 51.0796L138.528 50.2983L137.42 49.8751L136.458 49.1914L135.415 48.6705L134.486 47.9543L133.41 47.466L132.285 47.0916L131.324 46.3916L130.264 45.9033L129.188 45.4312L128.129 44.9592L127.053 44.4871L126.059 43.8685L124.967 43.4779L125.977 43.3151L126.923 43.0221L126.124 43.9011L125.244 44.715L124.494 45.6428L123.598 46.4242L122.62 47.1241L121.805 47.9868L120.794 48.6542L119.93 49.4844L118.822 49.9727L117.909 50.7378L116.915 51.3726L115.79 51.7796L114.829 52.4958L113.818 53.1632L112.726 53.6353L111.52 53.798L110.395 54.1724L109.222 54.384L108.081 54.677L106.924 55.1979L105.701 55.4421L104.43 55.3119L103.207 55.6374L101.969 55.67L100.73 55.4584L99.8008 54.6282L100.583 53.5864L100.616 53.798Z" fill="black"/>
<path d="M95.3344 57.8022L94.7965 58.844L94.1609 59.837L93.2318 60.5858L92.5472 61.5299L91.8138 62.4252L91.1944 63.4181L90.3957 64.2808L89.5481 65.0785L88.7984 65.9737L88.1464 66.9504L87.3966 67.8457L86.5817 68.6921L85.8319 69.5874L84.9843 70.4013L84.528 71.5408L83.5011 72.1919L82.9958 73.2825L82.2787 74.2103L81.4148 75.008L80.8606 76.066L79.9968 76.8799L79.5567 77.9868L78.921 78.9635L78.3668 79.989L78.2201 80.0215L78.3179 79.875L78.3016 79.9076L77.7311 80.7866L76.8347 81.161L75.8404 81.5028L74.8462 81.047L74.0312 80.3308L73.4444 79.4355L72.5317 78.8658L71.7167 78.0519L71.0484 77.1241L70.2009 76.359L69.5815 75.3823L68.8643 74.5033L68.2123 73.5755L67.4952 72.6802L66.5987 71.9314L65.8 71.1175L65.197 70.1246L64.3168 69.3595L63.6322 68.4317L62.9966 67.4713L62.2468 66.6086L61.5622 65.697L60.9592 64.7529L59.9649 63.9878L59.3781 62.8972L58.6284 61.9206L57.7482 61.0415L57.2266 59.9347L56.9658 58.7464L57.194 57.672L58.4491 57.379L59.3618 58.2255L60.3887 58.9417L61.0406 59.9835L61.8556 60.895L62.7195 61.7578L63.3715 62.7833L64.056 63.7599L64.9199 64.5901L65.5882 65.5831L66.5009 66.3807L67.1855 67.3574L67.8375 68.3829L68.848 69.0991L69.663 69.9944L70.1846 71.1175L71.0647 71.964L71.9612 72.7616L72.7762 73.6569L73.5096 74.6173L74.2757 75.5451L75.1233 76.3916L75.8241 77.4659L76.9162 78.2961L75.7263 78.4751L74.6995 79.3867L75.1233 78.3937L75.9382 77.4822L76.6065 76.5055L77.1933 75.4637L77.7474 74.3894L78.7906 73.7057L79.4263 72.6965L80.0457 71.6222L80.7791 70.6618L81.5941 69.7502L82.5068 68.9363L83.2566 67.9759L84.0879 67.0969L84.854 66.1528L85.5711 65.1598L86.2883 64.1832L87.2662 63.4181L87.9345 62.4089L88.8636 61.6113L89.4993 60.5044L90.5098 59.7556L91.3737 58.8929L92.0093 57.7697L93.1014 57.1349L94.0468 56.3047L95.3996 56.614L95.4159 57.8185L95.3344 57.8022Z" fill="black"/>
<path d="M49.566 40.4994L51.1633 40.0762L52.4509 40.4506L53.7875 40.5645L55.1077 40.8575L55.8901 41.9481L56.5095 42.9899L56.9496 44.0968L57.5363 45.1549L57.9112 46.3106L58.6936 47.2873L58.9055 48.5244L59.1826 49.0941L59.15 50.2824L59.2152 51.4707L59.2478 52.659L59.5737 53.8472L59.6226 55.0518L59.5737 56.2564V57.4447L59.0196 58.5515L58.2861 59.4957L57.4222 60.3584L56.3465 60.9444L55.287 61.5141L54.1624 61.9211L53.0866 62.5071H51.8479L50.6743 62.735L49.4682 62.8326L48.4413 62.5396L47.3819 62.2792L46.4854 61.6606L45.8823 60.7816L46.3061 59.8863L46.9907 59.4794L48.2946 59.3166L49.5986 59.4468L50.9188 59.4957L52.1739 59.1213L53.4452 58.7794L54.6188 58.1609L55.7108 57.3958L56.7214 56.5168L56.1672 57.6237L56.102 56.4191L55.8738 55.2309V54.0426L55.776 52.8543L55.9879 51.6335V50.4289L55.8412 49.2569L55.8901 49.908L55.5478 48.736L54.9447 47.6942L54.5536 46.5548L53.9831 45.4967L53.3637 44.4386L52.9236 43.2666L53.9016 44.2596L52.9236 43.7061L51.799 43.4131L50.6743 43.1527L49.6964 42.5992L49.1911 41.6063L49.6475 40.5808L49.566 40.4994Z" fill="black"/>
<path d="M43.6982 57.1514L42.8018 56.9073L42.0357 56.3701L41.2696 55.3934L40.6014 54.3516L39.9983 53.2936L39.7538 52.0727L39.2159 50.9658L39.0366 49.745L39.1833 48.5404L39.2811 47.3359L39.6071 45.9197L40.6828 45.0244L41.7912 45.057L42.5736 45.8546L42.7855 47.3359L42.5573 47.9056L42.4758 49.045L42.7692 50.1519L42.8344 51.3077L43.4211 52.3006L43.9916 53.2936L44.3339 54.4005L44.8392 55.5887L44.7251 56.7119L43.6819 57.1351L43.6982 57.1514Z" fill="black"/>
<path d="M49.8105 71.7207L50.6092 72.5184L51.4567 73.2834L51.8153 74.3903L52.6466 75.1879L52.9726 76.2948L53.6734 77.1901L54.3743 78.0691L54.8959 79.0621L55.5153 80.055L56.1183 81.0642L56.7703 82.0246L57.2919 83.0827L57.8461 84.1082L58.5143 85.0686L59.0359 86.1267L59.476 87.2335L60.0465 88.2753L60.7962 89.1869L61.4971 90.1473L62.1817 91.1077L62.5892 92.2471L63.2574 93.2238L64.0724 94.1028L64.7407 95.0795L65.2949 96.1213L65.8653 97.1468L66.4684 98.1723L67.4301 98.9211L68.1635 99.8326L68.7666 100.842L68.3754 100.679L69.5327 100.842L70.6247 101.249L71.782 101.265L72.874 101.639L73.9661 101.981L75.1396 102.046L76.1991 102.486L77.3074 102.763L78.4647 102.828L79.573 103.137L80.6977 103.316L81.8224 103.495L82.9144 103.3L83.7131 102.584L84.2509 101.574L85.0496 100.777L85.832 99.9791L86.5818 99.1164L87.3967 98.3351L87.9509 97.3095L88.6844 96.4305L89.4504 95.6167L90.2491 94.7702L91.0152 93.8586L91.9605 93.1261L92.5473 92.0681L93.4438 91.303L94.3239 90.5217L95.2856 89.838L96.3287 89.3822L97.1926 89.7403L97.3882 90.6845L96.7036 91.596L96.182 92.6215L95.5301 93.5494L94.927 94.526L94.1609 95.3888L93.2645 96.1375L92.531 97.0003L91.8953 97.9607L91.0315 98.7257L90.2817 99.5884L89.6949 100.598L89.0104 101.509L88.1628 102.274L87.3478 103.088L86.5166 103.886L86.0113 104.928L85.1963 105.758L83.7946 106.718L82.5232 106.604L81.2682 107.011L80.0294 106.767L78.7907 106.62L77.5845 106.279L76.3947 105.839L75.2863 105.725L74.2432 105.367L73.1185 105.269L72.0102 105.058L70.9833 104.537L69.8913 104.309L68.7829 104.179L67.7886 103.837L66.7292 103.609L66.1424 102.6L65.3438 101.786L64.4636 101.021L63.779 100.093L63.2085 99.1001L62.524 98.1886L62.1817 97.0491L61.2526 96.284L60.6984 95.2748L60.291 94.2005L59.8346 93.1424L59.0685 92.2634L58.5958 91.2216L57.7646 90.3752L57.3082 89.3171L56.8029 88.3079L56.2487 87.3312L55.7598 86.322L54.9774 85.4918L54.3417 84.564L53.7712 83.5873L53.4941 82.4641L52.9074 81.4875L52.1087 80.6736L51.5708 79.6806L51.1796 78.6226L50.6092 77.6459L49.9898 76.7018L49.5986 75.6437L48.914 74.7321L48.6859 73.609L48.3599 72.5346L48.8651 71.3789L49.8268 71.6394L49.8105 71.7207Z" fill="black"/>
<path d="M95.057 84.7588L95.5297 85.8495L95.9372 86.9564L96.198 88.0958L96.5892 89.2027L97.0782 90.2933L97.1271 91.4979L97.3878 92.6373L97.8116 93.7442L97.9909 94.9162L98.431 96.0231L98.8548 97.1137L99.2297 98.2369L99.1482 99.474L99.4579 100.613L99.7838 101.753L100.094 102.892L100.631 103.983L100.746 105.171L101.169 106.278L101.495 107.418L101.577 108.622L101.87 109.762L101.984 110.95L102.327 112.089L102.587 113.245L102.881 114.385L103.321 115.491L103.679 116.631L103.842 117.787L104.119 118.926L104.413 120L104.462 121.124L104.592 122.214L105.179 123.24L105.114 124.395L105.407 125.47L105.489 126.593L105.912 127.635L105.782 128.774L105.912 129.832L105.489 130.809L104.576 131.493L103.679 130.744L102.995 129.604L102.375 128.27L102.115 127.098L102.164 125.86L101.886 124.688L101.675 123.516L101.397 122.344L100.925 121.205L100.843 119.984L100.713 118.78L100.208 117.64L99.9794 116.452L99.7349 115.264L99.6208 114.059L99.2623 112.887L98.92 111.731L98.9852 110.478L98.3821 109.371L98.1539 108.199L98.0398 107.027L97.8605 105.871L97.4693 104.764L97.3063 103.592L97.0619 102.437L96.8174 101.281L96.4262 100.158L95.9535 99.0508L95.8231 97.8788L95.4645 96.7556L95.383 95.5673L94.9429 94.4604L94.8289 93.2884L94.6822 92.1164L94.0628 91.0421L94.1117 89.8213L93.6227 88.7144L93.7531 87.4935L93.5738 86.3378L93.1826 85.2146L93.6064 84.3682L94.454 84.2705L95.3341 84.7263L95.057 84.7588Z" fill="black"/>
<path d="M122.342 38.123L123.223 38.6439L123.5 39.7346L124.233 40.5647L124.624 41.5577L125.146 42.5343L124.82 43.6412L123.809 43.9994L122.864 44.3412L121.968 43.918L121.479 42.9738L121.169 41.9321L120.664 40.988L120.321 39.9624L120.549 39.116L121.446 38.6765L122.424 38.3672L122.342 38.123Z" fill="black"/>
<path d="M29.9258 55.3119C29.4531 55.3119 28.9804 55.1003 28.6707 54.7259L27.7742 53.6678C27.7742 53.6678 27.6764 53.5376 27.6276 53.4725L27.0571 52.5284L26.5029 51.861L25.6879 51.275C25.476 51.1285 25.313 50.9331 25.1827 50.7052L24.6774 49.7611L24.2047 49.1751L23.3897 48.6705C23.1289 48.5077 22.917 48.2636 22.7704 47.9868L22.314 47.0427L21.7435 46.3428L20.9611 45.5777L20.1299 44.9103C20.0484 44.8452 19.9669 44.7638 19.9017 44.6824L19.1519 43.7709C19.1519 43.7709 19.0704 43.6569 19.0215 43.6081L18.4673 42.7291L16.9515 41.2152C16.8537 41.1176 16.7722 41.0199 16.707 40.906L16.2506 40.206L15.5172 39.734C15.4031 39.6688 15.3053 39.5875 15.2238 39.4898L14.4088 38.6433C14.4088 38.6433 14.2947 38.5294 14.2621 38.4643L13.6753 37.6504L12.9256 36.9667L12.0291 36.0389C11.915 35.9087 11.8172 35.7784 11.7357 35.6157L11.3445 34.818L9.7961 33.4507C9.64941 33.3205 9.51901 33.1577 9.43751 32.9786L9.01373 32.1485L7.4653 30.6672C7.3349 30.537 7.22081 30.3742 7.13931 30.2114L6.81332 29.5277L6.16135 29.1208C6.03096 29.0394 5.91686 28.9417 5.81907 28.8278L5.0204 27.9488L4.28693 26.9884L3.52086 26.2233C3.42307 26.1257 3.34157 26.028 3.27637 25.8978L2.75479 25.0188L2.18432 24.4002L1.33675 23.7979C1.17376 23.684 1.02707 23.5375 0.912972 23.3747L0.212101 22.3329C-0.179082 21.7632 -0.146484 20.9981 0.277298 20.4447C0.701081 19.8912 1.41825 19.6633 2.08652 19.875L3.27637 20.2656L7.70979 21.9422C7.82388 21.9748 7.92168 22.0236 8.01947 22.0887L8.88334 22.6259L10.8393 23.3259L11.8987 23.5538C12.1269 23.6026 12.3551 23.7003 12.5507 23.8468L13.1864 24.3351L13.9687 24.4653C14.0502 24.4653 14.148 24.4979 14.2295 24.5304L15.3379 24.9048C15.3379 24.9048 15.452 24.9537 15.5172 24.9699L17.5383 25.9466L18.5488 26.2722L20.8307 27.1837L21.8087 27.4767C22.0043 27.5418 22.1673 27.6232 22.3303 27.7534L22.917 28.2092L23.6505 28.2906C23.895 28.3232 24.1395 28.4046 24.3514 28.5511L25.0849 29.0231L25.9487 29.2022C26.1932 29.251 26.4051 29.3487 26.6007 29.4952L27.3016 30.0161L28.035 30.1951L29.1271 30.3416C29.4042 30.3742 29.6813 30.4881 29.9095 30.6672L30.6755 31.2532L32.5336 32.002L34.7015 32.5229C34.8807 32.5717 35.06 32.6531 35.223 32.7508L36.1195 33.353L36.9671 33.76L37.8798 34.053L38.9393 34.2646C39.0697 34.2971 39.1838 34.3297 39.2979 34.3785L41.4331 35.3389C41.8568 35.518 42.1828 35.8761 42.3295 36.3319C42.4762 36.7714 42.4273 37.2597 42.1828 37.6504L39.6727 41.7687C39.6727 41.7687 39.5749 41.8989 39.5261 41.964L38.1406 43.5592L37.6516 44.4383C37.6516 44.4383 37.5538 44.5848 37.5049 44.6499L36.2825 46.2777L35.9402 47.1892C35.875 47.352 35.7935 47.5148 35.6794 47.6613L35.0274 48.4589L33.8376 50.396L32.4847 52.2191L32.061 53.1144L31.3275 54.4003C31.0667 54.8561 30.594 55.1654 30.0561 55.2142C30.0072 55.2142 29.9584 55.2142 29.9095 55.2142L29.9258 55.3119ZM27.8883 48.8496L28.5729 49.3379C28.687 49.4193 28.8011 49.5169 28.8989 49.6309L29.665 50.5587C29.665 50.5587 29.6976 50.5913 29.7139 50.6238C29.7465 50.575 29.7791 50.5262 29.828 50.4773L31.1808 48.6705L32.3055 46.8311C32.3055 46.8311 32.4032 46.6846 32.4521 46.6032L33.0226 45.9033L33.3486 45.0405C33.3975 44.9103 33.4627 44.7801 33.5442 44.6661L34.9133 42.843L35.4186 41.9477C35.4675 41.8664 35.5164 41.785 35.5816 41.7036L37.0812 39.9618L37.6516 39.0828L38.108 38.1876C38.108 38.1876 38.1732 38.0736 38.2058 38.0248L38.4666 37.6504L38.1569 37.5039L37.1789 37.3085C37.1789 37.3085 37.0649 37.276 36.9997 37.2597L35.8913 36.9016C35.8913 36.9016 35.7446 36.8528 35.6794 36.8202L34.6363 36.3156C34.6363 36.3156 34.5059 36.2505 34.4407 36.2017L33.6909 35.697L31.7024 35.225C31.6046 35.2087 31.5068 35.1762 31.4253 35.1273L29.339 34.2809C29.176 34.2158 29.0456 34.1506 28.9152 34.0367L28.2958 33.5646L27.5461 33.467C27.5461 33.467 27.432 33.4507 27.3668 33.4344L26.2258 33.1577C26.0139 33.1089 25.8183 33.0112 25.639 32.881L24.9545 32.3764L24.1558 32.2136C23.9602 32.1647 23.7646 32.0996 23.5853 31.9857L22.917 31.5462L22.1021 31.4485C21.8087 31.416 21.5316 31.302 21.2871 31.123L20.5699 30.5695L19.7387 30.3091L16.4462 29.072C16.4462 29.072 16.2995 29.0231 16.2343 28.9906L14.2295 28.0302L13.3331 27.7209L12.2736 27.5418C12.0128 27.493 11.7683 27.3953 11.5564 27.2326L10.8719 26.7117L10.0732 26.5326C10.0732 26.5326 9.94279 26.5001 9.8776 26.4675L7.66089 25.6699C7.54679 25.6373 7.449 25.5885 7.3512 25.5234L7.20451 25.4257L8.11727 26.5001L8.98113 27.0372C9.24192 27.2 9.45381 27.4279 9.58421 27.7046L9.99169 28.5511L11.4749 29.951C11.6053 30.0812 11.7357 30.2277 11.8172 30.3905L12.241 31.2044L13.7894 32.5717C13.9524 32.7182 14.0991 32.8972 14.1806 33.0926L14.6044 33.9716L15.2401 34.639L16.0387 35.3552C16.1202 35.4366 16.2017 35.518 16.2669 35.6157L16.8863 36.4784L17.4894 37.0969L18.3695 37.6504C18.5651 37.7806 18.7444 37.9434 18.8748 38.155L19.4127 39.0014L20.9937 40.5967C20.9937 40.5967 21.1241 40.7595 21.1893 40.8408L21.7761 41.7687L22.3629 42.4686L23.1778 43.136L24.1395 44.0639C24.1395 44.0639 24.2373 44.1615 24.2699 44.2104L25.0197 45.1382C25.1012 45.2359 25.1664 45.3498 25.2153 45.4638L25.5412 46.1474L26.1932 46.5544C26.3562 46.652 26.4866 46.766 26.6007 46.9125L27.3505 47.8403C27.3505 47.8403 27.4809 48.0031 27.5298 48.1008L27.9209 48.8333L27.8883 48.8496Z" fill="black"/>
<path d="M48.034 50.6733C47.5613 50.6733 47.0886 50.4617 46.779 50.0873L45.9477 49.078C45.801 48.899 45.6869 48.6711 45.6217 48.4432L45.4424 47.727L44.9045 47.2224C44.7252 47.0596 44.5949 46.8642 44.4971 46.6364L44.1222 45.7248L43.5517 44.9435C43.4213 44.7644 43.3235 44.5528 43.2746 44.3412L43.0627 43.3971L42.7367 42.8599L41.987 42.2251C41.8566 42.1111 41.7425 41.9809 41.6447 41.8344L41.0416 40.8414L39.9169 38.7416C39.868 38.6602 39.8192 38.5625 39.7866 38.4649L39.3954 37.3417C39.102 36.4952 39.5584 35.5674 40.4059 35.2744C41.2535 34.9814 42.1826 35.4372 42.4759 36.2836L42.8182 37.2603L44.2852 39.9136L45.0349 40.5484C45.1653 40.6624 45.2794 40.7926 45.3609 40.9391L45.964 41.9321C46.0618 42.0786 46.127 42.2413 46.1596 42.4204L46.3552 43.2831L46.8442 43.9505C46.8442 43.9505 46.942 44.097 46.9909 44.1784C46.9909 44.1296 46.9909 44.0807 46.9909 44.0156L47.0723 42.8111C47.0723 42.7297 47.0886 42.632 47.1212 42.5506L47.3657 41.5088L47.4961 39.2462C47.4961 39.1485 47.5124 39.0509 47.545 38.9532L47.7895 37.9928L47.7569 36.9999C47.7569 36.8534 47.7569 36.7069 47.8058 36.5604L48.0829 35.4697L48.2133 34.3628C48.2622 33.9885 48.4415 33.6303 48.7186 33.3699L50.2996 31.9212L50.6745 31.091C50.7886 30.8306 50.9679 30.6189 51.1961 30.4562L52.011 29.8539L52.6304 29.0725C52.6304 29.0725 52.7119 28.9749 52.7608 28.926L54.2603 27.4122L54.7167 26.5169C54.8471 26.2727 55.0264 26.0611 55.2546 25.9146L56.1674 25.2961L56.9497 24.5473L57.4876 23.9125L57.6343 23.6032L56.3467 23.359L55.3198 23.3265H54.4885L53.5595 23.652C53.3965 23.7008 53.1357 23.7171 53.0379 23.7334H51.8806C51.7014 23.7334 51.5221 23.6846 51.3428 23.6357L50.4137 23.3102H49.8106L48.9305 23.6032C48.7023 23.6846 48.4741 23.7008 48.2296 23.6846L47.1538 23.5869L44.9371 23.652C44.7904 23.652 44.6275 23.652 44.4808 23.6032L43.4702 23.3427L42.4596 23.2776H41.4002C41.4002 23.2776 41.2861 23.2776 41.2372 23.2776L40.1614 23.18H39.2324L38.2055 23.3916C38.1077 23.4078 38.0099 23.3916 37.8795 23.4241H36.706C36.6082 23.4241 36.5104 23.4078 36.4126 23.3916L35.3531 23.1962L34.2937 23.1311L29.7788 23.2939C29.7788 23.2939 29.6484 23.2939 29.5832 23.2939L27.4969 23.18L26.4863 23.3427C26.2907 23.3753 26.0788 23.3753 25.8669 23.3427L24.9868 23.1474L22.8842 23.3916C22.8027 23.3916 22.7049 23.3916 22.6234 23.3916L21.4661 23.3265L20.4556 23.3753L19.1842 23.3427H18.0759L17.049 23.4567C16.8045 23.473 16.5437 23.4567 16.3155 23.359L15.6799 23.1148L15.0442 23.3102C14.8812 23.359 14.7182 23.359 14.5552 23.3753H13.3817C13.235 23.3753 13.0883 23.3427 12.9416 23.3102L11.9799 23.0335H11.0346H9.92621H8.85046L6.61745 23.3753C6.43816 23.4078 6.27516 23.4078 6.09587 23.3753L3.92806 22.9358L1.79285 23.1148C0.912689 23.1962 0.114023 22.5126 0.0488255 21.6173C-0.0163718 20.722 0.6519 19.9407 1.54836 19.8755L3.87916 19.6802C4.05846 19.6639 4.22145 19.6802 4.38444 19.7128L6.38926 20.136L8.42667 19.8104C8.52447 19.7942 8.62226 19.7942 8.73636 19.7942H9.90991H11.0183H12.257C12.4037 19.8104 12.5504 19.843 12.6808 19.8755L13.6262 20.1523H14.327L15.2561 19.8755C15.5984 19.7616 15.9733 19.7779 16.3155 19.9081L17.1305 20.2174L17.9292 20.136H19.2494L20.4719 20.1523L21.5313 20.1197L22.7049 20.1848L24.8401 19.9244C25.0357 19.8918 25.2313 19.9081 25.4269 19.9407L26.2907 20.136L27.1546 19.9895C27.2524 19.9895 27.3502 19.9732 27.4643 19.9732L29.7951 20.1034L34.3752 19.9407L35.6791 20.0058C35.6791 20.0058 35.8258 20.0058 35.891 20.0383L36.9179 20.2337H37.7817L38.7923 20.0383C38.8901 20.022 38.9716 20.0058 39.0694 20.0058L40.2266 19.9732C40.2266 19.9732 40.357 19.9732 40.4059 19.9732L41.4817 20.0709H42.5574L43.8288 20.136C43.9429 20.136 44.0407 20.1523 44.1385 20.1848L45.0675 20.429L47.1864 20.3802C47.1864 20.3802 47.3168 20.3802 47.382 20.3802L48.197 20.4616L49.0283 20.1686C49.2239 20.1034 49.4194 20.0709 49.6313 20.0709L50.7886 20.1197C50.9516 20.1197 51.1146 20.1523 51.2776 20.2174L52.174 20.5429H52.7934L53.7062 20.2499C53.8529 20.2011 54.0159 20.1686 54.1789 20.1686L55.3361 20.136L56.5911 20.1848C56.6726 20.1848 56.7704 20.1848 56.8519 20.2174L58.6449 20.5267L59.4272 20.2337C59.7043 20.136 59.9977 20.1034 60.2748 20.1523L61.5461 20.3639C62.1655 20.4616 62.6545 20.9011 62.8338 21.5033C63.0131 22.1056 62.8338 22.7405 62.3774 23.1637L60.7638 24.6775L60.3563 25.5565C60.2911 25.6867 60.2096 25.817 60.1118 25.9309L59.3131 26.8588L58.3352 27.8191C58.3352 27.8191 58.2048 27.9331 58.1233 27.9982L57.4387 28.4703L57.0638 29.2028C56.9986 29.3493 56.9008 29.4632 56.7867 29.5772L55.1242 31.2701L54.4396 32.1328C54.3581 32.2467 54.244 32.3444 54.1299 32.4258L53.478 32.9141L53.1357 33.6792C53.0379 33.8908 52.8912 34.0861 52.7282 34.2326L51.408 35.4209L51.3265 36.0557C51.3265 36.0557 51.3102 36.186 51.2939 36.2674L51.0494 37.2278L51.082 38.2207C51.082 38.3672 51.082 38.5137 51.0331 38.6602L50.7723 39.702L50.6419 41.9483C50.6419 42.046 50.6256 42.1437 50.593 42.2413L50.3322 43.2831L50.267 44.2598L50.3159 45.383C50.3159 45.5783 50.2996 45.7736 50.2344 45.969L49.5987 47.9874L49.6639 49.0455C49.7128 49.7454 49.2891 50.3965 48.6371 50.657C48.4415 50.7384 48.2459 50.7709 48.034 50.7709V50.6733Z" fill="black"/>
<path d="M47.92 50.689C47.6918 50.689 47.4636 50.6401 47.2517 50.5425L46.1597 50.0541C45.9804 49.9728 45.8011 49.8425 45.6707 49.696L44.9535 48.9472L44.2038 48.4915L43.2258 48.052L42.0848 47.4497L41.1069 46.8311L40.1452 46.4567C40.1452 46.4567 39.9985 46.3916 39.9333 46.3591L38.9065 45.7731L37.9774 45.3661L36.8365 44.7313C36.0541 44.2918 35.7607 43.2988 36.2008 42.5175C36.6409 41.7362 37.6188 41.4432 38.4175 41.8827L39.4444 42.4524L40.406 42.8756L41.4655 43.4779L42.4597 43.8686C42.5575 43.9011 42.6553 43.9499 42.7368 44.0151L43.7311 44.6499L45.6381 45.5615C45.6381 45.5615 45.7685 45.6266 45.8337 45.6591L46.8442 46.2777C46.9583 46.3428 47.0724 46.4405 47.1702 46.5381L47.8222 47.2218L48.6209 47.5799C49.4358 47.9543 49.7944 48.9147 49.4358 49.7449C49.1588 50.3471 48.572 50.689 47.9526 50.689H47.92Z" fill="black"/>
</g>
<defs>
<clipPath id="clip0_132_6362">
<rect width="176" height="126" fill="white"/>
</clipPath>
</defs>
</svg>
