<svg width="174" height="160" viewBox="0 0 174 160" fill="none" xmlns="http://www.w3.org/2000/svg">
<path d="M69 34.5V23L85 15L102 22L105.5 39L108 56L101 63L82.5 69.5L80 58L75.5 56L70.5 47.5L69 34.5Z" fill="white"/>
<path d="M86.2289 35.8629L84.6387 35.3668L83.9985 34.2713L83.3789 33.1137L83.9985 31.5014L85.3202 30.5093L86.6006 30.0752L87.7778 30.7366L88.6039 31.7081L89.1821 32.907H89.0582L88.9962 32.9484H88.8723L88.6039 34.6847L87.1169 35.5528L86.2495 35.8629H86.2289Z" fill="black"/>
<path d="M76.1095 32.8453L74.8704 32.4112L74.003 31.7084L73.5693 30.5923L73.9411 29.0006L75.3454 28.2152L76.44 28.0498L77.6378 28.2358L78.4639 29.1867L78.6497 30.4062H78.5052L78.3606 30.4269H78.7736L78.3399 32.0598L76.9563 32.928L76.1508 32.8246L76.1095 32.8453Z" fill="black"/>
<path d="M11.8198 77.6172L19.6469 76.3976L23.9425 73.8552L46.4532 100.375C46.4532 100.375 53.5988 92.0657 54.6933 91.5283C55.7879 90.9909 71.091 72.5736 71.091 72.5736L79.8268 69.2457L97.9592 63.7681L111.094 53.6396L122.948 59.7167L137.962 70.0312L151.2 89.3579L158.903 105.77L166.565 130.326L171.212 159.988L84.5767 165.094C84.5767 165.094 78.2572 143.99 78.5257 143.307C78.7942 142.625 72.5986 116.932 72.5986 116.932L62.4791 126.854L56.015 133.489L40.588 130.554L35.5696 128.28L17.1893 98.4942C17.1893 98.4942 13.2655 93.802 11.8405 77.5552L11.8198 77.6172Z" fill="#93763E"/>
<path d="M68.386 23.4815L69.5012 22.4066L70.5338 21.3111L71.9381 20.691L73.1979 19.8849L74.375 18.996L75.7794 18.562L77.1424 18.1279L78.5674 17.9212L80.0337 17.9419L81.4174 18.624L82.8424 18.8307L84.2673 19.0994L85.6923 19.4094L87.1999 19.4715L88.5423 20.0916L89.9879 20.3189L91.4749 20.815L92.1151 22.2826L92.9618 23.5848L93.602 25.0111L94.5107 26.272L95.3368 27.5949L96.1629 28.9178L97.1748 30.096L98.7444 30.158L100.314 30.6748L101.842 31.2949L103.102 32.3697L103.288 33.858L103.267 35.3256L103.66 36.8345L103.123 38.2814L102.999 39.749L104.465 40.7412L106.138 41.2786L107.232 40.5758L108.079 39.439L109.07 38.4261L109.773 37.1859L110.784 36.1731L111.156 34.7468L110.991 33.2585L111.259 31.853L111.9 30.5301L112.106 29.1038L112.416 27.7189L112.623 26.2927L112.602 24.8251L113.036 23.4402L113.428 22.0552L113.366 20.567L113.614 19.1614L113.882 17.8385L112.829 16.743L111.611 15.7921L110.433 14.7586L109.752 13.291L108.513 12.2782L107.852 10.8106L107.294 9.4877L106.324 8.33016L105.064 7.48268L103.928 6.51117L102.689 5.64302L101.408 4.83688L100.004 4.25811L98.5379 3.82403L97.2368 3.05923L95.7911 2.68717L94.3661 2.1084L92.9205 2.39778L91.4749 2.83186L90.0499 3.30728L88.8727 4.29945L87.3445 4.54749L86.0641 5.39498L84.5152 5.47766L83.0902 5.9324L81.7478 6.65587L80.2402 6.90391L78.7533 7.13128L77.3696 7.85474L75.8207 7.62737L74.3337 7.91675L72.8261 8.20614L71.3392 7.71005L69.811 7.85474L68.3034 7.17262L67.7045 8.76424L67.2295 10.2525L66.5273 11.6581L65.9284 13.1257L65.4121 14.5933L65.2056 16.0609L65.6599 17.5698L66.2795 19.0581L67.0642 20.4636L67.6838 21.9726L68.386 23.4815Z" fill="black"/>
<path d="M68.675 21.9725L67.6424 22.4686L67.7043 22.0552L68.9228 21.2697L69.7282 20.0915L70.7195 19.0787L71.7934 18.1485L73.0326 17.4664L74.3543 16.9703L75.676 16.5156L77.1216 16.4122L78.5673 16.3295L80.0542 16.0195L81.4999 16.3295L82.9042 16.7429L84.3705 16.867L85.6922 17.5491L87.1585 17.9625L88.6661 18.2519L90.153 18.6239L91.5574 19.1614L92.7552 20.0089L93.8497 21.1044L94.6758 22.4273L95.3367 23.8535L96.266 25.1144L97.1747 26.396L97.9388 27.7602L98.7029 29.1245L97.1334 28.1943L98.7236 28.4423L100.293 28.5457L101.821 28.9798L103.102 29.9306L104.506 30.7574L105.022 32.3077L105.663 33.7959V35.4082L105.58 36.9998L105.415 38.5915L105.002 40.1417L104.279 39.1082L103.907 38.1367L105.456 38.8395L107.191 39.5423L105.849 39.873H104.63L105.601 38.8395L106.489 37.6406L107.48 36.5451L108.554 35.4909L108.946 34.1267L109.029 32.7211L109.483 31.3775L109.71 30.0133L109.958 28.6077L110.33 27.2228L110.392 25.7965L110.784 24.4323L110.846 23.006V21.5591L111.383 20.1949L111.652 18.7893L111.755 17.4251L112.643 19.4508L111.425 18.5413L110.351 17.4664L109.38 16.2882L108.182 15.3167L107.232 14.1178L106.695 12.6709L106.055 11.3067L104.899 10.3972L104.093 9.13627L102.957 8.22678L101.697 7.50332L100.376 6.90388L99.0334 6.34578L97.753 5.66366L96.4725 4.98154L95.1508 4.34076L93.7052 4.1754L92.4041 4.96087L90.8552 5.12624L89.6161 6.03573L88.2118 6.55249L86.7455 6.94522L85.2998 7.31729L83.9161 7.89606L82.5738 8.59885L81.0455 8.72287L79.6205 9.19828L78.1129 9.32231L76.6673 9.73571L75.1804 9.8804L73.6728 9.71504L72.1652 10.1284L70.6989 9.69437L69.1706 9.73571L67.7043 9.40499L68.9848 8.74354L70.1413 8.3508L69.563 9.6737L68.9228 11.162L68.0761 12.5882L67.4152 14.0971L66.7957 15.5647H67.2087L67.7043 17.053L68.0761 18.6033L68.5304 19.9262L68.9848 21.2697L69.6663 22.5306H69.5217L68.6337 22.0139V21.8899L68.675 21.9725ZM68.2206 24.4736L66.8783 23.6055L66.0728 22.5926L65.6391 21.3111L64.7511 20.3189L63.9457 19.0167L63.2229 17.6731L62.9131 16.1642L63.2642 14.6966L63.6359 13.2703L64.2142 11.9061L64.7718 10.5419L65.0609 9.03292L65.8044 7.75136L66.5685 6.4698L67.5185 5.33294L68.9435 5.62232L70.4511 5.91171L71.9793 6.01506H73.5076L75.0151 5.95305L76.5227 5.82902L77.9477 5.25026L79.414 4.9402L80.9216 4.75417L82.3259 4.19607L83.7303 3.63797L85.1759 3.18323L86.6215 2.70781L87.9639 2.00502L89.4302 1.59161L90.7519 0.826812L92.115 0.186033L93.6845 0.248044L95.2334 0L96.6584 0.68212L98.1866 0.950834L99.5497 1.67429L100.954 2.27373L102.379 2.99719L103.68 3.94803L105.146 4.60948L106.179 5.89104L107.459 6.80053L108.74 7.77203L109.69 9.07426L110.144 10.5419L111.073 11.7614L112.106 12.8569L113.097 13.9938L114.047 15.1927L115.225 16.1642L116.03 16.991L115.947 18.1485L115.741 19.5954L115.493 21.0217L115.121 22.4273L115.039 23.8949L114.626 25.3004L114.543 26.768V28.2563L113.965 29.6412L113.676 31.0675L113.387 32.4937L113.18 33.9406L112.912 35.5943L112.354 37.0205L111.487 38.2607L110.743 39.625L109.731 40.8032L108.451 41.692L107.418 42.8082L106.324 43.6763L105.084 43.0769L103.556 42.1881L101.966 41.4233L100.995 40.5965L100.706 39.2529L101.037 37.806L101.346 36.3384L101.574 34.8295L101.14 33.3619L99.7355 32.8865L98.3932 32.101L96.8649 32.2663L95.2128 31.2535L94.5313 29.8479L93.8291 28.463L92.9204 27.2021L91.8878 26.0239L91.3096 24.5563L90.3802 23.2954L89.7193 22.0552L90.4835 22.7993L89.1411 22.3239L87.84 21.6831H86.3324L85.0314 20.9804L83.5651 20.877L82.1607 20.5669L80.777 20.1535L79.3521 19.8642L77.9064 20.0709L76.4814 20.1949L75.1184 20.4843L73.8586 21.1044L72.6195 21.7658L71.7315 22.9234L70.575 23.6882L69.3565 24.2463L68.1174 24.639V24.453L68.2206 24.4736Z" fill="black"/>
<path d="M70.0997 33.3206L70.3888 34.7469L70.678 36.0905L70.7399 37.496L71.1323 38.8603L71.3595 40.2865L71.1943 41.7748L71.3595 43.2217L71.9171 44.6066L71.8964 46.0949L72.3508 47.4798L72.8464 48.8647L73.7138 50.0429L74.4366 51.2831L75.242 52.4613L76.2127 53.5362L77.3692 54.4664L78.7735 54.9831L80.2605 54.8384L81.7061 54.8798L83.1311 54.5904L84.5148 54.1356L85.7952 53.4328L87.1376 52.8334L88.3973 52.1306L89.306 51.0558L90.6071 50.4977L91.7636 49.8155L92.9201 49.0094L94.4484 49.4021L94.8408 50.9317L93.9321 52.234L93.0647 53.4742L91.7843 54.3217L90.5658 55.2518L89.6365 56.492L88.3354 57.2155L86.8691 57.5669L85.568 58.2697L84.1637 58.6211L82.8007 59.3032L81.2931 58.9931L79.8474 59.0138L78.4018 58.9931L76.9974 58.5797L75.5725 58.2077L74.292 57.4842L73.0529 56.6781L72.2062 55.4379L71.091 54.4664L70.2856 53.2468L69.4801 52.0066L68.8193 50.6837L68.4475 49.2368L68.4062 47.7278L67.9725 46.3429L67.5802 44.896L67.6834 43.4698L67.6215 42.0642L67.1878 40.6999L67.1052 39.253L67.1878 37.8061L66.9399 36.4005L67.0639 34.9329L67.3736 33.5273L68.6541 32.7832L69.9964 33.362L70.0997 33.3206Z" fill="black"/>
<path d="M76.8739 41.6301L76.0685 42.1882L75.6967 41.5268L74.4163 40.9067L73.4663 39.8318L73.7141 38.3229L74.7054 37.186L75.5522 36.752L76.7706 37.186L77.7619 38.0128L78.526 38.819L78.113 39.3151L77.7413 40.3279L77.2043 39.005L76.9771 37.5994L78.0304 38.7363L78.0924 39.4598L77.5554 40.576L76.9771 41.7335L76.8739 41.6301Z" fill="black"/>
<path d="M85.6921 45.4541L84.928 46.9837L83.6476 47.7278L82.3878 48.4926L80.9009 48.6993L79.4552 48.534L78.1129 48.0999L76.8118 47.5831L76.2129 46.4256L76.8738 44.4826L77.514 44.4206L78.5466 43.7178L79.2074 44.3999L80.9835 44.4206L82.5944 43.7384L83.6063 43.8625L84.8041 44.4206L85.5889 45.4541H85.6921Z" fill="black"/>
<path d="M81.0662 56.6987L81.851 57.7116L82.6771 59.1585L82.9249 60.8328L83.214 62.5278L83.3379 64.2434L82.6771 65.3803L81.4586 65.5663L80.1162 65.649L79.476 64.5121L79.3108 63.0859L78.9184 61.6803L78.4847 60.2127L78.1543 58.7037L78.526 57.4015L79.8478 57.1121L81.0662 56.9674V56.6987Z" fill="black"/>
<path d="M78.4847 68.3154L79.9097 67.7366L81.4173 67.5299L82.8836 67.0752L84.4119 66.9098L85.7955 66.145L87.3238 65.9796L88.7488 65.4629L90.1738 64.9254L91.5988 64.4087L93.127 64.14L94.5313 63.5405L95.9563 62.9618L97.1954 62.0523L98.3933 61.0808L99.6117 60.1506L101.078 59.5098L102.131 58.373L103.164 57.2154L104.3 56.1819L105.436 55.1277L106.737 54.2596L107.604 52.9573L108.884 52.0272L109.855 51.4277L111.032 51.4691L112.54 51.9032L113.8 52.8333L115.204 53.4948L116.505 54.3216L117.992 54.8177L119.438 55.3551L120.615 56.4299L122.122 56.8847L123.361 57.8149L124.766 58.4556L126.108 59.2204L127.43 60.0473L128.793 60.626L130.011 61.4528L131.251 62.2383L132.552 62.9411L133.646 63.9333L134.741 64.9461L136 65.7109L137.054 66.7444L138.417 67.4059L139.346 68.5634L140.399 69.5969L141.329 70.7338L142.32 71.8087L143.229 72.9869L143.993 74.2684L144.943 75.4053L145.79 76.6248L146.678 77.8237L147.504 79.0433L148.309 80.2835L148.929 81.6477L149.651 82.9499L150.829 83.9628L151.531 85.2857L152.088 86.6706L152.667 88.0348L153.617 89.213L154.298 90.5359L155.124 91.7762L155.723 93.1404L156.425 94.4426L156.714 95.9516L157.541 97.1918L158.201 98.5147L158.738 99.8996L159.296 101.285L159.895 102.649L160.473 103.992L160.948 105.398L161.712 106.7L161.919 108.209L162.394 109.615L163.034 110.958L163.571 112.343L164.211 113.687L164.5 115.154L165.223 116.477L165.326 118.007L165.636 119.454L166.194 120.839L166.441 122.306L166.855 123.732L167.515 125.076L167.908 126.523L168.403 127.929L168.631 129.396L169.023 130.822V132.352L169.705 133.716L169.787 135.225L169.89 136.713L170.262 138.14L170.675 139.566L170.82 141.054L171.274 142.501L171.191 144.01L171.543 145.457L171.728 146.925V148.433L172.018 149.901L172.141 151.369L172.782 152.795L172.885 154.283L172.864 155.792L173.029 157.26L173.381 158.748L173.504 160.236L173.277 161.786L173.381 163.275L173.587 164.742L173.897 166.231L173.732 167.74L173.69 169.248L174 170.737L173.876 172.225L173.649 173.713L173.277 175.16L172.864 176.545L171.894 177.455L170.737 176.359L170.489 174.871L170.613 173.341L170.303 171.853L169.828 170.365L170.076 168.835L169.725 167.347L169.333 165.859L169.519 164.329L169.333 162.82L169.271 161.311L168.858 159.823L168.92 158.293L168.672 156.805L168.445 155.317L168.693 153.766L168.362 152.278L168.341 150.769L168.094 149.26L167.557 147.813L167.33 146.325L167.144 144.816L167.247 143.266L166.545 141.86L166.503 140.331L166.008 138.925L165.843 137.458L165.884 135.949L165.326 134.564L164.893 133.137L164.955 131.629L164.149 130.306L164.232 128.755L163.757 127.37L163.282 125.965L162.683 124.601L162.724 123.05L162.352 121.624L161.464 120.363L161.402 118.834L160.783 117.49L160.514 116.022L159.957 114.658L159.255 113.335L158.842 111.93L158.325 110.545L157.726 109.201L157.251 107.796L157.024 106.307L156.405 104.964L155.537 103.744L155.269 102.256L154.773 100.85L153.906 99.6309L153.389 98.246L152.667 96.9644L151.82 95.7242L151.18 94.4013L150.767 92.975L149.92 91.7555L149.28 90.4119L148.495 89.1717L147.855 87.8488L147.07 86.5879L146.347 85.3064L145.459 84.1282L144.84 82.7639L144.075 81.5237L142.981 80.4695L142.217 79.2293L141.329 78.0511L140.647 76.7282L139.883 75.4466L138.85 74.3924L138.107 73.0695L137.012 72.0567L135.835 71.1472L134.823 70.0517L133.749 69.0388L132.407 68.3567L131.209 67.4679L130.177 66.393L128.979 65.5249L127.636 64.8634L126.521 63.8713L125.117 63.3338L123.898 62.4657L122.577 61.8042L121.4 60.8947L120.037 60.2746L118.612 59.7992L117.393 58.9104L116.051 58.2903L114.688 57.6908L113.345 57.0914L111.982 56.492L110.722 55.7065L109.339 55.2104L110.619 55.0037L111.817 54.6316L110.805 55.7478L109.69 56.7813L108.74 57.9596L107.604 58.9517L106.365 59.8406L105.332 60.9361L104.052 61.7836L102.957 62.8377L101.553 63.4579L100.396 64.4294L99.1367 65.2355L97.7117 65.7523L96.4933 66.6617L95.2128 67.5092L93.8292 68.1087L92.3009 68.3154L90.8759 68.7908L89.389 69.0595L87.9433 69.4316L86.4771 70.093L84.9282 70.4031L83.3173 70.2377L81.7684 70.6511L80.1989 70.6925L78.6293 70.4237L77.4521 69.3696L78.4434 68.0467L78.4847 68.3154Z" fill="black"/>
<path d="M71.7935 73.4002L71.1119 74.7231L70.3065 75.984L69.1293 76.9348L68.262 78.1337L67.3326 79.2706L66.5479 80.5315L65.5359 81.627L64.462 82.6398L63.512 83.7767L62.6859 85.0169L61.7359 86.1538L60.7033 87.2286L59.7534 88.3655L58.6794 89.399L58.1012 90.8459L56.8001 91.6727L56.1599 93.0577L55.2512 94.2359L54.1567 95.2487L53.4545 96.5923L52.3599 97.6258L51.8023 99.0314L50.9969 100.272L50.2948 101.574L50.1089 101.615L50.2328 101.429L50.2121 101.47L49.4893 102.587L48.3535 103.062L47.0937 103.496L45.8339 102.917L44.8013 102.008L44.0579 100.871L42.9013 100.148L41.8687 99.1141L41.022 97.9359L39.9481 96.9643L39.1633 95.7241L38.2546 94.6079L37.4286 93.4297L36.5199 92.2929L35.384 91.342L34.3721 90.3085L33.608 89.0476L32.4927 88.0761L31.6254 86.8979L30.8199 85.6784L29.8699 84.5828L29.0026 83.4253L28.2384 82.2264L26.9787 81.2549L26.2352 79.87L25.2852 78.6298L24.17 77.5136L23.5091 76.108L23.1787 74.5991L23.4678 73.2348L25.058 72.8628L26.2145 73.9376L27.5156 74.8471L28.3417 76.17L29.3743 77.3276L30.4689 78.4231L31.2949 79.7253L32.1623 80.9655L33.2569 82.0197L34.1036 83.2806L35.2601 84.2935L36.1275 85.5337L36.9536 86.8359L38.234 87.7454L39.2666 88.8823L39.9275 90.3085L41.0427 91.3834L42.1785 92.3962L43.2111 93.5331L44.1405 94.7526L45.1111 95.9308L46.185 97.0057L47.073 98.3699L48.4567 99.4241L46.9491 99.6515L45.6481 100.809L46.185 99.5481L47.2176 98.3906L48.0643 97.1504L48.8078 95.8275L49.51 94.4632L50.8317 93.5951L51.6371 92.3135L52.4219 90.9493L53.3512 89.7297L54.3838 88.5722L55.5403 87.5387L56.4903 86.3191L57.5436 85.2029L58.5142 84.0041L59.4229 82.7432L60.3316 81.503L61.5707 80.5315L62.4175 79.2499L63.5946 78.2371L64.4 76.8315L65.6805 75.8806L66.775 74.7851L67.5805 73.3589L68.9641 72.5527L70.1619 71.4985L71.8761 71.8913L71.8967 73.4209L71.7935 73.4002Z" fill="black"/>
<path d="M13.8026 51.4276L15.8265 50.8901L17.458 51.3656L19.1515 51.5102L20.8243 51.8823L21.8156 53.2672L22.6003 54.5901L23.1579 55.9957L23.9014 57.3393L24.3764 58.8069L25.3677 60.0471L25.6362 61.618L25.9873 62.3415L25.946 63.8504L26.0286 65.3593L26.0699 66.8683L26.4829 68.3772L26.5449 69.9068L26.4829 71.4364V72.9453L25.7807 74.3509L24.8514 75.5498L23.7569 76.6453L22.3938 77.3895L21.0514 78.1129L19.6265 78.6297L18.2634 79.3738H16.6939L15.2069 79.6632L13.6787 79.7872L12.3776 79.4151L11.0352 79.0844L9.89938 78.299L9.13525 77.1828L9.67221 76.0459L10.5396 75.5291L12.1917 75.3224L13.8439 75.4878L15.5167 75.5498L17.1069 75.0744L18.7178 74.6403L20.2047 73.8548L21.5884 72.8833L22.8688 71.7671L22.1666 73.1727L22.084 71.6431L21.7949 70.1342V68.6253L21.671 67.1163L21.9395 65.566V64.0364L21.7536 62.5482L21.8156 63.375L21.3819 61.8867L20.6177 60.5638L20.1221 59.1169L19.3993 57.7733L18.6145 56.4298L18.0569 54.9415L19.296 56.2024L18.0569 55.4996L16.6319 55.1275L15.2069 54.7968L13.9678 54.094L13.3276 52.8331L13.9059 51.5309L13.8026 51.4276Z" fill="black"/>
<path d="M6.36789 72.5732L5.23203 72.2631L4.26139 71.581L3.29074 70.3408L2.44401 69.0179L1.67989 67.6743L1.37011 66.1241L0.688595 64.7185L0.461426 63.1682L0.647294 61.6386L0.771205 60.109L1.18424 58.3107L2.54727 57.1738L3.95161 57.2152L4.9429 58.228L5.21138 60.109L4.92225 60.8325L4.81899 62.2794L5.19073 63.685L5.27333 65.1526L6.0168 66.4135L6.73962 67.6743L7.17332 69.0799L7.81353 70.5889L7.66896 72.0151L6.34723 72.5525L6.36789 72.5732Z" fill="black"/>
<path d="M14.1124 91.0732L15.1244 92.0861L16.1983 93.0576L16.6526 94.4632L17.7059 95.476L18.1189 96.8816L19.007 98.0185L19.895 99.1347L20.5559 100.396L21.3406 101.656L22.1048 102.938L22.9308 104.158L23.5917 105.501L24.2939 106.803L25.1406 108.023L25.8015 109.366L26.3591 110.772L27.0819 112.095L28.0319 113.252L28.9199 114.472L29.7873 115.692L30.3036 117.138L31.1503 118.379L32.1829 119.495L33.0296 120.735L33.7318 122.058L34.4546 123.36L35.2188 124.662L36.4372 125.613L37.3666 126.771L38.1307 128.052L37.635 127.846L39.1013 128.052L40.485 128.569L41.9513 128.59L43.335 129.065L44.7187 129.499L46.2056 129.582L47.548 130.14L48.9523 130.492L50.4186 130.574L51.8229 130.967L53.2479 131.194L54.6729 131.422L56.0566 131.174L57.0685 130.264L57.7501 128.983L58.762 127.97L59.7533 126.957L60.7033 125.861L61.7359 124.869L62.4381 123.567L63.3674 122.451L64.338 121.417L65.35 120.342L66.3206 119.185L67.5184 118.255L68.2619 116.911L69.3978 115.94L70.513 114.947L71.7314 114.079L73.0532 113.501L74.1477 113.955L74.3955 115.154L73.5282 116.312L72.8673 117.614L72.0412 118.792L71.2771 120.032L70.3065 121.128L69.1706 122.079L68.2413 123.174L67.4358 124.394L66.3413 125.365L65.3913 126.461L64.6478 127.742L63.7804 128.9L62.7065 129.871L61.6739 130.905L60.6207 131.918L59.9805 133.241L58.9479 134.295L57.1718 135.514L55.561 135.37L53.9707 135.886L52.4012 135.576L50.8316 135.39L49.3034 134.956L47.7958 134.398L46.3915 134.253L45.0697 133.799L43.6448 133.675L42.2404 133.406L40.9394 132.745L39.5557 132.455L38.1513 132.29L36.8916 131.856L35.5492 131.566L34.8057 130.285L33.7938 129.251L32.6786 128.28L31.8112 127.102L31.0884 125.841L30.221 124.683L29.7873 123.236L28.6101 122.265L27.908 120.983L27.3917 119.619L26.8134 118.275L25.8428 117.159L25.2439 115.836L24.1906 114.761L23.6123 113.418L22.9721 112.136L22.27 110.896L21.6504 109.614L20.6591 108.56L19.8537 107.382L19.1309 106.142L18.7798 104.716L18.0363 103.475L17.0244 102.442L16.3429 101.181L15.8472 99.8374L15.1244 98.5972L14.3396 97.3983L13.844 96.0548L12.9766 94.8972L12.6875 93.471L12.2744 92.1068L12.9146 90.6392L14.1331 90.9699L14.1124 91.0732Z" fill="black"/>
<path d="M71.4424 107.63L72.0413 109.015L72.5576 110.421L72.888 111.868L73.3836 113.273L74.0032 114.658L74.0652 116.188L74.3956 117.635L74.9325 119.04L75.1597 120.529L75.7173 121.934L76.2543 123.319L76.7293 124.745L76.626 126.316L77.0184 127.763L77.4314 129.21L77.8238 130.657L78.5053 132.042L78.6499 133.551L79.1869 134.957L79.5999 136.403L79.7032 137.933L80.0749 139.38L80.2194 140.889L80.6531 142.336L80.9836 143.803L81.3553 145.25L81.9129 146.656L82.3673 148.103L82.5738 149.57L82.9249 151.017L83.2966 152.382L83.3585 153.808L83.5238 155.193L84.2672 156.495L84.1846 157.963L84.5564 159.327L84.6596 160.753L85.1966 162.076L85.0314 163.523L85.1966 164.866L84.6596 166.107L83.5031 166.975L82.3673 166.024L81.4999 164.577L80.7151 162.882L80.3847 161.394L80.4466 159.823L80.0955 158.335L79.8271 156.846L79.476 155.358L78.8771 153.911L78.7738 152.361L78.6086 150.831L77.9684 149.384L77.6793 147.875L77.3695 146.367L77.2249 144.837L76.7706 143.349L76.3369 141.881L76.4195 140.289L75.6554 138.884L75.3662 137.396L75.2217 135.907L74.9945 134.44L74.4989 133.034L74.2923 131.546L73.9826 130.078L73.6728 128.611L73.1771 127.184L72.5782 125.779L72.413 124.291L71.9587 122.864L71.8554 121.355L71.2978 119.95L71.1532 118.462L70.9674 116.973L70.1826 115.609L70.2446 114.059L69.625 112.653L69.7902 111.103L69.563 109.635L69.0674 108.209L69.6043 107.134L70.6782 107.01L71.7935 107.589L71.4424 107.63Z" fill="black"/>
<path d="M106.013 48.4097L107.129 49.0711L107.48 50.456L108.409 51.5102L108.905 52.7711L109.566 54.0113L109.153 55.4169L107.872 55.8716L106.674 56.3057L105.538 55.7683L104.919 54.5694L104.527 53.2465L103.886 52.0476L103.453 50.7454L103.742 49.6706L104.878 49.1125L106.117 48.7197L106.013 48.4097Z" fill="black"/>
</svg>
