<svg width="81" height="47" viewBox="0 0 81 47" fill="none" xmlns="http://www.w3.org/2000/svg">
<path d="M31.5 4L7 5L15 15.5L39 43.5L47.5 32L62.5 36.5L65 20.5L76.5 4H31.5Z" fill="white"/>
<path d="M38.9168 46.2371C38.3178 46.2371 37.7189 45.9684 37.3266 45.4929L36.1907 44.1494C36.1907 44.1494 36.0668 43.984 36.0048 43.9013L35.282 42.7025L34.5798 41.855L33.5472 41.1108C33.2788 40.9248 33.0722 40.6768 32.907 40.3874L32.2668 39.1885L31.6679 38.4444L30.6353 37.8036C30.3049 37.5969 30.0364 37.2868 29.8505 36.9354L29.2723 35.7366L28.5495 34.8477L27.5582 33.8762L26.5049 33.0288C26.4017 32.9461 26.2984 32.8427 26.2158 32.7394L25.2658 31.5818C25.2658 31.5818 25.1625 31.4371 25.1006 31.3751L24.3984 30.2589L22.4778 28.3366C22.3539 28.2126 22.2506 28.0885 22.168 27.9439L21.5898 27.055L20.6604 26.4556C20.5159 26.3729 20.3919 26.2696 20.2887 26.1455L19.2561 25.0707C19.2561 25.0707 19.1115 24.926 19.0702 24.8433L18.3267 23.8098L17.3768 22.9416L16.2409 21.7634C16.0963 21.5981 15.9724 21.4327 15.8692 21.226L15.3735 20.2132L13.4116 18.4769C13.2257 18.3115 13.0605 18.1048 12.9572 17.8774L12.4203 16.8232L10.4583 14.9422C10.2931 14.7769 10.1486 14.5702 10.0453 14.3635L9.63226 13.4953L8.80618 12.9786C8.64097 12.8752 8.4964 12.7512 8.37249 12.6065L7.36054 11.4903L6.43121 10.2707L5.46056 9.29925C5.33665 9.17522 5.23339 9.0512 5.15078 8.88584L4.48992 7.76964L3.7671 6.98417L2.6932 6.21937C2.48668 6.07468 2.30081 5.88864 2.15625 5.68194L1.26821 4.35904C0.772565 3.63558 0.813868 2.66408 1.35082 1.96129C1.88777 1.2585 2.79646 0.969113 3.64319 1.23783L5.15078 1.73391L10.7681 3.86295C10.9127 3.90429 11.0366 3.96631 11.1605 4.04899L12.2551 4.73111L14.7333 5.61993L16.0757 5.90932C16.3648 5.97133 16.6539 6.09535 16.9018 6.28138L17.7072 6.90149L18.6985 7.06685C18.8017 7.06685 18.9256 7.10819 19.0289 7.14953L20.4332 7.62495C20.4332 7.62495 20.5778 7.68696 20.6604 7.70763L23.2213 8.94785L24.5017 9.36125L27.393 10.5188L28.6321 10.8909C28.8799 10.9735 29.0864 11.0769 29.2929 11.2423L30.0364 11.821L30.9657 11.9244C31.2755 11.9657 31.5853 12.0691 31.8538 12.2551L32.7831 12.8545L33.8777 13.0819C34.1875 13.1439 34.4559 13.2679 34.7038 13.454L35.5918 14.1154L36.5211 14.3428L37.9048 14.5288C38.2559 14.5702 38.607 14.7149 38.8961 14.9422L39.8667 15.6864L42.2211 16.6372L44.9678 17.2987C45.195 17.3607 45.4221 17.464 45.6286 17.588L46.7645 18.3528L47.8384 18.8696L48.9949 19.2417L50.3373 19.5104C50.5025 19.5517 50.6471 19.5931 50.7916 19.6551L53.497 20.8746C54.034 21.102 54.447 21.5567 54.6329 22.1355C54.8188 22.6936 54.7568 23.3137 54.447 23.8098L51.2666 29.0394C51.2666 29.0394 51.1427 29.2047 51.0808 29.2874L49.3253 31.3131L48.7058 32.4293C48.7058 32.4293 48.5819 32.6153 48.5199 32.698L46.971 34.7651L46.5373 35.9226C46.4547 36.1293 46.3515 36.336 46.2069 36.522L45.3808 37.5349L43.8732 39.9946L42.1591 42.3097L41.6222 43.4466L40.6928 45.0795C40.3624 45.6583 39.7635 46.051 39.082 46.1131C39.02 46.1131 38.9581 46.1131 38.8961 46.1131L38.9168 46.2371ZM36.3353 38.031L37.2026 38.6511C37.3472 38.7544 37.4918 38.8784 37.6157 39.0231L38.5863 40.2013C38.5863 40.2013 38.6276 40.2427 38.6483 40.284C38.6896 40.222 38.7309 40.16 38.7928 40.098L40.507 37.8036L41.9319 35.4678C41.9319 35.4678 42.0559 35.2818 42.1178 35.1785L42.8406 34.2896L43.2537 33.1941C43.3156 33.0288 43.3982 32.8634 43.5015 32.7187L45.2363 30.4036L45.8765 29.2668C45.9384 29.1634 46.0004 29.0601 46.083 28.9567L47.983 26.745L48.7058 25.6288L49.284 24.4919C49.284 24.4919 49.3667 24.3472 49.408 24.2852L49.7384 23.8098L49.346 23.6238L48.1069 23.3757C48.1069 23.3757 47.9623 23.3344 47.8797 23.3137L46.4754 22.859C46.4754 22.859 46.2895 22.797 46.2069 22.7556L44.8852 22.1148C44.8852 22.1148 44.72 22.0322 44.6374 21.9701L43.6874 21.3294L41.1678 20.7299C41.0439 20.7093 40.92 20.6679 40.8167 20.6059L38.1733 19.531C37.9668 19.4484 37.8015 19.3657 37.6363 19.221L36.8516 18.6216L35.9016 18.4975C35.9016 18.4975 35.757 18.4769 35.6744 18.4562L34.2288 18.1048C33.9603 18.0428 33.7125 17.9188 33.4853 17.7534L32.6179 17.1126L31.606 16.9059C31.3581 16.8439 31.1103 16.7612 30.8831 16.6165L30.0364 16.0584L29.0038 15.9344C28.6321 15.8931 28.281 15.7484 27.9712 15.521L27.0625 14.8182L26.0093 14.4875L21.8376 12.9165C21.8376 12.9165 21.6517 12.8545 21.5691 12.8132L19.0289 11.5936L17.8931 11.2009L16.5507 10.9735C16.2202 10.9115 15.9105 10.7875 15.642 10.5808L14.7746 9.91935L13.7627 9.69198C13.7627 9.69198 13.5974 9.65064 13.5148 9.6093L10.7062 8.59646C10.5616 8.55511 10.4377 8.4931 10.3138 8.41042L10.1279 8.2864L11.2844 9.65064L12.379 10.3328C12.7094 10.5395 12.9779 10.8288 13.1431 11.1802L13.6594 12.2551L15.5387 14.0327C15.7039 14.1981 15.8692 14.3841 15.9724 14.5908L16.5094 15.6244L18.4713 17.3607C18.6778 17.5467 18.8637 17.7741 18.967 18.0221L19.5039 19.1383L20.3093 19.9858L21.3213 20.8953C21.4245 20.9986 21.5278 21.102 21.6104 21.226L22.3952 22.3215L23.1593 23.107L24.2745 23.8098C24.5223 23.9752 24.7495 24.1819 24.9147 24.4506L25.5962 25.5254L27.5995 27.5511C27.5995 27.5511 27.7647 27.7578 27.8473 27.8612L28.5908 29.0394L29.3342 29.9282L30.3668 30.7757L31.5853 31.9539C31.5853 31.9539 31.7092 32.0779 31.7505 32.1399L32.7005 33.3181C32.8038 33.4422 32.8864 33.5868 32.9483 33.7315L33.3614 34.5997L34.1875 35.1165C34.394 35.2405 34.5592 35.3852 34.7038 35.5712L35.6537 36.7494C35.6537 36.7494 35.819 36.9561 35.8809 37.0801L36.3766 38.0103L36.3353 38.031Z" fill="black"/>
<path d="M61.8611 40.3468C61.2622 40.3468 60.6633 40.0781 60.2709 39.6027L59.2177 38.3211C59.0318 38.0937 58.8872 37.8043 58.8046 37.515L58.5775 36.6055L57.8959 35.9647C57.6688 35.758 57.5036 35.5099 57.3796 35.2206L56.9046 34.063L56.1818 33.0708C56.0166 32.8435 55.8927 32.5748 55.8307 32.306L55.5623 31.1072L55.1492 30.425L54.1992 29.6189C54.034 29.4742 53.8895 29.3088 53.7655 29.1228L53.0014 27.8619L51.5764 25.1955C51.5145 25.0921 51.4525 24.9681 51.4112 24.8441L50.9156 23.4178C50.5438 22.343 51.1221 21.1647 52.196 20.7927C53.2699 20.4206 54.4471 20.9994 54.8188 22.0742L55.2525 23.3145L57.1112 26.6837L58.0612 27.4899C58.2264 27.6346 58.3709 27.7999 58.4742 27.9859L59.2383 29.2468C59.3622 29.4329 59.4448 29.6396 59.4861 29.8669L59.734 30.9625L60.3535 31.81C60.3535 31.81 60.4774 31.996 60.5394 32.0993C60.5394 32.0373 60.5394 31.9753 60.5394 31.8926L60.6427 30.363C60.6427 30.2597 60.6633 30.1357 60.7046 30.0323L61.0144 28.7094L61.1796 25.8362C61.1796 25.7122 61.2003 25.5882 61.2416 25.4642L61.5513 24.2446L61.51 22.9837C61.51 22.7977 61.51 22.6117 61.572 22.4256L61.9231 21.0407L62.0883 19.6351C62.1503 19.1597 62.3774 18.705 62.7285 18.3743L64.7317 16.5346L65.2067 15.4804C65.3513 15.1497 65.5785 14.881 65.8676 14.6743L66.9002 13.9095L67.685 12.9173C67.685 12.9173 67.7882 12.7933 67.8502 12.7313L69.7502 10.8089L70.3284 9.67206C70.4936 9.362 70.7208 9.09329 71.01 8.90726L72.1665 8.12178L73.1577 7.17095L73.8393 6.36481L74.0251 5.97207L72.3936 5.66202L71.0926 5.62068H70.0393L68.8621 6.03408C68.6556 6.09609 68.3252 6.11677 68.2013 6.13744H66.735C66.5078 6.13744 66.2806 6.07543 66.0535 6.01342L64.8763 5.60001H64.1122L62.997 5.97207C62.7079 6.07543 62.4187 6.0961 62.1089 6.07543L60.7459 5.9514L57.9372 6.03408C57.7514 6.03408 57.5449 6.03408 57.359 5.97207L56.0786 5.64135L54.7981 5.55867H53.4558C53.4558 5.55867 53.3112 5.55867 53.2492 5.55867L51.8862 5.43465H50.7091L49.408 5.70336C49.2841 5.72403 49.1602 5.70336 48.9949 5.7447H47.508C47.3841 5.7447 47.2602 5.72403 47.1363 5.70336L45.7939 5.45532L44.4515 5.37263L38.7309 5.57934C38.7309 5.57934 38.5657 5.57934 38.4831 5.57934L35.8396 5.43465L34.5592 5.64135C34.3114 5.68269 34.0429 5.68269 33.7744 5.64135L32.6592 5.39331L29.9951 5.70336C29.8919 5.70336 29.768 5.70336 29.6647 5.70336L28.1984 5.62068L26.918 5.68269L25.3071 5.64135H23.9028L22.6017 5.78604C22.2919 5.80671 21.9615 5.78604 21.6724 5.66202L20.867 5.35196L20.0615 5.60001C19.855 5.66202 19.6485 5.66202 19.442 5.68269H17.955C17.7692 5.68269 17.5833 5.64135 17.3974 5.60001L16.179 5.24861H14.9811H13.5768H12.2138L9.38446 5.68269C9.15729 5.72403 8.95077 5.72403 8.7236 5.68269L5.97689 5.12459L3.27148 5.35196C2.15627 5.45532 1.14432 4.58716 1.06172 3.4503C0.979109 2.31343 1.82584 1.32126 2.9617 1.23857L5.91493 0.990531C6.1421 0.969861 6.34862 0.99053 6.55514 1.03187L9.09533 1.5693L11.6768 1.15589C11.8007 1.13522 11.9247 1.13522 12.0692 1.13522H13.5562H14.9605H16.53C16.7159 1.15589 16.9018 1.19723 17.067 1.23857L18.2648 1.58997H19.1528L20.33 1.23857C20.7637 1.09388 21.2387 1.11455 21.6724 1.27991L22.705 1.67265L23.7169 1.5693H25.3897L26.9386 1.58997L28.281 1.54863L29.768 1.63131L32.4734 1.30058C32.7212 1.25924 32.969 1.27992 33.2168 1.32126L34.3114 1.5693L35.4059 1.38327C35.5299 1.38327 35.6538 1.3626 35.7983 1.3626L38.7516 1.52796L44.5548 1.32126L46.2069 1.40394C46.2069 1.40394 46.3928 1.40394 46.4754 1.44528L47.7765 1.69332H48.871L50.1515 1.44528C50.2754 1.42461 50.3786 1.40394 50.5025 1.40394L51.9688 1.3626C51.9688 1.3626 52.134 1.3626 52.196 1.3626L53.559 1.48662H54.9221L56.5329 1.5693C56.6775 1.5693 56.8014 1.58997 56.9253 1.63131L58.1025 1.94137L60.7872 1.87935C60.7872 1.87935 60.9524 1.87935 61.035 1.87935L62.0676 1.9827L63.1209 1.61064C63.3687 1.52796 63.6165 1.48662 63.885 1.48662L65.3513 1.54863C65.5578 1.54863 65.7643 1.58997 65.9709 1.67265L67.1067 2.08606H67.8915L69.048 1.71399C69.2339 1.65198 69.4404 1.61064 69.6469 1.61064L71.1132 1.5693L72.7034 1.63131C72.8067 1.63131 72.9306 1.63131 73.0338 1.67265L75.3056 2.06539L76.2968 1.69332C76.6479 1.5693 77.0197 1.52796 77.3708 1.58997L78.9816 1.85868C79.7664 1.98271 80.3859 2.5408 80.6131 3.3056C80.8403 4.07041 80.6131 4.87655 80.0349 5.41397L77.9903 7.33631L77.474 8.45251C77.3914 8.61787 77.2881 8.78324 77.1642 8.92793L76.1523 10.1061L74.9132 11.3257C74.9132 11.3257 74.748 11.4704 74.6447 11.5531L73.7773 12.1525L73.3023 13.0827C73.2197 13.2687 73.0958 13.4134 72.9512 13.5581L70.8447 15.7078L69.9774 16.8033C69.8741 16.948 69.7295 17.072 69.585 17.1754L68.7589 17.7955L68.3252 18.767C68.2013 19.0357 68.0154 19.2837 67.8089 19.4698L66.1361 20.9787L66.0328 21.7849C66.0328 21.7849 66.0122 21.9502 65.9915 22.0536L65.6817 23.2731L65.723 24.534C65.723 24.72 65.723 24.9061 65.6611 25.0921L65.3307 26.415L65.1654 29.2675C65.1654 29.3915 65.1448 29.5155 65.1035 29.6396L64.773 30.9625L64.6904 32.2027L64.7524 33.6289C64.7524 33.877 64.7317 34.125 64.6491 34.3731L63.8437 36.9362L63.9263 38.2798C63.9883 39.1686 63.4513 39.9954 62.6252 40.3261C62.3774 40.4295 62.1296 40.4708 61.8611 40.4708V40.3468Z" fill="black"/>
<path d="M61.7167 40.3667C61.4275 40.3667 61.1384 40.3047 60.8699 40.1806L59.4862 39.5605C59.2591 39.4572 59.0319 39.2918 58.8667 39.1058L57.958 38.155L57.008 37.5762L55.7689 37.0181L54.3233 36.2533L53.0841 35.4678L51.8657 34.9924C51.8657 34.9924 51.6798 34.9097 51.5972 34.8684L50.2961 34.1242L49.119 33.6075L47.6733 32.8013C46.682 32.2432 46.3103 30.9824 46.8679 29.9902C47.4255 28.998 48.6646 28.6259 49.6766 29.184L50.9776 29.9075L52.1961 30.4449L53.5385 31.2097L54.7983 31.7058C54.9222 31.7472 55.0461 31.8092 55.1493 31.8919L56.4091 32.698L58.8254 33.8555C58.8254 33.8555 58.9906 33.9382 59.0732 33.9796L60.3536 34.765C60.4982 34.8477 60.6428 34.9717 60.7667 35.0957L61.5928 35.9639L62.6047 36.4186C63.6373 36.8941 64.0916 38.1136 63.6373 39.1678C63.2862 39.9326 62.5427 40.3667 61.758 40.3667H61.7167Z" fill="black"/>
</svg>
