<svg width="84" height="54" viewBox="0 0 84 54" fill="none" xmlns="http://www.w3.org/2000/svg">
<g clip-path="url(#clip0_507_1907)">
<mask id="mask0_507_1907" style="mask-type:luminance" maskUnits="userSpaceOnUse" x="0" y="0" width="84" height="54">
<path d="M84 0H0V54H84V0Z" fill="white"/>
</mask>
<g mask="url(#mask0_507_1907)">
<path d="M3.93359 18.2294L48.0844 52.553L54.8148 36.0317C54.8148 36.0317 70.4891 41.6706 70.4891 41.1405V21.6417L81.3467 0.91449L4.85388 16.4351L3.93359 18.2294Z" fill="white"/>
<path d="M48.5665 53.8096C48.2622 53.8763 47.9442 53.8223 47.6789 53.6591L46.4759 52.8864C46.4086 52.8411 46.3461 52.7891 46.2894 52.7312L45.8911 52.3239L44.919 51.6721L44.368 51.3957C44.2159 51.3188 44.0824 51.2096 43.9768 51.0757L43.7237 50.7518L43.3588 50.591C43.3014 50.5659 43.246 50.5364 43.1931 50.5026L42.6236 50.1327C42.5861 50.1084 42.55 50.082 42.5156 50.0535L41.5283 49.2286L39.3643 47.7708C39.2456 47.6982 39.1408 47.6048 39.055 47.4952L38.8223 47.1978L38.472 47.0649C38.3035 47.001 38.1522 46.8986 38.0302 46.7658L37.7199 46.4285L37.3039 46.2289C37.1474 46.1549 37.0097 46.0463 36.9011 45.9114L36.6138 45.5557L36.279 45.3751L35.692 45.1387C35.5029 45.0621 35.3374 44.9366 35.2124 44.775L34.8909 44.3621L33.9853 43.6981L32.8531 43.1047C32.7323 43.0415 32.6237 42.9575 32.5321 42.8564L32.1291 42.4044L31.7341 42.0725L31.2824 41.787L30.723 41.5158C30.6435 41.4773 30.5687 41.4299 30.4998 41.3745L29.4733 40.5795L27.9005 39.5341C27.8676 39.5152 27.8356 39.4947 27.8049 39.4725L27.2581 39.0801C27.2093 39.0445 27.1631 39.0053 27.1199 38.963L26.2537 38.1392L25.7649 37.8367C25.7132 37.8043 25.6641 37.768 25.6178 37.7282L24.7424 37.0039L24.2454 36.7927C24.1266 36.7431 24.017 36.674 23.921 36.5882L23.4927 36.2042L22.3978 35.473L21.3848 34.6503L20.3071 34.0923C20.2166 34.0464 20.1324 33.9889 20.0568 33.9211L19.5592 33.4726L19.0878 32.9861L18.7495 32.7221L18.2554 32.5216C18.0835 32.4514 17.9308 32.3411 17.8101 32.1998L17.437 31.7622L17.1545 31.5401L16.6737 31.3738C16.4594 31.3023 16.271 31.1693 16.1316 30.9913L15.7884 30.552L15.4252 30.2658L14.9537 29.9818L14.384 29.7C14.3148 29.6661 14.249 29.6254 14.1878 29.5785L13.6568 29.1714C13.6166 29.1407 13.5785 29.1075 13.5425 29.072L13.1467 28.6763L12.1561 28.0547C12.0732 28.0055 11.9969 27.9462 11.9288 27.8779L11.6412 27.5876L11.2321 27.443C11.1435 27.4114 11.0591 27.3691 10.9806 27.3171L10.4225 26.9501C10.3735 26.9188 10.3271 26.8838 10.2835 26.8453L9.88027 26.4842L9.40756 26.2166L8.77989 25.8066C8.67529 25.738 8.58296 25.6522 8.50676 25.5529L8.23095 25.2008L7.25738 24.669C7.13034 24.5992 7.01739 24.5064 6.92428 24.3951L6.62049 24.0282L5.62131 23.4292C5.50501 23.3575 5.40239 23.2655 5.31823 23.1577L5.10674 22.8908L4.76926 22.7739C4.66694 22.7384 4.56999 22.689 4.48113 22.627L3.93436 22.2441C3.90663 22.2258 3.88001 22.2059 3.85464 22.1844L3.40138 21.8057L2.89926 21.488C2.816 21.4355 2.73992 21.3724 2.67297 21.3002L2.29628 20.8964L1.95563 20.6598L1.43347 20.4472C1.29708 20.3913 1.17217 20.3106 1.06499 20.2092L0.554136 19.7136C0.376252 19.5435 0.258694 19.3197 0.219324 19.0763C0.179954 18.8329 0.220924 18.5832 0.33601 18.365C0.454444 18.1426 0.638813 17.9624 0.863649 17.8493C1.08849 17.7363 1.34269 17.696 1.59116 17.734L2.21479 17.8267L2.8172 17.8189C2.89714 17.8175 2.977 17.8248 3.05535 17.8407L3.73008 17.9655C3.78959 17.9762 3.84811 17.9918 3.90506 18.0121L4.50817 18.2236L5.01635 18.351L5.59576 18.3933C5.64624 18.3962 5.69646 18.4026 5.74609 18.4122L7.04756 18.6983L7.64322 18.7539L9.67389 19.0987L10.9284 19.0995C11.1126 19.0991 11.2943 19.141 11.4597 19.222L11.7803 19.3794L12.1313 19.338C12.3673 19.3104 12.6062 19.3529 12.8182 19.4602L13.1535 19.63L13.5152 19.6045C13.5524 19.6026 13.5902 19.6005 13.6287 19.6017L14.3136 19.616C14.5006 19.6196 14.684 19.6673 14.8491 19.7551L15.1145 19.8961L15.4178 19.842C15.5971 19.8109 15.781 19.8206 15.956 19.8702L17.0773 20.1928L17.5577 20.1574C17.655 20.1509 17.7527 20.156 17.8488 20.1725L18.5194 20.2874C18.646 20.3091 18.7682 20.3511 18.8813 20.4118L19.1846 20.5764L19.5127 20.5412C19.7262 20.518 19.9419 20.5522 20.1377 20.6403L20.4233 20.7689L20.7568 20.7016C20.9394 20.6651 21.1279 20.6708 21.3079 20.7183L22.49 21.0555L22.9892 21.0483C23.1313 21.0468 23.2726 21.0703 23.4066 21.1178L23.8988 21.2937L24.4138 21.3296C24.5089 21.3355 24.6029 21.3534 24.6935 21.3828L25.1417 21.5251L25.623 21.5029C25.6568 21.5014 25.6907 21.5018 25.7245 21.504L26.4083 21.532C26.4721 21.5338 26.5355 21.541 26.5981 21.5533L28.5327 21.9738L29.0921 21.9975C29.1741 22.0011 29.2555 22.013 29.3351 22.0329L29.9945 22.1994L30.6443 22.4156L31.0014 22.4792L31.4878 22.3832C31.7579 22.3289 32.0384 22.3686 32.2827 22.4957L32.6791 22.7036L33.7702 22.7535C33.8704 22.7596 33.9697 22.7768 34.0662 22.8046L34.646 22.9819L35.7416 23.1674L36.281 23.1153C36.4331 23.1013 36.5864 23.116 36.7331 23.1585L37.8542 23.4994L38.3173 23.4676C38.3907 23.4635 38.4644 23.4658 38.5375 23.4743L39.213 23.5552C39.2448 23.5598 39.2781 23.5648 39.3095 23.5702L39.9214 23.6964L40.544 23.765C40.681 23.7798 40.8143 23.8184 40.9379 23.8792L41.4079 24.1084L41.6857 24.1526L42.1897 24.0542C42.3313 24.027 42.4764 24.0249 42.6186 24.0479L43.2856 24.1582C43.3812 24.1743 43.4745 24.2015 43.5638 24.2393L43.9589 24.4098L44.3813 24.3982C44.4732 24.3947 44.5651 24.4028 44.6549 24.4224L45.2155 24.5346L45.7892 24.5464C45.9611 24.5514 46.13 24.5928 46.2847 24.6679L46.6071 24.8276L46.9607 24.7924C47.1107 24.7777 47.2621 24.791 47.4072 24.8314L47.9334 24.9806L48.478 25.0168C48.6258 25.0265 48.7703 25.064 48.9041 25.1275L49.1802 25.2555L49.5075 25.1909C49.6803 25.1562 49.8587 25.1598 50.0299 25.2016L50.6894 25.3626C50.7305 25.3727 50.7722 25.3859 50.812 25.3996L51.3264 25.585L52.5874 25.762C52.6299 25.7697 52.6715 25.779 52.713 25.791L53.2513 25.9402L53.7613 25.9751L54.4005 25.973C54.4659 25.9717 54.5313 25.9762 54.5959 25.9863L56.537 26.2439C56.6283 26.2528 56.7184 26.2719 56.8055 26.3009L57.3547 26.4828L57.9201 26.5637C57.9814 26.5723 58.0419 26.5857 58.1011 26.6037L58.6495 26.7723C58.8047 26.8197 58.9481 26.8994 59.0704 27.0062C59.1927 27.1131 59.2911 27.2446 59.3591 27.3922C59.4264 27.5389 59.4613 27.6984 59.4617 27.8598C59.462 28.0213 59.4277 28.1811 59.3611 28.3282L59.1741 28.7483L59.0481 29.304C59.0192 29.4304 58.9694 29.5511 58.9008 29.6611L58.673 30.028L58.6203 30.4645C58.6095 30.5525 58.5883 30.639 58.5574 30.7221L57.8622 32.6139C57.8059 32.7628 57.7206 32.899 57.6114 33.0146L57.2953 33.3513L56.8705 34.9793C56.8439 35.0868 56.8022 35.1899 56.7467 35.2857L56.4815 35.742L56.345 36.2421C56.3273 36.3081 56.3036 36.3724 56.2742 36.4342L55.9865 37.0413C55.9493 37.1207 55.9032 37.1955 55.8491 37.2644L55.5757 37.6122L55.4839 38.0193C55.4765 38.0523 55.467 38.0849 55.4556 38.1168L55.249 38.7523C55.2298 38.8131 55.2054 38.8721 55.1763 38.9287L54.9093 39.4432L54.5701 40.572C54.5538 40.627 54.5343 40.681 54.5117 40.7338L54.2414 41.3439L54.0501 41.8927C54.0278 41.9551 54.0001 42.0155 53.9675 42.0732L53.6348 42.6644L53.2066 43.6796L53.0582 44.2663C53.0318 44.3672 52.9925 44.4642 52.9414 44.555L52.6482 45.0725L51.9887 46.7999C51.9518 46.9143 51.8977 47.0225 51.8283 47.1207L51.5177 47.5558L51.3671 47.9735L51.2239 48.5659C51.2043 48.6471 51.176 48.726 51.1395 48.8012L50.9363 49.2241L50.8832 49.7063C50.8576 49.9394 50.7624 50.1593 50.61 50.3373L50.2594 50.7486L50.1223 51.0524L50.0521 51.5646C50.0382 51.6666 50.0105 51.7662 49.9698 51.8607L49.4125 53.1289C49.3408 53.2848 49.2368 53.4236 49.1075 53.5361C48.9782 53.6487 48.8266 53.7324 48.6626 53.7817C48.6357 53.7942 48.5999 53.8025 48.5665 53.8096ZM45.7144 49.4414L46.0996 49.6348C46.1437 49.6572 46.1864 49.6822 46.2275 49.7097L47.3579 50.469C47.424 50.5129 47.4852 50.5639 47.5404 50.621L47.7592 50.8433L47.7904 50.616C47.8053 50.5058 47.8362 50.3984 47.882 50.2971L48.1559 49.6882C48.2018 49.5871 48.2613 49.4929 48.3329 49.4081L48.5579 49.1454L48.5928 48.8157C48.6067 48.6839 48.6436 48.5555 48.7019 48.4365L48.9387 47.9473L49.0658 47.4155C49.0758 47.3737 49.0885 47.3326 49.1021 47.292L49.3294 46.6629C49.3653 46.5633 49.4148 46.4692 49.4763 46.3832L49.7715 45.9669L49.9205 45.5005C49.935 45.4562 49.952 45.4128 49.9715 45.3705L50.4773 44.192C50.4976 44.1428 50.5206 44.0947 50.5462 44.0481L50.8031 43.5969L50.9313 43.0986C50.942 43.0539 50.9551 43.0097 50.9705 42.9664L51.5258 41.6636L51.8529 41.0811L52.6956 38.6808C52.7154 38.6234 52.7389 38.5673 52.7662 38.513L53.0316 38.0035L53.1912 37.5079L53.3307 36.8982C53.3712 36.7305 53.448 36.5737 53.5557 36.439L53.9087 35.9881L54.0936 35.5934L54.2418 35.0437C54.2688 34.9464 54.3081 34.853 54.3588 34.7657L54.6159 34.3212L54.898 33.1643L55.1212 32.452C55.1749 32.2831 55.2658 32.1284 55.3872 31.9995L55.7231 31.6424L56.29 30.1085L56.3581 29.5517C56.3789 29.3838 56.4365 29.2227 56.5267 29.0797L56.7368 28.7401C56.7153 28.735 56.6942 28.7285 56.6736 28.7206L56.1546 28.5484L54.3045 28.2989L53.7144 28.3047C53.6818 28.3056 53.6491 28.3047 53.6166 28.3021L52.9354 28.2547C52.8555 28.2489 52.7764 28.2352 52.6992 28.2137L52.1068 28.0498L50.889 27.8831C50.7956 27.873 50.7038 27.8515 50.6157 27.8191L49.6934 27.5265L49.2424 27.6156C48.9921 27.6652 48.7325 27.6343 48.5009 27.5273L48.0745 27.3292L47.6242 27.301C47.5388 27.2952 47.4541 27.2809 47.3715 27.2582L46.9431 27.1366L46.476 27.1813C46.2541 27.2031 46.0306 27.1627 45.8305 27.0644L45.4368 26.8721L45.0183 26.8607C44.949 26.8587 44.88 26.8509 44.812 26.8375L44.2872 26.7298L43.7374 26.7451C43.5633 26.7498 43.3902 26.7166 43.2302 26.6477L42.7293 26.4306L42.4208 26.3809L41.9236 26.4771C41.7865 26.503 41.646 26.5058 41.5079 26.4853L40.8378 26.3823C40.7183 26.3639 40.6022 26.3275 40.4935 26.2744L40.0445 26.0555L39.5757 26.0031C39.54 25.9993 39.5066 25.9936 39.4689 25.9869L38.3344 25.7983L37.7489 25.8354C37.597 25.8447 37.4448 25.8254 37.3 25.7787L36.2554 25.4538L35.7875 25.4974C35.6828 25.5073 35.5774 25.5036 35.4737 25.4864L34.1333 25.2605C34.0858 25.2518 34.0363 25.2395 33.9913 25.2236L33.4846 25.0682L32.2697 25.0105C32.0958 25.0025 31.9258 24.9567 31.7715 24.8762L31.5177 24.7428L31.226 24.8011C31.0774 24.8309 30.9246 24.8325 30.7754 24.806L30.1084 24.6863C30.0498 24.6764 29.992 24.662 29.9356 24.6432L28.8391 24.314L28.2734 24.289C28.1869 24.285 28.1012 24.272 28.0175 24.2502L26.1876 23.849L25.6506 23.8293L25.0068 23.8573C24.8665 23.8638 24.7262 23.845 24.5924 23.802L24.0774 23.639L23.5408 23.6024C23.4318 23.5955 23.3242 23.5732 23.2214 23.5362L22.7773 23.3782L22.3014 23.3845C22.1734 23.3869 22.0458 23.3687 21.9236 23.3307L20.9333 23.0373L20.4932 23.1267C20.2448 23.1769 19.9872 23.148 19.7562 23.0441L19.415 22.8904L19.0381 22.93C18.7975 22.9559 18.5548 22.9087 18.3416 22.7943L17.8825 22.5467L17.5502 22.4893L16.9969 22.5289C16.8512 22.5393 16.7049 22.5229 16.5652 22.4807L15.5323 22.1795L15.0915 22.2563C14.8276 22.3031 14.5557 22.2604 14.3189 22.1349L13.941 21.9352L13.5999 21.9281L12.96 21.9742C12.7421 21.9905 12.5241 21.9469 12.3293 21.848L12.0208 21.6906L11.6777 21.7311C11.4468 21.759 11.2129 21.7196 11.004 21.6175L10.615 21.4255L9.50537 21.4179C9.42352 21.4178 9.34191 21.4093 9.26177 21.3927L7.29825 21.0544L6.69556 21.0037C6.65715 20.9998 6.61833 20.994 6.57989 20.9867C6.66074 21.0469 6.73324 21.1176 6.79549 21.1969L7.09352 21.5779L8.03677 22.1377C8.1557 22.2055 8.26136 22.2943 8.34862 22.4L8.64587 22.7582L9.62604 23.2926C9.76668 23.3679 9.88997 23.4719 9.98795 23.598L10.2948 23.9919L11.2076 24.5413C11.2815 24.5828 11.3505 24.6324 11.4134 24.6891L11.8464 25.0768L12.2119 25.3168L12.7393 25.5034C12.9037 25.5618 13.0532 25.656 13.1769 25.7792L13.5488 26.1544L14.605 26.8226C14.6685 26.8661 14.7282 26.915 14.7835 26.9687L15.2087 27.3924L15.5869 27.6829L16.0975 27.9329C16.1268 27.9475 16.1576 27.9631 16.1869 27.9811L16.7644 28.3285C16.806 28.3531 16.8459 28.3806 16.8838 28.4106L17.4123 28.8277C17.4847 28.884 17.5496 28.9492 17.6057 29.0218L17.8215 29.2992L18.1642 29.4156C18.2906 29.4582 18.4087 29.5222 18.5136 29.6046L19.0413 30.0212C19.1004 30.0674 19.1548 30.1193 19.2036 30.1762L19.4703 30.4851L19.8507 30.6399C19.9495 30.6804 20.0425 30.7338 20.1272 30.7987L20.6566 31.2103C20.7006 31.2445 20.7423 31.2816 20.7814 31.3215L21.5718 32.0943L22.6629 32.6615C22.7382 32.7017 22.8089 32.7499 22.8739 32.8054L23.8727 33.6217L24.8895 34.3037C24.9453 34.3388 24.9985 34.378 25.0485 34.4211L25.4056 34.7416L25.8629 34.9365C25.9576 34.9757 26.0468 35.0272 26.1282 35.0896L27.1432 35.922L27.6421 36.2311C27.7004 36.2673 27.7555 36.3084 27.807 36.3539L28.7658 37.2568L29.1939 37.5642L29.7294 37.8748C29.7686 37.8972 29.8063 37.9219 29.8424 37.9489L31.933 39.4938L32.4337 39.7352C32.4733 39.7544 32.5119 39.7758 32.5492 39.7992L33.1227 40.1623C33.1669 40.1909 33.2092 40.2223 33.2493 40.2563L33.7654 40.6909C33.8065 40.7245 33.845 40.7613 33.8806 40.8008L34.2012 41.1587L35.2149 41.6867C35.2782 41.718 35.338 41.7559 35.3933 41.7999L36.4376 42.5614C36.5336 42.6269 36.6185 42.7073 36.6893 42.7996L36.928 43.1064L37.2843 43.2488C37.3242 43.2652 37.3631 43.2839 37.4008 43.3046L38.0002 43.6252C38.1362 43.6981 38.2562 43.7975 38.3533 43.9176L38.6253 44.2517L39.0055 44.4341C39.1384 44.4977 39.2579 44.5863 39.3574 44.6952L39.6343 44.9952L40.0316 45.1477C40.2296 45.2219 40.4032 45.3493 40.5337 45.516L40.8334 45.9019L41.2362 46.1468C41.2654 46.1641 41.2929 46.1831 41.3213 46.2032L42.4025 46.9932L42.913 47.3092C42.9598 47.3389 43.0046 47.3715 43.0471 47.407L44.0258 48.2263L44.4593 48.5083L45.0041 48.749C45.1784 48.8251 45.3313 48.943 45.4493 49.0924L45.7144 49.4414Z" fill="black" stroke="black" stroke-width="0.5"/>
<path d="M73.1234 42.1396C72.909 42.1822 72.6868 42.1591 72.4858 42.0734C72.2848 41.9877 72.1143 41.8433 71.9964 41.6589L71.7434 41.2752L71.3727 41.0579C71.2338 40.9745 71.1141 40.8626 71.0214 40.7295L70.2994 39.7244L69.8942 39.2838C69.8595 39.2459 69.8273 39.2059 69.7977 39.1639L69.5098 38.7547L69.1235 38.4418C69.0409 38.3745 68.9679 38.2962 68.9065 38.2091L68.5826 37.7497L67.7205 36.9105C67.6706 36.8631 67.6256 36.8108 67.5862 36.7543L67.2526 36.2876L66.9052 35.9395L66.4395 35.575C66.3297 35.4888 66.2363 35.3835 66.1637 35.2641L65.6077 34.3674L65.2497 34.1407C65.1892 34.1024 65.1325 34.0584 65.0803 34.0094L64.6046 33.5624C64.4992 33.4627 64.4131 33.3443 64.3509 33.2131L64.2014 32.9L63.9153 32.7211C63.7745 32.6329 63.6544 32.5152 63.5631 32.3761L63.2795 31.9391L62.9044 31.5902C62.792 31.4852 62.7014 31.359 62.6379 31.2188L62.4262 30.7542L62.2282 30.535L61.7903 30.2829C61.689 30.2235 61.5972 30.149 61.5181 30.062L61.08 29.5766C61.0581 29.5524 61.0365 29.5268 61.0168 29.5L60.2326 28.5244C60.1885 28.4716 60.1486 28.4153 60.1132 28.3562L59.7734 27.7745C59.6193 27.517 59.5699 27.2097 59.6355 26.9164C59.7011 26.6231 59.8767 26.3661 60.1258 26.1987C60.2499 26.1226 60.3881 26.0724 60.532 26.0513C60.6759 26.0301 60.8225 26.0384 60.9631 26.0756C61.1036 26.1127 61.2352 26.1781 61.3498 26.2677C61.4644 26.3572 61.5597 26.4692 61.63 26.5967L61.9175 27.0901L62.9702 28.3614L63.4065 28.6124C63.5084 28.6708 63.6002 28.7451 63.6786 28.8327L64.1169 29.3187C64.1981 29.4092 64.265 29.5117 64.3154 29.6226L64.5064 30.0404L64.8142 30.3277C64.8827 30.3914 64.943 30.4634 64.9937 30.5422L65.2162 30.8833L65.5726 31.1057C65.7591 31.2222 65.9079 31.3903 66.0012 31.5898L66.2024 32.0115L66.4403 32.235L66.9187 32.5362C67.0592 32.6248 67.1786 32.7432 67.2686 32.8831L67.8877 33.8685L68.2416 34.1459C68.2785 34.1737 68.3132 34.2042 68.3455 34.2373L68.8087 34.7012C68.8535 34.7454 68.8944 34.7933 68.9309 34.8445L69.2592 35.3016L70.1296 36.1492C70.1799 36.1988 70.2255 36.253 70.2659 36.311L70.5578 36.7234L70.9457 37.038C71.0297 37.1063 71.1039 37.186 71.1662 37.2746L71.5301 37.786L71.5673 37.5493L71.5169 36.5977L71.3244 36.1062C71.2702 35.9694 71.2415 35.8237 71.2395 35.6765L71.2329 35.0107C71.2333 34.9777 71.2341 34.9432 71.2355 34.912L71.2894 33.9232L71.11 33.5352C71.03 33.3657 70.9907 33.1797 70.9951 32.9921L71.0723 31.6723L70.9889 30.6692L70.7882 30.1741C70.7414 30.0612 70.7127 29.9416 70.7032 29.8196L70.648 29.1589C70.6364 29.0324 70.6457 28.9047 70.6754 28.7811L70.7971 28.2682L70.782 27.9937L70.5877 27.5449C70.5215 27.3943 70.4871 27.2315 70.4866 27.0668L70.4854 26.4618L70.3417 25.2113C70.3292 25.1051 70.3306 24.9976 70.3459 24.8917L70.4278 24.3274L70.3456 23.1774C70.3425 23.1404 70.3399 23.1026 70.3401 23.0656L70.337 22.461L70.2696 21.895C70.2491 21.7298 70.2638 21.5621 70.3125 21.4029L70.4976 20.7964C70.5198 20.7248 70.549 20.6555 70.5846 20.5895L70.89 20.0184C70.9222 19.9582 70.9597 19.9009 71.002 19.8472L71.3638 19.3939L71.6342 18.9433L72.7473 16.6426C72.7663 16.6028 72.7877 16.5643 72.8115 16.5273L73.3933 15.5629L73.5836 15.0286C73.6288 14.8951 73.6984 14.7712 73.7888 14.6632L74.0833 14.3137L74.5057 13.2334C74.5271 13.1795 74.5532 13.1276 74.5836 13.0782L74.8898 12.5689L75.9924 10.3451C76.0572 10.1894 76.1559 10.0502 76.2813 9.93761L76.5106 9.73388L76.5704 9.43594C76.5927 9.32336 76.6314 9.21467 76.6854 9.11342L76.9922 8.54004C77.0406 8.44955 77.1008 8.36589 77.1711 8.29128L77.533 7.91798L78.3308 6.41374L78.7384 5.23169C78.7788 5.11732 78.8373 5.01015 78.9115 4.91423L79.6671 3.98798L79.7364 3.82385L79.407 3.83712L78.9279 3.92611L77.7901 4.28913C77.6761 4.32339 77.5575 4.33967 77.4386 4.33738L77.112 4.32584L76.8157 4.51094C76.5894 4.6531 76.3173 4.70262 76.0558 4.64922L75.5931 4.5558L75.3352 4.60557L74.8991 4.84073C74.8461 4.86925 74.7908 4.89323 74.7338 4.9124L74.1356 5.10757C74.0052 5.15283 73.8667 5.16983 73.7294 5.15744L73.1695 5.11508L72.7354 5.15678L72.2347 5.30825C72.1975 5.31947 72.1595 5.3276 72.121 5.33255L71.5929 5.43069L71.0813 5.61676C70.986 5.65222 70.8861 5.67359 70.7847 5.68018L70.2689 5.70977L69.7776 5.84912C69.7057 5.86923 69.632 5.88207 69.5576 5.88743L69.006 5.91929L68.468 6.03433L67.9227 6.15631L67.3716 6.33604C67.3015 6.35999 67.2289 6.37552 67.1552 6.3823L66.7498 6.42325L66.37 6.63897C66.1919 6.74214 65.9873 6.78965 65.7822 6.77543L65.3497 6.74821L64.306 7.08705C64.2289 7.11156 64.149 7.12595 64.0682 7.12985L63.4887 7.16632L62.483 7.3417L62.0294 7.57321C61.9062 7.63621 61.7715 7.67325 61.6336 7.68203L61.0586 7.72362L60.4979 7.82334L59.9753 7.9667C59.9115 7.98283 59.8466 7.99402 59.7811 8.00016L59.276 8.0362L58.7963 8.19191C58.7167 8.21791 58.6343 8.23418 58.5508 8.24036L58.0641 8.27719L57.0033 8.65534C56.8871 8.69736 56.7643 8.7177 56.6409 8.71536L56.2341 8.70213L55.8576 8.87007C55.7582 8.91494 55.6523 8.94348 55.544 8.95461L53.7803 9.12527L53.2404 9.28176C53.2102 9.28821 53.18 9.29466 53.1498 9.30112L52.5349 9.4205C52.506 9.42668 52.4765 9.43299 52.4478 9.43375L51.4887 9.5662L51.0899 9.8223C50.9377 9.92124 50.762 9.97763 50.5809 9.98562L50.1062 10.0098L49.6602 10.1724C49.5186 10.2257 49.367 10.2469 49.2163 10.2344L48.8305 10.2032L48.4858 10.3563C48.4372 10.3783 48.387 10.3964 48.3356 10.4106L47.0773 10.7214C46.9859 10.7207 46.928 10.7452 46.8522 10.7453L46.4362 10.7455L46.0546 10.9145C45.9638 10.9558 45.8672 10.983 45.7683 10.9952L43.3516 11.3775C43.3207 11.3841 43.2867 11.388 43.259 11.3905L42.2502 11.494L41.8834 11.7203C41.7582 11.7959 41.6194 11.8459 41.475 11.8675L40.9015 11.9451L40.3392 12.0754C40.2565 12.0937 40.172 12.1027 40.0873 12.1024L39.6742 12.0945L39.2964 12.2594C39.2601 12.2754 39.223 12.2894 39.1852 12.3013L38.5844 12.4843C38.4463 12.528 38.3005 12.5411 38.1569 12.5226L37.7776 12.4772L37.4433 12.616C37.3582 12.6531 37.2682 12.6775 37.1761 12.6886L36.6795 12.7645L36.2028 12.9472C36.0411 13.0087 35.8668 13.0294 35.6954 13.0072L35.4193 12.9708L35.178 13.1279C35.0753 13.2098 34.9517 13.2609 34.8214 13.2755L33.5196 13.5007L32.357 13.5946L31.9224 13.7764C31.847 13.8077 31.7681 13.83 31.6875 13.8427L31.1682 13.9255L30.6703 14.11C30.4988 14.1708 30.3148 14.187 30.1354 14.1571L29.7267 14.0905L29.4544 14.1797L28.9544 14.4426C28.8331 14.5064 28.7007 14.5462 28.5644 14.5596L27.9356 14.6167C27.9058 14.6184 27.8747 14.6204 27.8444 14.6201L27.45 14.621L27.0893 14.8031C26.9483 14.8751 26.7928 14.9136 26.6347 14.9158L26.1115 14.9234L24.9875 15.19L24.3902 15.3036L23.8457 15.4738C23.7466 15.5047 23.6435 15.5209 23.5398 15.5217L22.9585 15.5243L21.9023 15.6829L21.4515 15.823L20.966 16.0882C20.8459 16.1541 20.7139 16.1956 20.5778 16.2103L20.0286 16.2692L18.9129 16.575C18.8548 16.5902 18.7957 16.6012 18.7361 16.6081L18.11 16.6748C18.0353 16.6825 17.96 16.6819 17.8855 16.673L17.5935 16.644L17.3323 16.8081C17.148 16.9227 16.9331 16.9778 16.7168 16.9659L16.3269 16.9437L15.9751 17.105C15.8154 17.1772 15.6402 17.2084 15.4656 17.1958L14.9353 17.1572L14.6163 17.2066L14.2036 17.4415C14.0706 17.5168 13.923 17.5624 13.7709 17.575L13.2197 17.6182L12.0531 17.8899C11.9962 17.902 11.9386 17.9103 11.8806 17.9147L11.3166 17.9451L10.7691 18.0535L10.2174 18.2017C10.1859 18.2084 10.1532 18.2154 10.1223 18.222L9.4959 18.3251L8.31569 18.605L8.30798 18.6066C8.01802 18.6612 7.71843 18.5985 7.47475 18.4322C7.23107 18.2659 7.06313 18.0095 7.00765 17.7192C6.93744 17.4301 6.98418 17.1247 7.13769 16.8698C7.2912 16.6148 7.539 16.4309 7.82701 16.3583L9.04151 16.0724L9.69965 15.9605L10.2716 15.8093L10.9473 15.6729C10.9962 15.6634 11.0456 15.6576 11.0953 15.6554L11.6446 15.6254L12.7742 15.3603C12.8262 15.3491 12.8821 15.3372 12.9379 15.3347L13.3398 15.3025L13.7145 15.0879C13.8232 15.0272 13.9415 14.9855 14.0642 14.9647L14.6891 14.864C14.7687 14.8514 14.8495 14.8479 14.9298 14.8536L15.3149 14.8816L15.6587 14.724C15.8128 14.653 15.9821 14.6215 16.1513 14.6321L16.4691 14.6502L16.7569 14.469C16.9578 14.343 17.1955 14.2893 17.4307 14.3168L17.9773 14.3788L18.4016 14.3352L19.5384 14.0248C19.5894 14.0109 19.6414 14.0011 19.694 13.9956L20.1157 13.9525L20.5096 13.7338C20.5702 13.7006 20.6339 13.6736 20.6999 13.6534L21.3037 13.4651C21.3414 13.453 21.3829 13.4434 21.4176 13.436L22.0364 13.3192L22.735 13.2337C22.7742 13.2292 22.8137 13.2271 22.8531 13.2273L23.3371 13.2247L23.7902 13.0827C23.83 13.0742 23.8683 13.062 23.9081 13.0534L24.5243 12.9365L25.6934 12.6582C25.7705 12.641 25.8489 12.6307 25.9278 12.6276L26.3294 12.6225L26.6929 12.4378C26.838 12.3645 26.998 12.3259 27.1603 12.3251L28.132 12.2901L28.5257 12.0829C28.5762 12.0555 28.6291 12.0325 28.6836 12.0141L29.2831 11.8187C29.4437 11.7659 29.6146 11.7524 29.7814 11.7794L30.1691 11.8451L30.5045 11.7209C30.5667 11.6993 30.6305 11.6827 30.6953 11.6714L31.1939 11.5917L31.6704 11.3923C31.7734 11.3497 31.8825 11.3236 31.9936 11.3151L33.8181 11.1368L34.1699 11.0616L34.5709 10.8003C34.78 10.6651 35.0303 10.6094 35.2765 10.6434L35.6697 10.6938L36.015 10.5621C36.0913 10.5327 36.1708 10.5125 36.2519 10.5021L36.735 10.4384L37.1935 10.2456C37.3594 10.1762 37.5404 10.151 37.7188 10.1722L38.1527 10.2247L38.4828 10.1198L39.0122 9.88825C39.1492 9.82828 39.2975 9.79864 39.4468 9.80138L39.9606 9.80988L40.4447 9.69695C40.4711 9.69132 40.5089 9.68322 40.5385 9.6769L40.9403 9.62258L41.3198 9.38944C41.4516 9.30718 41.6002 9.25586 41.7544 9.23933L42.9732 9.11323L45.3136 8.73786L45.7597 8.54026C45.8931 8.48076 46.0374 8.4499 46.1834 8.44965L46.7056 8.4503L47.6755 8.21332L48.1894 7.98439C48.3482 7.91286 48.5226 7.88322 48.6959 7.89827L49.1172 7.9326L49.4985 7.79054C49.5967 7.75253 49.7003 7.73038 49.8054 7.72491L50.1633 7.7069L50.4959 7.4932C50.6079 7.42105 50.7328 7.37149 50.8636 7.34731L51.4803 7.22958L52.6728 7.05258L53.234 6.89156C53.2761 6.87942 53.319 6.87025 53.3624 6.8641L53.9816 6.76802C54.0201 6.75978 54.0601 6.75862 54.0985 6.75581L55.1234 6.68729L55.5606 6.49225C55.6984 6.43065 55.8479 6.40006 55.9986 6.40262L56.4522 6.40853L57.4633 6.04637C57.5523 6.0142 57.6451 5.99434 57.7394 5.98734L58.243 5.95094L58.7215 5.7955C58.8006 5.77114 58.8821 5.75552 58.9646 5.74889L59.4933 5.71048L60.0053 5.5741L60.7117 5.44257C60.7484 5.43575 60.7855 5.43118 60.8228 5.42888L61.2443 5.40063L61.6385 5.20201C61.7223 5.15787 61.8122 5.12641 61.9053 5.10865L63.1816 4.88347C63.2131 4.87675 63.2469 4.87489 63.2806 4.8724L63.7904 4.84275L64.8182 4.49921C64.9527 4.44983 65.0959 4.42905 65.2388 4.4382L65.573 4.46023L65.8723 4.28928C65.9989 4.21601 66.1396 4.17057 66.285 4.15598L66.7976 4.10488L67.29 3.94577C67.3211 3.93548 67.3526 3.92693 67.3846 3.92017L67.9948 3.78162L68.623 3.652C68.6715 3.64244 68.7204 3.63557 68.7696 3.6314L69.2878 3.59997L69.7814 3.45943C69.8555 3.43957 69.9312 3.42698 70.0077 3.42182L70.4852 3.39504L70.9357 3.23144C70.9887 3.20918 71.0442 3.19347 71.101 3.18467L71.6577 3.08178L72.2027 2.91748C72.2687 2.89704 72.3368 2.88362 72.4056 2.87745L73.0314 2.81896C73.0897 2.81291 73.1485 2.8125 73.2069 2.81774L73.646 2.8503L73.9595 2.74627L74.456 2.47936C74.5485 2.43055 74.6475 2.39533 74.7499 2.37481L75.3634 2.25506C75.4968 2.22963 75.6337 2.2305 75.7666 2.25762L76.0245 2.30941L76.2391 2.17542C76.4158 2.06401 76.6222 2.00931 76.8307 2.01866L77.2944 2.03451L78.3256 1.70706C78.366 1.69505 78.4081 1.68471 78.4531 1.6751L79.0684 1.561C79.1191 1.55142 79.1703 1.54562 79.2218 1.54367L80.3015 1.46748L81.4813 1.0807C81.7055 1.00564 81.9481 1.00648 82.1716 1.08311C82.3952 1.15975 82.5873 1.30791 82.7185 1.50483C82.8573 1.70422 82.9318 1.94151 82.932 2.18481C82.9323 2.4281 82.8582 2.66573 82.7198 2.86576L82.3387 3.40526L81.6008 5.10989C81.5554 5.21897 81.4933 5.32029 81.4167 5.4102L80.7211 6.24562L80.3624 7.29749C80.3403 7.36606 80.3117 7.43233 80.2768 7.49537L79.3574 9.22066C79.3103 9.30739 79.2521 9.38764 79.1844 9.45941L78.8281 9.82748L78.6763 10.1121L78.5754 10.6186C78.5276 10.8613 78.4026 11.082 78.2193 11.2476L77.8979 11.5336L77.7451 11.9025C77.7326 11.9321 77.7183 11.9627 77.7035 11.9914L76.8155 13.6844C76.8006 13.7152 76.7847 13.7448 76.7675 13.7747L76.4802 14.2531L76.0584 15.3522C76.0148 15.4785 75.9486 15.5958 75.8633 15.6985L75.5759 16.0404L75.4303 16.4657C75.4075 16.5322 75.3789 16.5966 75.3449 16.6581L74.4252 18.2967L73.5713 20.0652C73.5557 20.0927 73.5416 20.1213 73.5219 20.149L73.1886 20.7052C73.1627 20.7474 73.1343 20.788 73.1037 20.8269L72.7606 21.2574L72.5564 21.6374L72.4766 21.8945L72.5219 22.2769C72.528 22.322 72.5311 22.3673 72.5312 22.4128L72.5349 23.0301L72.6259 24.3833C72.6285 24.4575 72.6242 24.5318 72.6132 24.6053L72.537 25.1206L72.6711 26.2971C72.6758 26.3401 72.6783 26.3834 72.6784 26.4267L72.6796 26.8481L72.8598 27.2655C72.9178 27.3968 72.9511 27.5376 72.9578 27.6811L72.9938 28.3459C73.0001 28.4609 72.9902 28.5763 72.9642 28.6885L72.8464 29.1845L72.8708 29.4712L73.0633 29.9465C73.1049 30.0485 73.1326 30.1557 73.1454 30.2652L73.2643 31.6582C73.2685 31.7186 73.2679 31.7792 73.2624 31.8395L73.1921 32.8109L73.3697 33.1939C73.4476 33.3611 73.4862 33.544 73.4828 33.7286L73.4275 35.4655L73.5988 35.9044C73.6398 36.0066 73.666 36.1143 73.6765 36.224L73.7442 36.8868C73.7486 36.9235 73.75 36.9615 73.7512 36.999L73.7578 37.6647C73.7579 37.7304 73.7529 37.796 73.7429 37.8609L73.6822 38.2398L73.807 38.6045C73.8444 38.7116 73.8658 38.8238 73.8706 38.9372L73.9757 40.925C74.0109 41.1973 73.9427 41.4731 73.7846 41.6977C73.6265 41.9222 73.3901 42.0791 73.1222 42.1372L73.1234 42.1396Z" fill="black" stroke="black" stroke-width="0.5"/>
<path d="M70.7294 42.5237C70.6147 42.5479 70.4972 42.5554 70.3804 42.5458L69.6822 42.4873C69.5153 42.473 69.3533 42.4238 69.2067 42.3428L68.759 42.0949L68.2699 42.0037C68.2118 41.9921 68.1546 41.9767 68.0985 41.9576L67.5971 41.783L67.0567 41.7405C67.0043 41.7361 66.9523 41.7286 66.9009 41.718L66.2328 41.5737C66.1607 41.5581 66.0901 41.5358 66.0221 41.5071L65.3902 41.2386C65.3496 41.2211 65.3092 41.2015 65.2706 41.1808L64.7776 40.9028L64.4044 40.7943L63.8574 40.7815C63.761 40.7797 63.6652 40.7658 63.5722 40.7402L62.914 40.5601C62.8248 40.5358 62.7388 40.5009 62.6578 40.4562L62.1206 40.1628L61.7968 40.0403L61.3272 40.0668C61.2207 40.0722 61.114 40.0635 61.0098 40.0412L60.3446 39.8976C60.1946 39.866 60.0523 39.805 59.9261 39.718L59.4653 39.4022L59.0531 39.2522L58.473 39.1335L57.7387 38.9327C57.708 38.9211 57.6725 38.9119 57.6365 38.9001L57.1158 38.704L56.5599 38.6137C56.5004 38.6039 56.4418 38.5897 56.3845 38.5712L55.7972 38.3806L55.19 38.2481L54.4546 38.0294C54.1522 37.9373 53.8988 37.7285 53.7503 37.4488C53.6017 37.1692 53.5701 36.8418 53.6624 36.5385C53.7547 36.2352 53.9633 35.9809 54.2424 35.8316C54.5215 35.6823 54.8482 35.6502 55.1506 35.7423L55.8021 35.9387L56.3767 36.0599C56.4153 36.0683 56.4533 36.0788 56.4907 36.0914L57.0489 36.2713L57.6301 36.367C57.7084 36.3794 57.7852 36.4 57.8592 36.4283L58.4427 36.6486L59.6212 36.9347C59.6756 36.9459 59.7292 36.9608 59.7816 36.9791L60.4196 37.2065C60.5162 37.2407 60.6078 37.2876 60.692 37.346L61.0892 37.6182L61.3708 37.6804L61.9279 37.6494C62.093 37.64 62.2582 37.6649 62.4131 37.7225L63.0492 37.9632C63.1005 37.9827 63.1503 38.006 63.1982 38.0329L63.6847 38.2995L64.068 38.4045L64.6281 38.4192C64.732 38.422 64.8351 38.4381 64.9349 38.4673L65.5882 38.6592C65.6738 38.6849 65.7564 38.7196 65.8348 38.7625L66.3872 39.0735L66.8545 39.2715L67.336 39.3744L67.9503 39.4233C68.0511 39.4309 68.1505 39.4517 68.2459 39.4852L68.808 39.6804L69.3963 39.7907C69.5207 39.8137 69.6406 39.8561 69.7518 39.9165L70.145 40.1351L70.5908 40.1743C70.8751 40.1989 71.1409 40.3251 71.3399 40.5299C71.5389 40.7347 71.6577 41.0045 71.6747 41.29C71.6918 41.5756 71.6059 41.8579 71.4327 42.0855C71.2596 42.3131 71.0107 42.4708 70.7314 42.53L70.7294 42.5237Z" fill="black" stroke="black" stroke-width="0.5"/>
<path d="M27.9728 17.901C28.1705 17.8016 28.3723 17.7403 28.5729 17.6611L28.8228 17.6688C29.0312 17.6673 29.2394 17.6746 29.4451 17.6891L29.5284 17.7089C29.7368 17.7424 29.94 17.7863 30.1449 17.8319L29.7127 17.8094L30.3361 17.6761C30.4233 17.657 30.5131 17.6526 30.6017 17.663L30.6384 17.6686L31.2506 17.7455L31.1147 17.7376L31.7336 17.7263C31.8212 17.7251 31.9084 17.7368 31.9926 17.761L32.014 17.7672L32.6189 17.9398L32.5289 17.9173C32.9099 17.9973 33.2951 18.0552 33.6828 18.0908L33.555 18.0832C34.2028 18.0529 34.8451 18.114 35.4333 18.1126L35.5009 18.115L35.535 18.1238L36.1439 18.1953L36.0606 18.1883C36.4595 18.207 36.8587 18.2151 37.2581 18.2126L37.3299 18.2161L37.3567 18.2191L37.9666 18.2823L38.0357 18.2918L38.0547 18.2958L38.6617 18.4121L38.4562 18.3921C38.8802 18.3813 39.3039 18.385 39.7274 18.4034C39.8385 18.4082 39.9481 18.4301 40.0525 18.4684L40.0613 18.4719L40.6625 18.697L40.0426 18.6561L40.6706 18.4976C40.8549 18.4507 41.0487 18.457 41.2294 18.516L41.2519 18.524L41.856 18.7216L41.6806 18.6791L42.2935 18.7692L42.0353 18.7605L42.6596 18.6983C42.7011 18.6945 42.7428 18.6935 42.7844 18.6952C43.1797 18.7093 43.5743 18.7065 43.9683 18.6868C44.0744 18.6823 44.1804 18.6958 44.282 18.7267L44.3203 18.7393L44.925 18.9274L44.6862 18.8803L45.3003 18.9285L45.0255 18.9395L45.6492 18.827C45.8305 18.7946 46.0171 18.8104 46.1903 18.8727L46.2129 18.8813L46.8153 19.0994L46.2913 19.0394L46.9146 18.9532C46.9995 18.9412 47.0856 18.9399 47.1708 18.9495L47.186 18.9516L47.7982 19.0225C47.825 19.0252 47.8516 19.0294 47.878 19.035L48.4872 19.1555L48.493 19.1543C48.5253 19.1608 48.5586 19.1692 48.5894 19.1787L49.1955 19.3604L48.9238 19.3163L50.1742 19.3751L50.0266 19.3845L50.6492 19.3334C50.7164 19.3283 50.784 19.3291 50.851 19.3359L50.8897 19.3411C51.5473 19.4143 52.187 19.5868 52.7743 19.6859L52.6626 19.6714C53.0508 19.7134 53.441 19.7348 53.8315 19.7355L53.7269 19.739L54.9691 19.6476L54.9755 19.6462C55.1518 19.6344 55.3282 19.6659 55.4894 19.7381L56.0826 20.0046L55.7369 19.9151L56.3484 19.97L56.1355 19.9724C56.5736 19.9146 57.0146 19.8812 57.4563 19.8723L57.4903 19.8711C57.537 19.8707 57.5837 19.8733 57.6301 19.8788L58.2459 19.9542L58.2517 19.953C58.3617 19.967 58.469 19.9978 58.5696 20.0444L59.1655 20.3237L58.5364 20.2391L59.1643 20.1337L59.1707 20.1324C59.2842 20.1137 59.4 20.1137 59.5135 20.1324L60.1255 20.2341L60.1326 20.2326C60.1677 20.2384 60.2024 20.2461 60.2367 20.2554L60.8464 20.4256L60.5133 20.3893L61.138 20.3606L61.1438 20.3594C61.2286 20.3564 61.3135 20.3631 61.3969 20.3792L62.0084 20.504L61.9087 20.4896L62.5265 20.5552L62.338 20.5525L62.9643 20.506L62.9707 20.5046C63.0664 20.498 63.1626 20.5044 63.2565 20.5235L63.8686 20.6509L63.6033 20.6309C64.0424 20.5959 64.4838 20.6019 64.9216 20.649L65.1175 20.671L65.135 20.6746C65.3367 20.7397 65.5369 20.8045 65.7342 20.8867L65.5568 20.8635C65.7654 20.8982 65.9718 20.9509 66.1785 21.0049L66.1188 21.0048C66.3356 21.0458 66.5493 21.1019 66.7582 21.1727C66.9376 21.2399 67.0838 21.3745 67.1658 21.548C67.2477 21.7216 67.2589 21.9203 67.1971 22.1022C67.1661 22.1953 67.1164 22.2811 67.0511 22.3543C66.9858 22.4274 66.9063 22.4864 66.8174 22.5276C66.6156 22.6141 66.4081 22.6868 66.1965 22.7451L66.1366 22.7444C65.9275 22.7838 65.7172 22.8234 65.5081 22.8438L65.3293 22.8202C65.1176 22.809 64.9096 22.7802 64.7011 22.7528L64.9131 22.7781C64.7166 22.8006 64.5201 22.7949 64.323 22.802C64.1264 22.8239 63.9297 22.827 63.734 22.8406C63.6523 22.846 63.5703 22.841 63.4899 22.8255L63.4681 22.8208L62.8556 22.6976L63.148 22.7157L62.5218 22.7656C62.463 22.7705 62.4039 22.7703 62.3452 22.765L62.333 22.7643L61.7157 22.7012L61.6245 22.6885L61.6161 22.6869L60.9988 22.5634L61.258 22.5833L60.6348 22.6157C60.5264 22.6218 60.4178 22.6106 60.313 22.5823L60.3017 22.5793L59.6916 22.4139L59.8021 22.438L59.1901 22.3396L59.54 22.338L58.9131 22.4479C58.7025 22.484 58.486 22.4555 58.2919 22.3662L58.2871 22.3625L57.6881 22.0872L58.0115 22.1794L57.3929 22.1099L57.5674 22.1163C57.1751 22.126 56.7836 22.1583 56.3949 22.2131C56.3358 22.2219 56.2758 22.2239 56.2163 22.219L56.1821 22.2162L55.5677 22.166C55.4518 22.1559 55.3384 22.1273 55.2317 22.0812L55.2218 22.0759L54.6293 21.8126L55.1503 21.9029L53.9078 22.0018L53.8413 22.0046L53.802 22.0063C53.3675 22.007 52.9333 21.9858 52.501 21.9429L52.4002 21.9295L52.389 21.9272C51.7476 21.8196 51.184 21.6677 50.6061 21.6097L50.8497 21.6162L50.2265 21.6707C50.1843 21.6743 50.142 21.6755 50.0998 21.6743L50.0772 21.6724L48.859 21.6229C48.7668 21.6185 48.6756 21.6032 48.587 21.5775L47.9804 21.3999L48.0832 21.4257L47.4725 21.3081L47.5517 21.3208L46.9402 21.2498L47.2084 21.249L46.5835 21.3241L46.5642 21.3282C46.3934 21.3481 46.2204 21.3265 46.0598 21.2653L45.4624 21.036L46.0266 21.0895L45.4003 21.1897L45.3811 21.1939C45.2964 21.2072 45.2105 21.21 45.1252 21.2022L44.5127 21.1428L44.4929 21.141C44.4192 21.1338 44.3466 21.1182 44.2764 21.0945L43.6765 20.888L44.0281 20.9392C43.5989 20.9525 43.1691 20.9476 42.7387 20.9244L42.8633 20.9199L42.2387 20.9714L42.2201 20.9754C42.1403 20.9817 42.0601 20.9783 41.9811 20.9653L41.3699 20.864L41.3512 20.8613C41.2981 20.8523 41.2458 20.8392 41.1946 20.8222L40.5944 20.6143L41.1757 20.6407L40.5453 20.7882L40.528 20.7919C40.3274 20.8389 40.1173 20.8233 39.926 20.7471L39.3274 20.5087L39.66 20.5774C39.2642 20.5527 38.8683 20.5416 38.472 20.5443C38.403 20.5446 38.3342 20.5379 38.2665 20.5244L37.6618 20.3968L37.748 20.4107L37.1435 20.3348L37.242 20.3407C36.823 20.3352 36.4043 20.3192 35.9858 20.2926L35.9545 20.2905L35.9018 20.2856L35.2935 20.2012L35.3938 20.2094C34.7525 20.1972 34.1689 20.1283 33.5851 20.1469C33.5544 20.148 33.5238 20.1471 33.4933 20.1444L33.456 20.1395C33.0241 20.0916 32.5953 20.0195 32.1716 19.9233L32.1244 19.9126L32.081 19.901L31.4782 19.7159L31.7551 19.7562L31.136 19.7541L31.1193 19.7543C31.0804 19.7541 31.0415 19.7514 31.0029 19.7463L30.3923 19.6576L30.6953 19.65L30.0661 19.7489L29.9868 19.7611C29.8683 19.7795 29.7472 19.7682 29.6343 19.7282C29.4369 19.6581 29.2408 19.5844 29.0497 19.5022L29.133 19.5221C28.9332 19.4612 28.7358 19.3927 28.5407 19.3166L28.7903 19.323C28.5771 19.3014 28.3649 19.291 28.1493 19.2456C27.966 19.2044 27.8061 19.0932 27.7034 18.9356C27.6008 18.7781 27.5636 18.5865 27.5997 18.4017C27.6199 18.2954 27.6641 18.195 27.7287 18.1083C27.7934 18.0216 27.8768 17.9507 27.9728 17.901Z" fill="black" stroke="black" stroke-width="0.5"/>
</g>
</g>
<defs>
<clipPath id="clip0_507_1907">
<rect width="84" height="54" fill="white"/>
</clipPath>
</defs>
</svg>
