<svg width="640" height="5" viewBox="0 0 640 5" fill="none" xmlns="http://www.w3.org/2000/svg">
<mask id="mask0_507_3431" style="mask-type:luminance" maskUnits="userSpaceOnUse" x="0" y="0" width="640" height="5">
<path d="M640 0H0V5H640V0Z" fill="white"/>
</mask>
<g mask="url(#mask0_507_3431)">
<path d="M158.686 4.45816C158.388 4.45833 158.094 4.38991 157.827 4.25818L157.077 3.88415L156.752 3.86716L156.002 4.13516C155.698 4.24237 155.373 4.27262 155.055 4.22317L154.255 4.09717L153.455 4.23218L152.203 4.35815C151.897 4.38673 151.588 4.34183 151.303 4.22717L150.949 4.08417L150.581 4.24918C150.29 4.38158 149.97 4.43831 149.651 4.41415L147.515 4.18317L146.63 4.26016C146.548 4.26616 146.465 4.26817 146.385 4.26617L145.276 4.22015C145.186 4.21667 145.097 4.20699 145.008 4.19116L144.238 4.04916L143.471 4.18317C143.176 4.23382 142.874 4.21602 142.587 4.13116L142.211 4.01718L141.784 4.23315C141.533 4.36057 141.257 4.43104 140.975 4.43951C140.693 4.44798 140.413 4.39425 140.155 4.28216L139.585 4.03717L139.051 4.13718C138.916 4.16773 138.778 4.17917 138.64 4.17117L137.74 4.15018L136.84 4.33215C136.744 4.35129 136.647 4.363 136.549 4.36716L135.434 4.41916C135.247 4.42949 135.059 4.41094 134.878 4.36417L133.972 4.13815L133.072 4.11816C132.937 4.1153 132.803 4.09821 132.672 4.06717L131.927 3.89117L130.172 4.22217C130.028 4.2552 129.88 4.26931 129.732 4.26416L128.622 4.23617C128.445 4.23267 128.269 4.20473 128.1 4.15317L127.649 4.01315L127.176 4.21316C126.969 4.29746 126.749 4.34582 126.525 4.35617L125.415 4.40216C125.098 4.41385 124.783 4.34902 124.497 4.21316L123.776 3.86716H123.559L122.859 4.21616C122.527 4.38238 122.153 4.44809 121.784 4.40518L119.736 4.20517L118.727 4.23917C118.58 4.24405 118.432 4.23231 118.287 4.20416L117.645 4.07617L116.988 4.27615C116.597 4.39407 116.178 4.38428 115.793 4.24817L114.928 3.94818L114.483 3.91916L113.752 4.18417C113.377 4.32137 112.969 4.33816 112.585 4.23218L112.006 4.07318L111.426 4.24716C111.264 4.2956 111.095 4.32252 110.926 4.32718L109.816 4.35815C109.576 4.3632 109.337 4.32459 109.111 4.24417L108.511 4.02817L107.938 4.15018C107.887 4.16118 107.838 4.17018 107.784 4.17618L106.675 4.31918C106.478 4.34493 106.278 4.33986 106.082 4.30417L105.363 4.17218L104.641 4.33816C104.3 4.41725 103.944 4.4017 103.611 4.29318L102.755 4.01315L102.017 3.98416L101.017 4.05316L100.052 4.19818C99.8299 4.23155 99.6037 4.22475 99.384 4.17816L98.535 4.00217L96.6899 4.19318L95.6541 4.36816C95.5548 4.38391 95.4545 4.3926 95.354 4.39416L94.2419 4.40817C94.0296 4.40809 93.8187 4.37433 93.6169 4.30817L92.983 4.10016L92.364 4.22015C92.03 4.28378 91.6851 4.25829 91.364 4.14618L90.699 3.91415L89.074 4.22516C88.9613 4.25033 88.8464 4.26473 88.731 4.26816L87.712 4.30316L86.691 4.44015C86.4341 4.47437 86.1729 4.45669 85.923 4.38815L84.911 4.10815L84.101 3.97617L83.42 4.00717L82.53 4.26916C82.3631 4.31706 82.1906 4.34294 82.017 4.34616L80.905 4.36316L77.505 4.32916C77.2646 4.32443 77.0273 4.27492 76.8051 4.18317L76.205 3.93216L75.635 4.02316L74.665 4.25717C74.599 4.27217 74.531 4.28516 74.465 4.29416L73.356 4.43417C73.195 4.45498 73.032 4.45498 72.871 4.43417L70.905 4.11716L70.187 4.26816C69.8909 4.33082 69.5841 4.32225 69.292 4.24316L68.439 4.01416H67.714L65.5551 4.26517C65.4347 4.27669 65.3134 4.27669 65.193 4.26517L64.306 4.18716L63.416 4.31216C63.1055 4.35471 62.7892 4.32037 62.495 4.21216L62.1331 4.08118L61.743 4.26117C61.5088 4.36876 61.2554 4.42843 60.9978 4.43668C60.7402 4.44492 60.4836 4.40158 60.243 4.30917L59.686 4.09317L59.155 4.21518C58.8987 4.27468 58.6327 4.28046 58.374 4.23218L57.6021 4.08917L56.834 4.22015C56.5242 4.27158 56.2067 4.24792 55.908 4.15115L55.349 3.96817L54.798 4.11716C54.5585 4.18283 54.3084 4.2005 54.062 4.16916L53.283 4.07516L52.499 4.25217C52.2118 4.31725 51.9133 4.31519 51.627 4.24615L50.7679 4.04016L50.1849 4.05817L49.332 4.32916C49.0982 4.4043 48.852 4.4335 48.6071 4.41516L46.416 4.26916C46.3066 4.26312 46.1978 4.24774 46.0909 4.22317L45.549 4.09717L44.984 4.30817C44.5365 4.47602 44.0426 4.47175 43.598 4.29617L43.051 4.08017L42.5291 4.20517C42.4213 4.23073 42.3116 4.24713 42.201 4.25418L41.088 4.32318C40.7988 4.34001 40.5094 4.29217 40.241 4.18317L39.733 3.97516L39.251 4.10617C39.0695 4.15877 38.8807 4.18108 38.692 4.17218L37.583 4.14117L34.329 4.24118C34.1137 4.24628 33.8993 4.2124 33.696 4.14117L33.083 3.94116L32.483 4.06717C32.434 4.07817 32.3831 4.08517 32.3311 4.09317L30.201 4.41217C29.8215 4.47644 29.4313 4.42667 29.08 4.26916L28.6429 4.06918L28.236 4.19717C28.0783 4.24649 27.915 4.27539 27.75 4.28317L25.663 4.44916C25.3778 4.48205 25.0889 4.44992 24.818 4.35516L23.948 4.05517L23.448 4.01718L22.686 4.24817C22.315 4.35867 21.9195 4.35589 21.55 4.24017L20.697 3.97116L20.155 3.95315L19.3359 4.18417C19.0648 4.25933 18.7808 4.27501 18.5031 4.23016L16.5439 3.89716L15.712 3.98617C15.5984 3.99809 15.484 4.00076 15.37 3.99417L14.7159 3.94818L14.031 4.23117C13.7591 4.34256 13.4652 4.39012 13.172 4.37018L12.072 4.29816C11.9504 4.29008 11.8299 4.27033 11.712 4.23917L11.13 4.08618L10.545 4.26218C10.2947 4.33747 10.0317 4.36095 9.77197 4.33118L8.92798 4.23117L8.08398 4.36316C7.84699 4.40038 7.60508 4.3926 7.37097 4.34018L5.47095 3.91016L4.703 3.99918C4.648 4.00518 4.59199 4.01017 4.53699 4.01117L0.110962 4.13415L0.0229492 0.286162L4.33801 0.164153L5.35706 0.0451652C5.5782 0.0190969 5.80218 0.0316034 6.01904 0.0821525L7.84802 0.501159L8.59204 0.386169C8.76305 0.358705 8.93699 0.355017 9.10901 0.375182L9.81897 0.457152L10.543 0.24118C10.8813 0.14141 11.2404 0.135185 11.582 0.223174L12.509 0.466155L12.983 0.497161L13.671 0.214172C13.9455 0.101947 14.2421 0.0540424 14.538 0.0741569L15.47 0.139159L16.405 0.0391532C16.5853 0.0205096 16.7674 0.0265708 16.946 0.0571586L18.712 0.357177L19.405 0.157165C19.5946 0.103802 19.7912 0.0798728 19.988 0.0861808L21.088 0.123168C21.2636 0.128616 21.4375 0.15824 21.605 0.211181L22.1429 0.380157L22.679 0.218169C22.9054 0.148977 23.143 0.123203 23.379 0.142181L24.485 0.225158C24.6503 0.237527 24.8133 0.271143 24.97 0.325164L25.663 0.565154L27.3149 0.440154L28.186 0.166167C28.6375 0.023233 29.1258 0.0524434 29.557 0.248168L30.125 0.505157L32.798 0.0541679C33.1329 -0.0158318 33.4806 0.00452162 33.8051 0.113158L34.605 0.37918L37.605 0.288177L38.51 0.314178L39.349 0.0861808C39.7567 -0.0250226 40.1898 0.00132044 40.5811 0.161162L41.281 0.449157L41.788 0.417174L42.74 0.191161C43.1243 0.0987086 43.5279 0.127715 43.895 0.274169L44.317 0.440154L44.731 0.283172C45.0879 0.148765 45.4768 0.123708 45.848 0.211181L46.798 0.433166L48.512 0.545165L49.2679 0.305175C49.4369 0.251107 49.6127 0.221126 49.79 0.216155L50.9 0.181182C51.0716 0.175396 51.2432 0.19286 51.41 0.233153L52.084 0.395171L52.756 0.24417C52.9706 0.194152 53.1925 0.183298 53.411 0.212157L54.145 0.30017L54.89 0.100158C55.2538 0.000806443 55.6387 0.0105582 55.9969 0.128173L56.65 0.345153L57.288 0.236175C57.511 0.197714 57.739 0.197714 57.962 0.236175L58.678 0.370177L59.396 0.205169C59.771 0.120238 60.1627 0.148057 60.522 0.285155L60.8669 0.419158L61.2321 0.250182C61.6923 0.0375824 62.2176 0.0142381 62.6949 0.18518L63.354 0.424163L63.988 0.336181C64.1325 0.316038 64.2786 0.31199 64.424 0.324157L65.351 0.407165L67.321 0.173156C67.4006 0.162208 67.4808 0.15653 67.561 0.156158L68.668 0.148162C68.842 0.131948 69.0175 0.154139 69.182 0.213164L69.8459 0.392181L70.504 0.253173C70.7645 0.198528 71.0334 0.198528 71.2939 0.253173L73.11 0.572173L73.88 0.472167L74.889 0.235168L76.136 0.029174C76.488 -0.0267321 76.8486 0.0158238 77.178 0.15216L77.949 0.474181L80.881 0.499175L81.697 0.487182L82.558 0.234161C82.7046 0.190479 82.8562 0.164966 83.009 0.158172L84.119 0.10617C84.2528 0.10084 84.3868 0.108553 84.519 0.12918L85.632 0.311156C85.6994 0.322546 85.7662 0.337582 85.832 0.35617L86.5649 0.556182L87.29 0.456176C87.3517 0.447383 87.4137 0.441711 87.476 0.439178L88.415 0.407165L89.359 0.201171L90.608 0.0161735C90.9141 -0.0258628 91.2258 0.00461252 91.5179 0.105163L92.137 0.321166L92.7369 0.205169C93.0597 0.141692 93.3936 0.162352 93.7061 0.265166L94.511 0.530181L95.153 0.524169L97.3 0.207152L98.526 0.11917C98.7011 0.107049 98.877 0.118827 99.049 0.154174L99.825 0.316161L100.6 0.204162L101.855 0.112182C101.926 0.112182 101.998 0.112182 102.066 0.112182L103.173 0.157165C103.349 0.16441 103.524 0.196037 103.692 0.251159L104.292 0.451171L104.882 0.316161C105.138 0.25712 105.403 0.250989 105.661 0.298156L106.479 0.447173L107.213 0.353179L108.246 0.134154C108.596 0.0591269 108.961 0.0840963 109.298 0.206176L110.068 0.483153L110.559 0.47116L111.426 0.211181C111.772 0.108704 112.14 0.104526 112.489 0.199157L113.008 0.342162L113.545 0.142181C113.797 0.0507267 114.065 0.0125875 114.332 0.0301811L115.447 0.105163C115.621 0.116529 115.793 0.152225 115.958 0.211181L116.477 0.394164L116.991 0.238158C117.292 0.147084 117.611 0.131646 117.92 0.193175L118.815 0.370177L119.708 0.339172C119.779 0.339172 119.848 0.339172 119.919 0.339172L121.649 0.493163L122.249 0.193175C122.514 0.0495417 122.813 -0.0195886 123.114 -0.00683677H124.226C124.513 -0.00572366 124.796 0.0595426 125.055 0.184173L125.734 0.510162L126.023 0.498168L126.823 0.170165C127.236 0.000265896 127.696 -0.0209379 128.123 0.110168L128.979 0.373168L129.601 0.388152L131.706 0.00915444C131.952 -0.029409 132.202 -0.0198843 132.444 0.0371696L133.362 0.253173L134.274 0.273162C134.416 0.276772 134.558 0.295891 134.696 0.330169L135.535 0.539153L136.22 0.508178L137.192 0.308166C137.333 0.278139 137.476 0.265723 137.62 0.271178L138.527 0.294158L139.439 0.120177C139.817 0.0474835 140.209 0.0899604 140.563 0.242156L140.849 0.365173L141.158 0.20816C141.599 -0.0145728 142.108 -0.0593271 142.581 0.0831596L143.257 0.283172L143.914 0.169158C144.138 0.129843 144.366 0.129843 144.59 0.169158L145.565 0.348174L146.415 0.382171L147.401 0.297179C147.552 0.283323 147.704 0.288002 147.854 0.311156L149.439 0.511169L150.115 0.211181C150.351 0.105206 150.607 0.0478356 150.866 0.0425102C151.125 0.0371847 151.382 0.084007 151.623 0.180175L152.304 0.454162L153.927 0.222167C154.134 0.189016 154.344 0.189016 154.551 0.222167L155.179 0.322173L155.827 0.0911552C156.065 0.00599319 156.318 -0.0317073 156.571 -0.0198373L157.681 0.0371696C157.946 0.0513222 158.205 0.119392 158.442 0.237182L158.693 0.363158L158.944 0.237182C159.387 0.0166503 159.897 -0.0249192 160.37 0.121154L160.901 0.284179L161.432 0.113158C161.845 -0.0188779 162.29 -0.00758912 162.696 0.145171L163.558 0.470153L164.115 0.519164L164.942 0.340179C165.233 0.277576 165.535 0.283715 165.823 0.358153L166.687 0.578155L167.34 0.569183L168.256 0.361175L170.656 0.00817788C170.802 -0.0110311 170.949 -0.0140522 171.095 -0.000824803L172.211 0.105163C172.323 0.115948 172.434 0.136015 172.542 0.16516L173.478 0.42517L176.258 0.541167L177.083 0.312163C177.354 0.237469 177.638 0.222138 177.916 0.267181L178.671 0.395171L179.428 0.235168C179.751 0.167025 180.086 0.183564 180.401 0.283172L181.237 0.545165H182.059L184.104 0.357177C184.237 0.34381 184.371 0.34381 184.504 0.357177L185.504 0.463164L187.424 0.401153L188.414 0.219176C188.708 0.164443 189.011 0.178814 189.298 0.261169L189.985 0.461181L190.565 0.361175L191.584 0.0671684C192.025 -0.0591434 192.497 -0.0236715 192.914 0.167174L193.504 0.43518L194.051 0.349181C194.2 0.327021 194.351 0.320981 194.501 0.331176L195.183 0.383178L195.896 0.115173C196.191 0.00496187 196.509 -0.0314462 196.821 0.00915444L198.821 0.259154L199.743 0.174163C199.927 0.156936 200.112 0.166698 200.293 0.203155L201.258 0.394164L202.091 0.42517L203.075 0.325164C203.256 0.307064 203.439 0.314472 203.618 0.347167L204.36 0.484161L206.303 0.111175C206.453 0.0859994 206.605 0.0776204 206.757 0.0861808L207.881 0.160155C208.012 0.169385 208.141 0.191154 208.268 0.225158L209.112 0.457152L209.944 0.432159C210.03 0.429772 210.116 0.432781 210.201 0.441161L211.001 0.526153L211.814 0.337157C211.886 0.320174 211.96 0.307828 212.034 0.30017L214.272 0.0401603C214.422 0.0209112 214.575 0.0209112 214.725 0.0401603L215.854 0.169158L215.415 3.99316L214.515 3.89316L212.576 4.11917L211.558 4.35318C211.351 4.40055 211.137 4.41338 210.925 4.39117L209.933 4.29117L208.941 4.32016C208.749 4.32825 208.557 4.30529 208.373 4.25217L207.44 3.99615L206.74 3.95016L204.806 4.33316C204.556 4.38699 204.299 4.39175 204.047 4.34717L203.193 4.19015L202.351 4.27518C202.263 4.2839 202.174 4.28657 202.086 4.28317L200.97 4.24118C200.869 4.23749 200.769 4.2261 200.67 4.20715L199.825 4.03915L198.98 4.11816C198.847 4.13065 198.713 4.12866 198.58 4.11218L196.804 3.89618L196.14 4.14416C195.877 4.24358 195.596 4.28354 195.316 4.26117L194.434 4.19318L193.541 4.33517C193.168 4.39379 192.786 4.34235 192.441 4.18716L191.97 3.97317L191.536 4.09918C191.47 4.11816 191.403 4.13317 191.336 4.14416L190.217 4.34418C189.927 4.39534 189.628 4.37959 189.345 4.29816L188.666 4.09817L187.995 4.22317C187.909 4.23907 187.822 4.24876 187.735 4.25217L185.448 4.32617C185.368 4.32747 185.288 4.32378 185.209 4.31515L184.29 4.21518L182.21 4.39517H180.944C180.749 4.39542 180.556 4.36573 180.37 4.30716L179.734 4.10718L179.113 4.23816C178.877 4.2885 178.634 4.2936 178.397 4.25317L177.706 4.13617L177.006 4.33618C176.815 4.38861 176.617 4.41154 176.419 4.40417L173 4.25317C172.878 4.24373 172.756 4.22261 172.638 4.19015L171.685 3.92715L170.955 3.85815L168.981 4.14618L167.998 4.37418C167.867 4.40456 167.733 4.42066 167.598 4.42218L166.488 4.43716C166.32 4.4354 166.152 4.41528 165.988 4.37717L165.315 4.20517L164.648 4.34817C164.46 4.38807 164.267 4.39987 164.075 4.38318L162.966 4.28317C162.792 4.2676 162.621 4.22858 162.458 4.16717L161.974 3.98517L161.503 4.13617C161.128 4.2551 160.726 4.2572 160.35 4.14218L159.977 4.02716L159.558 4.23816C159.289 4.37875 158.99 4.4541 158.686 4.45816Z" fill="black"/>
<path d="M373.686 4.45816C373.388 4.45833 373.094 4.38991 372.827 4.25818L372.077 3.88415L371.752 3.86716L371.002 4.13516C370.698 4.24237 370.373 4.27262 370.055 4.22317L369.255 4.09717L368.455 4.23218L367.203 4.35815C366.897 4.38673 366.588 4.34183 366.303 4.22717L365.949 4.08417L365.581 4.24918C365.29 4.38158 364.97 4.43831 364.651 4.41415L362.515 4.18317L361.63 4.26016C361.548 4.26616 361.465 4.26817 361.385 4.26617L360.276 4.22015C360.186 4.21667 360.097 4.20699 360.008 4.19116L359.238 4.04916L358.471 4.18317C358.176 4.23382 357.874 4.21602 357.587 4.13116L357.211 4.01718L356.784 4.23315C356.533 4.36057 356.257 4.43104 355.975 4.43951C355.693 4.44798 355.413 4.39425 355.155 4.28216L354.585 4.03717L354.051 4.13718C353.916 4.16773 353.778 4.17917 353.64 4.17117L352.74 4.15018L351.84 4.33215C351.744 4.35129 351.647 4.363 351.549 4.36716L350.434 4.41916C350.247 4.42949 350.059 4.41094 349.878 4.36417L348.972 4.13815L348.072 4.11816C347.937 4.1153 347.803 4.09821 347.672 4.06717L346.927 3.89117L345.172 4.22217C345.028 4.2552 344.88 4.26931 344.732 4.26416L343.622 4.23617C343.445 4.23267 343.269 4.20473 343.1 4.15317L342.649 4.01315L342.176 4.21316C341.969 4.29746 341.749 4.34582 341.525 4.35617L340.415 4.40216C340.098 4.41385 339.783 4.34902 339.497 4.21316L338.776 3.86716H338.559L337.859 4.21616C337.527 4.38238 337.153 4.44809 336.784 4.40518L334.736 4.20517L333.727 4.23917C333.58 4.24405 333.432 4.23231 333.287 4.20416L332.645 4.07617L331.988 4.27615C331.597 4.39407 331.178 4.38428 330.793 4.24817L329.928 3.94818L329.483 3.91916L328.752 4.18417C328.377 4.32137 327.969 4.33816 327.585 4.23218L327.006 4.07318L326.426 4.24716C326.264 4.2956 326.095 4.32252 325.926 4.32718L324.816 4.35815C324.576 4.3632 324.337 4.32459 324.111 4.24417L323.511 4.02817L322.938 4.15018C322.887 4.16118 322.838 4.17018 322.784 4.17618L321.675 4.31918C321.478 4.34493 321.278 4.33986 321.082 4.30417L320.363 4.17218L319.641 4.33816C319.3 4.41725 318.944 4.4017 318.611 4.29318L317.755 4.01315L317.017 3.98416L316.017 4.05316L315.052 4.19818C314.83 4.23155 314.604 4.22475 314.384 4.17816L313.535 4.00217L311.69 4.19318L310.654 4.36816C310.555 4.38391 310.454 4.3926 310.354 4.39416L309.242 4.40817C309.03 4.40809 308.819 4.37433 308.617 4.30817L307.983 4.10016L307.364 4.22015C307.03 4.28378 306.685 4.25829 306.364 4.14618L305.699 3.91415L304.074 4.22516C303.961 4.25033 303.846 4.26473 303.731 4.26816L302.712 4.30316L301.691 4.44015C301.434 4.47437 301.173 4.45669 300.923 4.38815L299.911 4.10815L299.101 3.97617L298.42 4.00717L297.53 4.26916C297.363 4.31706 297.191 4.34294 297.017 4.34616L295.905 4.36316L292.505 4.32916C292.265 4.32443 292.027 4.27492 291.805 4.18317L291.205 3.93216L290.635 4.02316L289.665 4.25717C289.599 4.27217 289.531 4.28516 289.465 4.29416L288.356 4.43417C288.195 4.45498 288.032 4.45498 287.871 4.43417L285.905 4.11716L285.187 4.26816C284.891 4.33082 284.584 4.32225 284.292 4.24316L283.439 4.01416H282.714L280.555 4.26517C280.435 4.27669 280.313 4.27669 280.193 4.26517L279.306 4.18716L278.416 4.31216C278.105 4.35471 277.789 4.32037 277.495 4.21216L277.133 4.08118L276.743 4.26117C276.509 4.36876 276.255 4.42843 275.998 4.43668C275.74 4.44492 275.484 4.40158 275.243 4.30917L274.686 4.09317L274.155 4.21518C273.899 4.27468 273.633 4.28046 273.374 4.23218L272.602 4.08917L271.834 4.22015C271.524 4.27158 271.207 4.24792 270.908 4.15115L270.349 3.96817L269.798 4.11716C269.558 4.18283 269.308 4.2005 269.062 4.16916L268.283 4.07516L267.499 4.25217C267.212 4.31725 266.913 4.31519 266.627 4.24615L265.768 4.04016L265.185 4.05817L264.332 4.32916C264.098 4.4043 263.852 4.4335 263.607 4.41516L261.416 4.26916C261.307 4.26312 261.198 4.24774 261.091 4.22317L260.549 4.09717L259.984 4.30817C259.536 4.47602 259.043 4.47175 258.598 4.29617L258.051 4.08017L257.529 4.20517C257.421 4.23073 257.312 4.24713 257.201 4.25418L256.088 4.32318C255.799 4.34001 255.509 4.29217 255.241 4.18317L254.733 3.97516L254.251 4.10617C254.07 4.15877 253.881 4.18108 253.692 4.17218L252.583 4.14117L249.329 4.24118C249.114 4.24628 248.899 4.2124 248.696 4.14117L248.083 3.94116L247.483 4.06717C247.434 4.07817 247.383 4.08517 247.331 4.09317L245.201 4.41217C244.821 4.47644 244.431 4.42667 244.08 4.26916L243.643 4.06918L243.236 4.19717C243.078 4.24649 242.915 4.27539 242.75 4.28317L240.663 4.44916C240.378 4.48205 240.089 4.44992 239.818 4.35516L238.948 4.05517L238.448 4.01718L237.686 4.24817C237.315 4.35867 236.919 4.35589 236.55 4.24017L235.697 3.97116L235.155 3.95315L234.336 4.18417C234.065 4.25933 233.781 4.27501 233.503 4.23016L231.544 3.89716L230.712 3.98617C230.598 3.99809 230.484 4.00076 230.37 3.99417L229.716 3.94818L229.031 4.23117C228.759 4.34256 228.465 4.39012 228.172 4.37018L227.072 4.29816C226.95 4.29008 226.83 4.27033 226.712 4.23917L226.13 4.08618L225.545 4.26218C225.295 4.33747 225.032 4.36095 224.772 4.33118L223.928 4.23117L223.084 4.36316C222.847 4.40038 222.605 4.3926 222.371 4.34018L220.471 3.91016L219.703 3.99918C219.648 4.00518 219.592 4.01017 219.537 4.01117L215.111 4.13415L215.023 0.286162L219.338 0.164153L220.357 0.0451652C220.578 0.0190969 220.802 0.0316034 221.019 0.0821525L222.848 0.501159L223.592 0.386169C223.763 0.358705 223.937 0.355017 224.109 0.375182L224.819 0.457152L225.543 0.24118C225.881 0.14141 226.24 0.135185 226.582 0.223174L227.509 0.466155L227.983 0.497161L228.671 0.214172C228.946 0.101947 229.242 0.0540424 229.538 0.0741569L230.47 0.139159L231.405 0.0391532C231.585 0.0205096 231.767 0.0265708 231.946 0.0571586L233.712 0.357177L234.405 0.157165C234.595 0.103802 234.791 0.0798728 234.988 0.0861808L236.088 0.123168C236.264 0.128616 236.438 0.15824 236.605 0.211181L237.143 0.380157L237.679 0.218169C237.905 0.148977 238.143 0.123203 238.379 0.142181L239.485 0.225158C239.65 0.237527 239.813 0.271143 239.97 0.325164L240.663 0.565154L242.315 0.440154L243.186 0.166167C243.637 0.023233 244.126 0.0524434 244.557 0.248168L245.125 0.505157L247.798 0.0541679C248.133 -0.0158318 248.481 0.00452162 248.805 0.113158L249.605 0.37918L252.605 0.288177L253.51 0.314178L254.349 0.0861808C254.757 -0.0250226 255.19 0.00132044 255.581 0.161162L256.281 0.449157L256.788 0.417174L257.74 0.191161C258.124 0.0987086 258.528 0.127715 258.895 0.274169L259.317 0.440154L259.731 0.283172C260.088 0.148765 260.477 0.123708 260.848 0.211181L261.798 0.433166L263.512 0.545165L264.268 0.305175C264.437 0.251107 264.613 0.221126 264.79 0.216155L265.9 0.181182C266.072 0.175396 266.243 0.19286 266.41 0.233153L267.084 0.395171L267.756 0.24417C267.971 0.194152 268.193 0.183298 268.411 0.212157L269.145 0.30017L269.89 0.100158C270.254 0.000806443 270.639 0.0105582 270.997 0.128173L271.65 0.345153L272.288 0.236175C272.511 0.197714 272.739 0.197714 272.962 0.236175L273.678 0.370177L274.396 0.205169C274.771 0.120238 275.163 0.148057 275.522 0.285155L275.867 0.419158L276.232 0.250182C276.692 0.0375824 277.218 0.0142381 277.695 0.18518L278.354 0.424163L278.988 0.336181C279.132 0.316038 279.279 0.31199 279.424 0.324157L280.351 0.407165L282.321 0.173156C282.401 0.162208 282.481 0.15653 282.561 0.156158L283.668 0.148162C283.842 0.131948 284.017 0.154139 284.182 0.213164L284.846 0.392181L285.504 0.253173C285.765 0.198528 286.033 0.198528 286.294 0.253173L288.11 0.572173L288.88 0.472167L289.889 0.235168L291.136 0.029174C291.488 -0.0267321 291.849 0.0158238 292.178 0.15216L292.949 0.474181L295.881 0.499175L296.697 0.487182L297.558 0.234161C297.705 0.190479 297.856 0.164966 298.009 0.158172L299.119 0.10617C299.253 0.10084 299.387 0.108553 299.519 0.12918L300.632 0.311156C300.699 0.322546 300.766 0.337582 300.832 0.35617L301.565 0.556182L302.29 0.456176C302.352 0.447383 302.414 0.441711 302.476 0.439178L303.415 0.407165L304.359 0.201171L305.608 0.0161735C305.914 -0.0258628 306.226 0.00461252 306.518 0.105163L307.137 0.321166L307.737 0.205169C308.06 0.141692 308.394 0.162352 308.706 0.265166L309.511 0.530181L310.153 0.524169L312.3 0.207152L313.526 0.11917C313.701 0.107049 313.877 0.118827 314.049 0.154174L314.825 0.316161L315.6 0.204162L316.855 0.112182C316.926 0.112182 316.998 0.112182 317.066 0.112182L318.173 0.157165C318.349 0.16441 318.524 0.196037 318.692 0.251159L319.292 0.451171L319.882 0.316161C320.138 0.25712 320.403 0.250989 320.661 0.298156L321.479 0.447173L322.213 0.353179L323.246 0.134154C323.596 0.0591269 323.961 0.0840963 324.298 0.206176L325.068 0.483153L325.559 0.47116L326.426 0.211181C326.772 0.108704 327.14 0.104526 327.489 0.199157L328.008 0.342162L328.545 0.142181C328.797 0.0507267 329.065 0.0125875 329.332 0.0301811L330.447 0.105163C330.621 0.116529 330.793 0.152225 330.958 0.211181L331.477 0.394164L331.991 0.238158C332.292 0.147084 332.611 0.131646 332.92 0.193175L333.815 0.370177L334.708 0.339172C334.779 0.339172 334.848 0.339172 334.919 0.339172L336.649 0.493163L337.249 0.193175C337.514 0.0495417 337.813 -0.0195886 338.114 -0.00683677H339.226C339.513 -0.00572366 339.796 0.0595426 340.055 0.184173L340.734 0.510162L341.023 0.498168L341.823 0.170165C342.236 0.000265896 342.696 -0.0209379 343.123 0.110168L343.979 0.373168L344.601 0.388152L346.706 0.00915444C346.952 -0.029409 347.202 -0.0198843 347.444 0.0371696L348.362 0.253173L349.274 0.273162C349.416 0.276772 349.558 0.295891 349.696 0.330169L350.535 0.539153L351.22 0.508178L352.192 0.308166C352.333 0.278139 352.476 0.265723 352.62 0.271178L353.527 0.294158L354.439 0.120177C354.817 0.0474835 355.209 0.0899604 355.563 0.242156L355.849 0.365173L356.158 0.20816C356.599 -0.0145728 357.108 -0.0593271 357.581 0.0831596L358.257 0.283172L358.914 0.169158C359.138 0.129843 359.366 0.129843 359.59 0.169158L360.565 0.348174L361.415 0.382171L362.401 0.297179C362.552 0.283323 362.704 0.288002 362.854 0.311156L364.439 0.511169L365.115 0.211181C365.351 0.105206 365.607 0.0478356 365.866 0.0425102C366.125 0.0371847 366.382 0.084007 366.623 0.180175L367.304 0.454162L368.927 0.222167C369.134 0.189016 369.344 0.189016 369.551 0.222167L370.179 0.322173L370.827 0.0911552C371.065 0.00599319 371.318 -0.0317073 371.571 -0.0198373L372.681 0.0371696C372.946 0.0513222 373.205 0.119392 373.442 0.237182L373.693 0.363158L373.944 0.237182C374.387 0.0166503 374.897 -0.0249192 375.37 0.121154L375.901 0.284179L376.432 0.113158C376.845 -0.0188779 377.29 -0.00758912 377.696 0.145171L378.558 0.470153L379.115 0.519164L379.942 0.340179C380.233 0.277576 380.535 0.283715 380.823 0.358153L381.687 0.578155L382.34 0.569183L383.256 0.361175L385.656 0.00817788C385.802 -0.0110311 385.949 -0.0140522 386.095 -0.000824803L387.211 0.105163C387.323 0.115948 387.434 0.136015 387.542 0.16516L388.478 0.42517L391.258 0.541167L392.083 0.312163C392.354 0.237469 392.638 0.222138 392.916 0.267181L393.671 0.395171L394.428 0.235168C394.751 0.167025 395.086 0.183564 395.401 0.283172L396.237 0.545165H397.059L399.104 0.357177C399.237 0.34381 399.371 0.34381 399.504 0.357177L400.504 0.463164L402.424 0.401153L403.414 0.219176C403.708 0.164443 404.011 0.178814 404.298 0.261169L404.985 0.461181L405.565 0.361175L406.584 0.0671684C407.025 -0.0591434 407.497 -0.0236715 407.914 0.167174L408.504 0.43518L409.051 0.349181C409.2 0.327021 409.351 0.320981 409.501 0.331176L410.183 0.383178L410.896 0.115173C411.191 0.00496187 411.509 -0.0314462 411.821 0.00915444L413.821 0.259154L414.743 0.174163C414.927 0.156936 415.112 0.166698 415.293 0.203155L416.258 0.394164L417.091 0.42517L418.075 0.325164C418.256 0.307064 418.439 0.314472 418.618 0.347167L419.36 0.484161L421.303 0.111175C421.453 0.0859994 421.605 0.0776204 421.757 0.0861808L422.881 0.160155C423.012 0.169385 423.141 0.191154 423.268 0.225158L424.112 0.457152L424.944 0.432159C425.03 0.429772 425.116 0.432781 425.201 0.441161L426.001 0.526153L426.814 0.337157C426.886 0.320174 426.96 0.307828 427.034 0.30017L429.272 0.0401603C429.422 0.0209112 429.575 0.0209112 429.725 0.0401603L430.854 0.169158L430.415 3.99316L429.515 3.89316L427.576 4.11917L426.558 4.35318C426.351 4.40055 426.137 4.41338 425.925 4.39117L424.933 4.29117L423.941 4.32016C423.749 4.32825 423.557 4.30529 423.373 4.25217L422.44 3.99615L421.74 3.95016L419.806 4.33316C419.556 4.38699 419.299 4.39175 419.047 4.34717L418.193 4.19015L417.351 4.27518C417.263 4.2839 417.174 4.28657 417.086 4.28317L415.97 4.24118C415.869 4.23749 415.769 4.2261 415.67 4.20715L414.825 4.03915L413.98 4.11816C413.847 4.13065 413.713 4.12866 413.58 4.11218L411.804 3.89618L411.14 4.14416C410.877 4.24358 410.596 4.28354 410.316 4.26117L409.434 4.19318L408.541 4.33517C408.168 4.39379 407.786 4.34235 407.441 4.18716L406.97 3.97317L406.536 4.09918C406.47 4.11816 406.403 4.13317 406.336 4.14416L405.217 4.34418C404.927 4.39534 404.628 4.37959 404.345 4.29816L403.666 4.09817L402.995 4.22317C402.909 4.23907 402.822 4.24876 402.735 4.25217L400.448 4.32617C400.368 4.32747 400.288 4.32378 400.209 4.31515L399.29 4.21518L397.21 4.39517H395.944C395.749 4.39542 395.556 4.36573 395.37 4.30716L394.734 4.10718L394.113 4.23816C393.877 4.2885 393.634 4.2936 393.397 4.25317L392.706 4.13617L392.006 4.33618C391.815 4.38861 391.617 4.41154 391.419 4.40417L388 4.25317C387.878 4.24373 387.756 4.22261 387.638 4.19015L386.685 3.92715L385.955 3.85815L383.981 4.14618L382.998 4.37418C382.867 4.40456 382.733 4.42066 382.598 4.42218L381.488 4.43716C381.32 4.4354 381.152 4.41528 380.988 4.37717L380.315 4.20517L379.648 4.34817C379.46 4.38807 379.267 4.39987 379.075 4.38318L377.966 4.28317C377.792 4.2676 377.621 4.22858 377.458 4.16717L376.974 3.98517L376.503 4.13617C376.128 4.2551 375.726 4.2572 375.35 4.14218L374.977 4.02716L374.558 4.23816C374.289 4.37875 373.99 4.4541 373.686 4.45816Z" fill="black"/>
<path d="M588.686 4.45816C588.388 4.45833 588.094 4.38991 587.827 4.25818L587.077 3.88415L586.752 3.86716L586.002 4.13516C585.698 4.24237 585.373 4.27262 585.055 4.22317L584.255 4.09717L583.455 4.23218L582.203 4.35815C581.897 4.38673 581.588 4.34183 581.303 4.22717L580.949 4.08417L580.581 4.24918C580.29 4.38158 579.97 4.43831 579.651 4.41415L577.515 4.18317L576.63 4.26016C576.548 4.26616 576.465 4.26817 576.385 4.26617L575.276 4.22015C575.186 4.21667 575.097 4.20699 575.008 4.19116L574.238 4.04916L573.471 4.18317C573.176 4.23382 572.874 4.21602 572.587 4.13116L572.211 4.01718L571.784 4.23315C571.533 4.36057 571.257 4.43104 570.975 4.43951C570.693 4.44798 570.413 4.39425 570.155 4.28216L569.585 4.03717L569.051 4.13718C568.916 4.16773 568.778 4.17917 568.64 4.17117L567.74 4.15018L566.84 4.33215C566.744 4.35129 566.647 4.363 566.549 4.36716L565.434 4.41916C565.247 4.42949 565.059 4.41094 564.878 4.36417L563.972 4.13815L563.072 4.11816C562.937 4.1153 562.803 4.09821 562.672 4.06717L561.927 3.89117L560.172 4.22217C560.028 4.2552 559.88 4.26931 559.732 4.26416L558.622 4.23617C558.445 4.23267 558.269 4.20473 558.1 4.15317L557.649 4.01315L557.176 4.21316C556.969 4.29746 556.749 4.34582 556.525 4.35617L555.415 4.40216C555.098 4.41385 554.783 4.34902 554.497 4.21316L553.776 3.86716H553.559L552.859 4.21616C552.527 4.38238 552.153 4.44809 551.784 4.40518L549.736 4.20517L548.727 4.23917C548.58 4.24405 548.432 4.23231 548.287 4.20416L547.645 4.07617L546.988 4.27615C546.597 4.39407 546.178 4.38428 545.793 4.24817L544.928 3.94818L544.483 3.91916L543.752 4.18417C543.377 4.32137 542.969 4.33816 542.585 4.23218L542.006 4.07318L541.426 4.24716C541.264 4.2956 541.095 4.32252 540.926 4.32718L539.816 4.35815C539.576 4.3632 539.337 4.32459 539.111 4.24417L538.511 4.02817L537.938 4.15018C537.887 4.16118 537.838 4.17018 537.784 4.17618L536.675 4.31918C536.478 4.34493 536.278 4.33986 536.082 4.30417L535.363 4.17218L534.641 4.33816C534.3 4.41725 533.944 4.4017 533.611 4.29318L532.755 4.01315L532.017 3.98416L531.017 4.05316L530.052 4.19818C529.83 4.23155 529.604 4.22475 529.384 4.17816L528.535 4.00217L526.69 4.19318L525.654 4.36816C525.555 4.38391 525.454 4.3926 525.354 4.39416L524.242 4.40817C524.03 4.40809 523.819 4.37433 523.617 4.30817L522.983 4.10016L522.364 4.22015C522.03 4.28378 521.685 4.25829 521.364 4.14618L520.699 3.91415L519.074 4.22516C518.961 4.25033 518.846 4.26473 518.731 4.26816L517.712 4.30316L516.691 4.44015C516.434 4.47437 516.173 4.45669 515.923 4.38815L514.911 4.10815L514.101 3.97617L513.42 4.00717L512.53 4.26916C512.363 4.31706 512.191 4.34294 512.017 4.34616L510.905 4.36316L507.505 4.32916C507.265 4.32443 507.027 4.27492 506.805 4.18317L506.205 3.93216L505.635 4.02316L504.665 4.25717C504.599 4.27217 504.531 4.28516 504.465 4.29416L503.356 4.43417C503.195 4.45498 503.032 4.45498 502.871 4.43417L500.905 4.11716L500.187 4.26816C499.891 4.33082 499.584 4.32225 499.292 4.24316L498.439 4.01416H497.714L495.555 4.26517C495.435 4.27669 495.313 4.27669 495.193 4.26517L494.306 4.18716L493.416 4.31216C493.105 4.35471 492.789 4.32037 492.495 4.21216L492.133 4.08118L491.743 4.26117C491.509 4.36876 491.255 4.42843 490.998 4.43668C490.74 4.44492 490.484 4.40158 490.243 4.30917L489.686 4.09317L489.155 4.21518C488.899 4.27468 488.633 4.28046 488.374 4.23218L487.602 4.08917L486.834 4.22015C486.524 4.27158 486.207 4.24792 485.908 4.15115L485.349 3.96817L484.798 4.11716C484.558 4.18283 484.308 4.2005 484.062 4.16916L483.283 4.07516L482.499 4.25217C482.212 4.31725 481.913 4.31519 481.627 4.24615L480.768 4.04016L480.185 4.05817L479.332 4.32916C479.098 4.4043 478.852 4.4335 478.607 4.41516L476.416 4.26916C476.307 4.26312 476.198 4.24774 476.091 4.22317L475.549 4.09717L474.984 4.30817C474.536 4.47602 474.043 4.47175 473.598 4.29617L473.051 4.08017L472.529 4.20517C472.421 4.23073 472.312 4.24713 472.201 4.25418L471.088 4.32318C470.799 4.34001 470.509 4.29217 470.241 4.18317L469.733 3.97516L469.251 4.10617C469.07 4.15877 468.881 4.18108 468.692 4.17218L467.583 4.14117L464.329 4.24118C464.114 4.24628 463.899 4.2124 463.696 4.14117L463.083 3.94116L462.483 4.06717C462.434 4.07817 462.383 4.08517 462.331 4.09317L460.201 4.41217C459.821 4.47644 459.431 4.42667 459.08 4.26916L458.643 4.06918L458.236 4.19717C458.078 4.24649 457.915 4.27539 457.75 4.28317L455.663 4.44916C455.378 4.48205 455.089 4.44992 454.818 4.35516L453.948 4.05517L453.448 4.01718L452.686 4.24817C452.315 4.35867 451.919 4.35589 451.55 4.24017L450.697 3.97116L450.155 3.95315L449.336 4.18417C449.065 4.25933 448.781 4.27501 448.503 4.23016L446.544 3.89716L445.712 3.98617C445.598 3.99809 445.484 4.00076 445.37 3.99417L444.716 3.94818L444.031 4.23117C443.759 4.34256 443.465 4.39012 443.172 4.37018L442.072 4.29816C441.95 4.29008 441.83 4.27033 441.712 4.23917L441.13 4.08618L440.545 4.26218C440.295 4.33747 440.032 4.36095 439.772 4.33118L438.928 4.23117L438.084 4.36316C437.847 4.40038 437.605 4.3926 437.371 4.34018L435.471 3.91016L434.703 3.99918C434.648 4.00518 434.592 4.01017 434.537 4.01117L430.111 4.13415L430.023 0.286162L434.338 0.164153L435.357 0.0451652C435.578 0.0190969 435.802 0.0316034 436.019 0.0821525L437.848 0.501159L438.592 0.386169C438.763 0.358705 438.937 0.355017 439.109 0.375182L439.819 0.457152L440.543 0.24118C440.881 0.14141 441.24 0.135185 441.582 0.223174L442.509 0.466155L442.983 0.497161L443.671 0.214172C443.946 0.101947 444.242 0.0540424 444.538 0.0741569L445.47 0.139159L446.405 0.0391532C446.585 0.0205096 446.767 0.0265708 446.946 0.0571586L448.712 0.357177L449.405 0.157165C449.595 0.103802 449.791 0.0798728 449.988 0.0861808L451.088 0.123168C451.264 0.128616 451.438 0.15824 451.605 0.211181L452.143 0.380157L452.679 0.218169C452.905 0.148977 453.143 0.123203 453.379 0.142181L454.485 0.225158C454.65 0.237527 454.813 0.271143 454.97 0.325164L455.663 0.565154L457.315 0.440154L458.186 0.166167C458.637 0.023233 459.126 0.0524434 459.557 0.248168L460.125 0.505157L462.798 0.0541679C463.133 -0.0158318 463.481 0.00452162 463.805 0.113158L464.605 0.37918L467.605 0.288177L468.51 0.314178L469.349 0.0861808C469.757 -0.0250226 470.19 0.00132044 470.581 0.161162L471.281 0.449157L471.788 0.417174L472.74 0.191161C473.124 0.0987086 473.528 0.127715 473.895 0.274169L474.317 0.440154L474.731 0.283172C475.088 0.148765 475.477 0.123708 475.848 0.211181L476.798 0.433166L478.512 0.545165L479.268 0.305175C479.437 0.251107 479.613 0.221126 479.79 0.216155L480.9 0.181182C481.072 0.175396 481.243 0.19286 481.41 0.233153L482.084 0.395171L482.756 0.24417C482.971 0.194152 483.193 0.183298 483.411 0.212157L484.145 0.30017L484.89 0.100158C485.254 0.000806443 485.639 0.0105582 485.997 0.128173L486.65 0.345153L487.288 0.236175C487.511 0.197714 487.739 0.197714 487.962 0.236175L488.678 0.370177L489.396 0.205169C489.771 0.120238 490.163 0.148057 490.522 0.285155L490.867 0.419158L491.232 0.250182C491.692 0.0375824 492.218 0.0142381 492.695 0.18518L493.354 0.424163L493.988 0.336181C494.132 0.316038 494.279 0.31199 494.424 0.324157L495.351 0.407165L497.321 0.173156C497.401 0.162208 497.481 0.15653 497.561 0.156158L498.668 0.148162C498.842 0.131948 499.017 0.154139 499.182 0.213164L499.846 0.392181L500.504 0.253173C500.765 0.198528 501.033 0.198528 501.294 0.253173L503.11 0.572173L503.88 0.472167L504.889 0.235168L506.136 0.029174C506.488 -0.0267321 506.849 0.0158238 507.178 0.15216L507.949 0.474181L510.881 0.499175L511.697 0.487182L512.558 0.234161C512.705 0.190479 512.856 0.164966 513.009 0.158172L514.119 0.10617C514.253 0.10084 514.387 0.108553 514.519 0.12918L515.632 0.311156C515.699 0.322546 515.766 0.337582 515.832 0.35617L516.565 0.556182L517.29 0.456176C517.352 0.447383 517.414 0.441711 517.476 0.439178L518.415 0.407165L519.359 0.201171L520.608 0.0161735C520.914 -0.0258628 521.226 0.00461252 521.518 0.105163L522.137 0.321166L522.737 0.205169C523.06 0.141692 523.394 0.162352 523.706 0.265166L524.511 0.530181L525.153 0.524169L527.3 0.207152L528.526 0.11917C528.701 0.107049 528.877 0.118827 529.049 0.154174L529.825 0.316161L530.6 0.204162L531.855 0.112182C531.926 0.112182 531.998 0.112182 532.066 0.112182L533.173 0.157165C533.349 0.16441 533.524 0.196037 533.692 0.251159L534.292 0.451171L534.882 0.316161C535.138 0.25712 535.403 0.250989 535.661 0.298156L536.479 0.447173L537.213 0.353179L538.246 0.134154C538.596 0.0591269 538.961 0.0840963 539.298 0.206176L540.068 0.483153L540.559 0.47116L541.426 0.211181C541.772 0.108704 542.14 0.104526 542.489 0.199157L543.008 0.342162L543.545 0.142181C543.797 0.0507267 544.065 0.0125875 544.332 0.0301811L545.447 0.105163C545.621 0.116529 545.793 0.152225 545.958 0.211181L546.477 0.394164L546.991 0.238158C547.292 0.147084 547.611 0.131646 547.92 0.193175L548.815 0.370177L549.708 0.339172C549.779 0.339172 549.848 0.339172 549.919 0.339172L551.649 0.493163L552.249 0.193175C552.514 0.0495417 552.813 -0.0195886 553.114 -0.00683677H554.226C554.513 -0.00572366 554.796 0.0595426 555.055 0.184173L555.734 0.510162L556.023 0.498168L556.823 0.170165C557.236 0.000265896 557.696 -0.0209379 558.123 0.110168L558.979 0.373168L559.601 0.388152L561.706 0.00915444C561.952 -0.029409 562.202 -0.0198843 562.444 0.0371696L563.362 0.253173L564.274 0.273162C564.416 0.276772 564.558 0.295891 564.696 0.330169L565.535 0.539153L566.22 0.508178L567.192 0.308166C567.333 0.278139 567.476 0.265723 567.62 0.271178L568.527 0.294158L569.439 0.120177C569.817 0.0474835 570.209 0.0899604 570.563 0.242156L570.849 0.365173L571.158 0.20816C571.599 -0.0145728 572.108 -0.0593271 572.581 0.0831596L573.257 0.283172L573.914 0.169158C574.138 0.129843 574.366 0.129843 574.59 0.169158L575.565 0.348174L576.415 0.382171L577.401 0.297179C577.552 0.283323 577.704 0.288002 577.854 0.311156L579.439 0.511169L580.115 0.211181C580.351 0.105206 580.607 0.0478356 580.866 0.0425102C581.125 0.0371847 581.382 0.084007 581.623 0.180175L582.304 0.454162L583.927 0.222167C584.134 0.189016 584.344 0.189016 584.551 0.222167L585.179 0.322173L585.827 0.0911552C586.065 0.00599319 586.318 -0.0317073 586.571 -0.0198373L587.681 0.0371696C587.946 0.0513222 588.205 0.119392 588.442 0.237182L588.693 0.363158L588.944 0.237182C589.387 0.0166503 589.897 -0.0249192 590.37 0.121154L590.901 0.284179L591.432 0.113158C591.845 -0.0188779 592.29 -0.00758912 592.696 0.145171L593.558 0.470153L594.115 0.519164L594.942 0.340179C595.233 0.277576 595.535 0.283715 595.823 0.358153L596.687 0.578155L597.34 0.569183L598.256 0.361175L600.656 0.00817788C600.802 -0.0110311 600.949 -0.0140522 601.095 -0.000824803L602.211 0.105163C602.323 0.115948 602.434 0.136015 602.542 0.16516L603.478 0.42517L606.258 0.541167L607.083 0.312163C607.354 0.237469 607.638 0.222138 607.916 0.267181L608.671 0.395171L609.428 0.235168C609.751 0.167025 610.086 0.183564 610.401 0.283172L611.237 0.545165H612.059L614.104 0.357177C614.237 0.34381 614.371 0.34381 614.504 0.357177L615.504 0.463164L617.424 0.401153L618.414 0.219176C618.708 0.164443 619.011 0.178814 619.298 0.261169L619.985 0.461181L620.565 0.361175L621.584 0.0671684C622.025 -0.0591434 622.497 -0.0236715 622.914 0.167174L623.504 0.43518L624.051 0.349181C624.2 0.327021 624.351 0.320981 624.501 0.331176L625.183 0.383178L625.896 0.115173C626.191 0.00496187 626.509 -0.0314462 626.821 0.00915444L628.821 0.259154L629.743 0.174163C629.927 0.156936 630.112 0.166698 630.293 0.203155L631.258 0.394164L632.091 0.42517L633.075 0.325164C633.256 0.307064 633.439 0.314472 633.618 0.347167L634.36 0.484161L636.303 0.111175C636.453 0.0859994 636.605 0.0776204 636.757 0.0861808L637.881 0.160155C638.012 0.169385 638.141 0.191154 638.268 0.225158L639.112 0.457152L639.944 0.432159C640.03 0.429772 640.116 0.432781 640.201 0.441161L641.001 0.526153L641.814 0.337157C641.886 0.320174 641.96 0.307828 642.034 0.30017L644.272 0.0401603C644.422 0.0209112 644.575 0.0209112 644.725 0.0401603L645.854 0.169158L645.415 3.99316L644.515 3.89316L642.576 4.11917L641.558 4.35318C641.351 4.40055 641.137 4.41338 640.925 4.39117L639.933 4.29117L638.941 4.32016C638.749 4.32825 638.557 4.30529 638.373 4.25217L637.44 3.99615L636.74 3.95016L634.806 4.33316C634.556 4.38699 634.299 4.39175 634.047 4.34717L633.193 4.19015L632.351 4.27518C632.263 4.2839 632.174 4.28657 632.086 4.28317L630.97 4.24118C630.869 4.23749 630.769 4.2261 630.67 4.20715L629.825 4.03915L628.98 4.11816C628.847 4.13065 628.713 4.12866 628.58 4.11218L626.804 3.89618L626.14 4.14416C625.877 4.24358 625.596 4.28354 625.316 4.26117L624.434 4.19318L623.541 4.33517C623.168 4.39379 622.786 4.34235 622.441 4.18716L621.97 3.97317L621.536 4.09918C621.47 4.11816 621.403 4.13317 621.336 4.14416L620.217 4.34418C619.927 4.39534 619.628 4.37959 619.345 4.29816L618.666 4.09817L617.995 4.22317C617.909 4.23907 617.822 4.24876 617.735 4.25217L615.448 4.32617C615.368 4.32747 615.288 4.32378 615.209 4.31515L614.29 4.21518L612.21 4.39517H610.944C610.749 4.39542 610.556 4.36573 610.37 4.30716L609.734 4.10718L609.113 4.23816C608.877 4.2885 608.634 4.2936 608.397 4.25317L607.706 4.13617L607.006 4.33618C606.815 4.38861 606.617 4.41154 606.419 4.40417L603 4.25317C602.878 4.24373 602.756 4.22261 602.638 4.19015L601.685 3.92715L600.955 3.85815L598.981 4.14618L597.998 4.37418C597.867 4.40456 597.733 4.42066 597.598 4.42218L596.488 4.43716C596.32 4.4354 596.152 4.41528 595.988 4.37717L595.315 4.20517L594.648 4.34817C594.46 4.38807 594.267 4.39987 594.075 4.38318L592.966 4.28317C592.792 4.2676 592.621 4.22858 592.458 4.16717L591.974 3.98517L591.503 4.13617C591.128 4.2551 590.726 4.2572 590.35 4.14218L589.977 4.02716L589.558 4.23816C589.289 4.37875 588.99 4.4541 588.686 4.45816Z" fill="black"/>
</g>
</svg>
