<svg width="5" height="89" viewBox="0 0 5 89" fill="none" xmlns="http://www.w3.org/2000/svg">
<mask id="mask0_507_3402" style="mask-type:luminance" maskUnits="userSpaceOnUse" x="0" y="0" width="5" height="89">
<path d="M5 89L5 0L0 0L0 89H5Z" fill="white"/>
</mask>
<g mask="url(#mask0_507_3402)">
<path d="M0.541841 158.686C0.541672 158.388 0.610089 158.094 0.741822 157.827L1.11585 157.077L1.13284 156.752L0.864839 156.002C0.757631 155.698 0.727382 155.373 0.776826 155.055L0.902833 154.255L0.767823 153.455L0.641847 152.203C0.613273 151.897 0.658165 151.588 0.772828 151.303L0.915833 150.949L0.750825 150.581C0.61842 150.29 0.561688 149.97 0.585847 149.651L0.816834 147.515L0.739839 146.63C0.733839 146.548 0.731827 146.465 0.733827 146.385L0.779847 145.276C0.78333 145.186 0.793011 145.097 0.808839 145.008L0.950837 144.238L0.816834 143.471C0.766182 143.176 0.783976 142.874 0.868836 142.587L0.98282 142.211L0.766847 141.784C0.639432 141.533 0.568956 141.257 0.560487 140.975C0.552017 140.693 0.605752 140.413 0.717835 140.155L0.962831 139.585L0.862824 139.051C0.832274 138.916 0.820832 138.778 0.828828 138.64L0.849824 137.74L0.667848 136.84C0.648705 136.744 0.637001 136.647 0.632844 136.549L0.580842 135.434C0.570513 135.247 0.589057 135.059 0.635835 134.878L0.861848 133.972L0.881837 133.072C0.884697 132.937 0.901787 132.803 0.932832 132.672L1.10883 131.927L0.777833 130.172C0.744801 130.028 0.73069 129.88 0.735841 129.732L0.763825 128.622C0.767334 128.445 0.795271 128.269 0.846833 128.1L0.986848 127.649L0.786836 127.176C0.702539 126.969 0.654175 126.749 0.64383 126.525L0.59784 125.415C0.58615 125.098 0.650977 124.783 0.786836 124.497L1.13284 123.776V123.559L0.783845 122.859C0.61762 122.527 0.551912 122.153 0.594819 121.784L0.794831 119.736L0.760835 118.727C0.755948 118.58 0.767692 118.432 0.795838 118.287L0.923829 117.645L0.723847 116.988C0.605929 116.597 0.615722 116.178 0.751832 115.793L1.05182 114.928L1.08084 114.483L0.815827 113.752C0.678629 113.377 0.661843 112.969 0.767823 112.585L0.92682 112.006L0.752839 111.426C0.704398 111.264 0.677484 111.095 0.672822 110.926L0.641847 109.816C0.636802 109.576 0.675413 109.337 0.75583 109.111L0.971833 108.511L0.849824 107.938C0.838824 107.887 0.829823 107.838 0.823823 107.784L0.680818 106.675C0.655068 106.478 0.660143 106.278 0.695832 106.082L0.827821 105.363L0.661836 104.641C0.582754 104.3 0.598296 103.944 0.706819 103.611L0.986848 102.755L1.01584 102.017L0.946839 101.017L0.80182 100.052C0.768452 99.8299 0.775246 99.6037 0.821839 99.384L0.997834 98.535L0.806825 96.6899L0.631837 95.6541C0.616087 95.5548 0.607398 95.4545 0.605836 95.354L0.591828 94.2419C0.591911 94.0296 0.625669 93.8187 0.691834 93.6169L0.899842 92.983L0.779847 92.364C0.716217 92.03 0.741715 91.6851 0.853822 91.364L1.08585 90.699L0.774842 89.074C0.749671 88.9613 0.735273 88.8464 0.731843 88.731L0.696839 87.712L0.559846 86.691C0.525626 86.4341 0.54331 86.1729 0.611848 85.923L0.891847 84.911L1.02383 84.101L0.992829 83.42L0.730836 82.53C0.68294 82.3631 0.657059 82.1906 0.65384 82.017L0.636842 80.905L0.670838 77.505C0.675571 77.2646 0.72508 77.0273 0.816834 76.8051L1.06784 76.205L0.976838 75.635L0.742829 74.665C0.727829 74.599 0.714842 74.531 0.705842 74.465L0.565827 73.356C0.545021 73.195 0.545021 73.032 0.565827 72.871L0.882844 70.905L0.731843 70.187C0.669185 69.8909 0.677747 69.5841 0.756837 69.292L0.985841 68.439V67.714L0.734834 65.5551C0.723312 65.4347 0.723312 65.3134 0.734834 65.193L0.812837 64.306L0.687837 63.416C0.64529 63.1055 0.679635 62.7892 0.787843 62.495L0.918824 62.1331L0.738832 61.743C0.631235 61.5088 0.571568 61.2554 0.563325 60.9978C0.555082 60.7402 0.598424 60.4836 0.690827 60.243L0.906831 59.686L0.784822 59.155C0.725323 58.8987 0.719536 58.6327 0.767823 58.374L0.910829 57.6021L0.779847 56.834C0.728421 56.5242 0.752084 56.2067 0.848847 55.908L1.03183 55.349L0.882844 54.798C0.81717 54.5585 0.799496 54.3084 0.830842 54.062L0.924836 53.283L0.747834 52.499C0.682747 52.2118 0.684813 51.9133 0.753846 51.627L0.95984 50.7679L0.941834 50.1849L0.670838 49.332C0.595698 49.0982 0.566496 48.852 0.58484 48.6071L0.730836 46.416C0.736884 46.3066 0.752263 46.1978 0.776826 46.0909L0.902833 45.549L0.691834 44.984C0.523983 44.5365 0.528253 44.0426 0.703828 43.598L0.919831 43.051L0.794831 42.5291C0.76927 42.4213 0.752867 42.3116 0.74582 42.201L0.67682 41.088C0.659986 40.7988 0.707827 40.5094 0.816834 40.241L1.02484 39.733L0.89383 39.251C0.841229 39.0695 0.81892 38.8807 0.827821 38.692L0.858827 37.583L0.758821 34.329C0.753716 34.1137 0.787601 33.8993 0.858827 33.696L1.05884 33.083L0.932832 32.483C0.921832 32.434 0.914831 32.3831 0.906831 32.3311L0.587831 30.201C0.523561 29.8215 0.573332 29.4313 0.730836 29.08L0.930818 28.6429L0.802827 28.236C0.753511 28.0783 0.724611 27.915 0.716828 27.75L0.550843 25.663C0.517945 25.3778 0.550077 25.0889 0.644837 24.818L0.944825 23.948L0.98282 23.448L0.751832 22.686C0.641329 22.315 0.644111 21.9195 0.759828 21.55L1.02884 20.697L1.04685 20.155L0.815827 19.3359C0.740675 19.0648 0.724994 18.7808 0.769837 18.5031L1.10284 16.5439L1.01383 15.712C1.00191 15.5984 0.999236 15.484 1.00583 15.37L1.05182 14.7159L0.76883 14.031C0.657436 13.7591 0.609877 13.4652 0.629823 13.172L0.701844 12.072C0.709918 11.9504 0.729667 11.8299 0.760835 11.712L0.913819 11.13L0.737824 10.545C0.662529 10.2947 0.639051 10.0317 0.668824 9.77197L0.76883 8.92798L0.636842 8.08398C0.599615 7.84699 0.607398 7.60508 0.659822 7.37097L1.08984 5.47095L1.00082 4.703C0.994825 4.648 0.989831 4.59199 0.988832 4.53699L0.865846 0.110962L4.71384 0.0229492L4.83585 4.33801L4.95483 5.35706C4.9809 5.5782 4.9684 5.80218 4.91785 6.01904L4.49884 7.84802L4.61383 8.59204C4.64129 8.76305 4.64498 8.93699 4.62482 9.10901L4.54285 9.81897L4.75882 10.543C4.85859 10.8813 4.86482 11.2404 4.77683 11.582L4.53384 12.509L4.50284 12.983L4.78583 13.671C4.89805 13.9455 4.94596 14.2421 4.92584 14.538L4.86084 15.47L4.96085 16.405C4.97949 16.5853 4.97343 16.7674 4.94284 16.946L4.64282 18.712L4.84284 19.405C4.8962 19.5946 4.92013 19.7912 4.91382 19.988L4.87683 21.088C4.87138 21.2636 4.84176 21.4375 4.78882 21.605L4.61984 22.1429L4.78183 22.679C4.85102 22.9054 4.8768 23.143 4.85782 23.379L4.77484 24.485C4.76247 24.6503 4.72886 24.8133 4.67484 24.97L4.43485 25.663L4.55985 27.3149L4.83383 28.186C4.97677 28.6375 4.94756 29.1258 4.75183 29.557L4.49484 30.125L4.94583 32.798C5.01583 33.1329 4.99548 33.4806 4.88684 33.8051L4.62082 34.605L4.71182 37.605L4.68582 38.51L4.91382 39.349C5.02502 39.7567 4.99868 40.1898 4.83884 40.5811L4.55084 41.281L4.58283 41.788L4.80884 42.74C4.90129 43.1243 4.87229 43.5279 4.72583 43.895L4.55985 44.317L4.71683 44.731C4.85124 45.0879 4.87629 45.4768 4.78882 45.848L4.56683 46.798L4.45483 48.512L4.69483 49.2679C4.74889 49.4369 4.77887 49.6127 4.78384 49.79L4.81882 50.9C4.8246 51.0716 4.80714 51.2432 4.76685 51.41L4.60483 52.084L4.75583 52.756C4.80585 52.9706 4.8167 53.1925 4.78784 53.411L4.69983 54.145L4.89984 54.89C4.99919 55.2538 4.98944 55.6387 4.87183 55.9969L4.65485 56.65L4.76383 57.288C4.80229 57.511 4.80229 57.739 4.76383 57.962L4.62982 58.678L4.79483 59.396C4.87976 59.771 4.85194 60.1627 4.71484 60.522L4.58084 60.8669L4.74982 61.2321C4.96242 61.6923 4.98576 62.2176 4.81482 62.6949L4.57584 63.354L4.66382 63.988C4.68396 64.1325 4.68801 64.2786 4.67584 64.424L4.59284 65.351L4.82684 67.321C4.83779 67.4006 4.84347 67.4808 4.84384 67.561L4.85184 68.668C4.86805 68.842 4.84586 69.0175 4.78684 69.182L4.60782 69.8459L4.74683 70.504C4.80147 70.7645 4.80147 71.0334 4.74683 71.2939L4.42783 73.11L4.52783 73.88L4.76483 74.889L4.97083 76.136C5.02673 76.488 4.98418 76.8486 4.84784 77.178L4.52582 77.949L4.50082 80.881L4.51282 81.697L4.76584 82.558C4.80952 82.7046 4.83503 82.8562 4.84183 83.009L4.89383 84.119C4.89916 84.2528 4.89145 84.3868 4.87082 84.519L4.68884 85.632C4.67745 85.6994 4.66242 85.7662 4.64383 85.832L4.44382 86.5649L4.54382 87.29C4.55262 87.3517 4.55829 87.4137 4.56082 87.476L4.59284 88.415L4.79883 89.359L4.98383 90.608C5.02586 90.9141 4.99539 91.2258 4.89484 91.5179L4.67883 92.137L4.79483 92.7369C4.85831 93.0597 4.83765 93.3936 4.73483 93.7061L4.46982 94.511L4.47583 95.153L4.79285 97.3L4.88083 98.526C4.89295 98.7011 4.88117 98.877 4.84583 99.049L4.68384 99.825L4.79584 100.6L4.88782 101.855C4.88782 101.926 4.88782 101.998 4.88782 102.066L4.84284 103.173C4.83559 103.349 4.80396 103.524 4.74884 103.692L4.54883 104.292L4.68384 104.882C4.74288 105.138 4.74901 105.403 4.70184 105.661L4.55283 106.479L4.64682 107.213L4.86585 108.246C4.94087 108.596 4.9159 108.961 4.79382 109.298L4.51685 110.068L4.52884 110.559L4.78882 111.426C4.8913 111.772 4.89547 112.14 4.80084 112.489L4.65784 113.008L4.85782 113.545C4.94927 113.797 4.98741 114.065 4.96982 114.332L4.89484 115.447C4.88347 115.621 4.84778 115.793 4.78882 115.958L4.60584 116.477L4.76184 116.991C4.85292 117.292 4.86835 117.611 4.80682 117.92L4.62982 118.815L4.66083 119.708C4.66083 119.779 4.66083 119.848 4.66083 119.919L4.50684 121.649L4.80682 122.249C4.95046 122.514 5.01959 122.813 5.00684 123.114L5.00684 124.226C5.00572 124.513 4.94046 124.796 4.81583 125.055L4.48984 125.734L4.50183 126.023L4.82983 126.823C4.99973 127.236 5.02094 127.696 4.88983 128.123L4.62683 128.979L4.61185 129.601L4.99085 131.706C5.02941 131.952 5.01988 132.202 4.96283 132.444L4.74683 133.362L4.72684 134.274C4.72323 134.416 4.70411 134.558 4.66983 134.696L4.46085 135.535L4.49182 136.22L4.69183 137.192C4.72186 137.333 4.73428 137.476 4.72882 137.62L4.70584 138.527L4.87982 139.439C4.95252 139.817 4.91004 140.209 4.75784 140.563L4.63483 140.849L4.79184 141.158C5.01457 141.599 5.05933 142.108 4.91684 142.581L4.71683 143.257L4.83084 143.914C4.87016 144.138 4.87016 144.366 4.83084 144.59L4.65183 145.565L4.61783 146.415L4.70282 147.401C4.71668 147.552 4.712 147.704 4.68884 147.854L4.48883 149.439L4.78882 150.115C4.89479 150.351 4.95216 150.607 4.95749 150.866C4.96282 151.125 4.91599 151.382 4.81983 151.623L4.54584 152.304L4.77783 153.927C4.81098 154.134 4.81098 154.344 4.77783 154.551L4.67783 155.179L4.90884 155.827C4.99401 156.065 5.03171 156.318 5.01984 156.571L4.96283 157.681C4.94868 157.946 4.88061 158.205 4.76282 158.442L4.63684 158.693L4.76282 158.944C4.98335 159.387 5.02492 159.897 4.87885 160.37L4.71582 160.901L4.88684 161.432C5.01888 161.845 5.00759 162.29 4.85483 162.696L4.52985 163.558L4.48084 164.115L4.65982 164.942C4.72242 165.233 4.71629 165.535 4.64185 165.823L4.42185 166.687L4.43082 167.34L4.63883 168.256L4.99182 170.656C5.01103 170.802 5.01405 170.949 5.00082 171.095L4.89484 172.211C4.88405 172.323 4.86399 172.434 4.83484 172.542L4.57483 173.478L4.45883 176.258L4.68784 177.083C4.76253 177.354 4.77786 177.638 4.73282 177.916L4.60483 178.671L4.76483 179.428C4.83298 179.751 4.81644 180.086 4.71683 180.401L4.45483 181.237V182.059L4.64282 184.104C4.65619 184.237 4.65619 184.371 4.64282 184.504L4.53684 185.504L4.59885 187.424L4.78082 188.414C4.83556 188.708 4.82119 189.011 4.73883 189.298L4.53882 189.985L4.63883 190.565L4.93283 191.584C5.05914 192.025 5.02367 192.497 4.83283 192.914L4.56482 193.504L4.65082 194.051C4.67298 194.2 4.67902 194.351 4.66882 194.501L4.61682 195.183L4.88483 195.896C4.99504 196.191 5.03145 196.509 4.99085 196.821L4.74085 198.821L4.82584 199.743C4.84306 199.927 4.8333 200.112 4.79685 200.293L4.60584 201.258L4.57483 202.091L4.67484 203.075C4.69294 203.256 4.68553 203.439 4.65283 203.618L4.51584 204.36L4.88883 206.303C4.914 206.453 4.92238 206.605 4.91382 206.757L4.83984 207.881C4.83062 208.012 4.80885 208.141 4.77484 208.268L4.54285 209.112L4.56784 209.944C4.57023 210.03 4.56722 210.116 4.55884 210.201L4.47385 211.001L4.66284 211.814C4.67983 211.886 4.69217 211.96 4.69983 212.034L4.95984 214.272C4.97909 214.422 4.97909 214.575 4.95984 214.725L4.83084 215.854L1.00684 215.415L1.10684 214.515L0.88083 212.576L0.646821 211.558C0.599449 211.351 0.586616 211.137 0.608827 210.925L0.708833 209.933L0.679841 208.941C0.671754 208.749 0.69471 208.557 0.747834 208.373L1.00385 207.44L1.04984 206.74L0.666841 204.806C0.613011 204.556 0.608248 204.299 0.652833 204.047L0.809846 203.193L0.724824 202.351C0.716095 202.263 0.713427 202.174 0.716828 202.086L0.758821 200.97C0.76251 200.869 0.773903 200.769 0.792848 200.67L0.960847 199.825L0.881837 198.98C0.869349 198.847 0.871342 198.713 0.887818 198.58L1.10382 196.804L0.855836 196.14C0.756419 195.877 0.716456 195.596 0.738832 195.316L0.806825 194.434L0.664826 193.541C0.606215 193.168 0.657655 192.786 0.812837 192.441L1.02683 191.97L0.900819 191.536C0.881844 191.47 0.866835 191.403 0.855836 191.336L0.655824 190.217C0.604657 189.927 0.620409 189.628 0.701844 189.345L0.901826 188.666L0.776826 187.995C0.760928 187.909 0.751245 187.822 0.747834 187.735L0.673829 185.448C0.672526 185.368 0.676217 185.288 0.684846 185.209L0.784822 184.29L0.604829 182.21L0.604829 180.944C0.604577 180.749 0.63427 180.556 0.692842 180.37L0.892823 179.734L0.761842 179.113C0.711501 178.877 0.706396 178.634 0.746827 178.397L0.863832 177.706L0.663819 177.006C0.611388 176.815 0.588463 176.617 0.595826 176.419L0.746827 173C0.756273 172.878 0.777387 172.756 0.809846 172.638L1.07285 171.685L1.14185 170.955L0.853822 168.981L0.625825 167.998C0.595436 167.867 0.579339 167.733 0.577821 167.598L0.562837 166.488C0.564603 166.32 0.58472 166.152 0.622834 165.988L0.794831 165.315L0.651826 164.648C0.611925 164.46 0.600127 164.267 0.616822 164.075L0.716828 162.966C0.732402 162.792 0.77142 162.621 0.832826 162.458L1.01483 161.974L0.863832 161.503C0.7449 161.128 0.742795 160.726 0.85782 160.35L0.97284 159.977L0.761842 159.558C0.621254 159.289 0.545897 158.99 0.541841 158.686Z" fill="black"/>
</g>
</svg>
