<svg width="75" height="38" viewBox="0 0 75 38" fill="none" xmlns="http://www.w3.org/2000/svg">
<g clip-path="url(#clip0_516_6576)">
<path d="M31.7538 26.1561L31.7407 26.1524L29.8724 25.5596C29.7546 25.5259 29.6446 25.4652 29.5385 25.3909L28.7118 24.8176C28.5926 24.7395 28.4811 24.6344 28.3997 24.5232L27.7851 23.703C27.7129 23.6091 27.6484 23.4881 27.6101 23.3746L26.861 21.4904C26.8004 21.3559 26.7737 21.2018 26.76 21.0514L26.6992 20.1258L26.4959 19.2034C26.4547 19.0012 26.4435 18.7929 26.4885 18.586L26.8798 16.5738C26.8798 16.5738 26.9185 16.4384 26.9379 16.3707L27.2714 15.3527C27.2908 15.285 27.314 15.2038 27.3595 15.1435L27.8592 14.1877C27.9164 14.0869 27.9696 13.9996 28.0491 13.9197L28.748 13.1088C28.8521 12.9921 28.9654 12.8926 29.1011 12.8142L30.0074 12.2677C30.0074 12.2677 30.1261 12.1991 30.19 12.1734L31.1361 11.7847C31.1361 11.7847 31.264 11.7334 31.3241 11.7213L32.3308 11.4671C32.4679 11.433 32.6273 11.42 32.7659 11.4303L33.8013 11.5213C33.9529 11.5354 34.0968 11.5765 34.233 11.6447L35.1716 12.0742C35.1716 12.0742 35.2724 12.1177 35.317 12.1598L36.1684 12.6962L37.0765 13.3806C37.2049 13.476 37.3125 13.5946 37.3901 13.7193L38.536 15.4533C38.6727 15.6681 38.7585 15.9124 38.7712 16.1651L38.8199 16.9847L39.1558 17.7399C39.231 17.9226 39.2761 18.1112 39.2742 18.3158L39.2755 19.4002C39.276 19.5468 39.2504 19.686 39.2117 19.8214L38.6381 21.679L38.478 22.5854C38.4244 22.9216 38.2437 23.2069 37.9962 23.4291L37.3031 24.0219L36.7107 24.6583C36.7107 24.6583 36.6274 24.7516 36.5766 24.781L35.8234 25.386C35.7478 25.4523 35.663 25.5013 35.5821 25.5368L34.7199 25.9787C34.4864 26.1024 34.233 26.1472 33.9689 26.1303L33.1676 26.0623L32.3851 26.1755C32.1918 26.2081 32.014 26.1866 31.8309 26.1342L31.7538 26.1561ZM30.9006 22.9531L32.2496 23.3827L32.8988 23.29C33.002 23.2756 33.1144 23.2784 33.2137 23.2775L33.7942 23.3263L34.1764 23.1279L34.7445 22.6751L35.333 22.0524C35.333 22.0524 35.4086 21.9861 35.4464 21.9529L35.8203 21.635L35.9035 21.1461C35.9035 21.1461 35.9344 21.0378 35.9499 20.9836L36.4756 19.2442L36.4788 18.6884L36.1612 17.9677C36.0914 17.8159 36.0424 17.6408 36.0366 17.4633L35.9961 16.7633L35.1775 15.5184L34.5484 15.0456L33.8647 14.6157L33.2154 14.3129L32.6349 14.2641L31.9494 14.4343L31.1952 14.746L30.5771 15.126L30.132 15.6432L29.7751 16.3469L29.5166 17.1519L29.3527 18.0719C29.3527 18.0719 29.3449 18.099 29.341 18.1125L29.1882 18.8452L29.3502 19.5654C29.3502 19.5654 29.3808 19.7059 29.3876 19.7811L29.4401 20.5872L30.0612 22.1271L30.4315 22.6139L30.9176 22.9433L30.9006 22.9531Z" fill="black"/>
<path d="M2.3501 18.7159C1.77447 18.5513 1.35425 17.9917 1.37149 17.3374L1.4017 16.2914C1.40892 16.1176 1.45004 15.9243 1.52267 15.7693L2.71035 13.1498L2.87338 12.3321C2.90435 12.2238 2.93146 12.129 2.96243 12.0207L3.69833 10.2388L3.94906 9.46087L4.08833 8.57781C4.08833 8.57781 4.11543 8.48302 4.12705 8.44239L4.37579 7.47344C4.37579 7.47344 4.41064 7.35156 4.42612 7.29739L5.47523 4.66757C5.6524 4.14692 6.09803 3.77627 6.62707 3.70781C7.15612 3.63934 7.6654 3.88749 7.94413 4.34806L8.90537 5.98525C8.90537 5.98525 8.97906 6.1235 9.00282 6.18889L10.0787 8.81104L10.5649 9.536L11.1146 10.4842C11.1698 10.5879 11.2212 10.7051 11.2595 10.8186L11.4914 11.6906L12.0838 12.8854L12.7494 12.6363L13.3161 12.1391C13.3161 12.1391 13.4256 12.0532 13.4803 12.0103L15.0604 10.9386C15.1491 10.876 15.2339 10.827 15.3148 10.7915L16.0089 10.492L16.5611 9.94669C16.7161 9.80057 16.9065 9.67922 17.1075 9.61951L17.7315 9.41704L18.1858 8.91703C18.3108 8.77697 18.475 8.64814 18.6498 8.58095L19.4118 8.24216L20.0725 7.71327C20.0725 7.71327 20.199 7.61758 20.2799 7.58212L21.1499 7.11307C21.6546 6.83258 22.2705 6.90611 22.694 7.30554C23.1176 7.70498 23.2544 8.3154 23.0395 8.8692L22.8129 9.46362L22.8703 10.1539C22.8975 10.4546 22.8254 10.7563 22.6656 11.0182L22.2564 11.7069L22.1059 12.3817L21.9982 13.3031C21.988 13.3881 21.974 13.4866 21.9377 13.5641L21.7054 14.3766L21.6039 15.2265C21.5913 15.3694 21.5526 15.5049 21.4877 15.6328L21.1638 16.4191L21.027 17.2443C21.027 17.2443 20.9921 17.3661 20.9728 17.4339L20.725 18.3005L20.5813 19.0505L20.6106 19.9378C20.6102 20.1867 20.5706 20.4244 20.4524 20.6397L20.0592 21.4208L19.8269 22.2334C19.6401 22.9856 18.8864 23.444 18.1538 23.2345C17.4328 22.9844 16.9989 22.2744 17.2157 21.5161L17.4907 20.5546C17.5047 20.4561 17.5449 20.365 17.572 20.2702L17.8678 19.681L17.8458 19.0155C17.8467 18.9132 17.8438 18.8245 17.8709 18.7297L18.0412 17.7383C18.0412 17.7383 18.076 17.6164 18.0915 17.5622L18.3393 16.6955L18.5047 15.82C18.5357 15.7116 18.5628 15.6168 18.5938 15.5085L18.9022 14.7763L18.9843 13.9941C18.9983 13.8956 19.0124 13.7971 19.0395 13.7023L19.2756 12.8762L19.3941 12.0165C19.4057 11.9759 19.4212 11.9217 19.4197 11.8773L19.5088 11.5659L19.454 11.6088C19.2874 11.7956 19.0801 11.9267 18.8452 12.006L18.1742 12.2244L17.6676 12.7094C17.5503 12.8224 17.407 12.9279 17.249 12.9853L16.457 13.3301L14.9486 14.3491L14.2554 14.9419C14.1251 15.0512 13.9856 15.1431 13.8277 15.2005L13.1151 15.4655L12.5276 15.986C12.2253 16.2512 11.8363 16.3743 11.4545 16.3238C11.0727 16.2732 10.7243 16.0564 10.51 15.7168L9.94098 14.8363C9.94098 14.8363 9.89493 14.7499 9.86729 14.698L8.96025 12.8713C8.96025 12.8713 8.89431 12.7059 8.86521 12.6097L8.64791 11.7858L7.72257 10.3201C7.67264 10.2472 7.62659 10.1608 7.59362 10.0781L6.90564 8.4751L6.75076 9.01678L6.62217 9.96149C6.59894 10.0427 6.57958 10.1104 6.55635 10.1917L5.87331 12.1351L5.5039 12.9817L5.337 13.8129C5.30602 13.9212 5.27505 14.0296 5.24407 14.1379L4.13289 16.5889L4.11084 17.3589C4.08878 18.129 3.45719 18.7541 2.69653 18.7417C2.58412 18.7389 2.46251 18.7188 2.35785 18.6888L2.3501 18.7159Z" fill="black"/>
<path d="M72.999 21.6301C71.9758 21.6451 71.4903 21.4624 70.3637 21.0963L70.7155 21.1529L69.7692 21.1461C69.4882 21.139 68.7619 20.858 68.4949 20.7524L68.7827 20.8347C68.5317 20.8215 67.7434 20.7573 67.5196 20.6493L67.4803 20.6381L66.6256 20.2619L66.8741 20.3329L66.0398 20.1823L67.5671 19.3445L67.2292 20.2294L67.2951 19.9992C67.1069 21.1027 66.8088 22.1454 66.5615 23.1587C66.0208 24.7034 65.6818 26.7305 64.9094 28.1943L65.0256 27.7881C64.8463 29.1577 64.5061 30.4961 64.1266 31.8232L63.2579 30.1099C63.9266 30.345 64.432 30.6067 65.0188 30.9796L64.2784 30.7972C65.9164 30.5624 66.9545 31.3865 68.3941 31.9446L68.067 31.8511C68.4658 31.8919 68.8651 32.0793 69.2575 32.1915C70.8073 33.2059 70.1508 34.9079 68.3212 34.5753C69.047 34.7096 67.893 34.6872 67.6628 34.6507C66.6686 34.3664 65.7532 33.8557 64.7797 33.548L65.3355 33.6337C64.8859 33.6223 64.0502 33.8229 63.6518 33.5332L63.6126 33.522L62.7811 33.0645L62.9788 33.1649L62.2224 32.8901C61.5576 32.6414 61.18 31.9328 61.3382 31.231C61.4886 30.5562 61.6653 29.8889 61.8681 29.2291L61.8294 29.3645C62.0785 28.1466 62.0932 27.1547 62.7426 26.022C63.0436 24.6725 64.2509 21.3408 64.7163 19.2179L65.0804 18.3405L65.092 18.2999C65.3525 17.6859 65.9982 17.3578 66.6078 17.5028L67.4305 17.6941L67.4697 17.7053C67.6214 17.7194 68.3861 18.1138 68.5222 18.182L68.1559 18.0773L69.0842 18.1962C69.309 18.2019 70.0199 18.537 70.2384 18.6141L69.8382 18.529L70.7898 18.5667L70.8591 18.5718C71.5902 18.7369 72.2957 19.0412 73.0012 19.3455C73.9273 19.9179 74.3807 21.3513 72.9729 21.6226L72.999 21.6301Z" fill="black"/>
<path d="M65.208 25.0716C65.4961 24.5094 65.829 24.7804 66.2341 24.7497L66.1386 24.737C66.5582 24.7545 66.9957 24.6598 67.4012 24.7758C67.4536 24.7907 68.38 25.1142 68.4677 25.1539L68.1014 25.0492C68.8374 25.0985 69.6901 25.2837 70.3603 25.5632C70.7625 25.8394 71.1108 25.6606 71.0301 26.4872C70.9998 27.1377 70.3399 28.6044 69.6804 28.3865L69.2211 28.2112L69.4042 28.2636C68.5607 28.0956 68.5253 28.0709 67.6231 27.9594C67.3983 27.9537 66.6714 27.5262 66.4568 27.4355L66.8793 27.5417C66.3759 27.471 65.8332 27.3891 65.3453 27.2642C64.6141 27.0991 64.8831 25.5646 65.2119 25.058L65.208 25.0716Z" fill="black"/>
<path d="M44.1349 29.7255C43.8465 29.101 43.9532 27.8864 44.0383 27.5884C44.1493 26.1113 44.5437 24.5834 45.0642 23.2087L44.981 23.6977C45.0138 23.3848 44.8852 22.4984 45.0135 22.1981L45.3039 21.1825L45.2526 21.4608L45.3521 20.4199C45.3394 20.1672 45.7219 19.3244 45.7785 19.0769L45.7398 19.2123C45.9034 18.5413 46.0538 17.8665 46.1912 17.188L46.1554 17.4122L46.2103 16.3292C46.2494 15.5493 46.894 14.9279 47.6639 14.9576C47.707 14.9553 48.757 15.0944 48.8432 15.0897L48.6053 15.0803C48.9387 15.1024 49.7497 14.9387 50.0612 15.0864L50.9993 15.3693L50.5783 15.3075C50.8946 15.3394 51.7463 15.2313 52.0318 15.3715L52.9752 15.6852C53.1191 15.7263 53.9021 16.1553 54.0645 16.231C54.6251 16.5964 55.629 18.0846 55.9136 18.7227C55.9136 18.7227 56.16 19.6428 56.1561 19.6563C56.2734 19.9389 56.1497 20.7678 56.1638 21.0648C56.0898 21.571 55.8765 22.5647 55.5694 22.9457C55.2231 23.3154 54.7698 24.1087 54.2553 24.2253C54.0543 24.285 53.2308 24.5916 53.0413 24.6106C52.0302 24.7317 50.9504 24.9943 49.9324 25.0402L48.947 25.0221L48.8816 25.0034C48.4358 24.9785 48.0273 24.7738 47.5879 24.6774C45.8749 23.6896 46.4543 22.0095 48.4079 22.3044L48.1855 22.2408C49.0387 22.1771 49.0924 22.2364 49.9771 22.211L49.8347 22.2143C50.8211 22.1301 51.5352 21.9094 52.6834 21.7543L52.4392 21.8163L53.3999 21.4757L52.7416 21.9467L53.3881 21.1208L53.1131 21.6867L53.3565 20.687L53.3028 21.0232L53.3306 20.035L53.3753 20.4726L53.1289 19.5525L53.3699 20.0462C52.955 19.5174 52.574 18.969 52.1969 18.4071L52.7174 18.8635L51.8297 18.4046L52.0182 18.4878L51.0786 18.1606L51.5258 18.2299C51.5258 18.2299 50.5195 18.2351 50.5065 18.2314C50.2085 18.2341 49.456 17.9457 49.1551 17.8597L49.6193 17.9191L48.6353 17.9454L48.596 17.9342C48.4628 17.9547 47.5291 17.8049 47.3813 17.7773L48.9865 16.4198L48.9016 17.5088C48.6888 18.6492 48.3665 19.8755 47.9181 20.9485L48.0018 20.6062C47.9699 20.8168 47.8922 21.7321 47.8249 21.918L47.4953 22.9224L47.5591 22.5012C47.5447 22.8486 47.6133 23.7471 47.468 24.0572C47.0846 25.0023 46.83 25.7938 46.5987 26.8996L46.6205 26.7739C46.5378 27.4095 46.4339 28.3173 46.1773 28.9178L46.1952 28.8057C46.0984 29.1443 45.9716 29.4889 45.7755 29.8283C45.4055 30.5283 44.327 30.4396 44.1034 29.6872L44.1349 29.7255Z" fill="black"/>
<path d="M51.3057 23.4551C51.924 23.4708 51.9187 23.8355 52.117 24.0826L52.6061 24.8963L52.4917 24.7025C52.623 24.8865 53.2041 25.4775 53.2715 25.6872C53.7302 26.7558 53.9421 27.5489 54.331 28.4658L54.0707 28.0398C54.4133 28.4747 54.897 28.862 55.0362 29.4145L55.2371 30.3948L55.0591 29.9777C55.8108 30.7639 54.6285 31.9787 53.7245 32.0718C52.9983 32.1864 52.9643 31.8105 52.7529 31.5596C52.5547 31.3125 52.4106 30.4802 52.301 30.1706L52.6195 30.789C52.3006 30.4195 51.8668 30.105 51.6744 29.6398C51.2739 28.7636 51.0284 27.7412 50.735 26.837L50.9416 27.2037C50.8916 27.1308 50.3463 26.3157 50.3148 26.2774L50.278 26.2083L49.8906 25.3357C49.7941 25.0298 49.498 24.828 49.8254 24.277C50.1527 23.7261 50.7306 23.4372 51.3096 23.4416L51.3057 23.4551Z" fill="black"/>
</g>
<defs>
<clipPath id="clip0_516_6576">
<rect width="71" height="19" fill="white" transform="translate(6.0166 0.00284576) rotate(15.9563)"/>
</clipPath>
</defs>
</svg>
