<svg width="68" height="14" viewBox="0 0 68 14" fill="none" xmlns="http://www.w3.org/2000/svg">
<g clip-path="url(#clip0_58_3263)">
<path d="M4.63283 14C4.63283 14 4.54275 14 4.50414 14L3.61618 13.9076L1.67296 13.4722C0.978027 13.2874 0.566218 12.5749 0.746385 11.8756C0.926551 11.163 1.62148 10.7408 2.30354 10.9255L3.98938 11.3082L4.55562 11.361L4.95456 11.2818L5.26342 11.0443L5.45645 10.7672L5.50793 10.4373L5.43071 9.94908L5.00604 9.05181L4.63283 8.94625C4.45267 8.89347 4.28537 8.8143 4.13094 8.68235L3.5647 8.20732L2.93412 7.93023C2.93412 7.93023 2.83117 7.87744 2.77969 7.83786L1.27402 6.87462C1.0295 6.71628 0.849337 6.47876 0.746385 6.18847L0.476135 5.39677L0.115802 4.63145C-1.95783e-05 4.36755 -0.0386267 4.07726 0.0128495 3.78696L0.205885 2.86331C0.244492 2.70497 0.295968 2.54662 0.386052 2.41467L0.887944 1.60977C1.0295 1.38546 1.22254 1.21392 1.46705 1.10836L2.30354 0.738896L3.23011 0.409018C3.32019 0.382628 3.42314 0.356238 3.5261 0.343043L4.41406 0.250677C5.13473 0.158312 5.75244 0.712506 5.81679 1.43824C5.88113 2.16397 5.36637 2.81053 4.65857 2.8765L3.92504 2.94248L2.84404 3.35153L2.67674 3.60223L2.62526 3.85294L2.8183 4.27518C2.8183 4.27518 2.85691 4.36755 2.86978 4.42033L3.01134 4.84257L4.02799 5.48913L4.73579 5.80581C4.85161 5.85859 4.95456 5.92457 5.04464 6.00374L5.53367 6.41279L6.15138 6.58432C6.48598 6.67669 6.76909 6.90101 6.94926 7.20449L7.41255 8.03579L7.82436 8.94625C7.87583 9.05181 7.90157 9.15737 7.92731 9.26293L8.08174 10.1338C8.10747 10.279 8.10747 10.4241 8.08174 10.5692L7.95305 11.4269C7.92731 11.638 7.83722 11.836 7.7214 12.0075L7.23238 12.7069C7.15517 12.8124 7.06508 12.9048 6.975 12.9839L6.28007 13.5249C6.12564 13.6437 5.94548 13.7229 5.75244 13.7625L4.87735 13.934C4.80013 13.9472 4.71005 13.9604 4.63283 13.9604V14Z" fill="black"/>
<path d="M41.3353 12.6805H40.473C40.3443 12.6805 40.2028 12.6541 40.087 12.6013L39.2505 12.3242C38.9802 12.2319 38.7615 12.0603 38.5942 11.8228L38.1695 11.1895L37.6418 10.6881C37.5003 10.5561 37.3973 10.3978 37.3201 10.213L36.6638 8.6692C36.6123 8.56364 36.5866 8.45808 36.5608 8.33933L36.4064 7.48165C36.4064 7.48165 36.4064 7.41567 36.3936 7.37608L36.3035 6.50521C36.3035 6.43923 36.3035 6.36006 36.3035 6.29409L36.3549 5.39682C36.3549 5.30445 36.3678 5.22528 36.3936 5.14611L36.6123 4.26204C36.6381 4.14329 36.6895 4.02453 36.7539 3.91897L37.2172 3.12726C37.3073 2.98212 37.4231 2.85016 37.5646 2.7446L38.2853 2.20361C38.3496 2.15082 38.4269 2.11124 38.4912 2.07165L39.2633 1.70219C39.2633 1.70219 39.3792 1.64941 39.4306 1.63622L40.2671 1.37231C40.4087 1.33273 40.5503 1.30634 40.6918 1.31953L41.6827 1.35912C41.8629 1.35912 42.0302 1.4119 42.1846 1.49107L43.0726 1.92651C43.1498 1.96609 43.227 2.00568 43.2914 2.07165L44.0506 2.66543C44.0506 2.66543 44.115 2.71821 44.1536 2.7578L44.8614 3.44394C44.9643 3.53631 45.0415 3.65507 45.1059 3.77382L46.0582 5.48918C46.174 5.70031 46.2384 5.93782 46.2384 6.17533V6.99343L46.4443 7.73235C46.5086 7.96986 46.5215 8.23377 46.4443 8.47128L46.1869 9.39493C46.1354 9.57967 46.0453 9.7512 45.9166 9.89635L44.0764 11.9812C43.8576 12.2319 43.5487 12.3902 43.227 12.4298L42.3004 12.5222L41.5283 12.6673C41.464 12.6673 41.3867 12.6805 41.3095 12.6805H41.3353ZM40.6918 10.0415H41.2323L42.5063 9.86996L43.8061 8.4053L43.8833 8.1414L43.716 7.58721C43.6774 7.45525 43.6646 7.3233 43.6646 7.19135V6.5316L42.9439 5.22528L42.442 4.73706L41.8372 4.26204L41.3095 3.99814L40.8076 3.97175L40.2671 4.14329L39.688 4.42038L39.2762 4.72387L39.0446 5.11972L38.903 5.68711L38.8644 6.34687L39.0446 7.70596L39.5722 8.9463L39.9969 9.34215C40.0612 9.40813 40.1256 9.4741 40.177 9.55328L40.4344 9.93593L40.6661 10.0151L40.6918 10.0415Z" fill="black"/>
<path d="M18.5184 3.41753C17.4889 3.52309 17.0771 3.28558 15.906 2.99529L16.4722 3.02168L15.5585 3.21961C16.2149 3.00848 14.8765 3.5099 14.8894 3.5099L15.2368 3.29878C15.1467 3.36475 14.4904 3.97173 14.4132 4.01131L13.6668 4.52592C14.2202 4.0509 13.152 5.05372 13.1649 5.05372L13.4094 4.75024L12.9461 5.59472L13.1263 4.86899C13.1263 5.09331 13.2035 5.9246 13.1649 6.12253V6.17531L12.9847 7.11216L12.959 6.4524C13.1392 7.04618 13.2936 7.65316 13.4866 8.24694L13.3708 7.96984C13.9242 8.95947 14.1816 9.35533 14.7993 10.0547C14.336 9.60603 15.3912 10.5957 15.3784 10.5693L14.6577 10.2394C15.4041 10.3318 15.8931 10.4109 16.6395 10.6221H16.099C16.1505 10.6221 17.0771 10.4373 17.1157 10.4373L18.0423 10.345L17.7077 10.4241C18.0037 10.3186 18.2868 10.1866 18.6085 10.1338L18.4412 10.2262C18.7501 10.1206 19.0718 10.0547 19.4707 10.1206C20.6804 10.3582 20.4488 11.7964 19.6766 12.3902C19.2391 12.6145 18.8144 12.9048 18.3254 12.9708C17.6948 13.0368 17.2187 13.1291 16.6009 13.2611C16.2406 13.3798 15.5199 13.1027 15.1596 13.05L15.3012 13.0763C14.8379 12.9972 14.0014 13.05 13.6539 12.6673C13.5381 12.5353 12.8689 12.0207 12.7788 11.8756C12.0453 11.0575 11.3761 10.0811 10.9257 9.09142C10.7198 8.26013 10.2565 7.40245 10.3595 6.54477L10.5782 5.60792L10.5525 5.95099C10.5782 5.48916 10.4238 4.63148 10.7069 4.23563C10.8742 4.01131 11.2217 3.27239 11.4405 3.10085L12.1354 2.46748L12.174 2.4279C12.2383 2.34873 12.9847 1.91329 13.0748 1.83412L12.959 1.92649L13.6797 1.33271L13.7183 1.30632C13.9113 1.09519 14.6706 0.936853 14.9022 0.818097C15.0309 0.738927 15.8674 0.633366 16.0218 0.593781C16.8068 0.527805 17.5404 0.976438 18.2868 1.17436C19.2777 1.49105 19.8311 3.08765 18.5313 3.41753H18.5184Z" fill="black"/>
<path d="M52.2612 0.184755C52.7502 0.514632 52.9046 0.923681 52.9046 1.42509C52.8274 2.42792 52.6858 3.44394 52.57 4.42038V4.11689C52.8016 5.4496 52.4413 6.75592 52.4799 8.11501V7.89069C52.57 8.43169 52.6472 9.38174 52.6215 9.93593L51.3603 8.56364L52.1968 8.61642C52.8274 8.70879 53.458 8.85394 54.1014 8.93311H53.7926L54.7191 8.85394C55.1309 8.85394 55.5556 8.82755 55.9674 8.86713C56.8554 9.02547 57.4216 10.4769 56.5594 11.1103C56.1991 11.4138 55.8773 11.4798 55.5685 11.4666C56.1347 11.493 55.1181 11.5061 54.8607 11.5193H54.9636C54.732 11.5193 53.9599 11.6909 53.7411 11.6249C52.673 11.5193 52.0552 11.3742 51.1673 11.3346C50.4595 11.2818 49.9061 10.6749 49.9061 9.96232V9.06506V9.23659C49.6616 7.8643 49.8675 6.39965 50.0863 5.02736V5.31765C49.9061 3.94536 50.3951 2.57307 50.5624 1.22717L50.5882 1.6758C50.2665 0.725754 51.296 -0.42222 52.2483 0.211145L52.2612 0.184755Z" fill="black"/>
<path d="M61.8744 0.791684C62.402 1.04239 62.6208 1.42505 62.6851 1.92646C62.7494 2.92929 62.7623 3.95851 62.7752 4.93495L62.7494 4.63146C63.1613 5.91138 62.994 7.27048 63.2385 8.58999L63.1999 8.36567C63.3672 8.89347 63.5731 9.81713 63.6245 10.3581L62.1703 9.18377L63.0068 9.1046C63.6503 9.1046 64.2937 9.14418 64.9372 9.13099L64.6283 9.17057L65.5292 8.95945C65.941 8.89347 66.3528 8.8143 66.7646 8.78791C67.6654 8.80111 68.4247 10.1602 67.6783 10.9255C67.3694 11.2818 67.0606 11.3873 66.7517 11.4269C67.2793 11.3742 66.4171 11.5061 66.0697 11.5853L66.1726 11.5589C65.941 11.5985 65.2074 11.8756 64.9758 11.8492C63.9077 11.902 63.2642 11.8492 62.3891 11.9547C61.6813 12.0207 61.0507 11.4929 60.9349 10.7804L60.8062 9.8963L60.8448 10.0546C60.4073 8.73513 60.3944 7.25728 60.4202 5.8586L60.4588 6.14889C60.0856 4.81619 60.3687 3.39112 60.3429 2.03202L60.433 2.46746C59.9826 1.58339 60.832 0.29027 61.8744 0.765294V0.791684Z" fill="black"/>
<path d="M25.0046 12.5749C24.5156 12.0471 24.4126 11.4005 24.3483 10.7144V10.8068C24.0651 9.54003 24.0394 8.14135 24.1552 6.84823L24.2067 7.34964C24.1424 7.07255 23.8206 6.36001 23.8464 6.08291C23.8464 6.05652 23.8464 4.52589 23.8721 5.39677C23.8592 5.17245 23.6276 4.40714 23.6662 4.18282V4.13004L23.7305 3.20638V3.36472L23.6919 2.46746C23.6533 1.78131 24.1424 1.20073 24.7858 1.09517L25.6094 0.936825L25.4164 0.989606C25.7639 0.89724 26.4459 0.527777 26.8062 0.606948L27.7199 0.672923H27.514C27.9001 0.672923 28.6594 0.488192 29.0197 0.672923L29.8691 1.0028C29.3929 0.857655 30.667 1.22712 30.6412 1.21392C31.2075 1.31948 31.5935 2.05841 31.941 2.45426C32.2241 2.75775 32.3013 3.56265 32.4171 3.94531C32.5973 4.52589 32.1083 5.22523 31.9153 5.73984C31.8638 5.8586 31.4134 6.53155 31.3361 6.6635C31.1817 6.95379 30.5125 7.32325 30.2809 7.53437C29.187 8.12815 28.0288 8.66915 26.7805 8.68235C25.8282 8.47123 24.966 7.32325 25.9955 6.55794C26.3301 6.34682 26.6518 6.26764 26.9735 6.21486L26.5875 6.24125C27.5012 5.87179 27.8872 5.80582 28.9554 5.22523L28.7495 5.34399L29.483 4.78979L29.1484 5.14606L29.6117 4.39394C29.3028 5.01411 29.9206 3.66821 29.8948 3.68141L29.8176 4.57867L29.586 3.64182L29.8305 4.16962L29.2514 3.40431L29.9592 3.89253C29.4444 3.77377 28.5693 3.48348 28.0803 3.27236L28.6723 3.35153L27.7586 3.4307C27.617 3.4307 26.7934 3.37792 26.6389 3.36472L27.1666 3.29875C26.4717 3.53626 25.9955 3.68141 25.262 3.77377L26.3558 2.40148C26.3816 3.17999 26.3558 3.61543 26.2786 4.38075L26.2657 4.02448L26.4202 4.93494V4.97453C26.4588 5.13287 26.4073 5.95096 26.4073 6.13569L26.343 5.70026L26.6132 6.59752C26.7548 6.9274 26.6003 7.66633 26.5746 8.02259C26.536 8.5504 26.5746 9.72476 26.7162 10.4505C26.7805 11.2818 26.8062 11.4797 26.5875 12.311C26.3816 12.9839 25.4807 13.1555 25.0303 12.6277L25.0046 12.5749Z" fill="black"/>
<path d="M29.084 6.53155C29.5987 6.28084 29.7403 6.68989 30.0749 6.9142L30.8084 7.56076L30.654 7.42881L31.4776 7.98301C32.1211 8.57679 32.5329 9.36849 33.0219 10.0678C33.1506 10.279 33.4466 10.4109 33.0476 11.0047C32.7645 11.4797 32.3398 11.8228 31.8637 11.9943C31.1688 12.245 31.1945 11.8888 30.9757 11.7304C30.6283 11.361 29.9333 10.3713 29.6116 9.96227L29.8819 10.2262C29.8046 10.1734 29.0582 9.52683 29.0068 9.48725C28.7751 9.22335 28.2475 8.57679 28.0287 8.31288C27.5397 7.75869 28.5435 6.71628 29.084 6.53155Z" fill="black"/>
</g>
<defs>
<clipPath id="clip0_58_3263">
<rect width="68" height="14" fill="white"/>
</clipPath>
</defs>
</svg>
