<svg width="78" height="77" viewBox="0 0 78 77" fill="none" xmlns="http://www.w3.org/2000/svg">
<g clip-path="url(#clip0_511_6033)">
<mask id="mask0_511_6033" style="mask-type:luminance" maskUnits="userSpaceOnUse" x="11" y="3" width="63" height="66">
<path d="M63.6131 3.66674L27.23 40.9215L12.2343 57.3128L11.4562 63.0368L19.5199 68.3473L46.4675 40.4793L73.259 12.2506L67.7791 12.4552L63.583 8.63291L63.6131 3.66674Z" fill="white"/>
</mask>
<g mask="url(#mask0_511_6033)">
<path d="M88.9829 -2.96986L21.0791 -22.0593L-5.94645 74.0741L61.9573 93.1636L88.9829 -2.96986Z" fill="white"/>
</g>
<path d="M12.2582 56.2071L13.9602 60.1L13.847 64.2939L18.3995 64.0623L19.0765 68.7671L9.17561 72.9995L5.81069 71.1976L10.5801 58.1525L12.2582 56.2071Z" fill="white"/>
<path d="M12.1908 56.2743C12.2692 56.0865 12.3534 55.9014 12.4432 55.7204C12.4589 55.6845 12.4811 55.6518 12.5089 55.6242L12.5823 55.556L13.4448 54.7525L13.3118 54.902L13.6102 54.3795C13.627 54.3503 13.6473 54.3233 13.6706 54.299L13.712 54.2556C13.9801 53.9849 14.2418 53.7094 14.4911 53.4208C14.5068 53.4003 14.5246 53.3817 14.5443 53.3651L14.5755 53.3396L15.045 52.9695L14.9069 53.1142L15.2593 52.6336C15.2906 52.5919 15.3268 52.5541 15.367 52.5208L15.3767 52.5107L15.8296 52.1247L15.793 52.1631L16.2139 51.7439L16.1033 51.8815L16.4252 51.3692C16.4532 51.3245 16.4859 51.283 16.5228 51.2453L16.5317 51.2359L16.9492 50.8161L16.9906 50.7727L16.9954 50.7676L17.4505 50.3837L17.3269 50.5132L17.6823 50.0396C17.7219 49.9857 17.7683 49.937 17.8204 49.895L17.8266 49.8885L18.2953 49.5177L18.1573 49.6623L18.5096 49.1818C18.5383 49.1457 18.5702 49.1123 18.6049 49.082L19.0397 48.6802L18.9382 48.7865C19.1739 48.4586 19.419 48.1364 19.6733 47.8198C19.7234 47.7576 19.7825 47.7031 19.8485 47.658L20.3491 47.3191L20.2526 47.397L20.6824 46.9917L20.6058 47.072C20.8507 46.7769 21.0829 46.471 21.3023 46.1543C21.3389 46.103 21.3826 46.0572 21.4321 46.0183L21.446 46.0038L21.9119 45.6317L21.8309 45.7064C22.1034 45.4026 22.388 45.1118 22.6848 44.8339L22.6033 44.9192L22.9622 44.4463C23.008 44.386 23.0623 44.3326 23.1233 44.2877L23.1288 44.2819L23.6165 43.9305L23.4409 44.1043C23.6742 43.7976 23.8954 43.4835 24.1 43.1563C24.1422 43.0925 24.1943 43.0359 24.2545 42.9887L24.269 42.9735L24.7356 42.602L24.6017 42.7423L24.9634 42.2693L25 42.231L25.0145 42.2158C25.2833 41.9121 25.5632 41.619 25.8541 41.3365L25.8583 41.3322L25.9165 41.2813L26.3809 40.905L26.238 41.0547L26.591 40.572C26.6547 40.4852 26.7353 40.4121 26.8279 40.3572L26.8341 40.3507L27.3679 40.0393L27.1632 40.2073C27.4248 39.8986 27.6953 39.5975 27.9747 39.3039L27.8663 39.4493L28.1753 38.9273C28.2306 38.8312 28.3052 38.7476 28.3945 38.6818L28.4007 38.6753L28.8904 38.3231L28.7657 38.4335C29.0337 38.1364 29.3067 37.8442 29.5849 37.5568L29.5331 37.611L29.9021 37.1464L29.9483 37.0979L30.3626 36.6641C30.3905 36.6337 30.4211 36.606 30.4541 36.5813L30.461 36.5741L30.9384 36.2116L30.8373 36.3016L31.246 35.8735L31.1915 35.9307L31.5561 35.459L31.5061 35.5288L31.8301 35.0157C31.9075 34.8922 32.0162 34.7913 32.1451 34.7234L32.1507 34.7176L32.7047 34.4269L32.4375 34.6445C32.8141 34.1531 33.2206 33.6853 33.6547 33.2438L33.5776 33.3347L33.9285 32.8499C33.9916 32.7633 34.0708 32.6897 34.1618 32.6331L34.1687 32.6259L34.6916 32.3041L34.4267 32.5598L34.7573 32.0557C34.8067 31.9797 34.8682 31.9124 34.9394 31.8563L34.9463 31.8491L35.4201 31.4818L35.2862 31.6249L35.6624 31.1643C35.6852 31.1368 35.7099 31.1109 35.7363 31.0869L35.7439 31.079L36.178 30.675L36.0478 30.8273L36.3843 30.3301C36.4365 30.2528 36.5014 30.1848 36.5762 30.1291L36.5824 30.1226L37.0642 29.7628L36.8068 30.07L37.0805 29.5185C37.1533 29.3655 37.2703 29.2379 37.4164 29.1522L37.9445 28.8409L37.766 28.9786L38.1813 28.5596L38.1288 28.6145L38.5073 28.1603L38.5121 28.1552C38.5342 28.1321 38.5591 28.1061 38.5812 28.0829C38.8669 27.8184 39.1485 27.5496 39.426 27.2763L39.2662 27.49L39.5548 26.9459C39.5994 26.8622 39.6573 26.7863 39.7264 26.7213L40.1604 26.3146C40.1799 26.2956 40.2005 26.2779 40.2222 26.2615L40.6974 25.8941L40.6273 25.9544L41.4887 25.1305L41.4266 25.1956L41.8101 24.7447L41.7737 24.7915L42.1276 24.3152C42.1509 24.2878 42.1758 24.2617 42.2021 24.2371L42.6102 23.8098L42.5277 23.9107L42.8707 23.4212C42.8957 23.3855 42.923 23.3516 42.9525 23.3196L43.3592 22.8936C43.3863 22.8655 43.415 22.8389 43.445 22.8139L43.911 22.4432L43.7563 22.6051L44.1053 22.1296C44.1564 22.0616 44.2169 22.0011 44.285 21.9501L44.7647 21.5925L44.7168 21.6311L45.1675 21.2445L44.9994 21.4393L45.3193 20.9277C45.3448 20.8869 45.3737 20.8484 45.4057 20.8125L45.7986 20.3707C45.8568 20.3059 45.9241 20.25 45.9985 20.2048L46.5215 19.8858L46.2962 20.0855L46.6637 19.6166C46.7044 19.5635 46.7507 19.5151 46.8018 19.472L47.2741 19.1005L47.0988 19.2841L47.4366 18.7855C47.4775 18.7264 47.5254 18.6723 47.5792 18.6246L48.0306 18.2344L47.9871 18.2799L48.4052 17.8594L48.3472 17.9202L49.109 16.9776C49.3756 16.6991 49.626 16.4055 49.8588 16.0982C49.8799 16.0723 49.903 16.0481 49.9278 16.0259L49.941 16.0122L50.375 15.6068C50.4194 15.5654 50.4681 15.529 50.5203 15.4981L51.0505 15.1832L50.8389 15.3613L51.2237 14.9076L51.1634 14.9882L51.5053 14.4853C51.5376 14.4376 51.5744 14.3931 51.6154 14.3526L52.0393 13.9362C52.0586 13.916 52.0793 13.8943 52.1037 13.8789L52.5724 13.5053L52.3632 13.7548L52.6598 13.2168C52.7302 13.0909 52.8314 12.9849 52.954 12.9088L53.4776 12.5877L53.2738 12.7649L53.658 12.3119C53.6945 12.2684 53.7352 12.2286 53.7797 12.1932L54.2498 11.8195L54.0195 12.1042L54.2978 11.5405C54.3388 11.4568 54.3934 11.3805 54.4595 11.3147L54.4692 11.3046C54.7614 11.0178 55.0634 10.7416 55.375 10.4761L55.2818 10.5737L55.6608 10.1131C55.7067 10.0575 55.7595 10.008 55.8179 9.96587L56.3056 9.61587L56.1416 9.7717C56.5075 9.32763 56.8699 8.82211 57.2865 8.36556L57.3059 8.34531C57.3293 8.32073 57.3549 8.29397 57.3785 8.27645L57.8412 7.88884L57.7722 7.96115L58.183 7.5309L58.1198 7.60873L58.4684 7.11768C58.4941 7.08268 58.5224 7.04964 58.5531 7.01884L58.972 6.60325C58.9931 6.58174 59.0155 6.56162 59.0392 6.543C59.3562 6.28346 59.6756 6.03092 59.9976 5.7854L59.8285 5.96257L60.1805 5.46932L60.1916 5.45775C60.2375 5.39166 60.2934 5.33312 60.3573 5.2842L60.8497 4.9249L60.6667 5.11652L61.0202 4.62465L61.0443 4.59227C61.0762 4.54805 61.1141 4.50839 61.1568 4.4744L61.6255 4.1008L61.4822 4.26534L61.8394 3.77692L61.8867 3.71148L61.9046 3.69268L62.3305 3.26985L62.3995 3.19754C62.419 3.17826 62.441 3.16159 62.4648 3.14794L63.0024 2.84841L62.8126 3.04727L63.1902 2.55767L63.2707 2.46176C63.2779 2.4525 63.286 2.44401 63.2949 2.43645C63.4554 2.31323 63.6239 2.19761 63.7945 2.08405C63.8965 2.01613 64.0196 1.98709 64.1412 2.00221C64.2629 2.01732 64.3751 2.07559 64.4574 2.16642C64.5397 2.25725 64.5867 2.37461 64.5899 2.49716C64.593 2.6197 64.552 2.7393 64.4744 2.83421C64.3479 2.98989 64.2165 3.14779 64.0799 3.29662L64.1866 3.16899L63.9216 3.72741C63.899 3.77564 63.8659 3.81821 63.8247 3.85199L63.731 3.92699L63.2505 4.31289L63.3836 4.19526L63.0149 4.67263L63.0836 4.58477L62.7789 5.10946C62.7534 5.15341 62.7217 5.19344 62.6847 5.22831L62.6378 5.27749L62.196 5.68512L62.3324 5.52639L62.0005 6.03898C61.9589 6.1044 61.9064 6.16229 61.8454 6.21016L61.8176 6.23061L61.3382 6.60234L61.5156 6.41649L61.1693 6.91527C61.1222 6.98251 61.0652 7.04224 61.0002 7.09244C60.6857 7.33495 60.3745 7.58164 60.0668 7.83248L60.1382 7.76931L59.7124 8.19213L59.804 8.08889L59.451 8.57297C59.4289 8.59611 59.4064 8.62987 59.387 8.65012L58.9762 9.08037C58.9545 9.10568 58.9314 9.12982 58.9072 9.15269L58.4459 9.54168L58.5363 9.44695C58.1508 9.86955 57.8243 10.3375 57.4356 10.8082L57.4294 10.8147C57.3828 10.871 57.3293 10.9212 57.2702 10.9641L56.7833 11.3148L56.9404 11.1676L56.5586 11.6325L56.5524 11.639C56.5261 11.6719 56.497 11.7024 56.4654 11.7302C56.1723 11.9802 55.8889 12.2409 55.6151 12.5121L55.7935 12.2775L55.5159 12.8418C55.4611 12.9529 55.3825 13.0506 55.2856 13.1279L54.8128 13.5059L54.9338 13.3878L54.5526 13.8449C54.4942 13.9142 54.4251 13.9738 54.348 14.0215L53.8251 14.3433L54.1192 14.0353L53.8233 14.5725C53.7699 14.6681 53.6987 14.7526 53.6134 14.8213L53.1468 15.197L53.2099 15.1397L52.7874 15.5575L52.8975 15.4248L52.5599 15.9319C52.5428 15.9584 52.5208 15.9858 52.4995 16.0125L52.1147 16.4662C52.0544 16.5368 51.9829 16.5969 51.9031 16.6443L51.3737 16.9599L51.5196 16.8505L51.0878 17.2579L51.1727 17.1689C50.9273 17.4932 50.6644 17.8038 50.3852 18.0994L49.6559 19.008C49.6372 19.0275 49.6158 19.0499 49.5979 19.0687L49.1805 19.4899C49.166 19.5051 49.1501 19.5217 49.1363 19.5362L48.6871 19.9284L48.8357 19.751L48.4972 20.2504C48.4477 20.3195 48.3886 20.3813 48.3219 20.434L47.851 20.807L47.9891 20.6623L47.6223 21.1333C47.5593 21.2124 47.4832 21.2799 47.3971 21.333L46.8798 21.6547L47.0713 21.4947L46.6792 21.9372L46.7649 21.8228L46.4458 22.3351C46.4 22.4082 46.3436 22.474 46.2785 22.5306L45.8292 22.9172C45.8153 22.9317 45.7995 22.9483 45.7806 22.9565L45.3009 23.3141L45.4799 23.1353L45.1289 23.6144C45.0839 23.6747 45.0317 23.7293 44.9735 23.7771L44.5076 24.1478L44.5935 24.0694L44.1861 24.4961L44.2679 24.3959L43.9271 24.8861C43.9021 24.9217 43.8745 24.9554 43.8446 24.987L43.4365 25.4143L43.5067 25.3321L43.1543 25.8126C43.1419 25.8256 43.126 25.8423 43.1129 25.856L42.7301 26.3075C42.7123 26.3292 42.693 26.3495 42.6721 26.3683L42.6673 26.3733L41.8171 27.19C41.7951 27.2117 41.7717 27.2318 41.747 27.2503L41.2733 27.6191L41.335 27.566L40.9024 27.9741L41.074 27.7495L40.7875 28.2943C40.7474 28.3702 40.6961 28.4396 40.6352 28.5001L40.6269 28.5088C40.3426 28.7902 40.0536 29.0672 39.7601 29.3399L39.8339 29.2625L39.4562 29.7175C39.4389 29.7356 39.4203 29.7551 39.4037 29.7724L38.9884 30.1915C38.9352 30.245 38.8751 30.2913 38.8098 30.3293L38.2802 30.6378L38.6199 30.282L38.3427 30.8315L38.3386 30.8359C38.2784 30.9545 38.1917 31.0576 38.0853 31.1373L37.6049 31.4956L37.8031 31.2881L37.4666 31.7852L37.4618 31.7903C37.4256 31.843 37.3838 31.8916 37.3371 31.9353L36.8995 32.3358L36.9823 32.249L36.6025 32.7076L36.5984 32.7119C36.5584 32.7595 36.5134 32.8028 36.4642 32.8409L35.9875 33.2055L36.1801 33.0037L35.8423 33.5023L35.8382 33.5066C35.7699 33.6083 35.6804 33.6941 35.5759 33.7581L35.0515 34.0757L35.2932 33.853L34.9387 34.3343L34.9214 34.3524C34.9014 34.3769 34.8794 34.3999 34.8558 34.4211C34.4543 34.8223 34.0789 35.2488 33.7319 35.698C33.6582 35.7881 33.5671 35.8623 33.464 35.9164L32.9069 36.2015L33.2297 35.9055L32.9069 36.4143L32.9028 36.4187L32.8562 36.4848L32.4879 36.9502L32.4838 36.9545L32.4334 37.0073L32.0191 37.4412C31.9885 37.4717 31.9558 37.5001 31.9213 37.5262L31.4417 37.8837L31.5408 37.7959L31.1327 38.2233L31.1831 38.1705L30.8105 38.6331L30.8022 38.6418L30.758 38.688C30.4858 38.9645 30.2176 39.2453 29.9536 39.5305C29.9163 39.5712 29.8749 39.6082 29.8303 39.6408L29.3412 39.9908L29.5688 39.7395L29.2599 40.2643L29.2495 40.2751C29.2212 40.3233 29.1873 40.368 29.1486 40.4083C28.8821 40.6874 28.6219 40.973 28.3679 41.265C28.3098 41.3323 28.2409 41.3894 28.1639 41.4338L27.6286 41.7411L27.8724 41.5219L27.5158 42.0011C27.4758 42.0547 27.4294 42.1033 27.3777 42.1457L26.9111 42.5171L26.9727 42.4627C26.6955 42.727 26.4279 43.0014 26.17 43.286L26.2204 43.2332L25.8557 43.702L25.8516 43.7063C25.8134 43.7567 25.7696 43.8025 25.7211 43.843L25.2516 44.2117L25.4199 44.0281C25.1969 44.3737 24.9595 44.7101 24.7077 45.0375L24.6946 45.0512C24.6476 45.1119 24.5919 45.1654 24.5293 45.2099L24.0387 45.5571L24.2075 45.3948L23.845 45.8643L23.8333 45.8766C23.8119 45.9022 23.7888 45.9264 23.7642 45.9489C23.4845 46.2071 23.2163 46.4764 22.9597 46.7581C22.9386 46.7839 22.9155 46.8081 22.8907 46.8304L22.8831 46.8384L22.4172 47.2091L22.5608 47.0587C22.3252 47.3922 22.0765 47.7164 21.8145 48.0313L21.8007 48.0457C21.7811 48.0693 21.7599 48.0915 21.7372 48.1123L21.3038 48.5141L21.2997 48.5184C21.27 48.5449 21.2387 48.5695 21.2059 48.592L20.7017 48.9275L20.8768 48.7658C20.632 49.0665 20.3952 49.374 20.1662 49.6881C20.1357 49.7265 20.1017 49.7621 20.0647 49.7944L19.627 50.1934L19.7278 50.0878L19.3718 50.5649L19.3677 50.5693C19.3282 50.6234 19.2818 50.672 19.2296 50.7139L18.7579 51.0819L18.896 50.9373L18.54 51.4158L18.5359 51.4201C18.5004 51.4667 18.4599 51.5091 18.4151 51.5467L17.9571 51.9278L18.0027 51.8801L17.5816 52.2964L17.6861 52.1667L17.3613 52.6763C17.3298 52.7242 17.2934 52.7687 17.2526 52.8089L16.8265 53.2205L16.7934 53.2552L16.3383 53.6376L16.455 53.5154L16.0947 53.9898L16.0829 54.0021C16.0442 54.0517 15.9991 54.0961 15.9488 54.1339L15.4691 54.4915L15.555 54.4131C15.2779 54.7148 14.9826 54.9994 14.6709 55.2652L14.7762 55.139L14.4169 55.6253L14.375 55.6822C14.3492 55.7176 14.3188 55.7494 14.2846 55.7769C13.9607 56.0206 13.6315 56.2495 13.2863 56.4605L13.4275 56.2995C13.3111 56.4648 13.1919 56.6274 13.0682 56.7858C12.9921 56.8836 12.883 56.9503 12.7614 56.9736C12.6397 56.9969 12.5137 56.9752 12.4068 56.9126C12.2999 56.8499 12.2195 56.7506 12.1804 56.633C12.1413 56.5155 12.1463 56.3877 12.1943 56.2735L12.1908 56.2743Z" fill="black" stroke="black" stroke-width="2"/>
<path d="M74.1692 12.044C73.9372 12.3478 73.6938 12.649 73.4674 12.9788L72.699 13.8834L72.7513 13.8199L72.4197 14.312C72.3752 14.3787 72.3172 14.4354 72.2496 14.4786L72.2022 14.5079L71.6821 14.8325L71.9587 14.5588L71.6676 15.091C71.6435 15.1348 71.6143 15.1756 71.5806 15.2125L71.5606 15.2335L70.7737 16.0981C70.7232 16.1526 70.6652 16.1997 70.6015 16.2379L70.0755 16.5513L70.3436 16.2792L70.0425 16.8059C70.0016 16.8779 69.9488 16.9425 69.8864 16.9969L69.883 17.0006L69.4344 17.3878L69.4765 17.3437C69.1957 17.6378 68.9031 17.9201 68.5987 18.1907L68.7416 18.0134L68.4376 18.5374C68.3886 18.6206 68.3244 18.6938 68.2482 18.7532C67.9387 18.9914 67.6344 19.2367 67.3352 19.4892L67.4904 19.3166L67.164 19.8206L67.1578 19.8271C67.1263 19.8754 67.0888 19.9196 67.0462 19.9584C66.766 20.2152 66.4983 20.4845 66.2432 20.7662C66.2209 20.7912 66.1963 20.814 66.1698 20.8343L66.1553 20.8495L65.6821 21.2147L65.8285 21.0614L65.4746 21.5392C65.441 21.5833 65.4026 21.6236 65.36 21.6592L65.3538 21.6657L64.9016 22.051L64.9389 22.0119L64.5178 22.4254L64.6326 22.2835L64.3134 22.7929C64.2839 22.8398 64.2496 22.8835 64.2111 22.9233L64.2049 22.9298L63.7888 23.3482L63.7453 23.3937L63.7412 23.3981L63.2875 23.7805L63.4159 23.646L63.0642 24.1258C63.0245 24.1797 62.9781 24.2283 62.9261 24.2704L62.9199 24.277L62.4525 24.6463L62.5989 24.493L62.2472 24.9728C62.2182 25.0103 62.1853 25.0447 62.1492 25.0755L62.1423 25.0827L61.7074 25.4831L61.8124 25.3732C61.5767 25.7011 61.3333 26.0217 61.0821 26.3348C61.0297 26.399 60.9684 26.4555 60.9 26.5024L60.3994 26.84L60.5008 26.7599L60.071 27.1651L60.1504 27.0819C59.9073 27.378 59.6768 27.6831 59.4587 27.9974C59.4208 28.0502 59.3757 28.0974 59.3247 28.1377L59.3102 28.1529L58.8472 28.5264L58.931 28.4488C58.6574 28.7516 58.3723 29.0425 58.0756 29.3214L58.1599 29.2332L57.8009 29.7061C57.7539 29.768 57.6983 29.8229 57.6357 29.869L57.6295 29.8755L57.1412 30.2262L57.323 30.0473C57.0892 30.3531 56.8692 30.6688 56.6632 30.9946C56.6207 31.0611 56.5679 31.1203 56.5067 31.1701L56.4922 31.1853L56.0249 31.5574L56.163 31.4128L55.8012 31.8858L55.7639 31.9248L55.7494 31.94C55.4778 32.2419 55.1977 32.5352 54.9091 32.8201L54.9043 32.8251L54.844 32.8781L54.3802 33.2523L54.5273 33.0983L54.1749 33.5788C54.1094 33.6686 54.0262 33.7439 53.9304 33.8002L53.9242 33.8067L53.3925 34.116L53.6035 33.9428C53.3446 34.2486 53.0751 34.5488 52.7947 34.8433L52.9072 34.6922L52.6033 35.2176C52.5462 35.317 52.4689 35.4034 52.3765 35.4711L52.3702 35.4776L51.8834 35.8297L52.0115 35.7157C51.7445 36.0137 51.4715 36.3059 51.1924 36.5924L51.2455 36.5367L50.8772 37.0006L50.8303 37.0498L50.416 37.4837C50.3868 37.5141 50.3555 37.5424 50.3225 37.5686L50.3149 37.5765L49.824 37.9372L49.9272 37.845L49.5191 38.2724L49.5757 38.2131L49.2103 38.6812L49.2603 38.61L48.9405 39.1216C48.8615 39.2486 48.7502 39.3522 48.6179 39.4219L48.6117 39.4284L48.0576 39.7191L48.3318 39.4957C47.9551 39.9879 47.5478 40.456 47.1124 40.8971L47.1817 40.8057L46.8294 41.2863C46.7625 41.3776 46.6785 41.4552 46.5822 41.5147L46.0606 41.8323L46.331 41.5707L46.0024 42.0684C45.9478 42.1477 45.8809 42.2177 45.8042 42.2759L45.3317 42.6376L45.4756 42.4985L45.1007 42.9534C45.0752 42.9843 45.0475 43.0133 45.0178 43.0402L44.5836 43.4398L44.7138 43.2876L44.3787 43.7833C44.3242 43.8635 44.2568 43.9341 44.1792 43.9923L43.6995 44.3499L43.9576 44.0434L43.6797 44.595C43.6042 44.7426 43.4874 44.865 43.3434 44.9472L42.8117 45.2579L42.9875 45.1216L42.5694 45.5421L42.6212 45.4879L42.2413 45.9436L42.2365 45.9487C42.2149 45.974 42.1918 45.9982 42.1674 46.021C41.8815 46.2843 41.6013 46.5531 41.324 46.8261L41.4831 46.6131L41.1965 47.1551C41.1522 47.2386 41.0945 47.3142 41.0256 47.379L40.5944 47.7828C40.5747 47.802 40.5539 47.82 40.532 47.8366L40.0602 48.2004L40.1302 48.14L39.2737 48.9589L39.3358 48.8938L38.9537 49.3432L38.9901 49.2964L38.6377 49.7741C38.6159 49.8033 38.5924 49.8313 38.5675 49.8578L38.1601 50.2844L38.2419 50.1842L37.9004 50.6737C37.8759 50.7089 37.8487 50.7421 37.8192 50.7732L37.4111 51.2006C37.3844 51.2282 37.356 51.2542 37.326 51.2782L36.8586 51.6489L37.0119 51.4884L36.6567 51.969C36.6083 52.0374 36.5502 52.0984 36.484 52.1498L36.0023 52.5095L36.0488 52.471L35.5967 52.8605L35.7619 52.6671L35.4414 53.1809C35.4158 53.2211 35.3871 53.2593 35.3557 53.2953L34.9621 53.7379C34.9064 53.7997 34.8421 53.8534 34.7713 53.8972L34.249 54.2154L34.4735 54.0151L34.1074 54.4825C34.0674 54.5361 34.021 54.5847 33.9693 54.6271L33.5005 54.9965L33.6759 54.8128L33.3394 55.3099C33.2987 55.3684 33.251 55.4218 33.1974 55.4688L32.7474 55.8575L32.7909 55.812L32.3728 56.2325L32.4301 56.1725L31.667 57.1165C31.3999 57.3959 31.1489 57.6902 30.9151 57.998C30.894 58.0239 30.8709 58.0481 30.846 58.0703L30.8267 58.0906L30.3941 58.4959C30.3494 58.5369 30.3008 58.5734 30.2488 58.6046L29.72 58.9181L29.9295 58.7407L29.5446 59.193L29.6057 59.1131L29.2715 59.6151C29.2389 59.6626 29.2021 59.707 29.1614 59.7478L28.7368 60.1649C28.7167 60.185 28.6954 60.2039 28.6731 60.2215L28.2051 60.5958L28.4043 60.3395L28.1069 60.8767C28.0366 61.0019 27.9359 61.1073 27.8142 61.1833L27.2905 61.5045L27.4943 61.3286L27.1159 61.7815C27.0792 61.8248 27.0384 61.8646 26.9941 61.9002L26.5282 62.2695L26.7578 61.9842L26.4856 62.5414C26.4447 62.6251 26.3901 62.7014 26.324 62.7672L26.315 62.7766C26.0223 63.0638 25.7201 63.3402 25.4085 63.6058L25.4996 63.5103L25.122 63.9695C25.0767 64.0247 25.0246 64.0739 24.9669 64.116L24.4772 64.4681L24.6399 64.3137C24.2712 64.7635 23.906 65.2719 23.4894 65.7285L23.4653 65.7538C23.444 65.7795 23.4209 65.8037 23.3962 65.8261L22.9326 66.206L22.9982 66.1373L22.5839 66.5712L22.6479 66.494L22.2756 66.9679L22.2426 67.0097C22.2275 67.028 22.2111 67.0452 22.1936 67.061L21.7525 67.4694L21.7118 67.512L21.6973 67.5272C21.3676 67.7654 21.0401 68.0056 20.6979 68.2249L20.8477 68.068L20.459 68.5345L20.3874 68.6211C20.3677 68.6441 20.3446 68.664 20.3188 68.6799L19.7964 68.9954L19.9262 68.8594C19.7989 69.0144 19.6597 69.169 19.521 69.32C19.4378 69.4107 19.3247 69.4684 19.2024 69.4826C19.0801 69.4967 18.9568 69.4663 18.8551 69.3969C18.7534 69.3275 18.6802 69.2238 18.6487 69.1048C18.6173 68.9857 18.6298 68.8594 18.684 68.7488C18.7679 68.5566 18.8619 68.3699 18.9568 68.1937C18.9706 68.1734 18.9876 68.1556 19.0072 68.141L19.0873 68.0571L19.536 67.6408L19.3979 67.7854L19.7062 67.2642C19.7234 67.2353 19.7447 67.2091 19.7694 67.1863L19.8443 67.1196L20.7373 66.3175L20.6777 66.3712L21.0877 65.9332L21.0078 66.027L21.3456 65.5284C21.3578 65.5103 21.3714 65.4933 21.3862 65.4772L21.4103 65.4519L21.8159 65.0098L21.8656 64.9577L21.8815 64.9411L22.3377 64.5473L22.248 64.6413C22.6356 64.2165 22.9635 63.7471 23.3536 63.2749L23.3598 63.2684C23.4037 63.2165 23.4537 63.17 23.5086 63.1299L23.9976 62.777L23.8426 62.9221L24.2201 62.4615L24.2264 62.455C24.253 62.4229 24.2819 62.3927 24.3127 62.3646C24.6063 62.114 24.8902 61.8534 25.1644 61.5826L24.993 61.8171L25.2644 61.2592C25.3197 61.1484 25.3986 61.051 25.4955 60.9738L25.9614 60.6031L25.8397 60.7205L26.2174 60.2669C26.2748 60.1978 26.3426 60.138 26.4184 60.0897L26.94 59.7708L26.6479 60.0767L26.9452 59.538C26.9978 59.4427 27.0684 59.3584 27.1531 59.2899L27.6203 58.915L27.5553 58.9759L27.9818 58.5537L27.8718 58.6864L28.2059 58.1829C28.2246 58.155 28.2447 58.1281 28.2663 58.1023L28.6504 57.6494C28.7104 57.579 28.7814 57.5189 28.8606 57.4713L29.3886 57.1557L29.242 57.2687L29.6732 56.862L29.589 56.9502C29.835 56.6252 30.0986 56.3138 30.3786 56.0176L31.11 55.1068C31.1278 55.0857 31.147 55.0657 31.1673 55.0468L31.5839 54.6249C31.5978 54.6105 31.6143 54.5931 31.6274 54.5794L32.0753 54.19L31.9333 54.3488L32.269 53.8524C32.3179 53.7827 32.377 53.7208 32.4444 53.6687L32.9118 53.298L32.7737 53.4426L33.1434 52.9758C33.2057 52.8962 33.2817 52.8284 33.3678 52.7755L33.8894 52.4565L33.6937 52.6152L34.0865 52.1719L34.0008 52.2863L34.3206 51.7719C34.3664 51.7001 34.4223 51.6352 34.4865 51.5793L34.9386 51.1898C34.9517 51.176 34.9676 51.1594 34.9858 51.1505L35.4676 50.7907L35.292 50.9673L35.6451 50.4861C35.6891 50.4262 35.7406 50.3723 35.7984 50.3256L36.2643 49.9534L36.1798 50.0318L36.5872 49.6051L36.5061 49.7046L36.8469 49.2144C36.8717 49.179 36.899 49.1456 36.9287 49.1142L37.3375 48.6861L37.2687 48.7683L37.6197 48.2893C37.6328 48.2755 37.648 48.2596 37.6604 48.2466L38.0418 47.7965C38.0599 47.7751 38.0793 47.7549 38.0998 47.7358L38.1039 47.7314L38.9507 46.9184C38.9721 46.896 38.9979 46.8763 39.0208 46.8581L39.4918 46.4922L39.4301 46.5453L39.8599 46.14L39.689 46.3639L39.9714 45.8235C40.0108 45.7476 40.0617 45.6782 40.1222 45.6177L40.1305 45.6091C40.4149 45.3276 40.7038 45.0506 40.9974 44.7779L40.9249 44.8538L41.3032 44.3968C41.3196 44.3778 41.3369 44.3597 41.355 44.3425L41.771 43.9213C41.8239 43.869 41.8829 43.8232 41.9468 43.785L42.4792 43.4736L42.1429 43.8258L42.4194 43.2727C42.4802 43.1518 42.5686 43.0468 42.6775 42.9662L43.1578 42.6079L42.959 42.8162L43.2941 42.3205C43.3319 42.2653 43.3758 42.2144 43.4249 42.169L43.855 41.7764L43.7728 41.8625L44.147 41.4055C44.1894 41.3538 44.2374 41.3069 44.2901 41.2657L44.7619 40.9033L44.5645 41.1102L44.8917 40.6111C44.9621 40.5056 45.0543 40.4164 45.1621 40.3496L45.6837 40.0306L45.4372 40.2584L45.7882 39.7765L45.8013 39.7627C45.8223 39.7368 45.8454 39.7126 45.8703 39.6904C46.2694 39.2891 46.6434 38.8637 46.9901 38.4164C47.0652 38.3234 47.1588 38.2471 47.2649 38.1922L47.822 37.9071L47.4909 38.2103L47.8101 37.7009L47.8143 37.6965C47.8329 37.677 47.8457 37.6506 47.8629 37.6296L48.2298 37.1615L48.2822 37.1066L48.6903 36.6792L48.6944 36.6749C48.7256 36.6425 48.7595 36.6129 48.7956 36.5862L49.2753 36.2286L49.1727 36.3187L49.5801 35.8921L49.5283 35.9463L49.8996 35.4851L49.9078 35.4765L49.9534 35.4287C50.2257 35.1523 50.4931 34.8722 50.7557 34.5885C50.7945 34.5446 50.8371 34.5043 50.8831 34.4681L51.3722 34.1195L51.137 34.3774L51.4438 33.8548L51.4542 33.8439C51.4836 33.7941 51.5186 33.7477 51.5585 33.7058C51.8241 33.4276 52.0827 33.1437 52.3344 32.8541C52.3922 32.7862 52.4612 32.7286 52.5384 32.6839L52.5432 32.6788L53.0764 32.3737L52.8249 32.5995L53.1795 32.1224L53.1837 32.1181C53.2249 32.0624 53.2729 32.0122 53.3266 31.9684L53.7925 31.5963L53.7281 31.6536C54.0048 31.3889 54.2724 31.1145 54.5308 30.8303L54.4783 30.8853L54.843 30.4151L54.8471 30.4107C54.8863 30.3591 54.9312 30.312 54.9811 30.2705L55.4549 29.9045L55.2788 30.0889C55.5028 29.7424 55.7406 29.4055 55.9923 29.0781L56.0062 29.0637C56.0543 29.0013 56.1114 28.9463 56.1756 28.9007L56.6697 28.5526L56.4961 28.72L56.8586 28.2491L56.8703 28.2368C56.8914 28.2109 56.9145 28.1868 56.9394 28.1645C57.2184 27.907 57.4858 27.6371 57.7417 27.3561C57.763 27.3304 57.7861 27.3062 57.8108 27.2838L57.819 27.2751L58.285 26.9044L58.1372 27.0591C58.3784 26.7245 58.6288 26.3995 58.8884 26.0843L58.9022 26.0698C58.9235 26.0441 58.9465 26.02 58.9712 25.9975L59.4039 25.595C59.4344 25.5669 59.4669 25.5411 59.5011 25.5178L60.004 25.1837L59.8219 25.3513C60.0667 25.0514 60.3029 24.7452 60.5305 24.4326C60.5621 24.3929 60.5973 24.3561 60.6354 24.3227L61.0724 23.9243L60.9711 24.0377L61.3257 23.5606L61.3291 23.557C61.3703 23.5013 61.4183 23.451 61.4721 23.4073L61.9423 23.0408L61.796 23.1941L62.1513 22.7177L62.1547 22.7141C62.1916 22.6661 62.2335 22.6223 62.2797 22.5832L62.7341 22.2015L62.6871 22.2506L63.1061 21.835L62.9968 21.9712L63.3202 21.4631C63.3527 21.4129 63.3905 21.3665 63.433 21.3247L63.8578 20.9146L63.8612 20.911L63.895 20.8756L64.3494 20.4938L64.2286 20.6204L64.586 20.1447L64.5895 20.141C64.6303 20.085 64.6784 20.0347 64.7324 19.9914L65.2085 19.6289L65.117 19.7116C65.3943 19.4096 65.6847 19.1215 65.9881 18.8471L65.8725 18.9856L66.2031 18.4829C66.2465 18.418 66.299 18.3596 66.359 18.3096C66.6689 18.0526 66.9849 17.8013 67.3068 17.5558L67.118 17.7709L67.4263 17.2497L67.4381 17.2374C67.4741 17.1762 67.5199 17.1214 67.5737 17.0751C67.862 16.8205 68.1389 16.5555 68.4046 16.2802L68.4419 16.2411L68.4446 16.2382L68.8961 15.8537L68.733 16.0491L69.0406 15.5272C69.1052 15.4166 69.1971 15.3244 69.3074 15.2594L69.8349 14.9487L69.6662 15.0863C69.9342 14.7892 70.2066 14.5005 70.4835 14.2202L70.3779 14.3627L70.6861 13.84L70.7017 13.8107C70.7624 13.7093 70.8491 13.626 70.9529 13.5694L71.4886 13.2805L71.2725 13.4764L71.6485 13.0102L71.6863 12.9606L71.7001 12.9461C71.9878 12.6679 72.2709 12.399 72.5556 12.1428C72.8346 11.858 73.1302 11.5901 73.4408 11.3402L73.4505 11.3301C73.5483 11.2521 73.6713 11.2128 73.7961 11.2196C73.921 11.2264 74.039 11.2788 74.1278 11.367C74.2165 11.4551 74.2697 11.5728 74.2774 11.6976C74.285 11.8224 74.2465 11.9457 74.1692 12.044Z" fill="black" stroke="black" stroke-width="2"/>
<path d="M14.5254 60.0724C14.623 60.2596 14.6954 60.4517 14.7803 60.6407C14.7932 60.6697 14.7991 60.7013 14.7973 60.7329L14.7886 60.9043C14.7785 61.1103 14.7655 61.3164 14.7434 61.522L14.7547 61.3654C14.7833 61.5642 14.8056 61.7638 14.8243 61.9628L14.7872 61.7656C14.8681 61.9604 14.9377 62.1582 15.0095 62.3552C15.0497 62.4653 15.0608 62.584 15.0415 62.6996L15.0351 62.7295L14.9304 63.3386L14.9421 63.2365L14.9172 63.8417L14.9024 63.6575L15.0246 64.2346L14.375 63.635L14.9338 63.7013L14.6809 63.7128L15.2585 63.5842C15.3164 63.5715 15.3756 63.5659 15.4349 63.5674L15.4469 63.5678L16.0322 63.5861L15.9749 63.5868C16.3519 63.578 16.7374 63.5508 17.1314 63.5049L18.3272 63.444C18.5016 63.435 18.6741 63.4848 18.8169 63.5853C18.9597 63.6859 19.0647 63.8314 19.1151 63.9986L19.2921 64.5907C19.3216 64.6887 19.3309 64.7917 19.3196 64.8934L19.3178 64.9069L19.2437 65.5274L19.1895 65.1369L19.429 65.7098C19.4522 65.7646 19.4689 65.8219 19.4789 65.8805L19.4798 65.8897C19.5417 66.2824 19.6092 66.6745 19.6824 67.066C19.6959 67.1363 19.699 67.2081 19.6915 67.2793L19.6898 67.297L19.6208 67.9224L19.5672 67.5283L19.8047 68.1062C19.8373 68.1846 19.8569 68.2677 19.8627 68.3524L19.863 68.3651L19.9005 68.9774C19.9108 69.1473 19.8672 69.3162 19.7757 69.4598C19.6843 69.6034 19.5498 69.7144 19.3914 69.7769L19.3683 69.7852C18.9823 69.9356 18.591 70.0688 18.1944 70.185L18.4133 70.0803L17.9072 70.4264C17.8222 70.4839 17.7272 70.5249 17.6271 70.5475C17.2407 70.6337 16.8565 70.7277 16.4746 70.8294L16.705 70.7328L16.1905 71.0516L16.185 71.0574C16.1307 71.0903 16.0726 71.1165 16.0121 71.1357C15.6479 71.2487 15.2903 71.3791 14.9392 71.5268C14.9066 71.5402 14.8731 71.5512 14.8388 71.5595L14.8113 71.5651L14.2239 71.6953L14.4377 71.6161L13.9075 71.8992L13.9013 71.9057C13.8479 71.9338 13.7915 71.9555 13.7331 71.9704C13.3629 72.0626 12.9984 72.1761 12.6413 72.3103L12.8189 72.2256L12.3046 72.5543C12.2558 72.5861 12.2035 72.6122 12.1487 72.6322L12.1347 72.6367L11.573 72.8414L11.5112 72.8612L11.5057 72.867L10.923 73.0211L11.1101 72.9482L10.575 73.2321C10.5082 73.2657 10.4375 73.2911 10.3646 73.3077L9.77366 73.4416L9.98407 73.366L9.44963 73.6492C9.40169 73.674 9.35179 73.6948 9.30043 73.7113L8.72396 73.8894L8.87174 73.8273C8.5095 74.0243 8.14209 74.2117 7.76951 74.3895L7.76123 74.3982C7.68625 74.4337 7.60655 74.4581 7.52459 74.4708L6.91713 74.5627L7.04935 74.5313L6.47442 74.715L6.58581 74.6693C6.22897 74.8346 5.87927 75.0131 5.53671 75.2048C5.47779 75.2382 5.41462 75.2635 5.34893 75.2799L5.33627 75.283L4.75267 75.428C4.60598 75.4643 4.45227 75.4609 4.30735 75.4181C4.16243 75.3753 4.03153 75.2946 3.9281 75.1845C3.82466 75.0743 3.75244 74.9386 3.71884 74.7913C3.68524 74.6439 3.69148 74.4903 3.73693 74.3462L3.74452 74.3382C3.86758 73.9507 4.00368 73.5669 4.15284 73.1867L4.11813 73.307L4.24597 72.7185C4.26328 72.637 4.29193 72.5582 4.33109 72.4846L4.62783 71.9523L4.53512 72.1942C4.62065 71.8151 4.68725 71.4326 4.73491 71.0468C4.74586 70.9644 4.77003 70.8843 4.80651 70.8097L4.81618 70.7995L5.08166 70.2609L5.01538 70.4534L5.13041 69.8609L5.14731 69.7969L5.15422 69.7897C5.27339 69.3975 5.40542 69.0107 5.5503 68.6293L5.55836 68.6107L5.58516 68.5464L5.84913 68.0036L5.78305 68.2045L5.89731 67.61C5.92003 67.4992 5.9642 67.3939 6.02735 67.3001L6.38036 66.7856L6.26579 67.0301C6.37407 66.6358 6.49419 66.2436 6.62614 65.8535L6.59143 66.0346L6.64794 65.4195C6.6583 65.3066 6.69111 65.1969 6.74444 65.0969L7.03829 64.5619L6.97393 64.7147C7.09317 64.3254 7.21883 63.9385 7.35092 63.554L7.33066 63.6259L7.47414 63.0413C7.47927 63.0185 7.48645 62.9922 7.49375 62.9715L7.68352 62.4007L7.68878 62.3836C7.70114 62.348 7.71618 62.3134 7.73377 62.28L8.02768 61.7478L7.9774 61.8671C8.0416 61.6768 8.12362 61.4924 8.19636 61.3048L8.17676 61.3745C8.23166 61.1795 8.30292 60.989 8.36633 60.7952L8.35314 60.8669C8.4058 60.667 8.45709 60.4685 8.51389 60.2643L8.57967 60.0506C8.5922 60.0168 8.6123 59.9863 8.63843 59.9615C8.79408 59.8116 8.95552 59.6671 9.12701 59.5295C9.21762 59.457 9.32974 59.4168 9.44573 59.4151C9.56172 59.4133 9.675 59.4502 9.76773 59.5199C9.86046 59.5896 9.92738 59.6882 9.95796 59.8001C9.98853 59.912 9.98103 60.0309 9.93663 60.138C9.85294 60.3415 9.75846 60.5375 9.65747 60.7272L9.77784 60.4274C9.7876 60.6358 9.78257 60.8467 9.78517 61.051L9.77267 61.122C9.7441 61.3242 9.72543 61.5262 9.68973 61.7257L9.67013 61.7954C9.62023 61.9925 9.57309 62.1866 9.51175 62.3783C9.5014 62.4092 9.48911 62.4395 9.47495 62.4689L9.46077 62.4983L9.19191 63.0433L9.24288 62.9234L9.05452 63.4942L9.07344 63.4251L8.93567 64.0124C8.92985 64.0359 8.92195 64.0615 8.91541 64.0843C8.78686 64.4583 8.66613 64.8343 8.55322 65.2121C8.53839 65.2608 8.51887 65.3079 8.49495 65.3528L8.48597 65.3622L8.19285 65.8979L8.29007 65.576L8.23639 66.1911L8.23294 66.1947C8.22723 66.2536 8.2153 66.3117 8.19734 66.3681C8.07436 66.7382 7.96252 67.1111 7.86182 67.4868C7.84002 67.5697 7.80429 67.6482 7.75616 67.7191L7.74511 67.7307L7.39279 68.2444L7.52354 67.9352L7.40714 68.5291C7.39291 68.5986 7.37025 68.6661 7.33965 68.7301L7.07855 69.2742L7.11209 69.1957C6.97664 69.5566 6.85378 69.9223 6.74353 70.2925L6.76304 70.2185L6.63651 70.8028C6.62178 70.8691 6.5993 70.9335 6.56952 70.9945L6.30549 71.5345L6.39524 71.2871C6.34442 71.6994 6.27448 72.1104 6.18541 72.5203L6.18353 72.5309C6.16583 72.613 6.13671 72.6923 6.09704 72.7663L5.80247 73.3007L5.88758 73.0667L5.76116 73.6552L5.75632 73.6603C5.74795 73.6988 5.73677 73.7366 5.72287 73.7735C5.58312 74.1322 5.45524 74.4944 5.33923 74.8601L4.32609 73.7683L4.90966 73.6218L4.7099 73.6993C5.07383 73.4938 5.44584 73.3016 5.82594 73.1226L5.83284 73.1154C5.86597 73.0995 5.90016 73.086 5.93515 73.0748L6.50933 72.889C6.55255 72.8753 6.59675 72.8648 6.64155 72.8577L7.24826 72.7638L6.99972 72.8416C7.35502 72.6712 7.70515 72.4908 8.05009 72.3004C8.09299 72.2775 8.13772 72.2583 8.18383 72.2429L8.19928 72.2383L8.77569 72.0574L8.6265 72.1195L9.16019 71.8342C9.22705 71.8007 9.29769 71.7753 9.3706 71.7586L9.96146 71.6219L9.75106 71.6975L10.2847 71.4108C10.3446 71.3793 10.4078 71.3548 10.4733 71.3379L11.0567 71.1872L10.9858 71.2093L11.5505 71.0117L11.382 71.0941L11.9 70.7717C11.9545 70.7416 12.012 70.7173 12.0716 70.6991L12.0835 70.6939C12.48 70.5495 12.8845 70.428 13.2949 70.33L13.119 70.3984L13.6515 70.1217L13.6584 70.1144C13.725 70.0803 13.7957 70.0549 13.8688 70.0388L14.4606 69.9127L14.3335 69.9503C14.717 69.7958 15.1058 69.6602 15.5001 69.5436L15.3231 69.6248L15.8413 69.3123C15.9131 69.2687 15.991 69.2359 16.0724 69.215C16.4694 69.1139 16.8682 69.021 17.2689 68.9363L16.9902 69.0573L17.5007 68.7153L17.5202 68.7035C17.5808 68.664 17.6471 68.634 17.7169 68.6148C18.0916 68.5119 18.4575 68.3917 18.8145 68.2543L18.2823 69.0621L18.2519 68.4497L18.3095 68.7079L18.0783 68.1277L18.0725 68.1222C18.0251 68 18.0086 67.868 18.0247 67.7379L18.0981 67.1167L18.1048 67.3471C18.0342 66.9452 17.9695 66.5429 17.9107 66.1402L17.9608 66.3194L17.7276 65.7442L17.7211 65.7379C17.6711 65.6142 17.6538 65.4797 17.6711 65.3473L17.7495 64.731L17.7745 65.0479L17.612 64.4435L18.4008 65.0059L17.2349 65.0484C16.8492 65.0874 16.4505 65.1108 16.0386 65.1184L16.0096 65.1198L15.9813 65.119L15.398 65.0943L15.5858 65.0773L15.0073 65.1981L15.0024 65.2032C14.9217 65.2193 14.8389 65.2224 14.7572 65.2124L14.199 65.1397L14.1898 65.1392C14.0339 65.1189 13.8882 65.0503 13.7732 64.943C13.6582 64.8357 13.5797 64.6951 13.5487 64.5409L13.4285 63.9603L13.4269 63.9518C13.4154 63.894 13.411 63.835 13.4137 63.776L13.4414 63.1679L13.4418 63.1559C13.4439 63.1257 13.4477 63.0956 13.4531 63.0658L13.5778 62.4619L13.6048 62.8346C13.5408 62.6353 13.4761 62.4352 13.4233 62.2314L13.4001 62.1456C13.3907 62.1092 13.386 62.0718 13.3862 62.0342C13.3858 61.8348 13.389 61.6346 13.3992 61.4328L13.4082 61.3032L13.4131 61.2734C13.4651 61.0742 13.5292 60.8768 13.5939 60.6815L13.6022 60.9451C13.5847 60.739 13.5559 60.536 13.5511 60.3268C13.5507 60.2115 13.5887 60.0993 13.659 60.008C13.7293 59.9166 13.8281 59.8512 13.9396 59.822C14.0512 59.7929 14.1693 59.8017 14.2753 59.847C14.3814 59.8923 14.4693 59.9716 14.5254 60.0724Z" fill="black" stroke="black" stroke-width="2"/>
<path d="M6.14481 69.7903L6.52391 70.2491L7.09189 70.5564L7.42504 71.1082L7.96819 71.4429L8.32979 71.9707L8.7902 72.3979L9.40105 72.7848L8.76049 72.9488L8.21463 73.1093L7.72727 73.414L7.1583 73.5234L6.66578 73.8191L6.11851 73.9796L5.58562 74.1814L5.0626 74.4121L4.5267 74.6055L4.69378 74.0613L4.79889 73.498L5.13789 73.0169L5.17674 72.4332L5.35175 71.8952L5.51814 71.3517L5.85484 70.8629L5.89784 70.2749L6.14481 69.7903Z" fill="black" stroke="black" stroke-width="2"/>
<path d="M3.95526 75.2032C3.84421 75.0972 3.76506 74.9621 3.72676 74.8134C3.68846 74.6647 3.69253 74.5083 3.73852 74.3617L3.8939 73.8631L3.99089 73.3475C4.01323 73.232 4.06014 73.1226 4.12845 73.0268L4.33515 72.7292L4.3588 72.3758C4.36338 72.3072 4.37655 72.2394 4.39799 72.1741L4.73196 71.1106C4.75666 71.0297 4.79378 70.9532 4.84199 70.8838L5.05135 70.5792L5.07757 70.2144C5.08529 70.1054 5.11482 69.9992 5.16441 69.9019L5.40926 69.4196C5.47086 69.2976 5.56192 69.1928 5.67421 69.1148C5.7865 69.0369 5.91647 68.9881 6.05234 68.9731C6.18822 68.958 6.32571 68.977 6.45236 69.0285C6.57901 69.08 6.69082 69.1622 6.77767 69.2678L7.05481 69.6015L7.48086 69.83C7.61149 69.9002 7.72068 70.0045 7.79686 70.1317L8.02629 70.5126L8.40004 70.7422C8.49747 70.8036 8.58157 70.8839 8.64734 70.9784L8.95691 71.4302L9.29438 71.7427L9.84198 72.09C9.9774 72.1763 10.0847 72.3002 10.1506 72.4465C10.2166 72.5929 10.2384 72.7553 10.2133 72.9139C10.1881 73.0724 10.1173 73.2202 10.0093 73.339C9.90136 73.4578 9.76104 73.5425 9.60561 73.5827L8.55636 73.8665L8.16528 74.111C8.07821 74.1661 7.98139 74.2041 7.88005 74.2229L7.45968 74.3012L7.0949 74.5211C7.0343 74.5564 6.96964 74.5843 6.90235 74.6041L5.88277 74.948L4.80864 75.3794C4.66453 75.4326 4.50838 75.4444 4.35792 75.4134C4.20746 75.3823 4.0687 75.3098 3.9574 75.2039L3.95526 75.2032ZM5.99373 72.5877L5.9617 73.0686C5.95925 73.1021 5.95506 73.1355 5.94916 73.1686L6.33614 73.0529L6.73862 72.8123C6.82309 72.7625 6.91563 72.7278 7.01205 72.7098L7.42325 72.6325L7.67838 72.4724L7.64857 72.437L7.38859 72.0505L6.99125 71.8094C6.87917 71.7405 6.78511 71.646 6.71686 71.5336L6.56601 71.2789C6.5522 71.2934 6.5449 71.3141 6.53326 71.3306L6.26843 71.7136L5.99373 72.5877Z" fill="black" stroke="black" stroke-width="2"/>
<path d="M64.5354 2.88792C64.5662 3.01667 64.5868 3.14767 64.5967 3.27969L64.6275 3.01874C64.6795 3.2205 64.7203 3.42393 64.761 3.62736C64.7696 3.66951 64.7704 3.71288 64.7633 3.75531L64.7439 3.86395C64.6752 4.25731 64.6007 4.64656 64.5242 5.03657L64.5292 4.7649L64.6305 5.38275C64.6499 5.49349 64.6431 5.60725 64.6106 5.71487L64.6059 5.72841L64.4272 6.31808L64.4517 6.24609L64.3361 6.84491L64.339 6.57116L64.4446 7.19598C64.4675 7.3301 64.453 7.4679 64.4029 7.59438L64.3983 7.60792L64.1637 8.19817L64.2146 7.83209L64.2795 8.43452L64.1496 8.07545L64.4927 8.57315L64.3792 8.43434L64.8321 8.84747L64.6546 8.72358L65.2248 9.00954C65.3399 9.06668 65.4387 9.15197 65.512 9.25749L65.5228 9.26784L65.8777 9.78224L65.8114 9.6968L66.2242 10.1476L66.072 10.0175L66.5939 10.3569C66.6674 10.4059 66.7317 10.4674 66.7841 10.5385L66.7949 10.5488L67.1706 11.0458L66.9775 10.8614L67.4913 11.2138C67.5394 11.2461 67.5837 11.2837 67.6233 11.326L67.6349 11.337L68.057 11.7954L67.3763 11.5297C67.7419 11.501 68.1175 11.4532 68.503 11.3863L69.6648 11.2597L69.5634 11.2776L70.1301 11.1387C70.2392 11.1123 70.3524 11.1085 70.463 11.1274L70.4764 11.1278L71.0722 11.235L70.6253 11.2687L71.187 11.0612C71.2484 11.0382 71.3124 11.0227 71.3776 11.0151L71.3882 11.0141C71.7705 10.9737 72.1518 10.9281 72.532 10.8774C72.61 10.8661 72.6892 10.8671 72.7669 10.8805L72.7875 10.8835L73.3838 10.9829L72.9504 11.017L73.4814 10.8328L72.9048 11.554C72.9334 11.2938 72.9692 11.0377 72.9748 10.7569C72.9803 10.476 73.0226 10.1943 73.05 9.91075L73.0669 10.1826L72.9456 9.61898L72.9433 9.60701C72.9208 9.49914 72.9199 9.38788 72.9406 9.27965C73.0133 8.91402 73.0772 8.54694 73.1323 8.1784L73.1302 8.45284L73.0378 7.88499L73.0346 7.86526C73.0247 7.80284 73.023 7.73942 73.0295 7.67657C73.0695 7.31721 73.0914 6.95606 73.095 6.59449C73.0955 6.55234 73.0999 6.51032 73.1084 6.46902L73.1116 6.45409L73.2222 5.88651L73.2108 6.12721L73.168 5.55822L73.3668 6.0246C73.1217 5.72052 72.859 5.43096 72.5802 5.15739L72.728 5.27773L72.2046 4.93977C72.155 4.90779 72.1089 4.87069 72.067 4.8291L71.6277 4.3916L71.5792 4.34534L71.1857 3.87002L71.3245 4.00259L70.8301 3.63143C70.7729 3.58891 70.7212 3.53952 70.6761 3.48436L70.2913 2.99257L70.4468 3.14102L69.9509 2.76848L69.9473 2.76503C69.9099 2.73485 69.8751 2.70159 69.8432 2.6656L69.416 2.2052L70.2404 2.43933C69.8487 2.54455 69.4549 2.64181 69.059 2.7311L69.0478 2.73419C68.9643 2.7546 68.8782 2.76231 68.7923 2.75706L68.1901 2.70732L68.3259 2.70984L67.7408 2.7566L67.8542 2.73913C67.4798 2.81708 67.11 2.91331 66.7426 3.01726L66.7173 3.02492C66.6552 3.04241 66.5907 3.05034 66.5262 3.04843C66.3273 3.041 66.128 3.04419 65.9282 3.03042L66.0398 3.02218C65.6301 3.06512 65.2172 3.06637 64.8073 3.0259L64.9016 3.00958C64.7772 2.97655 64.6548 2.93592 64.5354 2.88792ZM63.8505 2.14141C64.0797 1.9778 64.3287 1.84396 64.5916 1.74312L64.686 1.7268C65.0633 1.6212 65.4331 1.52356 65.8101 1.43847L65.9224 1.42952C66.1214 1.41219 66.3201 1.41255 66.5186 1.40301L66.3029 1.43346C66.694 1.31339 67.0871 1.21451 67.4888 1.12532L67.4929 1.12098C67.5293 1.1141 67.566 1.10947 67.6029 1.10712L68.188 1.05754C68.2297 1.0541 68.2715 1.05384 68.3132 1.05677L68.3224 1.05727L68.9253 1.10345L68.6697 1.1235C69.0517 1.03759 69.4299 0.939749 69.808 0.836255C69.9515 0.795993 70.1032 0.795685 70.2468 0.835365C70.3904 0.875045 70.5205 0.953205 70.6229 1.06141L70.6316 1.06969L71.0609 1.52934L70.9538 1.42715L71.4463 1.80472C71.502 1.84532 71.5521 1.89315 71.5952 1.94695L71.6017 1.95317L71.9884 2.43714L71.8322 2.28799L72.328 2.65629C72.3773 2.69306 72.422 2.73573 72.461 2.78334L72.4668 2.78886L72.8637 3.25633L72.8124 3.20731L73.2459 3.63786L73.1082 3.52153L73.6336 3.85591C73.6795 3.88503 73.7224 3.91863 73.7617 3.95619L73.7834 3.97691C74.0909 4.2764 74.3811 4.59317 74.6525 4.92566L74.6627 4.93532C74.7698 5.06564 74.8357 5.22485 74.8521 5.39273L74.9086 5.96777C74.9174 6.04703 74.9145 6.12717 74.8999 6.20558L74.8951 6.21064L74.788 6.77885L74.8025 6.64062C74.8017 7.03713 74.7816 7.43266 74.7422 7.82723L74.7338 7.6174L74.8283 8.1859C74.8423 8.27056 74.8434 8.35686 74.8314 8.44183L74.8289 8.45744C74.7732 8.84107 74.7089 9.22349 74.6362 9.60468L74.6305 9.26608L74.7552 9.82894C74.7736 9.9128 74.7794 9.99895 74.7724 10.0845L74.7707 10.1008C74.7471 10.3659 74.7105 10.6199 74.7036 10.9036C74.6968 11.1873 74.6615 11.4689 74.63 11.7567C74.6122 11.9193 74.5485 12.0734 74.4464 12.2011C74.3443 12.3288 74.208 12.4248 74.0534 12.4779L73.5216 12.6614L73.5174 12.6657C73.3801 12.7128 73.2329 12.7233 73.0903 12.6961L72.4916 12.5847L72.7463 12.5916C72.3552 12.6393 71.9636 12.6801 71.5717 12.7142L71.7728 12.6657L71.2081 12.8647L71.2005 12.8727C71.0617 12.9215 70.9123 12.9325 70.7678 12.9046L70.1732 12.7875L70.5223 12.7794L69.9532 12.9093L69.935 12.9139C69.9074 12.9204 69.8793 12.9251 69.8511 12.9279L68.7052 13.035C68.331 13.0924 67.9353 13.139 67.53 13.1668L67.5032 13.1688C67.3809 13.1764 67.2584 13.1563 67.1449 13.1099C67.0314 13.0636 66.9299 12.9922 66.8479 12.9011L66.4326 12.4355L66.5741 12.5595L66.0589 12.2058L66.0502 12.1975C65.9801 12.1496 65.9184 12.0906 65.8672 12.0228L65.4985 11.52L65.6981 11.7106L65.1823 11.3633L65.1736 11.355C65.1213 11.3194 65.0736 11.2775 65.0314 11.2303L64.6249 10.7729L64.6126 10.7612C64.5901 10.736 64.5694 10.7093 64.5506 10.6813L64.2027 10.1625L64.4979 10.4223L63.9325 10.1284L63.9238 10.1201C63.8637 10.089 63.808 10.0499 63.7585 10.0037L63.3152 9.58049L63.3072 9.5729C63.2668 9.53441 63.2307 9.49161 63.1996 9.44526L62.8634 8.94174L62.8555 8.93415C62.7863 8.82935 62.7439 8.70914 62.7321 8.58412L62.6771 7.97864L62.6762 7.96805C62.6658 7.84521 62.6856 7.7217 62.7336 7.60819L62.9727 7.02773L62.9263 7.43967L62.8313 6.81531L62.8296 6.80404C62.8168 6.71501 62.82 6.62443 62.839 6.53651L62.9673 5.93881L62.9692 5.92816L62.9854 5.86626L63.1734 5.27992L63.1482 5.62772L63.0525 5.00409C63.0389 4.91389 63.0406 4.82204 63.0575 4.73242C63.1371 4.32406 63.2443 3.92159 63.3783 3.52776L63.3605 3.76367C63.362 3.55643 63.3622 3.35064 63.3772 3.14097L63.389 2.94622C63.3903 2.92155 63.3964 2.89737 63.4071 2.87509C63.5278 2.61514 63.6765 2.36912 63.8505 2.14141Z" fill="black" stroke="black" stroke-width="2"/>
<path d="M68.0115 8.11968L67.7729 7.56006L67.5645 7.01955L67.6603 6.45008L67.8686 5.88297L68.4308 5.66487L68.9937 5.44463L69.5643 5.65354L70.0163 6.02009L70.5075 6.40341L70.5628 7.02031L70.4407 7.5826L70.2799 8.1854L69.6895 8.37939L69.1268 8.60388L68.5755 8.3443L68.0115 8.11968Z" fill="black" stroke="black" stroke-width="2"/>
</g>
<defs>
<clipPath id="clip0_511_6033">
<rect width="78" height="77" fill="white"/>
</clipPath>
</defs>
</svg>
