<svg width="79" height="75" viewBox="0 0 79 75" fill="none" xmlns="http://www.w3.org/2000/svg">
<g clip-path="url(#clip0_434_9152)">
<mask id="mask0_434_9152" style="mask-type:luminance" maskUnits="userSpaceOnUse" x="5" y="3" width="65" height="64">
<path d="M15.0882 3.71174L52.909 39.5061L68.538 55.2947L69.5408 60.9837L61.6923 66.6073L33.669 39.8212L5.78757 12.6685L11.2712 12.6573L15.3138 8.67288L15.0882 3.71174Z" fill="white"/>
</mask>
<g mask="url(#mask0_434_9152)">
<path d="M-10.5229 -1.92153L56.5771 -23.668L87.3643 71.3277L20.2642 93.0741L-10.5229 -1.92153Z" fill="white"/>
</g>
<path d="M68.4704 54.1909L66.9229 58.1478L67.201 62.3339L62.6429 62.2817L62.1515 67.0094L72.2113 70.849L75.5027 68.9161L70.2237 56.0688L68.4704 54.1909Z" fill="white"/>
<path d="M68.5398 54.2553C68.4541 54.0707 68.3628 53.889 68.2659 53.7117C68.2488 53.6764 68.2253 53.6447 68.1965 53.6181L68.1204 53.5529L67.2269 52.784L67.3657 52.9281L67.047 52.4178C67.0291 52.3893 67.0078 52.363 66.9835 52.3396L66.9404 52.2979C66.6619 52.038 66.3896 51.773 66.1291 51.4944C66.1126 51.4746 66.0941 51.4567 66.0738 51.4409L66.0415 51.4167L65.5578 51.0653L65.7015 51.2044L65.3305 50.7381C65.2975 50.6977 65.2599 50.6613 65.2184 50.6296L65.2084 50.6199L64.7407 50.2521L64.7787 50.2889L64.3416 49.8866L64.4576 50.0198L64.1157 49.5205C64.086 49.477 64.0517 49.4368 64.0134 49.4005L64.004 49.3915L63.5704 48.9885L63.5273 48.9467L63.5223 48.9419L63.0525 48.5762L63.1811 48.7006L62.8074 48.2415C62.7657 48.1891 62.7174 48.1423 62.6637 48.1024L62.6572 48.0961L62.1742 47.7441L62.3179 47.8832L61.9469 47.4169C61.9168 47.3819 61.8836 47.3498 61.8477 47.3209L61.3974 46.9365L61.503 47.0387C61.2546 46.7203 60.9971 46.408 60.7305 46.1017C60.678 46.0415 60.6169 45.9893 60.5491 45.947L60.0355 45.6279L60.135 45.702L59.6896 45.314L59.7694 45.3911C59.513 45.1059 59.269 44.8094 59.0372 44.5015C58.9987 44.4517 58.9532 44.4077 58.9022 44.3708L58.8878 44.3569L58.4076 44.0034L58.4915 44.0748C58.2072 43.782 57.9113 43.5026 57.6039 43.2366L57.6887 43.3186L57.3114 42.8602C57.2633 42.8017 57.2069 42.7505 57.1442 42.7081L57.1384 42.7025L56.6374 42.3705L56.8197 42.5373C56.5745 42.2401 56.3411 41.9349 56.1238 41.616C56.0791 41.5539 56.0247 41.4994 55.9628 41.4545L55.9477 41.4399L55.4668 41.0871L55.6062 41.2221L55.2261 40.7637L55.188 40.7268L55.1729 40.7122C54.8924 40.4193 54.6012 40.1375 54.2994 39.8666L54.2951 39.8625L54.2349 39.8139L53.756 39.4562L53.9047 39.6001L53.533 39.1317C53.4659 39.0475 53.3825 38.9776 53.2878 38.9264L53.2813 38.9201L52.7357 38.6299L52.9469 38.7898C52.6734 38.4916 52.3912 38.2014 52.1005 37.919L52.2145 38.06L51.8852 37.5506C51.8262 37.4567 51.7483 37.3761 51.6565 37.3139L51.6501 37.3077L51.1469 36.975L51.2759 37.0804C50.9964 36.7941 50.712 36.5129 50.4228 36.2366L50.4767 36.2888L50.0897 35.839L50.0416 35.7924L49.6105 35.3752C49.5815 35.346 49.5498 35.3195 49.5159 35.2961L49.5087 35.2891L49.0174 34.9457L49.122 35.0317L48.6967 34.62L48.7535 34.675L48.3706 34.218L48.4233 34.2858L48.0793 33.7858C47.9971 33.6654 47.8846 33.569 47.7531 33.5062L47.7473 33.5006L47.1822 33.2319L47.4578 33.4388C47.0622 32.9626 46.6376 32.5112 46.1864 32.0871L46.267 32.1749L45.8974 31.7043C45.8309 31.6203 45.7488 31.5498 45.6557 31.4968L45.6485 31.4899L45.1133 31.1889L45.3881 31.434L45.0379 30.9433C44.9856 30.8693 44.9215 30.8045 44.8481 30.7513L44.8409 30.7443L44.353 30.3959L44.4925 30.5336L44.0984 30.0882C44.0746 30.0616 44.0489 30.0367 44.0216 30.0138L44.0137 30.0061L43.5641 29.6196L43.7001 29.7666L43.3443 29.2831C43.2891 29.2078 43.2216 29.1425 43.1446 29.0898L43.1382 29.0835L42.6426 28.743L42.9119 29.0398L42.6167 28.4995C42.538 28.3495 42.416 28.2266 42.2667 28.1467L41.7267 27.8563L41.9105 27.987L41.479 27.5846L41.5336 27.6375L41.1376 27.1984L41.1326 27.1936C41.1096 27.1713 41.0837 27.1463 41.0607 27.124C40.7648 26.871 40.4729 26.6134 40.1848 26.3513L40.3529 26.5586L40.0431 26.0262C39.9953 25.9443 39.9344 25.8708 39.8628 25.8086L39.4131 25.4192C39.3929 25.401 39.3716 25.3841 39.3493 25.3686L38.86 25.0202L38.9324 25.0777L38.0392 24.2883L38.1039 24.3509L37.703 23.9155L37.7412 23.9608L37.3688 23.4988C37.3444 23.4723 37.3185 23.4472 37.2912 23.4237L36.8667 23.0127L36.9531 23.1103L36.5911 22.6347C36.5648 22.6 36.5361 22.5672 36.5054 22.5364L36.0822 22.1268C36.054 22.0997 36.0243 22.0742 35.9933 22.0504L35.5132 21.6984L35.6741 21.8541L35.3067 21.3927C35.2529 21.3267 35.1901 21.2687 35.12 21.2204L34.6266 20.882L34.676 20.9186L34.2104 20.55L34.386 20.7381L34.0463 20.2395C34.0192 20.1997 33.9888 20.1624 33.9554 20.1278L33.5454 19.7018C33.4848 19.6393 33.4153 19.5862 33.3392 19.5439L32.8041 19.2457L33.037 19.4364L32.6513 18.9824C32.6086 18.9309 32.5604 18.8843 32.5076 18.8433L32.0211 18.4906L32.2035 18.6672L31.8463 18.1823C31.8031 18.1248 31.7531 18.0727 31.6975 18.027L31.2311 17.6549L31.2764 17.6987L30.842 17.295L30.9024 17.3534L30.1041 16.4415C29.8267 16.1738 29.565 15.8902 29.3203 15.5924C29.2982 15.5673 29.2742 15.5441 29.2484 15.5228L29.2348 15.5096L28.7851 15.1217C28.7392 15.0821 28.6891 15.0475 28.6357 15.0187L28.0935 14.7249L28.3119 14.8946L27.9096 14.4564L27.9731 14.5346L27.6116 14.0455C27.5775 13.9991 27.5389 13.9561 27.4963 13.9173L27.0564 13.5178C27.0363 13.4984 27.0147 13.4775 26.9898 13.4631L26.5067 13.1082L26.7256 13.3493L26.408 12.8234C26.3328 12.7004 26.2275 12.5984 26.102 12.5272L25.5661 12.2269L25.7767 12.396L25.3751 11.9585C25.3369 11.9164 25.2946 11.8782 25.2488 11.8446L24.7643 11.4897L25.0057 11.7651L24.7054 11.2128C24.6611 11.1308 24.6035 11.0567 24.5349 10.9936L24.5249 10.9838C24.2215 10.7088 23.909 10.4447 23.5871 10.1916L23.6841 10.2855L23.2873 9.84011C23.2393 9.78638 23.1845 9.73904 23.1245 9.69923L22.6234 9.36868L22.7934 9.51794C22.4103 9.08861 22.0283 8.59775 21.594 8.15794L21.5739 8.13847C21.5495 8.11483 21.5229 8.0891 21.4986 8.07252L21.021 7.70342L21.0928 7.77296L20.6654 7.3592L20.7317 7.43448L20.364 6.95753C20.3369 6.92356 20.3073 6.89166 20.2755 6.8621L19.8405 6.46331C19.8186 6.44265 19.7954 6.42342 19.771 6.40575C19.4441 6.15888 19.1149 5.91911 18.7835 5.68645L18.9595 5.85683L18.5883 5.37781L18.5768 5.36668C18.5283 5.30246 18.4702 5.24615 18.4044 5.19979L17.8983 4.86014L18.0886 5.04442L17.716 4.56684L17.6908 4.53543C17.6571 4.49249 17.6177 4.45436 17.5737 4.42208L17.0906 4.0672L17.2403 4.22598L16.8642 3.752L16.8144 3.68846L16.7957 3.67038L16.3535 3.26464L16.2817 3.1951C16.2614 3.1766 16.2388 3.16081 16.2144 3.14811L15.6655 2.86997L15.863 3.0612L15.4664 2.58684L15.3822 2.49417C15.3747 2.48519 15.3663 2.47703 15.357 2.46983C15.1918 2.35302 15.0189 2.24411 14.844 2.13736C14.7393 2.07351 14.6152 2.04933 14.4943 2.06922C14.3733 2.08911 14.2635 2.15175 14.1848 2.24575C14.1061 2.33975 14.0638 2.45886 14.0655 2.58144C14.0672 2.70401 14.1128 2.82191 14.1941 2.91369C14.3266 3.06427 14.4641 3.21688 14.6065 3.36022L14.4949 3.23689L14.7817 3.78445C14.8061 3.83175 14.8409 3.87298 14.8833 3.90512L14.9799 3.97638L15.4752 4.34307L15.3376 4.23076L15.7248 4.69326L15.6527 4.60817L15.9778 5.12046C16.005 5.16337 16.0383 5.20213 16.0766 5.23552L16.1254 5.28281L16.5829 5.67275L16.4404 5.51951L16.7921 6.01864C16.8364 6.08237 16.8911 6.13815 16.9539 6.18359L16.9825 6.20292L17.4761 6.5555L17.2915 6.37678L17.6572 6.86155C17.7069 6.92688 17.7663 6.98432 17.8332 7.03192C18.157 7.26187 18.4776 7.49612 18.7949 7.73467L18.7211 7.67435L19.1633 8.0801L19.0676 7.98054L19.4394 8.45036C19.4624 8.47261 19.4862 8.50545 19.5064 8.52492L19.9338 8.93868C19.9565 8.96311 19.9805 8.98633 20.0056 9.00822L20.4819 9.37876L20.3878 9.28767C20.7896 9.69477 21.1343 10.1495 21.5412 10.6046L21.5477 10.6108C21.5965 10.6652 21.6519 10.7132 21.7126 10.7538L22.213 11.0851L22.0502 10.9442L22.4499 11.3937L22.4564 11.4C22.4839 11.4318 22.5142 11.4611 22.5469 11.4876C22.8496 11.7259 23.1431 11.9752 23.4273 12.2355L23.2398 12.0081L23.5394 12.5611C23.5986 12.6699 23.681 12.7644 23.7808 12.8379L24.2681 13.1969L24.1426 13.0837L24.5415 13.5255C24.6026 13.5924 24.6739 13.6493 24.7528 13.6939L25.288 13.9949L24.982 13.6986L25.2988 14.2238C25.3559 14.3172 25.4304 14.3989 25.5184 14.4642L25.9993 14.8212L25.9341 14.7664L26.3726 15.1673L26.2574 15.039L26.6147 15.5324C26.6328 15.5583 26.6559 15.5848 26.6782 15.6106L27.0806 16.0488C27.1436 16.1169 27.2174 16.1743 27.299 16.2185L27.8405 16.513L27.6903 16.4094L28.1379 16.7995L28.0495 16.7139C28.3075 17.0283 28.5824 17.3283 28.873 17.6127L29.6375 18.4919C29.6569 18.5106 29.6792 18.5322 29.6979 18.5503L30.1315 18.9547C30.1466 18.9693 30.1631 18.9853 30.1775 18.9992L30.6418 19.3735L30.4863 19.2021L30.8442 19.6877C30.8964 19.7549 30.9578 19.8143 31.0266 19.8643L31.5118 20.2185L31.3681 20.0794L31.7531 20.5356C31.8192 20.6121 31.898 20.6766 31.986 20.7262L32.5155 21.0273L32.3179 20.875L32.7272 21.3017L32.637 21.1908L32.976 21.6901C33.0247 21.7613 33.0836 21.8249 33.1509 21.8789L33.6151 22.2475C33.6295 22.2614 33.646 22.2774 33.6652 22.2849L34.1586 22.6233L33.9727 22.4517L34.3422 22.9166C34.3896 22.9751 34.4439 23.0276 34.5039 23.0731L34.9841 23.4252L34.8952 23.3502L35.319 23.7605L35.2333 23.6636L35.5932 24.14C35.6195 24.1746 35.6484 24.2073 35.6796 24.2376L36.1042 24.6486L36.0307 24.5692L36.4018 25.0354C36.4147 25.048 36.4312 25.064 36.4449 25.0772L36.8451 25.5133C36.8637 25.5342 36.8839 25.5538 36.9054 25.5717L36.9105 25.5766L37.7922 26.3591C37.8149 26.3799 37.8391 26.3992 37.8645 26.4166L38.3525 26.7665L38.2887 26.7159L38.737 27.1067L38.5567 26.889L38.8644 27.4221C38.9074 27.4964 38.9614 27.5637 39.0247 27.6217L39.0333 27.63C39.3285 27.9001 39.6282 28.1655 39.9322 28.4264L39.8553 28.352L40.2507 28.7918C40.2686 28.8092 40.288 28.8279 40.3053 28.8446L40.7368 29.247C40.7921 29.2984 40.8539 29.3423 40.9206 29.3777L41.462 29.6651L41.1085 29.323L41.4072 29.8612L41.4115 29.8653C41.4762 29.9815 41.5669 30.0811 41.6764 30.1566L42.1705 30.4957L41.9643 30.2961L42.3201 30.7796L42.3251 30.7845C42.3633 30.8358 42.407 30.8827 42.4554 30.9245L42.9085 31.3075L42.8223 31.224L43.2198 31.6672L43.2241 31.6714C43.2659 31.7175 43.3126 31.7589 43.3633 31.795L43.8539 32.1406L43.6535 31.9466L44.0107 32.4315L44.015 32.4356C44.0873 32.5346 44.18 32.6167 44.2869 32.6766L44.8235 32.9733L44.5732 32.7603L44.9464 33.2273L44.9643 33.2446C44.9853 33.2684 45.0081 33.2905 45.0326 33.3107C45.4496 33.6958 45.8415 34.1072 46.2059 34.5424C46.283 34.6295 46.377 34.7002 46.4822 34.7501L47.05 35.0131L46.7159 34.73L47.0584 35.2258L47.0627 35.2299L47.1118 35.2942L47.4981 35.7447L47.5025 35.7488L47.5549 35.7996L47.9859 36.2168C48.0177 36.2461 48.0515 36.2732 48.0869 36.2979L48.5803 36.6364L48.4779 36.5525L48.9024 36.9635L48.85 36.9127L49.2405 37.3603L49.2491 37.3686L49.2951 37.4131C49.578 37.6786 49.857 37.9487 50.132 38.2233C50.1709 38.2625 50.2137 38.2978 50.2596 38.3287L50.762 38.6592L50.5248 38.417L50.8541 38.9292L50.8649 38.9396C50.8951 38.9867 50.9307 39.03 50.9709 39.0687C51.2482 39.3372 51.5195 39.6123 51.7847 39.8941C51.8454 39.959 51.9166 40.0133 51.9952 40.0547L52.5422 40.3407L52.2899 40.1312L52.6652 40.596C52.7072 40.648 52.7555 40.6947 52.8088 40.7351L53.2897 41.0879L53.226 41.0359C53.5134 41.2891 53.7915 41.5528 54.0604 41.827L54.008 41.7762L54.3908 42.2303L54.3952 42.2345C54.4353 42.2833 54.4808 42.3274 54.5309 42.3659L55.0146 42.7158L54.8392 42.5391C55.0757 42.8756 55.3261 43.2024 55.5905 43.5196L55.6042 43.5328C55.6535 43.5917 55.7113 43.6429 55.7756 43.6849L56.2794 44.0125L56.1044 43.857L56.4851 44.3118L56.4973 44.3236C56.5197 44.3484 56.5437 44.3716 56.5692 44.3932C56.8588 44.6402 57.1374 44.8987 57.4048 45.1701C57.427 45.1951 57.451 45.2183 57.4767 45.2396L57.4846 45.2473L57.9648 45.5994L57.8153 45.4547C58.0638 45.7788 58.3251 46.093 58.5992 46.3973L58.6136 46.4112C58.6342 46.434 58.6563 46.4553 58.6797 46.4751L59.1286 46.8596L59.1329 46.8637C59.1635 46.8891 59.1958 46.9124 59.2295 46.9336L59.7465 47.249L59.5651 47.0943C59.8216 47.3852 60.0704 47.6831 60.3115 47.9879C60.3435 48.0252 60.3788 48.0594 60.4171 48.0901L60.8702 48.4717L60.7653 48.3701L61.1398 48.8328L61.1441 48.837C61.1856 48.8895 61.2339 48.9363 61.2878 48.9761L61.7736 49.3253L61.6299 49.1862L62.0044 49.6503L62.0087 49.6545C62.046 49.6996 62.0881 49.7404 62.1344 49.7762L62.607 50.139L62.5596 50.0931L62.9967 50.4925L62.8872 50.3671L63.2318 50.8635C63.2651 50.9101 63.3033 50.9531 63.3456 50.9917L63.7876 51.3862L63.8221 51.4195L64.2918 51.7838L64.1704 51.6663L64.5491 52.1261L64.5613 52.1379C64.602 52.186 64.6488 52.2285 64.7006 52.2643L65.194 52.6028L65.1051 52.5279C65.3939 52.8184 65.7001 53.0911 66.022 53.3445L65.9118 53.2225L66.29 53.6944L66.334 53.7495C66.3613 53.7839 66.3929 53.8145 66.4281 53.8406C66.7614 54.0713 67.0993 54.2872 67.4526 54.4844L67.3051 54.3291C67.4279 54.4897 67.5535 54.6475 67.6833 54.8009C67.7632 54.8956 67.8748 54.9579 67.9973 54.9765C68.1198 54.995 68.2448 54.9683 68.3491 54.9015C68.4535 54.8347 68.53 54.7323 68.5644 54.6133C68.5988 54.4943 68.5888 54.3668 68.5363 54.2546L68.5398 54.2553Z" fill="black" stroke="black" stroke-width="2"/>
<path d="M4.86952 12.4977C5.1133 12.7922 5.36834 13.0836 5.6076 13.4042L6.4109 14.2778L6.35617 14.2165L6.70688 14.6952C6.75403 14.7601 6.81414 14.8145 6.88342 14.8549L6.93195 14.8824L7.46437 15.1863L7.17727 14.9237L7.48907 15.444C7.51486 15.4868 7.54565 15.5264 7.58079 15.562L7.60162 15.5821L8.42194 16.4152C8.47453 16.4676 8.5343 16.5124 8.59946 16.548L9.13735 16.8405L8.85875 16.5792L9.18035 17.0936C9.22409 17.164 9.27937 17.2264 9.34386 17.2784L9.34746 17.2818L9.81094 17.6512L9.76712 17.6087C10.0593 17.8915 10.3628 18.1621 10.6776 18.4205L10.5277 18.249L10.8521 18.7606C10.9044 18.8418 10.9715 18.9125 11.05 18.9688C11.3685 19.1946 11.6822 19.4278 11.9911 19.6684L11.8293 19.502L12.1753 19.9927L12.1818 19.999C12.2151 20.046 12.2543 20.0886 12.2984 20.1258C12.5885 20.3714 12.8666 20.6299 13.1326 20.9013C13.1558 20.9254 13.1813 20.9473 13.2086 20.9665L13.2237 20.9811L13.7109 21.3275L13.5586 21.18L13.931 21.6435C13.9663 21.6863 14.0063 21.725 14.0502 21.7589L14.0567 21.7652L14.5237 22.1323L14.4849 22.0948L14.9219 22.4914L14.8016 22.3541L15.1406 22.8506C15.1719 22.8963 15.2079 22.9386 15.248 22.9768L15.2545 22.9831L15.6867 23.3847L15.7319 23.4286L15.7362 23.4327L16.2046 23.797L16.071 23.6677L16.4413 24.1333C16.4831 24.1855 16.5314 24.2323 16.5849 24.2724L16.5914 24.2786L17.073 24.6293L16.9207 24.4819L17.291 24.9475C17.3215 24.9838 17.3556 25.0169 17.393 25.0462L17.4002 25.0532L17.8504 25.4361L17.7412 25.3304C17.9897 25.6488 18.2455 25.9596 18.5087 26.2626C18.5637 26.3247 18.6272 26.3787 18.6973 26.4229L19.2109 26.7405L19.1064 26.6644L19.5518 27.0524L19.4692 26.9725C19.7237 27.2587 19.9661 27.5546 20.1963 27.86C20.2363 27.9113 20.2832 27.9567 20.3357 27.9949L20.3508 28.0095L20.8282 28.3645L20.7414 28.2903C21.0266 28.5821 21.323 28.8616 21.6304 29.1285L21.5428 29.0437L21.92 29.5021C21.9694 29.5621 22.0272 29.6148 22.0916 29.6584L22.098 29.6647L22.5998 29.9959L22.411 29.8243C22.6567 30.1206 22.8889 30.4275 23.1076 30.7449C23.1527 30.8097 23.2078 30.8668 23.2709 30.9141L23.286 30.9287L23.7676 31.2822L23.6239 31.1431L24.004 31.6015L24.0428 31.639L24.0579 31.6536C24.3412 31.9446 24.6326 32.2267 24.9321 32.4999L24.9372 32.5048L24.9995 32.5554L25.4776 32.9111L25.3246 32.7629L25.6956 33.2292C25.7646 33.3163 25.8507 33.3883 25.9487 33.4408L25.9551 33.447L26.4986 33.7352L26.281 33.5704C26.5516 33.8658 26.8328 34.1552 27.1245 34.4384L27.0061 34.2919L27.3306 34.8049C27.3915 34.902 27.4721 34.9852 27.5672 35.0492L27.5736 35.0555L28.074 35.3881L27.9414 35.2793C28.22 35.5665 28.5043 35.8478 28.7944 36.1231L28.7391 36.0696L29.1254 36.5186L29.1743 36.5659L29.6053 36.9832C29.6357 37.0124 29.668 37.0395 29.7021 37.0643L29.71 37.072L30.2147 37.413L30.1079 37.325L30.5325 37.736L30.4736 37.6789L30.8571 38.1323L30.8044 38.0632L31.1441 38.5618C31.228 38.6856 31.3433 38.7847 31.4783 38.8491L31.4847 38.8553L32.0498 39.124L31.7671 38.9116C32.1628 39.3886 32.5882 39.8403 33.0406 40.264L32.9677 40.1754L33.3388 40.6417C33.4092 40.7303 33.4961 40.8046 33.5947 40.8602L34.1285 41.157L33.8479 40.9063L34.1959 41.3907C34.2536 41.4677 34.3232 41.5351 34.4021 41.5902L34.8885 41.933L34.7392 41.7997L35.1317 42.2395C35.1584 42.2694 35.1872 42.2973 35.2179 42.3229L35.6675 42.7052L35.5315 42.5582L35.8858 43.0404C35.9434 43.1183 36.0136 43.1863 36.0934 43.2413L36.5868 43.5798L36.3168 43.2837L36.6162 43.8239C36.6974 43.9685 36.819 44.0862 36.966 44.1626L37.5095 44.4521L37.3286 44.3229L37.7629 44.7266L37.709 44.6745L38.1065 45.1149L38.1115 45.1197C38.1341 45.1442 38.1581 45.1675 38.1834 45.1893C38.4795 45.4411 38.77 45.6987 39.0578 45.9606L38.8904 45.754L39.1981 46.2843C39.2457 46.366 39.3064 46.4393 39.3777 46.5013L39.8245 46.8879C39.8449 46.9063 39.8664 46.9234 39.889 46.9391L40.3747 47.2841L40.3024 47.2266L41.1905 48.0111L41.1258 47.9485L41.5253 48.3825L41.4871 48.3372L41.8581 48.8007C41.881 48.829 41.9055 48.8559 41.9315 48.8815L42.3554 49.2918L42.2696 49.1949L42.6302 49.6705C42.6561 49.7047 42.6845 49.7368 42.7152 49.7667L43.1398 50.1777C43.1675 50.2043 43.197 50.2291 43.228 50.2519L43.7095 50.604L43.5501 50.4496L43.9239 50.9159C43.9749 50.9824 44.0354 51.0409 44.1035 51.0897L44.599 51.4302L44.5511 51.3936L45.0181 51.7649L44.8454 51.5783L45.1859 52.079C45.2131 52.1182 45.2433 52.1553 45.2761 52.1899L45.6867 52.6167C45.7449 52.6763 45.8112 52.7274 45.8836 52.7684L46.4181 53.0658L46.1859 52.8745L46.5701 53.3271C46.6122 53.3791 46.6604 53.4258 46.7138 53.4662L47.1968 53.8168L47.0143 53.6402L47.37 54.1237C47.4131 54.1805 47.4628 54.2319 47.5182 54.2768L47.9831 54.6476L47.9379 54.6038L48.3722 55.0075L48.3126 54.9498L49.1123 55.863C49.3901 56.1318 49.6525 56.416 49.8983 56.7143C49.9203 56.7394 49.9443 56.7626 49.9701 56.7839L49.9902 56.8033L50.4384 57.1913C50.4847 57.2305 50.5347 57.265 50.5879 57.2942L51.1286 57.5866L50.9123 57.4176L51.3147 57.8544L51.2505 57.777L51.6042 58.2655C51.6386 58.3116 51.6772 58.3546 51.7194 58.3937L52.1601 58.7938C52.181 58.8131 52.203 58.8312 52.226 58.8479L52.7084 59.2035L52.4993 58.9552L52.8175 59.4803C52.8927 59.6026 52.9974 59.704 53.1221 59.7751L53.658 60.0754L53.4474 59.9077L53.8434 60.3453C53.8818 60.3872 53.9241 60.4254 53.9697 60.4592L54.4498 60.8099L54.2092 60.5338L54.503 61.0799C54.5472 61.1619 54.6048 61.236 54.6735 61.2991L54.6828 61.3082C54.9866 61.5837 55.2994 61.848 55.6213 62.1011L55.5264 62.0093L55.9218 62.4533C55.9692 62.5066 56.0232 62.5537 56.0825 62.5935L56.5857 62.9261L56.4171 62.7782C56.8032 63.2132 57.1881 63.7068 57.6223 64.1466L57.6475 64.171C57.6697 64.1958 57.6937 64.2191 57.7193 64.2405L58.1975 64.6018L58.1293 64.5358L58.5603 64.953L58.4933 64.8784L58.884 65.3373L58.9186 65.3778C58.9344 65.3955 58.9514 65.412 58.9696 65.4272L59.4264 65.8178L59.4688 65.8588L59.4839 65.8735C59.8227 66.0984 60.1594 66.3256 60.5099 66.5313L60.354 66.3804L60.7609 66.8313L60.8357 66.9149C60.8563 66.9372 60.8803 66.9561 60.9067 66.971L61.4411 67.2657L61.306 67.1349C61.4392 67.2848 61.5845 67.4337 61.729 67.5792C61.8157 67.6666 61.931 67.7198 62.0537 67.7291C62.1765 67.7384 62.2985 67.7032 62.3974 67.6299C62.4963 67.5565 62.5654 67.45 62.5921 67.3298C62.6189 67.2096 62.6014 67.0839 62.5429 66.9755C62.4515 66.7868 62.3502 66.6039 62.2484 66.4316C62.2339 66.4119 62.2162 66.3947 62.196 66.3809L62.1126 66.3002L61.648 65.9019L61.7916 66.041L61.4631 65.5323C61.4448 65.5041 61.4224 65.4787 61.3968 65.457L61.3194 65.3932L60.3955 64.6269L60.4571 64.6782L60.0303 64.2567L60.1138 64.3472L59.7566 63.8623C59.7437 63.8448 59.7295 63.8282 59.7141 63.8128L59.6889 63.7885L59.2662 63.3626L59.2145 63.3126L59.198 63.2966L58.7266 62.921L58.82 63.0114C58.416 62.6022 58.0699 62.1461 57.6616 61.6896L57.6551 61.6834C57.6091 61.6332 57.5574 61.5887 57.5009 61.5508L56.9984 61.2175L57.1591 61.3563L56.7636 60.9109L56.7572 60.9046C56.7293 60.8736 56.6992 60.8446 56.6674 60.8177C56.3642 60.5789 56.0702 60.3296 55.7855 60.0698L55.966 60.2974L55.6728 59.7506C55.6132 59.6421 55.5306 59.5478 55.4308 59.4746L54.9506 59.1225L55.0769 59.235L54.6816 58.7966C54.6215 58.7298 54.5514 58.6727 54.4738 58.6275L53.94 58.3293L54.2439 58.6235L53.9256 58.0969C53.8693 58.0037 53.7955 57.9223 53.7082 57.8572L53.2265 57.5009L53.2939 57.5592L52.8511 57.1542L52.9663 57.2824L52.6126 56.7925C52.5929 56.7653 52.5717 56.7392 52.5491 56.7143L52.1474 56.2768C52.0847 56.2089 52.0115 56.1516 51.9304 56.1071L51.3904 55.8126L51.5413 55.9197L51.0945 55.5303L51.1821 55.6151C50.9235 55.3 50.6479 54.9993 50.3564 54.7143L49.5898 53.833C49.5711 53.8126 49.5512 53.7933 49.5302 53.7753L49.0972 53.3701C49.0828 53.3562 49.0656 53.3395 49.0519 53.3263L48.5891 52.9549L48.7373 53.108L48.3822 52.6252C48.3307 52.5575 48.2691 52.4979 48.1998 52.4486L47.7182 52.0965L47.8619 52.2356L47.4741 51.7837C47.4087 51.7066 47.3301 51.6418 47.2419 51.5923L46.7082 51.2941L46.91 51.445L46.5 51.0175L46.5902 51.1285L46.2504 50.627C46.2019 50.557 46.1434 50.4944 46.077 50.4411L45.61 50.0697C45.5963 50.0564 45.5798 50.0404 45.5613 50.0323L45.0657 49.6917L45.2481 49.8613L44.8763 49.3943C44.83 49.3362 44.7764 49.2843 44.7169 49.2399L44.2367 48.8864L44.3241 48.9614L43.9003 48.5511L43.9853 48.6473L43.6254 48.1709C43.5993 48.1365 43.5706 48.1042 43.5397 48.074L43.1144 47.6623L43.1864 47.7418L42.8168 47.2769C42.8032 47.2637 42.7874 47.2484 42.7745 47.2358L42.3757 46.8011C42.3567 46.7805 42.3366 46.761 42.3153 46.7427L42.311 46.7385L41.4329 45.9595C41.4106 45.9379 41.3841 45.9193 41.3605 45.902L40.8755 45.5549L40.9392 45.6055L40.4938 45.2175L40.6734 45.4344L40.37 44.9055C40.3276 44.8312 40.274 44.7639 40.2112 44.7059L40.2025 44.6975C39.9073 44.4275 39.6077 44.1621 39.3036 43.9011L39.3791 43.9742L38.983 43.5323C38.9659 43.514 38.9479 43.4966 38.9291 43.4802L38.4969 43.0757C38.442 43.0254 38.3812 42.982 38.3159 42.9464L37.7717 42.6562L38.1215 42.9948L37.8235 42.4531C37.7579 42.3346 37.6654 42.2332 37.5535 42.157L37.0594 41.8178L37.2663 42.0181L36.912 41.536C36.872 41.4823 36.8262 41.4332 36.7753 41.3897L36.3301 41.0144L36.4156 41.0972L36.0237 40.6553C35.9793 40.6053 35.9295 40.5603 35.8752 40.5212L35.3895 40.1777L35.595 40.3766L35.2484 39.8908C35.1738 39.7882 35.0782 39.7027 34.9678 39.6401L34.4341 39.3419L34.6894 39.5598L34.3197 39.0921L34.3061 39.0788C34.284 39.0538 34.26 39.0305 34.2342 39.0093C33.8197 38.6241 33.4293 38.2136 33.0653 37.7803C32.9866 37.6904 32.89 37.6178 32.7818 37.5672L32.214 37.3042L32.5567 37.5942L32.2177 37.0976L32.2134 37.0935C32.194 37.0747 32.1801 37.0488 32.1621 37.0285L31.7772 36.5752L31.7226 36.5224L31.298 36.1114L31.2937 36.1072C31.2613 36.0761 31.2263 36.0478 31.1891 36.0226L30.6957 35.6842L30.8017 35.7702L30.3779 35.3599L30.4318 35.412L30.0427 34.9658L30.0341 34.9575L29.9867 34.9116C29.7037 34.6461 29.4255 34.3767 29.1519 34.1035C29.1115 34.0612 29.0673 34.0226 29.0199 33.9883L28.5175 33.6592L28.7626 33.9076L28.4355 33.3975L28.4247 33.3871C28.3933 33.3384 28.3565 33.2935 28.315 33.2531C28.0387 32.9856 27.7691 32.7121 27.5062 32.4326C27.4458 32.367 27.3746 32.3122 27.2957 32.2706L27.2907 32.2657L26.7459 31.9818L27.006 32.1975L26.6329 31.7348L26.6286 31.7306C26.5853 31.6766 26.5353 31.6283 26.4799 31.5867L25.9997 31.2332L26.0664 31.2879C25.7794 31.0343 25.5013 30.7706 25.2319 30.4969L25.2865 30.5497L24.9036 30.0942L24.8993 30.09C24.8581 30.0399 24.8114 29.9947 24.7599 29.9551L24.2721 29.6081L24.4553 29.7854C24.2179 29.448 23.9669 29.1207 23.7025 28.8035L23.6882 28.7896C23.6376 28.7292 23.5784 28.6765 23.5124 28.6334L23.005 28.3051L23.1851 28.4655L22.8043 28.0092L22.7921 27.9974C22.7701 27.9724 22.746 27.9491 22.7203 27.9279C22.4313 27.6816 22.1535 27.4223 21.8868 27.1516C21.8645 27.1268 21.8405 27.1035 21.8149 27.0821L21.8063 27.0737L21.3261 26.7217L21.4799 26.8705C21.2257 26.5456 20.9627 26.2307 20.691 25.9259L20.6766 25.912C20.6543 25.8872 20.6303 25.8639 20.6047 25.8425L20.1566 25.4573C20.125 25.4305 20.0915 25.4059 20.0564 25.384L19.5408 25.07L19.7293 25.2302C19.4729 24.9403 19.2248 24.6436 18.9852 24.3401C18.9519 24.3017 18.9154 24.2664 18.876 24.2344L18.4236 23.8536L18.5293 23.9629L18.1562 23.5001L18.1526 23.4967C18.1093 23.4426 18.0594 23.3942 18.0039 23.3527L17.5196 23.0049L17.6719 23.1524L17.2981 22.6904L17.2945 22.6869C17.2558 22.6404 17.2122 22.5982 17.1645 22.561L16.6954 22.1974L16.7443 22.2447L16.3093 21.8459L16.4239 21.9777L16.0807 21.4827C16.0463 21.4339 16.0067 21.389 15.9625 21.3488L15.522 20.9558L15.5184 20.9523L15.4832 20.9182L15.0142 20.5547L15.1399 20.6763L14.764 20.2151L14.7604 20.2116C14.7174 20.1573 14.6674 20.1089 14.6117 20.0677L14.1218 19.7242L14.2164 19.8033C13.9274 19.5124 13.6259 19.2359 13.312 18.9737L13.4329 19.1075L13.0828 18.6183C13.0368 18.5551 12.9821 18.4989 12.9202 18.4512C12.6004 18.2066 12.2748 17.9679 11.9434 17.7353L12.1406 17.9428L11.812 17.4341L11.7998 17.4223C11.7613 17.3626 11.7134 17.3097 11.6579 17.2655C11.3598 17.0224 11.0726 16.7685 10.7963 16.5038L10.7575 16.4663L10.7547 16.4635L10.2884 16.097L10.459 16.2859L10.1312 15.7764C10.0623 15.6685 9.96686 15.58 9.85405 15.5193L9.31479 15.2297L9.48874 15.3605C9.20926 15.0742 8.92569 14.7965 8.63801 14.5273L8.74915 14.6655L8.42054 14.1554L8.40381 14.1266C8.33916 14.0277 8.24925 13.9479 8.14339 13.8954L7.59671 13.6278L7.82036 13.8151L7.42625 13.3641L7.38658 13.3159L7.37221 13.302C7.07373 13.0353 6.78035 12.7778 6.48576 12.533C6.19577 12.2594 5.88986 12.0033 5.56964 11.7658L5.55958 11.7561C5.45882 11.6821 5.33435 11.6476 5.20984 11.6593C5.08534 11.671 4.96947 11.7281 4.88429 11.8196C4.7991 11.9112 4.75053 12.0309 4.7478 12.1559C4.74508 12.2809 4.7884 12.4026 4.86952 12.4977Z" fill="black" stroke="black" stroke-width="2"/>
<path d="M66.3569 58.1421C66.2667 58.3331 66.2019 58.5279 66.1245 58.72C66.1127 58.7495 66.1082 58.7813 66.1111 58.8129L66.1266 58.9837C66.1448 59.1892 66.1658 59.3946 66.196 59.5992L66.1787 59.4432C66.1579 59.6429 66.1434 59.8433 66.1325 60.0428L66.1618 59.8444C66.0887 60.0421 66.0269 60.2425 65.963 60.4423C65.9271 60.5539 65.9207 60.6729 65.9446 60.7876L65.9521 60.8172L66.0807 61.4218L66.0649 61.3202L66.1136 61.924L66.1212 61.7393L66.0218 62.3207L66.6473 61.6961L66.0916 61.7843L66.3447 61.7859L65.7625 61.6801C65.7041 61.6697 65.6447 61.6664 65.5856 61.6702L65.5736 61.6711L64.9895 61.7125L65.0467 61.7108C64.6697 61.717 64.2835 61.7049 63.888 61.6745L62.6906 61.6608C62.516 61.6586 62.3457 61.7151 62.2069 61.8212C62.0682 61.9273 61.969 62.0768 61.9252 62.2459L61.7716 62.8445C61.746 62.9436 61.7408 63.0469 61.756 63.1481L61.7584 63.1615L61.8568 63.7786L61.8957 63.3862L61.6789 63.9681C61.6578 64.0238 61.6434 64.0817 61.6357 64.1407L61.6352 64.1499C61.5888 64.5447 61.5367 64.9391 61.479 65.3332C61.4683 65.404 61.4681 65.4759 61.4783 65.5468L61.4807 65.5644L61.5742 66.1865L61.6123 65.7906L61.3977 66.3775C61.3682 66.457 61.3519 66.5409 61.3495 66.6257L61.3497 66.6385L61.3363 67.2517C61.3327 67.4219 61.3829 67.5889 61.4799 67.7288C61.577 67.8687 61.7158 67.9744 61.8765 68.0306L61.8999 68.038C62.2915 68.1731 62.6877 68.2908 63.0886 68.3913L62.8657 68.2952L63.3851 68.6212C63.4723 68.6753 63.5688 68.7126 63.6697 68.7312C64.0593 68.8021 64.4468 68.8809 64.8324 68.9675L64.5984 68.8801L65.125 69.1784L65.1308 69.184C65.1864 69.2146 65.2454 69.2386 65.3066 69.2553C65.6749 69.354 66.0374 69.4702 66.3941 69.6039C66.4272 69.6161 66.4611 69.6257 66.4957 69.6327L66.5233 69.6372L67.1155 69.7442L66.8987 69.6735L67.4396 69.9355L67.4461 69.9418C67.5005 69.9677 67.5578 69.9872 67.6167 69.9998C67.9902 70.0773 68.3589 70.1764 68.721 70.2965L68.5402 70.2188L69.067 70.527C69.1171 70.5569 69.1704 70.5809 69.2259 70.5987L69.2401 70.6027L69.8094 70.7851L69.8719 70.8024L69.8776 70.808L70.4659 70.9391L70.2761 70.8736L70.822 71.1363C70.8901 71.1672 70.9617 71.1897 71.0352 71.2035L71.6309 71.314L71.4177 71.2468L71.9629 71.5087C72.0118 71.5316 72.0625 71.5504 72.1144 71.565L72.6975 71.7202L72.5473 71.664C72.9171 71.8465 73.2915 72.0193 73.6708 72.1824L73.6795 72.1907C73.7558 72.2232 73.8364 72.2445 73.9188 72.254L74.5294 72.3219L74.396 72.2957L74.9777 72.4567L74.8646 72.4154C75.2277 72.5665 75.5842 72.7311 75.934 72.9092C75.9942 72.9402 76.0583 72.963 76.1246 72.9768L76.1374 72.9794L76.7262 73.1014C76.8742 73.1319 77.0277 73.1224 77.1708 73.0739C77.3139 73.0254 77.4415 72.9397 77.5406 72.8256C77.6396 72.7114 77.7064 72.5729 77.7342 72.4244C77.762 72.2759 77.7497 72.1226 77.6986 71.9804L77.6907 71.9728C77.5525 71.5904 77.4014 71.2122 77.2374 70.8382L77.2768 70.9571L77.1259 70.3741C77.1054 70.2932 77.0737 70.2157 77.0316 70.1437L76.7142 69.6235L76.8164 69.8615C76.716 69.486 76.6344 69.1065 76.5716 68.7229C76.5574 68.641 76.5301 68.5619 76.4907 68.4887L76.4806 68.479L76.1942 67.9512L76.268 68.1409L76.1297 67.5535L76.1103 67.4901L76.1031 67.4832C75.9686 67.096 75.8215 66.7147 75.6617 66.3392L75.6529 66.321L75.6236 66.2578L75.3385 65.7258L75.4124 65.924L75.2748 65.3344C75.2478 65.2246 75.1995 65.1211 75.1327 65.0299L74.7597 64.5297L74.8838 64.7695C74.7601 64.3797 74.6247 63.9926 74.4775 63.608L74.5193 63.7876L74.4386 63.1752C74.4238 63.0628 74.3867 62.9545 74.3295 62.8566L74.0148 62.3336L74.0851 62.4837C73.9507 62.0994 73.8099 61.7177 73.6628 61.3388L73.6858 61.4098L73.5195 60.8313C73.5134 60.8088 73.5052 60.7828 73.4971 60.7624L73.2851 60.1995L73.2791 60.1826C73.2654 60.1475 73.249 60.1135 73.2301 60.0809L72.9155 59.5606L72.9704 59.6778C72.8988 59.4902 72.8096 59.3092 72.7295 59.1245L72.7518 59.1935C72.6893 59.0008 72.6106 58.8132 72.5396 58.6221L72.5556 58.6932C72.4951 58.4955 72.4361 58.2992 72.3713 58.0973L72.2971 57.8864C72.2833 57.8532 72.262 57.8235 72.2349 57.7998C72.0735 57.656 71.9065 57.518 71.7297 57.3873C71.6363 57.3184 71.5227 57.2826 71.4067 57.2855C71.2908 57.2883 71.179 57.3296 71.0891 57.4029C70.9992 57.4762 70.9362 57.5773 70.91 57.6903C70.8839 57.8034 70.8961 57.9219 70.9447 58.0272C71.0363 58.2272 71.1384 58.4193 71.2468 58.6049L71.1147 58.3101C71.1132 58.5187 71.1265 58.7292 71.1319 58.9335L71.1472 59.0039C71.1837 59.2048 71.2103 59.4059 71.2538 59.6039L71.2762 59.6728C71.3338 59.8678 71.3885 60.0599 71.4574 60.249C71.4689 60.2795 71.4824 60.3093 71.4977 60.3381L71.513 60.3669L71.8031 60.9009L71.7475 60.7831L71.9581 61.346L71.9365 61.2778L72.0973 61.8592C72.104 61.8824 72.1129 61.9077 72.1204 61.9302C72.2635 62.2989 72.399 62.6698 72.5266 63.0429C72.5434 63.091 72.5647 63.1373 72.5904 63.1812L72.5997 63.1902L72.9137 63.714L72.8039 63.3962L72.8817 64.0087L72.8853 64.0122C72.8934 64.0708 72.9076 64.1284 72.9277 64.184C73.0652 64.549 73.1916 64.9172 73.307 65.2886C73.3321 65.3706 73.3708 65.4476 73.4217 65.5166L73.4332 65.5277L73.8055 66.0272L73.6627 65.7234L73.8023 66.3122C73.8193 66.3811 73.8446 66.4476 73.8777 66.5104L74.16 67.0439L74.1234 66.9667C74.2729 67.322 74.4101 67.6825 74.5348 68.0482L74.5124 67.975L74.6618 68.5538C74.6792 68.6195 74.7042 68.6829 74.7363 68.7428L75.0214 69.272L74.922 69.0283C74.989 69.4382 75.075 69.8462 75.1802 70.2523L75.1825 70.2628C75.2034 70.3442 75.2356 70.4222 75.2781 70.4946L75.5935 71.017L75.4993 70.7866L75.6487 71.3696L75.6538 71.3745C75.6637 71.4126 75.6763 71.45 75.6917 71.4863C75.8454 71.8392 75.9874 72.1961 76.1178 72.5569L77.0872 71.4261L76.4983 71.3028L76.7009 71.3723C76.3292 71.1813 75.9499 71.0039 75.5631 70.84L75.5559 70.833C75.5221 70.8185 75.4875 70.8063 75.452 70.7965L74.871 70.6335C74.8273 70.6214 74.7827 70.6127 74.7377 70.6073L74.1277 70.5374L74.3791 70.6054C74.0174 70.4491 73.6604 70.2826 73.3083 70.1059C73.2645 70.0848 73.2191 70.0673 73.1724 70.0537L73.1568 70.0497L72.5737 69.8916L72.7252 69.9478L72.1807 69.6838C72.1126 69.6529 72.041 69.6303 71.9675 69.6165L71.3717 69.5032L71.5849 69.5704L71.0404 69.3049C70.9794 69.2758 70.9152 69.2539 70.8491 69.2395L70.2602 69.1119L70.3319 69.1312L69.7598 68.956L69.9315 69.0316L69.4012 68.7299C69.3456 68.7019 69.2872 68.6799 69.2269 68.6641L69.2148 68.6594C68.8129 68.5306 68.404 68.4251 67.99 68.3434L68.1684 68.4049L67.6255 68.1492L67.6183 68.1423C67.5504 68.1108 67.4788 68.0882 67.4051 68.075L66.8088 67.9723L66.9373 68.0049C66.548 67.8655 66.1541 67.7454 65.7556 67.6444L65.9357 67.7185L65.4055 67.4267C65.332 67.386 65.2529 67.3563 65.1708 67.3385C64.7701 67.2531 64.368 67.176 63.9643 67.1072L64.2475 67.2171L63.724 66.8954L63.704 66.8844C63.6419 66.8473 63.5744 66.82 63.504 66.8035C63.1254 66.7154 62.7551 66.6097 62.393 66.4864L62.9566 67.2727L62.9629 66.6596L62.9155 66.9199L63.1237 66.331L63.1292 66.3253C63.1718 66.2013 63.183 66.0687 63.1618 65.9394L63.0641 65.3216L63.0665 65.552C63.1212 65.1477 63.17 64.7431 63.2129 64.3384L63.1699 64.5194L63.3803 63.9355L63.3865 63.9291C63.4317 63.8035 63.4436 63.6683 63.4212 63.5368L63.3186 62.924L63.3061 63.2417L63.4446 62.6313L62.6786 63.2243L63.8452 63.2209C64.2321 63.2448 64.6315 63.2524 65.0434 63.2438L65.0724 63.2441L65.1006 63.2422L65.6825 63.1945L65.4942 63.1849L66.0771 63.2829L66.0821 63.2877C66.1634 63.3007 66.2462 63.3005 66.3274 63.2873L66.8824 63.1927L66.8915 63.1918C67.0466 63.1655 67.1895 63.0912 67.3001 62.9794C67.4108 62.8677 67.4837 62.7241 67.5086 62.5688L67.6058 61.9839L67.6071 61.9753C67.6163 61.9171 67.6184 61.8579 67.6134 61.7992L67.5619 61.1926L67.561 61.1806C67.5577 61.1505 67.5527 61.1206 67.5461 61.0911L67.3977 60.4925L67.3854 60.866C67.4416 60.6643 67.4984 60.4619 67.5431 60.2561L67.5629 60.1695C67.5708 60.1328 67.574 60.0952 67.5724 60.0576C67.5649 59.8583 67.5539 59.6584 67.5358 59.4572L67.5216 59.328L67.5155 59.2984C67.4557 59.1014 67.384 58.9067 67.3116 58.7142L67.3137 58.9779C67.3231 58.7713 67.3438 58.5673 67.3404 58.358C67.3363 58.2428 67.2939 58.1322 67.22 58.0437C67.1462 57.9551 67.045 57.8937 66.9323 57.8689C66.8197 57.8442 66.702 57.8576 66.5979 57.9071C66.4937 57.9565 66.4089 58.0392 66.3569 58.1421Z" fill="black" stroke="black" stroke-width="2"/>
<path d="M75.1129 67.5229L74.7521 67.9962L74.1967 68.3256L73.8855 68.8901L73.3559 69.2459L73.0154 69.7875L72.5721 70.2325L71.977 70.6432L72.6235 70.7819L73.1752 70.9207L73.6742 71.2061L74.247 71.2929L74.7508 71.569L75.304 71.7079L75.8444 71.8886L76.3761 72.0985L76.9192 72.2707L76.7308 71.7334L76.6036 71.1747L76.246 70.7074L76.1842 70.1257L75.9881 69.5949L75.8005 69.0584L75.4448 68.5833L75.3787 67.9974L75.1129 67.5229Z" fill="black" stroke="black" stroke-width="2"/>
<path d="M77.5136 72.8454C77.6204 72.735 77.6942 72.597 77.7266 72.4469C77.759 72.2968 77.7488 72.1406 77.6971 71.996L77.5222 71.5039L77.405 70.9925C77.3781 70.8779 77.327 70.7705 77.2549 70.6774L77.0367 70.3883L76.9991 70.036C76.9919 69.9676 76.9761 69.9004 76.9521 69.836L76.5765 68.7864C76.5486 68.7066 76.5085 68.6317 76.4576 68.5642L76.2365 68.268L76.1959 67.9045C76.1839 67.796 76.1502 67.691 76.0968 67.5957L75.8332 67.1235C75.7668 67.0039 75.6717 66.9028 75.5565 66.8293C75.4412 66.7558 75.3094 66.7123 75.173 66.7026C75.0367 66.6928 74.9 66.7173 74.7755 66.7737C74.651 66.8301 74.5425 66.9167 74.4599 67.0256L74.1961 67.37L73.7793 67.615C73.6516 67.6903 73.5466 67.7988 73.4755 67.929L73.2612 68.3185L72.8968 68.5627C72.8018 68.6279 72.721 68.7114 72.6589 68.8084L72.3674 69.2721L72.0425 69.5976L71.509 69.9662C71.3771 70.0577 71.2747 70.1857 71.2146 70.3346C71.1544 70.4834 71.1391 70.6466 71.1704 70.804C71.2017 70.9615 71.2784 71.1063 71.3909 71.2208C71.5035 71.3353 71.647 71.4144 71.8039 71.4484L72.8635 71.6907L73.2639 71.9196C73.3531 71.9713 73.4513 72.0055 73.5533 72.0203L73.9764 72.082L74.3496 72.2873C74.4115 72.3202 74.4772 72.3455 74.5452 72.3626L75.5776 72.6661L76.6678 73.055C76.8139 73.1025 76.9704 73.1081 77.1195 73.0712C77.2687 73.0343 77.4045 72.9563 77.5115 72.8461L77.5136 72.8454ZM75.3738 70.3121L75.4248 70.7913C75.4285 70.8247 75.434 70.8579 75.4412 70.8908L75.05 70.7904L74.6384 70.5658C74.552 70.5194 74.4582 70.4883 74.3611 70.4742L73.9472 70.413L73.6859 70.2631L73.7143 70.2266L73.9589 69.8302L74.3465 69.5736C74.4557 69.5004 74.546 69.4022 74.6098 69.2872L74.7505 69.0268C74.7649 69.0407 74.773 69.0611 74.7853 69.0772L75.0649 69.4495L75.3738 70.3121Z" fill="black" stroke="black" stroke-width="2"/>
<path d="M14.1353 2.96986C14.1096 3.09972 14.0942 3.23143 14.0894 3.36374L14.0484 3.1042C14.0044 3.30785 13.9716 3.51273 13.9389 3.7176C13.932 3.76006 13.9329 3.80342 13.9417 3.84554L13.9654 3.95334C14.0495 4.34369 14.1392 4.72971 14.2311 5.1164L14.2153 4.84514L14.1385 5.46649C14.1234 5.57791 14.1347 5.69132 14.1714 5.79758L14.1766 5.81093L14.3784 6.3931L14.3511 6.32213L14.4901 6.91594L14.4765 6.64252L14.3955 7.27102C14.378 7.40592 14.3978 7.54306 14.4529 7.66746L14.458 7.68081L14.7156 8.26137L14.6503 7.89758L14.6093 8.50209L14.725 8.13819L14.4016 8.64901L14.5096 8.50584L14.0733 8.93647L14.2458 8.80568L13.6873 9.11386C13.5745 9.17549 13.4792 9.2646 13.4101 9.37292L13.3996 9.38369L13.0653 9.91166L13.1282 9.82367L12.7335 10.2904L12.8805 10.1544L12.3723 10.514C12.3008 10.5659 12.2389 10.6299 12.1894 10.703L12.1789 10.7138L11.8231 11.2251L12.0088 11.0333L11.5093 11.4056C11.4625 11.4398 11.4197 11.4791 11.3818 11.5229L11.3707 11.5344L10.9669 12.009L11.6367 11.7167C11.2702 11.7024 10.893 11.6694 10.5051 11.6178L9.33928 11.537L9.44132 11.5509L8.86952 11.4344C8.75955 11.4123 8.64624 11.413 8.53652 11.4362L8.5231 11.4372L7.93199 11.5677L8.37983 11.5837L7.81045 11.3985C7.74817 11.3779 7.68361 11.365 7.6182 11.36L7.60759 11.3594C7.22394 11.3341 6.84115 11.3035 6.45922 11.2678C6.38087 11.2596 6.30172 11.2637 6.22467 11.2801L6.20423 11.284L5.61228 11.4067L6.0467 11.4237L5.50879 11.2606L6.11338 11.9586C6.07452 11.6997 6.02867 11.4452 6.01208 11.1648C5.9955 10.8843 5.94216 10.6045 5.90363 10.3223L5.89746 10.5946L5.9964 10.0266L5.99833 10.0146C6.01653 9.90589 6.01304 9.79468 5.98806 9.68736C5.90108 9.32486 5.8228 8.96058 5.75321 8.5945L5.76616 8.86864L5.83606 8.2976L5.83857 8.27776C5.84591 8.215 5.84511 8.15156 5.8362 8.08901C5.78208 7.7315 5.74602 7.37149 5.72816 7.01035C5.72604 6.96824 5.71992 6.92644 5.70986 6.8855L5.70609 6.87071L5.5732 6.30792L5.59407 6.54798L5.61449 5.97775L5.43412 6.45159C5.66713 6.1381 5.91818 5.83844 6.18599 5.5541L6.04309 5.68017L6.55273 5.32188C6.60104 5.28797 6.64568 5.24909 6.68589 5.20587L7.1077 4.75143L7.15429 4.7033L7.52884 4.21286L7.39532 4.35079L7.87474 3.96047C7.9302 3.91573 7.97994 3.86434 8.02286 3.80745L8.38795 3.3009L8.23845 3.45536L8.71925 3.06359L8.72273 3.06C8.75893 3.02837 8.79243 2.99377 8.82286 2.95655L9.23158 2.4797L8.41711 2.74608C8.81265 2.83581 9.20994 2.9175 9.60899 2.99114L9.62034 2.99379C9.70461 3.0109 9.79097 3.01522 9.87651 3.00659L10.4763 2.9332L10.3407 2.94106L10.9273 2.96476L10.8132 2.95176C11.1904 3.01492 11.5636 3.09653 11.9349 3.18595L11.9605 3.1926C12.0232 3.20763 12.0879 3.21302 12.1523 3.20857C12.3508 3.19333 12.5501 3.18867 12.7491 3.16705L12.6374 3.16321C13.0484 3.19 13.4611 3.17499 13.8691 3.11843L13.7741 3.10583C13.8972 3.06794 14.0178 3.02253 14.1353 2.96986ZM14.7903 2.19698C14.5548 2.04251 14.3007 1.91858 14.0341 1.82816L13.9391 1.81556C13.5579 1.72489 13.1847 1.64187 12.8045 1.57169L12.692 1.56716C12.4925 1.55767 12.2939 1.56585 12.0952 1.56413L12.3119 1.58607C11.9164 1.48149 11.5198 1.39814 11.1148 1.32482L11.1105 1.32065C11.0739 1.31521 11.037 1.31203 11.0001 1.31113L10.4135 1.28461C10.3717 1.28281 10.3299 1.2842 10.2884 1.28877L10.2792 1.28962L9.67862 1.35949L9.93474 1.36947C9.54965 1.29866 9.16789 1.21578 8.78604 1.12724C8.64111 1.09265 8.48949 1.09831 8.34754 1.14362C8.2056 1.18892 8.07872 1.27213 7.98062 1.38428L7.97228 1.3929L7.56143 1.86908L7.66435 1.76276L7.18716 2.15941C7.13306 2.20217 7.08489 2.25194 7.04391 2.3074L7.03765 2.31386L6.6703 2.81267L6.82051 2.6575L6.33964 3.04502C6.29175 3.0837 6.24878 3.12809 6.21168 3.1772L6.20612 3.18295L5.82791 3.66567L5.87728 3.61466L5.46101 4.06194L5.59409 3.94028L5.08228 4.29507C5.03753 4.32598 4.99595 4.36124 4.95813 4.40033L4.93727 4.42188C4.64181 4.73324 4.36433 5.06117 4.10616 5.40409L4.09643 5.41415C3.99453 5.54858 3.9349 5.71026 3.92509 5.87865L3.89134 6.45547C3.88562 6.53502 3.89169 6.61498 3.90934 6.69275L3.91437 6.69762L4.04374 7.26118L4.02382 7.12362C4.04017 7.51979 4.07581 7.91423 4.13075 8.30694L4.13087 8.09694L4.05885 8.66872C4.04814 8.75386 4.0505 8.84014 4.06584 8.92457L4.06892 8.94008C4.1397 9.32122 4.21894 9.70081 4.30663 10.0788L4.29901 9.74028L4.19651 10.3076C4.1814 10.3921 4.17899 10.4784 4.18936 10.5637L4.19175 10.5799C4.22574 10.8438 4.27227 11.0962 4.29031 11.3794C4.30835 11.6627 4.35462 11.9426 4.39746 12.229C4.42165 12.3907 4.49134 12.5422 4.59839 12.6658C4.70545 12.7894 4.84545 12.8799 5.00205 12.927L5.54065 13.0893L5.54496 13.0935C5.68402 13.1352 5.83155 13.1398 5.97296 13.107L6.56684 12.9722L6.31256 12.9891C6.70528 13.0213 7.09812 13.0468 7.49109 13.0654L7.2882 13.0248L7.86027 13.2015L7.86817 13.2091C8.00886 13.2525 8.15853 13.2576 8.30185 13.224L8.89139 13.0836L8.54219 13.0893L9.11596 13.1966L9.13441 13.2006C9.16225 13.206 9.19041 13.2095 9.21872 13.2112L10.368 13.2731C10.7442 13.3158 11.1413 13.3468 11.5474 13.3586L11.5743 13.3596C11.6968 13.3624 11.8184 13.3374 11.93 13.2866C12.0416 13.2359 12.1402 13.1605 12.2186 13.0663L12.6152 12.5847L12.4787 12.7142L12.9796 12.3404L12.988 12.3318C13.0561 12.2812 13.1155 12.2198 13.1639 12.1501L13.5126 11.6332L13.3207 11.8315L13.8224 11.4641L13.8307 11.4555C13.8816 11.4178 13.9276 11.3741 13.9679 11.3253L14.3562 10.8523L14.368 10.8401C14.3894 10.814 14.4091 10.7866 14.4267 10.7578L14.754 10.2257L14.4692 10.4969L15.0226 10.181L15.031 10.1724C15.0898 10.139 15.1439 10.0976 15.1916 10.0496L15.6179 9.60924L15.6255 9.60133C15.6644 9.56129 15.6988 9.5171 15.728 9.46956L16.0442 8.95321L16.0518 8.9453C16.1168 8.83786 16.1544 8.71609 16.1613 8.59069L16.1925 7.98352L16.193 7.9729C16.1985 7.84975 16.1739 7.72712 16.1214 7.61558L15.8597 7.04498L15.9222 7.45477L15.9926 6.82716L15.9939 6.81583C16.0031 6.72637 15.9964 6.63598 15.974 6.54887L15.8222 5.95669L15.8199 5.94612L15.8013 5.88491L15.5903 5.30642L15.6292 5.65296L15.7003 5.02604C15.7104 4.93538 15.7051 4.84367 15.6846 4.75478C15.5891 4.34987 15.4661 3.95192 15.3166 3.56368L15.3438 3.7987C15.3341 3.59168 15.3258 3.38606 15.3026 3.17714L15.2831 2.98301C15.2809 2.9584 15.2738 2.93448 15.2622 2.91264C15.1314 2.65764 14.9731 2.41767 14.7903 2.19698Z" fill="black" stroke="black" stroke-width="2"/>
<path d="M10.868 8.33444L11.0843 7.76587L11.2713 7.21758L11.1532 6.65233L10.9228 6.09385L10.3524 5.89804L9.7813 5.70012L9.2193 5.93132L8.78213 6.31536L8.30636 6.71772L8.2754 7.33631L8.41954 7.89337L8.60391 8.48937L9.20144 8.65998L9.77261 8.86215L10.3133 8.58108L10.868 8.33444Z" fill="black" stroke="black" stroke-width="2"/>
</g>
<defs>
<clipPath id="clip0_434_9152">
<rect width="78" height="75" fill="white" transform="matrix(-1 0 0 1 78.8828 0)"/>
</clipPath>
</defs>
</svg>
